<?xml version="1.0" encoding="utf-8"?>
<!-- Generator: Adobe Illustrator 16.0.3, SVG Export Plug-In . SVG Version: 6.00 Build 0)  -->
<!DOCTYPE svg PUBLIC "-//W3C//DTD SVG 1.1//EN" "http://www.w3.org/Graphics/SVG/1.1/DTD/svg11.dtd">
<svg version="1.1" id="Layer_1" xmlns="http://www.w3.org/2000/svg" xmlns:xlink="http://www.w3.org/1999/xlink" x="0px" y="0px"
	 width="1000px" height="1000px" viewBox="0 0 1000 1000" enable-background="new 0 0 1000 1000" xml:space="preserve">
<path fill="#0E70A0" d="M291.667,518C254.333,438,260,362.667,309,291.667C343.333,242.333,395.667,212,466.667,201
	c5.333-1.333,11.333-2.333,18-2.667h21c97,3,168.333,46,213.333,129.333C740.333,367,745.667,410.333,735,458
	c-8.667,37.667-22.667,73-42.667,105.667c-43,67-87.666,121.333-133.333,162.666c-2.333,2.334-5.667,5.334-10,8.667
	c-15.333,11.667-29.667,17.667-42.667,18s-27.666-4.667-43.666-15C453,732.333,445,725.667,438,718.333
	C372.667,651.667,323.667,585,291.667,518z M295.333,444.333C296,448,297,452.667,298.333,459c1.333,6.333,2.333,10.667,3,13.333
	C310.667,514.333,330,546.667,359,570c29.333,23.333,65.333,37,108.667,41c9.666,1,15.333,0.667,17-1
	c1.666-1.667,2.666-7.667,3-17.333c-0.334-2.667-1-7-1.667-13s-1.333-10.334-2-13C475.667,522,454.667,489.333,420.667,469
	c-6-3.667-13-7.333-20.667-11.333s-14.667-6.667-20.333-9c-5.667-2.334-13.334-5.334-23-9c-9.667-3.667-16.667-6.334-21-8.334
	c-5.334-2-14-3.333-26.667-3.666C298.333,427.667,293.667,433.333,295.333,444.333z M522,591c-0.667,10.333,0,16.333,2,18.667
	c2.333,2.333,8.333,2.666,18.333,1.333c12.667-1.333,26-4,40-7.333c35.667-9,64.667-28,87.334-57C681,533,689.667,518,695.333,502
	C701,486,706.667,467,711,444.667c1.667-7.667,1.333-12.667-1-15.334c-2.333-2.666-7.333-3.666-14.667-2.666
	C675.667,430,658,434.333,642.333,440C604,454.333,575,473.667,555,498C535,522.667,524,553.333,522,591z"/>
</svg>
