<?xml version="1.0" encoding="utf-8"?>
<!-- Generator: Adobe Illustrator 16.0.3, SVG Export Plug-In . SVG Version: 6.00 Build 0)  -->
<!DOCTYPE svg PUBLIC "-//W3C//DTD SVG 1.1//EN" "http://www.w3.org/Graphics/SVG/1.1/DTD/svg11.dtd">
<svg version="1.1" id="Layer_1" xmlns="http://www.w3.org/2000/svg" xmlns:xlink="http://www.w3.org/1999/xlink" x="0px" y="0px"
	 width="1000px" height="1000px" viewBox="0 0 1000 1000" enable-background="new 0 0 1000 1000" xml:space="preserve">
<path fill="#0E70A0" d="M256.333,440c0-33,6.333-64.667,19.333-95S306,289,328,267.333c22-21.667,48-39,78-52
	S467.667,196,500.667,196s64.666,6.333,95,19.333c30,13,56,30.333,77.666,52C695,289,712.333,315,725.333,345
	s19.334,61.667,19.334,95c0,54-16,102-48,144.667c-32,42.333-73.334,71.333-123.667,87v109.666H431.667V673
	c-51.334-15-93.667-44-126.333-87C272.667,543,256.333,494.333,256.333,440z M310,440c0,51.667,18.667,96,56.333,133
	c37,37.333,81.667,56,134,56c34.334,0,66.334-8.333,95.334-25.333c29.333-17,52.333-40,69.666-69c17-29,25.667-60.667,25.667-95
	c0-25.667-5-50-15-73.667s-23.667-43.667-40.667-60.667s-37.333-30.667-61-40.667c-23.666-10-48-15-73.666-15
	c-25.667,0-50,5-73.667,15s-43.667,23.667-60.667,40.667S335.667,342.667,325.667,366C315,390,310,414.333,310,440z M329.333,452
	v-24h72.334v24H329.333z M365.667,334L383,316.667l50.667,50.667L416.333,385L365.667,334z M450,498.333c0-14,5-26,14.667-36.333
	c9.666-10.333,21.666-15.667,35.333-16l91-149.667L613,308l-67.333,161c6,8.333,8.666,18,8.666,29.333c0,14.667-5,27-15.333,37
	s-22.667,15-37.333,15c-14.334,0-26.667-5-36.667-15S450,513,450,498.333z M493.667,342.667v-72h23V343h-23V342.667z
	 M591.667,451.667V427H664v24.667H591.667z"/>
</svg>
