<?xml version="1.0" encoding="utf-8"?>
<!-- Generator: Adobe Illustrator 16.0.3, SVG Export Plug-In . SVG Version: 6.00 Build 0)  -->
<!DOCTYPE svg PUBLIC "-//W3C//DTD SVG 1.1//EN" "http://www.w3.org/Graphics/SVG/1.1/DTD/svg11.dtd">
<svg version="1.1" id="Layer_1" xmlns="http://www.w3.org/2000/svg" xmlns:xlink="http://www.w3.org/1999/xlink" x="0px" y="0px"
	 width="1000px" height="1000px" viewBox="0 0 1000 1000" enable-background="new 0 0 1000 1000" xml:space="preserve">
<path fill="#0E70A0" d="M153.667,562.667c0-38.334,12-72.334,36-102.334S244,411,281,402.667c10.333-45.667,34-83,70.333-112.333
	c36.334-29.333,78.334-44,125.334-44c46,0,87,14.333,123,42.667s59.333,65,70,109.667h11c30,0,57.666,7.333,83,21.666
	C789,434.667,809.333,454.667,824,480s22.333,52.667,22.333,82.667c0,29.333-7,56.666-21,81.666s-33.333,45-57.666,60
	c-24.334,15-51.334,23-80.334,24H313.667c-44.667-2-82.333-19-113.333-51C169.333,645.667,153.667,607.333,153.667,562.667z
	 M210.667,562.667c0,29,10,54,30,75.333s44.333,32.667,73,34.333h373c28.666-1.333,53-13,73-34.333
	C780,616.667,790,591.333,790,562.667c0-29.334-11-54.334-32.667-75.667C735.667,465.667,710,455,680,455h-53.333
	C623,455,621,453,621,449l-2.333-19C615,394,599.333,363.667,572,339.333c-27.333-24.333-59-36.667-95.333-36.667
	c-36.334,0-68.334,12.333-95,36.667C354.667,363.667,339.333,394,336,430l-2.667,19c0,4-2.333,6-6.666,6H309
	c-28,3.333-51.333,15.333-70,35.667C220.333,511,210.667,535,210.667,562.667z"/>
</svg>
