<?xml version="1.0" encoding="utf-8"?>
<!-- Generator: Adobe Illustrator 16.0.3, SVG Export Plug-In . SVG Version: 6.00 Build 0)  -->
<!DOCTYPE svg PUBLIC "-//W3C//DTD SVG 1.1//EN" "http://www.w3.org/Graphics/SVG/1.1/DTD/svg11.dtd">
<svg version="1.1" id="Layer_1" xmlns="http://www.w3.org/2000/svg" xmlns:xlink="http://www.w3.org/1999/xlink" x="0px" y="0px"
	 width="1000px" height="1000px" viewBox="0 0 1000 1000" enable-background="new 0 0 1000 1000" xml:space="preserve">
<path fill="#0E70A0" d="M120.667,700.333c0-8.333,2.667-15.333,8.333-21c5.667-5.333,12.333-8,20-8h180.667
	c24.666,0,45.666,8.667,63,26.334c17.333,17.666,26,38.666,26,63.333s-8.667,46-26,63.333c-17.334,17.334-38.334,26-63,26
	c-24.667,0-46-8.666-63.333-26.333c-5.333-5.333-7.667-12-7.667-20s2.667-15,7.667-20c5-5.333,11.667-8,20-8
	c7.667,0,14.333,2.667,20.333,8c6.666,6.333,14.333,9.667,23,9.667c8.666,0,16.333-3.334,22.666-9.667
	c6.334-6.333,9.667-14,9.667-23.333c0-8.667-3.333-16.334-9.667-22.667c-6.333-6.333-14-9.667-22.666-9.667H149
	c-7.667,0-14.333-2.666-20-8.333S120.667,708.333,120.667,700.333z M120.667,599c0-8,2.667-15,8.333-20.667
	c5.667-5.333,12.333-8,20-8h351.667c8.666,0,16.333-3.333,22.666-9.666c6.334-6.334,9.667-14.334,9.667-23
	c0-8.667-3.333-16.667-9.667-23c-6.333-6.334-14-9.667-22.666-9.667c-9.334,0-16.667,3-22.667,9.333c-6,5-13,7.667-21.333,7.667
	c-8,0-14.667-2.667-20-7.667c-5-5-7.667-11.666-7.667-20c0-8.333,2.333-15,7.667-20.333c17-17,38.333-25.333,64-25.333
	c24.666,0,46,8.666,63.333,26C581.333,492,590,513,590,537.333c0,24.334-8.667,45.667-26,63c-17.333,17.334-38.333,26-63.333,26H149
	c-8,0-14.667-2.666-20-8C123.333,613.333,120.667,606.667,120.667,599z M192.333,520.333c0,2.667,1.667,4,5.333,4h48
	c2.667,0,5-1.666,7.333-5c7.333-18,19.333-33,35-45c16-12,33.667-18.666,53-20l17.667-2.666c4.333,0,6.666-2,6.666-5.667
	l2.334-17.333c3.666-36,18.666-66.333,45.666-90.667s58.667-36.667,95.334-36.667c37,0,69,12,96,36.333s42.333,54.667,46.333,91
	l2.333,19.666c0,3.667,2,5.667,5.667,5.667h54c30.333,0,56,10.667,77.667,32C812.333,507.333,823,532.667,823,562.667
	c0,29.666-10.667,55.333-32.333,76.666c-21.667,21.334-47.334,32-77.667,32H482.667c-4,0-6.334,2-6.334,5.667v46.333
	c0,3.667,2,5.667,6.334,5.667H713c30.333,0,58-7.333,83.667-22.333c25.666-14.667,45.666-35,60.666-60.334
	c15-25.666,22.334-53.333,22.334-83.333c0-30.333-7.334-58-22.334-83.333c-15-25.334-35-45.667-60.666-60.334
	C771,404.667,743.333,397,713,397h-10.333c-10.334-44.333-33.667-80.667-70-109c-36-28.333-77.667-42.333-124.334-42.333
	c-47,0-88.666,14.667-125,44C347,319,324,356.333,314.333,402c-28.667,6.667-54,20.333-76,41s-37.333,45.333-46,73.667V518
	C192.333,518.667,192.333,519.333,192.333,520.333z"/>
</svg>
