<?xml version="1.0" encoding="utf-8"?>
<!-- Generator: Adobe Illustrator 16.0.3, SVG Export Plug-In . SVG Version: 6.00 Build 0)  -->
<!DOCTYPE svg PUBLIC "-//W3C//DTD SVG 1.1//EN" "http://www.w3.org/Graphics/SVG/1.1/DTD/svg11.dtd">
<svg version="1.1" id="Layer_1" xmlns="http://www.w3.org/2000/svg" xmlns:xlink="http://www.w3.org/1999/xlink" x="0px" y="0px"
	 width="1000px" height="1000px" viewBox="0 0 1000 1000" enable-background="new 0 0 1000 1000" xml:space="preserve">
<path fill="#0E70A0" d="M154.333,563.667c0,22,4,42.666,12.667,62.666c8.333,20,19.667,37,34,51.667
	c14.333,14.333,31.333,26.333,51,35c19.667,9,40.333,14,62.333,15c3.667,0,5.667-2,5.667-5.667V678c0-4-2-6.333-5.667-6.333
	c-29-2-53.333-13.667-73-34.334c-19.667-20.667-29.667-45.333-29.667-73.667c0-28,9.333-52.333,28.333-73
	C259,470,282,458.333,310,456l17.333-2.334c4.334,0,6.667-2,6.667-5.666l2.333-17.333c2.334-23.667,10-45.334,23-65
	c13-19.333,30-34.667,50.667-45.667s43-16.333,67-16.333c36.333,0,68.333,12,95.333,36c27.334,24,42.667,54,46.334,90l2,19
	c0,4,2,6,6.333,6h53.667c30,0,55.666,10.666,77.333,32.333c21.333,21.333,32.333,47,32.333,76.666c0,28.334-10,53-29.666,73.667
	c-19.667,20.667-44,32.333-73,34.333c-4.334,0-6.667,2-6.667,6.334v44.333c0,3.667,2.333,5.667,6.667,5.667
	c44.666-2,82.333-19,113-50.334c30.666-31.333,46-69.666,46-114c0-29.666-7.334-57.333-22.334-82.666s-35-45.333-60.333-60
	s-53-22.333-82.667-22.333h-10.666c-11-44.334-34.667-80.667-70.334-109.334c-37-28.667-78-42.667-123.666-42.667
	c-47,0-88.667,14.667-125,44.333c-36.334,29.667-60,67-70.333,112.667c-37,8.666-67.333,28-91,58
	C166.333,491.333,154.333,525.333,154.333,563.667z M362,606c0,24.667,6.333,47.667,18.667,69C393,696.333,410,713,431,725.333
	C452,738,475,744,499.667,744c38.333,0,71-13.667,98.333-40.667C625.333,676,639,643.667,639,606c0-7.667-2.667-14.333-8.333-20
	c-5.667-5.667-12.334-8.333-20.334-8.333S595.667,580.333,590,586s-8.667,12.333-8.667,20c0,22.333-8,41.333-24,57.667
	c-16,16-35,24-57.666,24c-22,0-41-8-57-24s-24-35.334-24-57.667c0-20,6-37.667,17.666-53.333C448.333,537,462.667,528.333,480,527
	l-13.667,13c-5,5-7.666,11.333-7.666,19c0,8.333,2.333,15.667,7.666,22c4.667,5,10.334,7.667,17.667,7.667
	c7.333,0.333,15-2.334,23.333-7.667L568,518.667c5.667-5.667,8.333-12,8.333-19.334c0-8.333-2.666-15-8.333-20.333l-60.667-61
	c-6.333-6-13-8.667-20.666-8.667c-7.667,0-14.334,2.667-19.667,8.334c-5.333,5.666-8,12.333-8,20.333s2.333,14.333,7.667,19.333
	l11.666,12c-33.333,5.667-61,21-83,46.667C373,541.333,362,571.333,362,606z"/>
</svg>
