<?xml version="1.0" encoding="utf-8"?>
<!-- Generator: Adobe Illustrator 16.0.3, SVG Export Plug-In . SVG Version: 6.00 Build 0)  -->
<!DOCTYPE svg PUBLIC "-//W3C//DTD SVG 1.1//EN" "http://www.w3.org/Graphics/SVG/1.1/DTD/svg11.dtd">
<svg version="1.1" id="Layer_1" xmlns="http://www.w3.org/2000/svg" xmlns:xlink="http://www.w3.org/1999/xlink" x="0px" y="0px"
	 width="1000px" height="1000px" viewBox="0 0 1000 1000" enable-background="new 0 0 1000 1000" xml:space="preserve">
<path fill="#0E70A0" d="M129.667,586.667c0-33,10.333-62.667,31-88.334c20.667-25.666,47-42.333,79.333-49.666
	c8.667-39,28.333-71.333,59.333-96c31-25,66.667-37.333,107.333-37.333c39.333,0,74.666,12,105.333,36.333C543,376,563,407,572,445
	h9c39.333,0,72.667,13.667,100.333,41.333C709,514,723,547.333,723,586.333c0,39.334-14,72.667-41.667,100.334
	c-27.666,27.666-61,41.666-100.333,41.666H272c-19.333,0-37.667-3.666-55-11.333s-33-17-45.667-29.667
	c-12.667-12.666-22.667-28-30.333-45.333S129.667,605.667,129.667,586.667z M178,586.667C178,612,187.333,634,205.333,652
	s40.333,27.333,66.333,27.333H581c25.667,0,48-9,66.333-27.333C665.667,633.667,675,612,675,586.667
	c0-25.334-9-47.334-27.667-65.334C629,503.333,607,494,581,494h-46.333c-3.334,0-5-1.667-5-5l-2.334-16.333
	C524,441.333,510.667,415,487.667,394.333s-50.334-31-81.667-31s-58.667,10.333-82,31.333c-23.333,20.666-36.333,47-39.333,78
	l-2.333,14c0,3.333-1.667,5-5.333,5L262,494c-24,2-44,12-60.333,29.667C186.333,541.333,178,562.333,178,586.667z M473,296
	c-3.333,3-2.667,5.333,2.333,7c14.334,6.333,26.334,12.333,36,18.333c3.667,1,6.334,0.667,7.334-1
	c20.333-19,43.666-28.667,70.666-28.667s50,9,70,27c19.667,18,30.667,40.333,33,66.667l3,21.333h47.334
	c21.666,0,40.333,7.666,56,23.333C814.333,445.667,822,464,822,485.333c0,20-7,37.334-20.667,52.334
	c-13.666,15-30.666,23.333-51,25.666c-3.333,0-5,1.667-5,5.334v37.666c0,3.667,1.667,5.334,5,5.334c33.667-2,62-15.334,85-39.667
	S870,518.667,870,485.333c0-35.333-12.333-65.333-37.333-90c-25-25-55-37.333-90-37.333h-5c-8.667-33.333-27-60.667-55-82.333
	c-27.667-21.667-59-32.333-93.334-32.333C542.667,243,503.667,260.667,473,296z"/>
</svg>
