<?xml version="1.0" encoding="utf-8"?>
<!-- Generator: Adobe Illustrator 16.0.3, SVG Export Plug-In . SVG Version: 6.00 Build 0)  -->
<!DOCTYPE svg PUBLIC "-//W3C//DTD SVG 1.1//EN" "http://www.w3.org/Graphics/SVG/1.1/DTD/svg11.dtd">
<svg version="1.1" id="Layer_1" xmlns="http://www.w3.org/2000/svg" xmlns:xlink="http://www.w3.org/1999/xlink" x="0px" y="0px"
	 width="1000px" height="1000px" viewBox="0 0 1000 1000" enable-background="new 0 0 1000 1000" xml:space="preserve">
<path fill="#0E70A0" d="M153.667,562.667c0,44.666,15.667,82.666,46.667,114.666s69,49,113.333,51c3.666,0,5.666-2,5.666-5.666V678
	c0-4-2-6-5.666-6c-28.667-1.333-53-12.667-73-34s-30-46.333-30-75.333C210.667,535,220,511,239,490.333
	c19-20.666,42.333-32.333,70-35.666l17.667-1.334c4.333,0,6.666-2,6.666-5.666L336,429.333c3.333-36,18.333-66.333,45.333-90.333
	c27-24.333,58.667-36.333,95.334-36.333c36.333,0,68,12,95.333,36.333s42.667,54.333,46.667,90.333L621,448.667
	c0,3.666,2,5.666,5.667,5.666h54c29.666,0,55.333,10.667,77,32.334c21.666,21.333,32.666,46.666,32.666,76c0,29-10,54-30.333,75.333
	s-44.667,32.667-73,34c-4.333,0-6.333,2-6.333,6v44.667c0,3.666,2,5.666,6.333,5.666c29.333-0.666,56-8.666,80.333-24
	c24.334-15,43.667-35,57.667-60s21-52.333,21-81.666c0-30-7.333-57.667-22.333-82.667c-14.667-25.333-35-45-60.334-59.667
	c-25.333-14.666-53-21.666-83-21.666h-11c-11-44.667-34.333-81-70-109.667c-35.666-28.667-77-42.667-123-42.667
	c-47,0-89,14.667-125.333,43.667s-60,66.667-70.333,112.333c-36.667,8.667-67,28-91,58S153.667,524.333,153.667,562.667z
	 M386,613.333c0,8,2.667,14.667,8,20l86.333,87c4,5.334,10.667,7.667,19,7.667c9.334,0,16-2.667,20.334-7.667l86.666-87
	c5.334-5.666,8-12.666,8-20c0-7.666-2.666-14.333-8-19.333c-5.333-5-12-7.667-20-7.667S571.667,589,565.667,594l-37.334,37V498.333
	c0-8-2.666-14.333-8.333-19.666c-5.667-5.334-12.333-7.667-20.333-7.667s-14.334,2.667-19.667,7.667
	c-5.333,5.333-7.667,11.666-7.667,19.666V631l-36.666-37c-6-5.333-12.667-7.667-21-7.667c-8.334,0-15,2.667-20.334,7.667
	C388.667,599,386,605.667,386,613.333z"/>
</svg>
