<?xml version="1.0" encoding="utf-8"?>
<!-- Generator: Adobe Illustrator 16.0.3, SVG Export Plug-In . SVG Version: 6.00 Build 0)  -->
<!DOCTYPE svg PUBLIC "-//W3C//DTD SVG 1.1//EN" "http://www.w3.org/Graphics/SVG/1.1/DTD/svg11.dtd">
<svg version="1.1" id="Layer_1" xmlns="http://www.w3.org/2000/svg" xmlns:xlink="http://www.w3.org/1999/xlink" x="0px" y="0px"
	 width="1000px" height="1000px" viewBox="0 0 1000 1000" enable-background="new 0 0 1000 1000" xml:space="preserve">
<path fill="#0E70A0" d="M325,366c0-16.667,6-31,17.667-42.667c12-12,26-17.667,42.666-17.667c16.334,0,30.667,6,42.334,17.667
	c11.666,12,17.666,26,17.666,42.667s-6,31-17.666,42.667c-11.667,12-26,17.666-42.334,17.666c-16.666,0-31-6-42.666-17.666
	C331,397,325,382.667,325,366z M354.333,366c0,8.667,3,16,9,22.333c6.334,6.333,13.667,9.333,22.334,9.333
	c8.666,0,16-3,22.333-9.333c6.333-6.333,9.333-13.667,9.333-22.333s-3-16-9.333-22.333c-6.333-6.333-13.667-9.333-22.333-9.333
	c-8.667,0-16,3-22.334,9.333C357.333,349.667,354.333,357.333,354.333,366z M484,513.333c0,25.667,7,48.334,21.333,68.334
	c7.334,10.333,17.667,18.666,31,25c13,6,28,9.333,44.667,9.333c48.667,0,79.333-18.667,91.667-55.667
	c1.333-4.666,0.666-9.333-2-13.666c-2.667-4.334-6.334-6.667-11-7.667c-4.667-1.333-9.334-0.667-13.334,2.333
	c-4,2.667-6.666,6.334-7.666,11.334c0,0.333,0,0.666-0.334,1.666l-0.666,2.334c-3.667,6.333-8.667,11.333-15,15
	c-10.334,6.333-24,9.333-41,9.333c-10.334,0-19.667-1.667-27.667-5.333C540.667,570,531.333,560,525.667,546
	C522,537,520,526,520,513.667V406.333c0-5,0.333-10,1-15c1.333-12.667,6.333-24.333,15-34.667c9.667-11.667,25-17.333,46-17.333
	c17.333,0,31,3,41,9c6.667,4,11.667,9,15,15c0.333,0.667,0.333,1.667,0.667,2.667c0.333,1,0.333,1.667,0.333,2
	c1.333,4.667,4,8,7.667,10c4,2.333,8.333,2.667,13.333,1.667c4.667-1,8.333-3.667,11-7.667s3.333-8.333,2-13.333v-0.333
	l-2.667-7.667C668.667,347,665.667,342,661,336.333c-4.333-6-9.667-10.667-15-14.667c-7-5-16-9-27.333-12.667
	c-11.334-3.333-23.667-5-37-5c-17,0-31.667,3-45,9c-13,6-23.334,14-30.334,24.333C492,357,484.667,380,484.667,406.333v107H484z"/>
</svg>
