<?xml version="1.0" encoding="utf-8"?>
<!-- Generator: Adobe Illustrator 16.0.3, SVG Export Plug-In . SVG Version: 6.00 Build 0)  -->
<!DOCTYPE svg PUBLIC "-//W3C//DTD SVG 1.1//EN" "http://www.w3.org/Graphics/SVG/1.1/DTD/svg11.dtd">
<svg version="1.1" id="Layer_1" xmlns="http://www.w3.org/2000/svg" xmlns:xlink="http://www.w3.org/1999/xlink" x="0px" y="0px"
	 width="1000px" height="1000px" viewBox="0 0 1000 1000" enable-background="new 0 0 1000 1000" xml:space="preserve">
<path fill="#0E70A0" d="M154.667,562.667C154.667,607,170,645.333,201,677c31,32,68.667,49,113.333,51c3.667,0,5.667-2,5.667-5.667
	V678c0-4-2-6.333-5.667-6.333c-28.667-1.334-52.667-12.667-72.667-34c-20-21.334-30-46.334-30-75c0-27.334,9.333-51.334,28-72
	c18.667-20.334,42-32.334,70-35.667h17.666c4.334,0,6.667-2,6.667-6l2-19c3.667-36,19-66.333,46-90.667
	c27-24.333,59-36.667,95.333-36.667c36,0,67.667,12.333,95,36.667C599.667,363.667,615,394,618.667,430l2.666,19c0,4,2,6,6,6H681
	c29.667,0,55.333,10.667,77,32s32.667,46.667,32.667,75.333c0,28.667-10,53.667-30,75c-20,21.334-44.334,32.667-72.667,34
	c-4.333,0-6.667,2-6.667,6.334V722c0,3.667,2.334,5.667,6.667,5.667C717,727,743.667,719,768,704s43.667-35,57.667-60
	s21-52.333,21-81.333c0-22.334-4.334-43.667-13-63.667C825,478.667,813,461.333,798.333,446.667
	c-14.666-14.667-32.333-26.334-52.666-35c-20.334-8.667-41.667-13-64-13H671c-11-44.667-34.333-81-70.333-109.667
	C565,260.667,524,246.333,478,246.333c-47,0-89,14.667-125.333,44c-36.334,29.333-59.667,66.667-70,112
	c-37,8.667-67.333,27.667-91,57.667C166.333,490.333,154.667,524.333,154.667,562.667z M386,583.667C386,592,388.667,599,394,605
	c5,5,11.667,7.667,20.333,7.667c8,0,15-2.667,20.667-7.667l37-38v132.667c0,8,2.667,14.666,7.667,20.333
	c5.333,5.667,11.666,8.333,19.666,8.333c7.667,0,14.334-2.666,20-8.333c5.667-5.667,8.334-12.333,8.334-20.333V568.333l37.333,37
	c13.333,10.334,27,10.334,40.667,0c5.333-5,8-12,8-20.666c0-8-2.667-14.667-8-20.667l-86.334-85.667c-5.333-5.333-12-8-20-8
	s-14.666,2.667-19.666,8l-86,85.667C388.667,569.333,386,575.667,386,583.667z"/>
</svg>
