<?xml version="1.0" encoding="utf-8"?>
<!-- Generator: Adobe Illustrator 16.0.3, SVG Export Plug-In . SVG Version: 6.00 Build 0)  -->
<!DOCTYPE svg PUBLIC "-//W3C//DTD SVG 1.1//EN" "http://www.w3.org/Graphics/SVG/1.1/DTD/svg11.dtd">
<svg version="1.1" id="Layer_1" xmlns="http://www.w3.org/2000/svg" xmlns:xlink="http://www.w3.org/1999/xlink" x="0px" y="0px"
	 width="1000px" height="1000px" viewBox="0 0 1000 1000" enable-background="new 0 0 1000 1000" xml:space="preserve">
<path fill="#0E70A0" d="M103.333,701.333c0-8,2.667-15,8.333-20.333c5.667-5.333,12.667-8,21-8h299c8,0,14.333,2.667,19.666,8
	c5.334,5.333,7.667,12,7.667,20.333c0,8-2.667,14.667-8,20c-5.333,5.334-11.667,8-19.667,8H132.667c-8.333,0-15.333-2.666-21-8
	C106,716,103.333,709,103.333,701.333z M191,599.333c0-8,3-14.666,9-20c4.667-5,11.333-7.666,19.667-7.666h300
	c7.666,0,14,2.666,19.333,7.666S546.667,591,546.667,599S544,613.667,539,619.333c-5,5.667-11.667,8.334-19.333,8.334h-300
	c-7.667,0-14.333-3-20-8.667C194,613.333,191,607,191,599.333z M211.667,521.667c0,3,2,4.666,5.667,4.666H265
	c3,0,5.667-1.666,7.667-4.666c7.667-18,19-33,34.667-45c15.667-12,33-18.667,52.667-20l18-2.334c3.667,0,5.667-2,5.667-6L386,431
	c3.667-36.333,19.333-66.333,46.333-90.667C459.667,316,491.333,304,528,304c36.333,0,67.667,12,94.333,35.667
	c26.667,24,42.334,54,47,90l2.334,19.666c0,3.667,2,5.334,6,5.334H731c30.333,0,56,10.666,77.333,32c21.334,21.333,32,47,32,77.333
	c0,29.333-11,54.667-32.333,76c-21.667,21.667-47.333,32.333-77,32.333H501.333c-4,0-6,2-6,5.667v44.667c0,4,2,6,6,6H731
	c22.667,0,44-4.334,64.667-13c20.666-8.667,38-20.334,52.666-35C863,666,874.667,648.333,883.333,628c8.667-20.333,13-41.667,13-64
	c0-30-7.333-57.667-22-83c-14.666-25.333-34.666-45.333-60-60C789,406.333,761,399,731,399h-10.333c-11-44.667-34.334-81.333-70-110
	c-36-28.333-76.667-42.667-122.667-42.667c-47.333,0-89,14.667-125.333,44.333c-36.334,29.333-59.334,67-69.334,113
	c-28.667,6.333-54,20-75.667,40.333C236,464.333,221,489,212.333,518v0.667C212,520,211.667,520.667,211.667,521.667z M250,804.333
	c0-8,3-14.666,8.667-20c5-5.333,11.667-7.666,19.667-7.666H578c8,0,15,2.666,20.333,8c5.667,5.333,8.334,12,8.334,20
	S604,819.333,598.333,825c-5.666,5.667-12.333,8.333-20.333,8.333H278.333c-7.667,0-14.333-2.666-20-8.333
	C252.667,819,250,812.333,250,804.333z"/>
</svg>
