<?xml version="1.0" encoding="utf-8"?>
<!-- Generator: Adobe Illustrator 16.0.3, SVG Export Plug-In . SVG Version: 6.00 Build 0)  -->
<!DOCTYPE svg PUBLIC "-//W3C//DTD SVG 1.1//EN" "http://www.w3.org/Graphics/SVG/1.1/DTD/svg11.dtd">
<svg version="1.1" id="Layer_1" xmlns="http://www.w3.org/2000/svg" xmlns:xlink="http://www.w3.org/1999/xlink" x="0px" y="0px"
	 width="1000px" height="1000px" viewBox="0 0 1000 1000" enable-background="new 0 0 1000 1000" xml:space="preserve">
<path fill="#0E70A0" d="M394.333,559c0,6.333,2,11.667,6.334,16c4.333,4.333,9.666,6.333,15.666,6.333H512
	c6.333,0,11.667-2,15.667-6.333C532,570.667,534,565.333,534,559s-2-11.333-6.333-15.333c-4.334-4-9.667-6-15.667-6h-41.333L600,408
	c4-4.667,6-10,6-16.667c0-6-2-11-6-15.333c-4-4-9.667-6-16.667-6c-6.666,0-12,2-16,6L438.667,505v-41.667c0-6.333-2-11.666-6.334-16
	C428,443,422.667,441,416.333,441c-6.333,0-11.666,2.333-15.666,6.667c-4.334,4.333-6.334,9.666-6.334,16V559L394.333,559z"/>
</svg>
