<?xml version="1.0" encoding="utf-8"?>
<!-- Generator: Adobe Illustrator 16.0.3, SVG Export Plug-In . SVG Version: 6.00 Build 0)  -->
<!DOCTYPE svg PUBLIC "-//W3C//DTD SVG 1.1//EN" "http://www.w3.org/Graphics/SVG/1.1/DTD/svg11.dtd">
<svg version="1.1" id="Layer_1" xmlns="http://www.w3.org/2000/svg" xmlns:xlink="http://www.w3.org/1999/xlink" x="0px" y="0px"
	 width="1000px" height="1000px" viewBox="0 0 1000 1000" enable-background="new 0 0 1000 1000" xml:space="preserve">
<path fill="#0E70A0" d="M49.333,565c0,44,15.333,82,45.667,113.333c30.333,31.334,68,48.334,112.667,50.334c4,0,6-2,6-5.667v-44.333
	c0-4-2-6-6-6C179,671.333,155,660,135.333,639.333C115.667,618.667,106,593.667,106,564.667c0-28,9.333-52.667,28-73
	c18.667-20.667,42-32,70-34.334l17.667-2.666c3.667,0,5.333-1.667,5.333-4.667l2.667-18.333c4-36.333,19.667-66.667,46-90.667
	C302,317,333.333,305.333,370,305.333s68.333,12,95.333,36c27.334,24,42.667,54,46,89.667l2.334,19.333C514.333,454,517,456,521,456
	h53.333c29.667,0,55,10.667,76.334,32c21.333,21.333,32,47,32,77c0,29-9.667,53.667-29.334,74.667
	c-19.666,21-43.666,31.666-72.333,33.333c-4.333,0-6.667,2-6.667,6v44.333c0,3.667,2.334,5.667,6.667,5.667
	c44.333-1.333,81.667-18,112.333-49.667c30.334-31.666,45.667-69.666,45.667-114c0-22.666-4.333-44.666-12.667-67
	c26-32,38.667-69.333,38.667-111.667c0-23.667-4.667-46-13.667-67.667S729.667,279,714,263.333
	c-15.667-15.667-34.333-28-55.667-37.333c-21.333-9.333-44.333-14-68-14C539,212,496,231.333,461.667,270
	c-29.667-14.667-60.334-22-91.334-22c-47,0-88.667,14.667-124.667,43.667s-59,66.667-69.333,112.667C139,413,108.333,432,84.667,462
	C61,492,49.333,526.333,49.333,565z M227.667,799.333c0,5.667,1.667,11.334,5.333,17c3.667,5.667,9,9.334,15.667,11.667
	c7.667,2.333,15,2,21.333-1.333c6.667-3,11-9.334,13.333-18.667L288,787.667c1.667-7.667,0.667-14.667-3.333-21
	c-4-6.667-9.667-11-17.333-13.334C259.667,751,252.667,752,246,756s-10.667,9.667-12.667,17.333L228.667,793
	C228,795,227.667,797,227.667,799.333z M253.333,702.667c0,7.333,2.667,13.666,8,19c5.333,6,11.667,8.666,18.667,8.666
	c8,0,14.667-2.666,20-8c5.667-5.333,8.333-11.666,8.333-19.666c0-7.667-2.667-14.334-8.333-19.667s-12.333-8-20-8
	s-14,2.667-19.333,7.667C255.333,687.667,253.333,695,253.333,702.667z M273.667,627c-0.333,5.333,1,10.333,4.333,15
	c3.333,5,8.667,8.333,16,10.667c7,2,13.667,1.333,20.667-2.334c7-3.666,11.666-9.333,14-17l9-30c2.333-8,1.666-15.333-2.334-21.666
	c-4-6.334-10-10.667-18-13C310,566.333,303,567,296.333,571c-6.667,3.667-11.333,9.333-13.667,16.667l-8,30.666
	C274,623.667,273.667,626.667,273.667,627z M312,903.333c0,5.667,1.667,11,5.333,16.334c3.667,5.333,9,9,16.334,11
	c3,0.666,5.666,1,8,1c14.333,0,23.333-6.667,26.666-20.334l4.334-19.666c2-8.667,1-16-2.667-22.667s-9.667-10.667-17.333-12.333
	c-7-2.334-14-1.667-21,2.333s-11.334,9.667-13.667,17l-4.667,20C312.333,899.667,312,902.333,312,903.333z M330.667,155.333
	c0,8,2.666,14.667,8,20l22,21.333c4.666,5.333,10.666,8,18,8.667C386,206,393,203,399.333,196.667c5.334-5.333,8-12,8-19.667
	c0-8-2.666-14.667-8-20l-21-21.667c-5-5.333-11.666-8-19.333-8.667c-7.667,0-14.333,2.667-20,8.333
	C333.667,140.667,330.667,147.333,330.667,155.333z M338.333,806.667c0,7.666,2.667,14,8,19.333c5.334,5.333,12,8,19.334,8
	c8,0,14.333-2.667,19.666-7.667C390.667,821,393,814.667,393,806.667c0-7.667-2.667-14-7.667-19.334
	c-5.333-5.333-11.666-7.666-19.666-7.666s-14.334,2.666-19.667,7.666S338.333,799,338.333,806.667z M359,731
	c-0.333,5,1,10.333,4.667,15.667c3.333,5.333,8.333,8.666,15,10c7.666,2,14.666,1.333,21.333-2c6.667-3.334,11-9.667,13.667-18.667
	l8.666-30c2.334-7.333,1.667-14.333-2.333-21s-9.667-11-17.667-13.333C395,669.333,388,670.333,381,674.333
	s-11.333,10-13.667,17.667L360,722C359.333,724.667,359,727.667,359,731z M451,802.667c0,5.666,1.667,11,5,16
	s8.333,8.666,15.333,10.666c1,0,2.667,0.334,4.667,0.667s3.667,0.667,4.667,0.667c13.666,0,22-7.334,25.333-22l4.667-20
	c2.333-7,1.666-14-2.334-21s-9.666-11.334-17-13.667c-8.333-2-16-1.333-22.666,2.667c-6.667,4-11.334,9.666-13.667,17.666L452,794
	c0,0.333,0,1.667-0.333,3.667C451.333,800,451,801.333,451,802.667z M475.667,704c0,7.667,2.666,14,8,19c5,5.333,11.333,8,19.333,8
	s14.333-2.667,19.667-7.667C528,718,530.333,711.667,530.333,704c0-8-2.666-14.333-7.666-19.667
	C517.333,679,511,676.667,503,676.667s-14.333,2.666-19.667,7.666C478,689.333,475.667,696,475.667,704z M496,627
	c0,5.667,1.667,11,5.333,16c3.667,5,9,8.667,16.334,10.667c0.666,0,2,0.333,4,0.666c2,0.334,3.666,0.667,4.666,0.667
	c3.667,0,7.667-1,12.334-3c7-3.667,11.333-9.333,13.333-17.333l8-30c2-7.667,1.333-14.667-2.333-21
	c-3.667-6.334-9.334-11-16.667-13.334c-7.667-2.333-15-1.666-21.333,2c-6.667,3.667-11,9-13.334,17L497,619.667
	c0,0.666,0,1.666-0.333,3.666C496.333,624.333,496,625.667,496,627z M507.667,303c22-22,49.333-33,82.333-33s61,11.333,84,34
	s34.667,50,34.667,82.667c0,22-6,43-17.667,62.667c-32.667-32.666-71.667-49-116.667-49H564
	C554.667,363.667,535.667,331.333,507.667,303z M562.667,127.667c0,7.667,2.666,14,7.666,19.333c5,5,11.667,7.667,19.667,7.667
	S605,152,610.667,147c5.666-5,8.333-11.667,8.333-19.333v-69c0-7.667-3-14.333-8.667-20C604.667,33,597.667,30.333,590,30.333
	S575.667,33,570.667,38.667C565.333,44.333,563,51,563,58.667v69H562.667z M746.667,203c0,8.333,2.666,15,7.666,20
	c12,12,25.334,12,40.334,0l47.666-47.667c5.667-5.667,8.334-12.667,8.334-21c0-8-2.667-14.667-8.334-20
	c-5.666-5.667-12.333-8.333-20-8.333c-7.666,0-14.333,2.667-20.333,8l-47.667,49.333C749.333,188.333,746.667,194.667,746.667,203z
	 M772.667,598c0,7.667,3,14.333,9,19.667l20.333,21c6.667,5.333,13.333,8,20.333,8c6.667,0,13.334-2.667,20-8
	C848,633.333,850.667,627,850.667,619c0-7.667-2.667-14.333-8.334-20.667L820.667,578c-5-5.667-11.334-8.333-19-8.333
	c-7.667,0-14.334,2.666-20,8.333C775.667,583.667,772.667,590.333,772.667,598z M822,386.667c0,8,3,14.333,8.667,19.667
	c6,6,13,9,20.666,9H919c7.667,0,14.333-2.666,19.667-8.333c5.333-5.667,8-12.333,8-20.333s-2.667-14.667-8-20
	C933.333,361,927,358.333,919,358.333h-67.667c-8,0-14.666,2.667-20.666,8.333C824.667,372.333,822,379,822,386.667z"/>
</svg>
