<?xml version="1.0" encoding="utf-8"?>
<!-- Generator: Adobe Illustrator 16.0.3, SVG Export Plug-In . SVG Version: 6.00 Build 0)  -->
<!DOCTYPE svg PUBLIC "-//W3C//DTD SVG 1.1//EN" "http://www.w3.org/Graphics/SVG/1.1/DTD/svg11.dtd">
<svg version="1.1" id="Layer_1" xmlns="http://www.w3.org/2000/svg" xmlns:xlink="http://www.w3.org/1999/xlink" x="0px" y="0px"
	 width="1000px" height="1000px" viewBox="0 0 1000 1000" enable-background="new 0 0 1000 1000" xml:space="preserve">
<path fill="#0E70A0" d="M334.333,477V328c0-10,3.334-18.333,10-25c6.667-6.667,15-10,24.667-10h149.333c9.667,0,18,3.333,24.667,10
	s10,15,10,25c0,9.667-3.333,17.667-10,24.333C536.333,359,528,362,518.333,362h-65l202,202c6,7,8.667,15.333,8.667,26
	c0,9.667-3,17.667-8.667,24c-6.666,6.333-15.333,9.333-26.333,9.333c-10,0-18.333-3-24.333-9.333L404,412.333v65
	c0,10-3.333,18.334-10,25c-6.667,6.667-15,10-25,10c-9.667,0-18-3.333-24.667-10.333C337.667,495,334.333,486.667,334.333,477z"/>
</svg>
