<?xml version="1.0" encoding="utf-8"?>
<!-- Generator: Adobe Illustrator 16.0.3, SVG Export Plug-In . SVG Version: 6.00 Build 0)  -->
<!DOCTYPE svg PUBLIC "-//W3C//DTD SVG 1.1//EN" "http://www.w3.org/Graphics/SVG/1.1/DTD/svg11.dtd">
<svg version="1.1" id="Layer_1" xmlns="http://www.w3.org/2000/svg" xmlns:xlink="http://www.w3.org/1999/xlink" x="0px" y="0px"
	 width="1000px" height="1000px" viewBox="0 0 1000 1000" enable-background="new 0 0 1000 1000" xml:space="preserve">
<path fill="#0E70A0" d="M50.667,563.333c0,37,11,69.667,32.667,98.667C105,691,133.667,710.667,169,721.333L147.667,778
	c-1.333,4.667,0,7,4.667,7h71l-41.667,131.667h9.667l139-179.667c1.334-1.333,1.334-3,0.334-4.667C330,730.667,328.333,730,326,730
	h-72.333L336,575.667c2.333-4.667,0.667-7.334-4.667-7.334h-98c-3,0-5.667,1.667-7.667,4.667L190,669c-23.667-6-43.333-19-59-38.667
	c-15.667-19.666-23.333-42-23.333-67c0-27.666,9.333-51.666,28.333-72.333s42.333-32.333,70-35.667l17.333-2
	c4.333,0,6.667-2,6.667-6l2-17c3.667-36,19-66.333,46-90.667C305,315.333,337,303,373.333,303c36.334,0,68,12.333,95,36.667
	C495.333,364,511,394.333,515,430.333l2,19.334c0,3.666,2,5.666,6,5.666h53.667C607,455.333,632.667,466,654,487
	s32,46.333,32,76.333c0,28.334-10,53-29.667,73.667c-19.666,20.667-44,32.333-73,34.667c-4.333,0-6.666,2-6.666,6v45.666
	c0,3.667,2.333,5.667,6.666,5.667c44.334-1.333,82-18.333,113-50.333s46.334-70.334,46.334-115c0-24.667-4.667-47-14.334-67
	c26.334-32,39.334-68.667,39.334-110.667c0-31.333-8-60.333-23.667-87.333c-15.667-27-37-48.333-64-64C653,219,624,211,592.667,211
	c-51.334,0-94.667,19.333-129.334,57.667c-27-14.333-57-21.667-90-21.667c-47,0-89,14.667-125.333,43.667s-59.667,66.333-70,112
	c-37,8.666-67.333,27.666-91,57.666S50.667,525,50.667,563.333z M320.333,882.667c-0.333,5,1,10,4.667,14.666
	c3.667,4.667,8.667,8.334,15.333,11c2.334,0.667,4.667,1,7,1c5.667,0,11.334-1.666,17-5c5.667-3.333,9.334-8.666,11.334-15.666
	L452,603c2-7.667,1.333-15-2.333-21.333c-3.667-6.667-9-11-16.334-13.334c-7.666-2.333-15-1.666-21.666,2.334
	c-6.667,3.666-11.334,9.333-13.334,17l-77,286.666C320.667,876.667,320.333,879.667,320.333,882.667z M331.333,154.333
	c0,8,2.667,14.333,8.334,19.667L361,196c5.667,5.667,12.333,8.333,20.333,8.667c8,0,14.334-2.667,19-8.667
	c6.334-5,9.334-11.667,9.334-20c0-8-2.667-14.333-8.334-19.667l-21-22c-5.666-5.333-12.666-8-20.333-8
	c-8.333,0-15.333,2.667-20.667,8C334,139.667,331.333,146.333,331.333,154.333z M459,781c0,4,1.333,8,3.667,12.667
	C467,800.333,472.333,805,479.333,808c2.334,1,5.667,1.667,10,1.667c5,0,8.667-0.667,11-2C507,805,511.667,798.333,514,788.333
	l49.667-185c2-8,1.333-15-2.334-21.666c-3.666-6.334-9.333-10.667-17-13c-7.666-2.334-15-1.667-21.333,2.333
	c-6.667,3.667-11,9.333-13,17l-50,185.333c0,0.667-0.333,2-0.667,3.667C459,779,459,780,459,781z M510,301.333
	C532.333,280,559.667,269,592.667,269C625,269,653,280.333,676,303s34.667,50.333,34.667,82.667
	c0,20.667-5.667,41.333-17.334,61.667c-33-32.666-72-49-116.666-49h-10.334C556,359.333,537,327,510,301.333z M563.667,126.333
	c0,7.667,3,14.333,8.666,20C578,152,584.667,155,592.333,155c8,0,14.334-2.667,19.667-8.333c5.333-5.667,7.667-12.333,7.667-20.333
	V57.667c0-8-2.667-14.667-7.667-20.333C607,31.667,600.333,29,592.333,29c-7.666,0-14.333,2.667-20,8.333
	c-5.666,5.667-8.666,12.333-8.666,20.333V126.333z M748,202.333c0,8,3,14.667,8.667,20c4.666,5.667,11,8.333,19,8.333
	s14.666-2.667,20-8.333l48-48.333c5.666-5.333,8.666-11.667,8.666-19.667S849.667,139.667,844,134s-12.333-8.333-20.333-8.333
	c-7.334,0-13.667,3-19,8.667l-48,48C751,187.667,748,194.333,748,202.333z M775,597.667c0,7.333,2.667,14,8,20l22,21
	c4,4.666,10.333,7.666,18,8l0.333,0.333c0.334,0,1,0,1.667,0s1,0,1.667,0c6.333,0,12-3,17.666-8.667c5.667-5.333,8.667-12,8.667-20
	c0-7.666-3-14.333-8.667-20.333l-21.666-20.333c-5.334-6-12-9-19.334-9c-7.666,0-14.333,2.666-20,8.333
	C777.667,583,775,590,775,597.667z M823.333,386c0,7.667,3,14.333,9,20c6,6,12.667,9,20.334,9h67.666c7.667,0,14.334-3,20-8.667
	C946,400.667,949,393.667,949,386s-2.667-14.333-8.333-19.667c-5.667-5.333-12.334-8-20.334-8h-67.666c-8.334,0-15.334,2.667-21,8
	C826,371.667,823.333,378.333,823.333,386z"/>
</svg>
