<?xml version="1.0" encoding="utf-8"?>
<!-- Generator: Adobe Illustrator 16.0.3, SVG Export Plug-In . SVG Version: 6.00 Build 0)  -->
<!DOCTYPE svg PUBLIC "-//W3C//DTD SVG 1.1//EN" "http://www.w3.org/Graphics/SVG/1.1/DTD/svg11.dtd">
<svg version="1.1" id="Layer_1" xmlns="http://www.w3.org/2000/svg" xmlns:xlink="http://www.w3.org/1999/xlink" x="0px" y="0px"
	 width="1000px" height="1000px" viewBox="0 0 1000 1000" enable-background="new 0 0 1000 1000" xml:space="preserve">
<path fill="#0E70A0" d="M52.667,563c0,29,7,56,21.333,80.667c14,25,33.333,45,57.667,60c24.333,15,51,23,80,24.333c4,0,6-2,6-5.667
	V678c0-4-2-6.333-6-6.333C183.333,670.333,159,659,139,637.667c-20-21.334-30-46-30-75c0-27.334,9.333-51.334,28-71.667
	s42-32,69.667-35.333l17.333-1c4,0,6.333-2,6.333-6l2.667-18c3.667-36,18.667-66,45.333-90.334C305,316,336.667,304,373.333,304
	C409,304,440.667,316,468,340.333c27.333,24.333,42.667,54.333,46.667,90L517,449.667c0,3.666,2,5.666,5.667,5.666h54
	c29.333,0,55,10.667,76.333,32c21.667,21.334,32.333,46.334,32.333,75.334c0,28.666-10,53.666-30,75c-20,21-44.333,32.333-72.666,34
	c-4,0-6,2-6,6.333v44.333c0,3.667,2,5.667,6,5.667c29-0.667,55.666-8.667,80-24c24.333-15.333,43.666-35,57.666-60s21-52,21-81
	c0-24.667-4.666-46.667-13.666-66.667c26-31.666,38.666-68.333,38.666-110c0-31.333-7.666-60.667-23.333-87.333
	s-36.667-48-63.333-63.333C653,220,624,212.333,592.667,212.333c-51.667,0-94.667,19.333-129,57.667
	c-27.334-14.667-57.334-22-89.667-22c-47,0-88.333,14.667-124.667,43.667C213,320.667,190,358,179.667,403
	c-36.667,8.667-67,28-90.667,57.667C64.333,491,52.667,525,52.667,563z M249.333,592.333c0,12.667,4.667,23.667,14,32.667
	c9.333,9,20.667,13.333,33.667,13.333c13.333,0,24.333-4.333,33.333-13.333s13.334-19.667,13.334-32.667c0-8-4-19.333-11.667-33.333
	c-7.667-14.333-15-25.333-21.667-33c-7-7.333-11.667-12.333-13.333-14l-12,13.333c-9,9.667-17.333,21-24.667,34.334
	C253,573,249.333,584,249.333,592.333z M332.333,155.333c0,8.667,2.667,15.333,8,20.333l21.667,22c14,10.333,27.333,10.333,40.333,0
	c5.334-6.333,8-13.667,8-21.333c0-7.667-2.666-14.333-8-19.667L381,135c-6.333-5.667-13-8.333-20.333-8.333
	c-8,0-15,2.667-20.334,8.333C335,140.667,332.333,147.333,332.333,155.333z M348.333,724.333c0,22,7.667,40.334,22.667,55
	c15,14.667,33.333,22.334,55,22.334S466,794,481.333,779C496.667,763.667,504,745.667,504,724.333c0-18-9-39.666-27-65.666
	C461.667,638.333,447.333,622,434.333,609c-2.666-2-5.666-4.333-8.666-7.667L418,609c-12,10.667-26,27.333-42.333,49
	C357.667,683.333,348.333,705.333,348.333,724.333z M397.667,503.667c0,8.333,3.333,15.666,9.666,21.666c6.334,6,14,9,23,9
	c8.667,0,16-3,22-9s9-13.333,9-21.666c0-13.667-10.333-31.667-31-53.334l-8,8.334c-6,6.666-11.666,14.333-16.666,23.333
	C400,491,397.667,498,397.667,503.667z M510,302c22-22,49.333-33,82.333-33c32.667,0,60,11.333,83,34.333
	c22.667,23,34.334,50.667,34.334,83.333c0,19.667-5.667,40-17.334,61.333c-32.333-32-71-48-115.666-48h-11
	C556,361.333,537.333,328.667,510,302z M563.333,126.667c0,8,3,14.667,8.667,20.333s12.333,8.333,20,8.333
	s14.333-2.667,19.333-8.333c5.334-5.667,7.667-12.333,7.667-20.333v-68c0-8-2.667-14.333-7.667-19.667s-11.333-7.667-19-7.667
	C584.667,31.333,577.667,34,572,39s-8.667,11.667-8.667,19.667V126.667z M747.333,203.667c0,8,2.667,14.667,8.334,19.667
	c5.666,5.333,12,8,18.666,8c5.667,0,12.667-2.667,20.334-8l47.666-47.667c6-6,9-13,9-20.667c0-8-2.666-15-8.333-20.333
	c-5.667-5.333-12.333-8-20.333-8c-7.334,0-13.667,2.667-19.334,8.333l-47.666,47.667C750,188.333,747.333,195.333,747.333,203.667z
	 M774,596.333c0,8.334,2.667,15.334,7.667,21.334L803.333,637c4.667,6,11.334,9,19.667,9c8,0,14.667-3,19.333-9
	c6-5.333,9-12,9-19.333c0-7.334-3-13.667-9-19.334L822,576.667c-6-5.334-12.667-8-20.333-8c-8,0-14.667,2.666-20,8
	C776.333,582,774,588.667,774,596.333z M822.333,386.667c0,7.333,2.667,14,8.334,19.333c5.666,5.333,12.666,8,21,8H919
	c8,0,14.667-2.667,20-8c5.667-5.333,8.333-11.667,8.333-19.667s-2.666-14.667-8.333-20C933.333,361,926.667,358,919,358h-67.333
	c-8,0-14.667,2.667-20.667,8.333C825,372,822.333,379,822.333,386.667z"/>
</svg>
