<?xml version="1.0" encoding="utf-8"?>
<!-- Generator: Adobe Illustrator 16.0.3, SVG Export Plug-In . SVG Version: 6.00 Build 0)  -->
<!DOCTYPE svg PUBLIC "-//W3C//DTD SVG 1.1//EN" "http://www.w3.org/Graphics/SVG/1.1/DTD/svg11.dtd">
<svg version="1.1" id="Layer_1" xmlns="http://www.w3.org/2000/svg" xmlns:xlink="http://www.w3.org/1999/xlink" x="0px" y="0px"
	 width="1000px" height="1000px" viewBox="0 0 1000 1000" enable-background="new 0 0 1000 1000" xml:space="preserve">
<path fill="#0E70A0" d="M331.667,362.333C331.333,374,335,384,343,392.333s17.667,12.333,29.667,12C384,405,393.667,401,402,392
	l55.333-54.667v343.333C457,692.333,461,702,469.333,710c8.334,8,18.334,11.667,30.667,11.333c11.333,0.667,21.333-3,29.667-10.666
	C538,703,542.667,693,543,681.333V338l54.667,54.667c7.666,8,17.666,12.333,29.333,12.333c12,0,22-4,30-12s12-17.667,12-29.667
	c-0.667-12-5-21.333-13.333-28.333L531,207c-8-7.667-18.333-12.333-30.667-13.333C488,194.333,477.667,199,469.667,207.333l-125,127
	C336,341.667,331.667,351,331.667,362.333z"/>
</svg>
