<?xml version="1.0" encoding="utf-8"?>
<!-- Generator: Adobe Illustrator 16.0.3, SVG Export Plug-In . SVG Version: 6.00 Build 0)  -->
<!DOCTYPE svg PUBLIC "-//W3C//DTD SVG 1.1//EN" "http://www.w3.org/Graphics/SVG/1.1/DTD/svg11.dtd">
<svg version="1.1" id="Layer_1" xmlns="http://www.w3.org/2000/svg" xmlns:xlink="http://www.w3.org/1999/xlink" x="0px" y="0px"
	 width="1000px" height="1000px" viewBox="0 0 1000 1000" enable-background="new 0 0 1000 1000" xml:space="preserve">
<path fill="#0E70A0" d="M49.667,564L49.667,564c0-39,12-73,36-103s54.667-49.333,91.333-58c10.333-45.667,33.667-83,70-112.667
	c36.667-29.333,78.333-44,125.667-44c33,0,63.333,7.333,90.666,22C480,250.667,499.667,236.667,522,226.667s45.667-15,69.667-15
	c31.666,0,61,8,88,23.667c27,15.667,48.333,37,64,64c15.666,27,23.666,56.333,23.666,88c0,41-12.666,77.667-38,109.667
	c9.667,20.333,14.334,42.667,14.334,67.333c0,29.334-7,56.667-21.334,81.667c-14,25-33.333,45.333-58,60.333
	c-24.333,15.334-51.333,23.334-80.666,24c-4.334,0-6.667-2-6.667-6v-44.666c0-4,2.333-6,6.667-6
	c28.666-1.334,52.666-13,72.666-34.334c20-21.333,30-46.666,30-75.333c0-29.667-10.666-55-32.333-76.333c-21.667-21.334-47-32-77-32
	h-53.667c-4,0-6-2-6-5.667l-2.666-19.667C511,394.333,495.333,364,468,339.667S408.667,303,372.667,303
	c-36.667,0-68.333,12.333-95.333,36.667S235,394.333,231.667,430.333L229.333,450c-1,3-3.667,4.333-7.333,4.333l-17,1.334
	c-28,3.333-51.667,15-70.333,35.333c-18.667,20.333-28,44.667-28,72.667v1.666h1c0.333,32.667,12.667,59.334,37,81
	c7.333,6.334,15.667,12,24.667,16.334v0.666c13.667,6.334,27.333,9.667,40.333,10.334c3.667,0,5.667,2,5.667,5.666V724
	c0,3.667-2,5.667-5.667,5.667c-17.333-1-33.667-4.334-49.333-10v0.666C132.667,710.667,109,694.667,90,672.667s-31.667-48-37-77
	v-1.334c-0.333-0.333-0.333-0.666-0.333-1C50.333,584.667,49.667,575,49.667,564z M233,803c0-1,0.333-2.333,0.667-4.333
	c0.333-1.667,0.667-3,0.667-4l3-19.667c2.333-8,6.667-13.667,13.667-17.667c6.667-4,14.333-4.666,22.667-2.666
	c7.667,2.333,13,6.666,17,13.666C294.333,775,295,782,293,789l-4.667,20C285,823.667,276.667,831,263,831c-1,0-2.667,0-5-0.333
	c-2.333-0.334-3.667-0.334-4.333-0.334c-7-2-12-5.666-15.333-11C234.667,814.333,233,808.667,233,803z M257.667,705
	c0-8,2.667-14.333,7.667-19.667C270.667,680,277,677.667,285,677.667s14.333,2.666,19.667,7.666
	C310,690.667,312.333,697,312.333,705c0,7.667-2.666,14-7.667,19.333C299.667,729.667,293,732,285,732c-7.667,0-14-2.667-19-8
	C260.333,718.667,257.667,712.333,257.667,705z M312.333,904.333c0-1.333,0.334-3.666,1.334-7.666L318,877.333
	c2.333-7.666,7-13.333,13.667-17c7-4,14-4.666,21-2.333c7.666,1.333,13.666,5.667,17.666,12.333c4,6.667,5,14.334,2.667,22.667
	l-4.333,19.667C365.333,926.333,356.333,933,342,933c-1.667,0-4.333-0.333-8-1.333c-7.333-2-12.667-5.667-16.333-11
	C314,915.333,312.333,910,312.333,904.333z M330,154c0-8,2.667-14.667,8.333-20c5.667-5.333,12.667-8,21-8c8,0,14.667,2.667,20,8
	l21,22c5.667,5.667,8.334,12.333,8.334,20c0,8-3.334,15.333-10,21.333c-6.667,6-13.334,8.667-20.334,7.667
	c-7-0.667-13-3.667-18.333-9l-21.667-22C333,168.333,330,161.667,330,154z M338.667,807.667c0-7.667,2.666-14.334,7.666-19.334
	C351.667,783,358,780.667,366,780.667s14.333,2.666,19.667,7.666c5.333,5.334,7.666,11.667,7.666,19.334
	c0,8-2.666,14.333-7.666,19.666C380.333,832.667,374,835,366,835c-7.333,0-13.667-2.667-19.333-8.333
	C341.333,821.333,338.667,815,338.667,807.667z M359.333,732c0-3,0.334-6,1-8.667l7.667-30c2.333-7.666,7-13.666,13.667-17.666
	c7-4,14-5,21.333-2.667c8,2.333,13.667,6.667,17.667,13.333c4,6.667,4.666,13.334,2.333,20.667l-8.667,30
	c-2.666,9-7.333,15.333-13.666,19c-6.334,3.667-13.667,4-21.334,2c-6.666-1.333-11.666-4.667-15-10
	C360.333,742,358.667,737,359.333,732z M451.333,803.333c0-1,0-2.333,0.334-4.333c0.333-2,0.333-3,0.333-3.667l3-19.666
	c2.333-8,6.667-13.667,13.667-17.667c6.666-4,14.333-4.667,22.666-2.667c7.667,2.334,13.334,7,17,13.667c4,7,4.667,14,2.334,21
	L506,810c-3.333,14.333-11.667,21.667-25.333,21.667c-1,0-2.667,0-5-0.334C473.333,831,472,831,471.333,831
	c-6.666-2-11.666-5.667-15-11C453,814.333,451.333,809,451.333,803.333z M476,705.333c0-8,2.667-14.333,7.667-19.666
	C489,680.333,495.333,678,503.333,678s14.334,2.667,19.667,7.667c5.333,5.333,7.667,11.666,7.667,19.666
	c0,7.667-2.667,14.334-7.667,19.334c-5.333,5.333-11.667,7.666-19.667,7.666c-7.666,0-14.333-2.666-19.333-8.333
	C478.667,719,476,712.667,476,705.333z M510.333,301.667c28,25.333,46.667,58,56.667,97.667h10.333c46,0,85,16,117.334,48.334
	C705,429.333,710.333,409,710.333,387c0-32.667-11.666-60.333-34.666-83.333c-23-22.667-51-34.333-83.667-34.333
	C560,269.333,532.667,280,510.333,301.667z M563.667,126V57.667c0-8,2.666-14.667,8.333-20.333c5.667-5.667,12.333-8.667,20-8.667
	c8,0,14.667,2.667,20,8.333s8,12.667,8,20.667V126c0,8-2.667,15-8,20.667c-5.333,5.667-12,8.333-20,8.333
	c-7.667,0-14.333-3-20-8.667C566.333,140.667,563.667,134,563.667,126z M749.667,202.333c0-8,2.666-14.667,7.666-20l48-48.333
	c5-5.667,11.334-8.333,19.334-8.333s14.666,2.667,20,8.333c6,5.333,8.666,12,8.666,20s-3,14.667-8.666,20l-48,48.667
	c-6.334,6.333-13.334,9-21,8.667C768,230.667,762,228,757.333,222.667C752,217.333,749.667,210.667,749.667,202.333z
	 M775.333,599.333c0-8,2.667-14.666,8.334-20.333c5.666-5.667,12.333-8.333,20-8.333c7.666,0,14.333,3,20.333,8.666l20.667,21
	c6,5.667,8.666,12.667,8.666,20.334c0,8-3,14.666-8.666,20c-4.667,5.666-10.667,8.666-18,8.666L826,648.667
	c-8,0-14.667-2.667-20.667-8l-21.666-21.334C778.333,613.667,775.333,607,775.333,599.333z M824.333,387c0-8,2.667-14.667,8.334-20
	c5.666-5.333,12.333-8,20.333-8h68.667c8,0,15,2.667,20.333,8s8.333,12,8.333,20s-2.666,14.667-8.333,20.333
	c-5.667,5.667-12.333,8.334-20.333,8.334H853c-8,0-14.667-3-20-9C827,401.667,824.333,395,824.333,387z"/>
</svg>
