<?xml version="1.0" encoding="utf-8"?>
<!-- Generator: Adobe Illustrator 16.0.3, SVG Export Plug-In . SVG Version: 6.00 Build 0)  -->
<!DOCTYPE svg PUBLIC "-//W3C//DTD SVG 1.1//EN" "http://www.w3.org/Graphics/SVG/1.1/DTD/svg11.dtd">
<svg version="1.1" id="Layer_1" xmlns="http://www.w3.org/2000/svg" xmlns:xlink="http://www.w3.org/1999/xlink" x="0px" y="0px"
	 width="1000px" height="1000px" viewBox="0 0 1000 1000" enable-background="new 0 0 1000 1000" xml:space="preserve">
<path fill="#0E70A0" d="M331.333,478.667c0,7.333,2.667,14,7.667,19s11.333,7.333,18.667,6.666H577l-34.333,36
	c-5.334,5.334-8,11.667-8,18.334c0,7.333,2.666,14,8,19C548,583,554.333,585.333,562,585.333c7-0.333,13-3.333,17.667-9L661.333,496
	c5.334-5.333,7.667-11.667,7.667-19.333c-0.333-8-3-14.334-8-19.334l-82.333-79.667c-5-5.333-11-8-18-7.667
	c-7.667,0-14,2.333-19,7.333c-5.334,5-7.667,11.333-7.667,18.667c0,7.667,2.667,14,7.667,19L577,451H357.333
	c-7.666,0.333-13.666,3-18.666,8.333C333.667,465,331.333,471.333,331.333,478.667z"/>
</svg>
