<?xml version="1.0" encoding="utf-8"?>
<!-- Generator: Adobe Illustrator 16.0.3, SVG Export Plug-In . SVG Version: 6.00 Build 0)  -->
<!DOCTYPE svg PUBLIC "-//W3C//DTD SVG 1.1//EN" "http://www.w3.org/Graphics/SVG/1.1/DTD/svg11.dtd">
<svg version="1.1" id="Layer_1" xmlns="http://www.w3.org/2000/svg" xmlns:xlink="http://www.w3.org/1999/xlink" x="0px" y="0px"
	 width="1000px" height="1000px" viewBox="0 0 1000 1000" enable-background="new 0 0 1000 1000" xml:space="preserve">
<path fill="#0E70A0" d="M334.667,336c0-10,3-18.333,8.666-24.333c6.667-6.333,15.334-9.333,26.334-9.333c10,0,18.333,3,24.333,9.333
	l201.667,201.667v-65c0-10,3.333-18.333,10-25c6.666-6.666,15-10,25-10c9.666,0,18,3.334,24.666,10.334c6.667,7,10,15,10,25V598
	c0,10-3.333,18.333-10,25c-6.666,6.667-15,10-24.666,10H481.333c-9.666,0-18-3.333-24.666-10c-6.667-6.667-10-15-10-25
	c0-9.667,3.333-18,10-24.333c6.666-6.334,15-9.667,24.666-9.667h64.334L343,362C337.667,354.333,334.667,346,334.667,336z"/>
</svg>
