<?xml version="1.0" encoding="utf-8"?>
<!-- Generator: Adobe Illustrator 16.0.3, SVG Export Plug-In . SVG Version: 6.00 Build 0)  -->
<!DOCTYPE svg PUBLIC "-//W3C//DTD SVG 1.1//EN" "http://www.w3.org/Graphics/SVG/1.1/DTD/svg11.dtd">
<svg version="1.1" id="Layer_1" xmlns="http://www.w3.org/2000/svg" xmlns:xlink="http://www.w3.org/1999/xlink" x="0px" y="0px"
	 width="1000px" height="1000px" viewBox="0 0 1000 1000" enable-background="new 0 0 1000 1000" xml:space="preserve">
<path fill="#0E70A0" d="M335,585c0,10,3,18.333,8.667,24.333c6.666,6.334,15.333,9.334,26.333,9.334c10,0,18.333-3,24.333-9.334
	l201.334-201.666v65c0,10,3.333,18.333,10,25c6.666,6.666,15,10,25,10c9.666,0,18-3.334,24.666-10.334c6.667-7,10-15,10-25v-149
	c0-10-3.333-18.333-10-25c-6.666-6.667-15-10-24.666-10h-150c-9.667,0-18,3.333-24.334,10c-6.333,6.667-9.666,14.667-9.666,25
	c0,9.667,3.333,18,9.666,24.333c6.334,6.333,14.667,9.667,24.334,9.667h65l-202,202C338,566.333,335,575,335,585z"/>
</svg>
