<?xml version="1.0" encoding="utf-8"?>
<!-- Generator: Adobe Illustrator 16.0.3, SVG Export Plug-In . SVG Version: 6.00 Build 0)  -->
<!DOCTYPE svg PUBLIC "-//W3C//DTD SVG 1.1//EN" "http://www.w3.org/Graphics/SVG/1.1/DTD/svg11.dtd">
<svg version="1.1" id="Layer_1" xmlns="http://www.w3.org/2000/svg" xmlns:xlink="http://www.w3.org/1999/xlink" x="0px" y="0px"
	 width="1000px" height="1000px" viewBox="0 0 1000 1000" enable-background="new 0 0 1000 1000" xml:space="preserve">
<path fill="#0E70A0" d="M52,563.333c0,44.334,15.333,82.334,46.333,114.334s68.667,49,113.333,51c3.667,0,5.667-2,5.667-5.667
	v-45.667c0-4-2-6-5.667-6c-29-2.333-53.333-13.666-73-34.666C119,616,109,591.333,109,563c0-28,9.333-52.333,28.333-73
	s42-32.333,70-34.667l17.333-2.666c4.333,0,6.667-2,6.667-5.667l2-17C237,394,252,363.667,279,339.667
	c27-24.333,58.667-36.333,95.333-36.333c36.334,0,68,12,95,36.333c27,24,42.334,54.333,46.334,90.667L518,449.667
	c0,3.666,2,5.666,6.333,5.666h53.334C608,455.333,633.667,466,655,487s32,46.333,32,76c0,28.333-10,53-29.667,73.667
	c-19.666,20.666-44,32.333-73,34.666c-4.333,0-6.666,2-6.666,6V723c0,3.667,2.333,5.667,6.666,5.667
	c44.334-1.334,82-18.334,112.667-50.334s46-70.333,46-115c0-22.666-5.333-45.666-15.667-69c26-31.333,39.334-67.666,39.334-109
	c0-23.667-4.667-46.333-14-68c-9.334-21.667-21.667-40-37.334-55.667c-15.666-15.667-34.333-28-55.666-37.333
	c-21.667-9-44-13.667-67.667-13.667c-51.333,0-94.667,19.333-129.333,57.667c-28.667-13.667-58-20.667-88.334-20.667
	C327,247.667,285.333,262,249,291s-59.667,66.333-70,112.333C142.333,412,112,431,88,461S52,525,52,563.333z M302,939h10
	l177.333-261.667c1.334-1.333,1.667-3,0.667-4.666c-1-1.667-2.333-2.334-4.667-2.334h-72.666L489.333,530
	c2.334-4.667,1-7.333-4.666-7.333h-98c-2.667,0-5,1.666-7.334,4.666l-72,190.667c-0.666,4.667,0.667,7,4.667,7h72.333L302,939z
	 M331.333,153c0,8.333,2.667,15.333,8,20.667l22,21.667c14,10.667,27.334,10.667,40.334,0c5.333-6,8-13,8-21.333
	c0-7.667-2.667-14.333-8-19.667l-21.334-21.667c-6.333-5.667-13-8.333-20.666-8.333c-7.667,0-14.334,2.667-20,8.333
	C334,138.333,331.333,145.333,331.333,153z M509.333,300.667c22.667-22.667,50.334-34,82.667-34c32.667,0,60.333,11.667,83,34.667
	c23,23,34.333,51,34.333,84c0,20.333-5.666,40.333-17,60.333c-32.666-31.334-71-47-115.333-47h-10.333
	C558,360.667,538.667,328,509.333,300.667z M563.333,124.333c0,8.333,2.667,15.333,8,20.667c5.334,5.333,12,8,20.334,8
	c8,0,14.333-2.667,19.666-8c5.334-5.333,7.667-12.333,7.667-20.667v-68c0-8-2.667-14.333-7.667-19.667
	C606,31.333,599.667,29,591.667,29s-14.667,2.667-20,7.667c-5.334,5-8.334,11.667-8.334,19.667V124.333z M747.333,201.667
	c0,7.667,3,14.333,9,20c6,5.667,12.334,8.333,18.334,8.333c5.333,0,12.333-2.667,20.666-8.333l48-47.667c5.667-6,8.334-13,8.334-21
	s-2.667-15-8.334-20.333c-5.666-5.333-12.333-8-20-8c-7.333,0-13.666,2.667-19.333,8.333l-47.667,47.667
	C750.333,187,747.333,194,747.333,201.667z M774.333,595.667c0,7.666,2.667,14.333,8,20.333L804,638c5.333,5.333,12,8,19.333,8
	c8,0,14.667-2.667,20-8.333c5.667-5.667,8.334-12.667,8.334-21c0-7.667-2.667-14-8.334-19l-20.666-22
	c-6.334-5.334-13-7.667-20.667-7.667s-14.333,2.667-19.667,8C777,581.333,774.333,588,774.333,595.667z M822.667,385.333
	c0,7.333,3,13.667,8.666,19c5.667,5.667,12.334,8.334,20,8.334h68c8,0,14.667-2.667,20.334-8C945.333,399.333,948,393,948,385
	s-3-14.667-8.667-20.333c-5.666-5.667-12.333-8.333-20-8.333h-68c-7.666,0-14.333,2.667-20,8.333
	C825.667,370.667,822.667,377.333,822.667,385.333z"/>
</svg>
