<?xml version="1.0" encoding="utf-8"?>
<!-- Generator: Adobe Illustrator 16.0.3, SVG Export Plug-In . SVG Version: 6.00 Build 0)  -->
<!DOCTYPE svg PUBLIC "-//W3C//DTD SVG 1.1//EN" "http://www.w3.org/Graphics/SVG/1.1/DTD/svg11.dtd">
<svg version="1.1" id="Layer_1" xmlns="http://www.w3.org/2000/svg" xmlns:xlink="http://www.w3.org/1999/xlink" x="0px" y="0px"
	 width="1000px" height="1000px" viewBox="0 0 1000 1000" enable-background="new 0 0 1000 1000" xml:space="preserve">
<path fill="#0E70A0" d="M52.667,564.333c0,28.667,7,55.667,21.333,80.334c14,24.666,33.333,44.666,58,59.666
	c24.333,15,51.333,23,80,23.667c3.667,0,5.667-2,5.667-5.667V678c0-4-2-6.333-5.667-6.333c-28.333-1.334-52.667-12.667-72.667-34
	c-20-21.334-30-45.667-30-73.667c0-27.333,9.333-51.333,28.333-72c19-20.333,42-32.333,70-35.667l17.667-2c4,0,6-2,6-6.333L234,431
	c3.667-36.333,18.667-66.667,45.333-91c26.667-24.333,58.333-36.333,95-36.333c36.334,0,68,12,95,36.333
	c27.334,24.333,42.667,54.333,46,90l2.334,19.333c0,3.667,2,5.667,5.666,5.667H577c30,0,55.667,10.667,77,32s32,46.667,32,76.333
	c0,28-10,52.334-30,73.667c-20,21-44.333,32.333-72.333,34c-4,0-6.334,2-6.334,6.333v44.334c0,3.666,2,5.666,6.334,5.666
	c44.333-1.333,81.666-18,112.666-50s46.334-69.666,46.334-113.666c0-25.334-4.667-47.667-14.334-67.667
	c25-31,38.334-67.667,38.334-109.333c0-31.333-7.667-60.333-23.334-87c-15.666-26.667-37-48-63.666-63.667
	c-26.667-15.667-56-23.333-87.334-23.333c-51.333,0-94.333,19.333-129,57.667c-27-14.667-57-22-89.666-22
	c-47,0-88.333,14.667-124.667,43.667s-59.333,66.333-69.667,111.333C142,412.667,111.667,432,88,461.667
	C64.333,491.667,52.667,525.667,52.667,564.333z M235.333,820.333c0,7,2.667,13.334,8,19c6,5.334,12.333,8,19.333,8
	c8,0,14.333-2.666,19.667-7.666C287.667,834.333,290,828,290,820.333c0-8-2.667-14.333-8-19.666
	c-5.333-5.334-11.667-7.667-19.667-7.667s-14.333,2.667-19.667,7.667C238,805.667,235.333,812.333,235.333,820.333z M264,699.333
	c0,8,2.667,14.667,8,20.334c5.333,5.666,11.667,8.333,19.667,8.333c7.667,0,14.333-2.667,19.667-8.333
	c5.334-5.667,8-12.334,8-20.334c0-7.666-2.666-14-8-19.333c-5.333-5.333-11.667-8-19.667-8c-7.667,0-14.333,2.667-19.667,8
	S264,692,264,699.333z M327.333,885.333c0,7.334,2.667,13.667,8,19c5.667,5.667,12,8.334,19.334,8.334c8,0,14.666-2.667,20-7.667
	c5.666-5.333,8.333-11.667,8.333-19.667s-2.667-14.666-8.333-20c-5.667-5.666-12.334-8.333-20-8.333
	c-7.334,0-13.667,2.667-19.334,8.333C330,871,327.333,877.667,327.333,885.333z M332.333,156c0,8,2.667,14.667,8,19.667l22,22
	C367.667,203,373.667,206,380,206c7,1,13.667-1.333,20.333-7.333c6.667-6,10-13,10-21s-2.666-15.333-8-21.333L381,136
	c-5-5.667-11.333-8.333-19.333-8.333c-8.334,0-15.334,2.667-21,8.333C335,141.333,332.333,148,332.333,156z M355.667,763.333
	c0,7.334,2.666,14,8.333,20c5.333,5.334,11.667,8,19,8c8,0,14.667-2.666,20.333-8c5.667-5.333,8.334-12,8.334-20
	c0-7.666-2.667-14.333-8.334-20C397.667,737.667,391,735,383,735c-7.333,0-14,2.667-19.333,8.333
	C358.333,749,355.667,755.667,355.667,763.333z M370,643.333c0,7.667,2.667,14,8,19.334c5.333,5.333,12,8,19.333,8
	c8,0,14.667-2.667,20-8C423,657.333,425.667,651,425.667,643c0-7.667-2.667-14.333-8.334-19.667c-5.666-5.333-12.333-8-20-8
	c-7.666,0-14,2.667-19.333,8C372.667,628.667,370,635.667,370,643.333z M449,820.333c0,7,2.667,13.334,7.667,19
	c5.666,5.334,12.666,8,20,8c8,0,14.333-2.666,19.666-7.666C501.667,834.333,504,828,504,820.333c0-8-2.667-14.333-7.667-19.666
	C491,795.333,484.667,793,476.667,793s-14.667,2.667-20,8C451.333,806.333,449,812.667,449,820.333z M477.333,699.333
	c0,8,2.667,14.667,8,20.334c5.334,5.666,12,8.333,19.667,8.333s14.333-2.667,19.667-8.333c5.333-5.667,8-12.334,8-20.334
	c0-7.666-2.667-14-8-19.333c-5.334-5.333-11.667-8-19.667-8s-14.333,2.667-19.667,8C480,685.333,477.333,692,477.333,699.333z
	 M510,302c23-22,50.333-33,82.333-33c32.334,0,60,11.667,82.667,34.667c23,23,34.333,51,34.333,83c0,20.667-5.666,41.333-17,61.333
	c-31.666-32-70.333-48-115.666-48H566C556,361,537.333,328.333,510,302z M563.333,128c0,7.667,2.667,14.333,8.334,19.333
	C577.333,152.333,584,155,592,155s14.333-2.667,19.667-7.667C617,142,619.333,135.667,619.333,128V60c0-8-2.666-14.667-8-20.333
	C606,34,600,31.333,592.333,31.333c-7.666,0-14.333,3-20,8.667c-5.666,5.667-8.666,12.333-8.666,20v68H563.333z M747.333,203.667
	c0,7.667,2.667,14.333,8.334,19.667c5,5.333,11.333,8,18.666,8.667c7.334,0.667,14.334-2.333,20.667-8.667l47.667-47.667
	c6-6,8.666-12.667,8.666-20.333c0-8-3-14.667-8.666-20.333c-5.667-5.667-12.334-8.333-20-8.333c-7.334,0-13.667,2.667-19.334,8.333
	l-47.666,48.667C750,189,747.333,195.667,747.333,203.667z M774,597c0,8.333,2.667,15.333,8,20.667l21.333,21
	c8,5.333,15.334,8,21.334,8c6.999,0,13-3,18.666-8.667c5.667-5.667,8.334-12.667,8.334-20.333c0-7.667-3-14-8.667-19.334
	l-20.667-21.666c-6-5.334-12.666-8-20.333-8s-14.334,2.666-19.667,8.333C776.667,582.333,774,589,774,597z M822.333,386.667
	c0,8,3,14.333,8.667,19.667c5.667,6,12.667,9,20.667,9H919c7.667,0,14.333-2.666,20-8.333s8.333-12.333,8.333-20.333
	s-2.666-14.667-8.333-20c-5.667-5.333-12.333-8.333-20-8.333h-67.333c-8,0-14.667,2.667-20.667,8.333
	C825,372.333,822.333,379,822.333,386.667z"/>
</svg>
