<?xml version="1.0" encoding="utf-8"?>
<!-- Generator: Adobe Illustrator 16.0.3, SVG Export Plug-In . SVG Version: 6.00 Build 0)  -->
<!DOCTYPE svg PUBLIC "-//W3C//DTD SVG 1.1//EN" "http://www.w3.org/Graphics/SVG/1.1/DTD/svg11.dtd">
<svg version="1.1" id="Layer_1" xmlns="http://www.w3.org/2000/svg" xmlns:xlink="http://www.w3.org/1999/xlink" x="0px" y="0px"
	 width="1000px" height="1000px" viewBox="0 0 1000 1000" enable-background="new 0 0 1000 1000" xml:space="preserve">
<path fill="#0E70A0" d="M131.667,435c0-31,9.667-58.333,29-82.667c19.333-24.333,43.667-40,73-46.667
	C242.333,269,261,239,290.333,215.333C319.667,191.667,353,180,390.667,180C427.333,180,460,191.667,489,214.667
	S536.667,267,545,303h8.667c36.666,0,68,13,94,38.667c26,25.667,39,57,39,93.667c0,0.334,0,0.667,0,1.334c0,0.666,0,1.333,0,2
	c25,26.666,37.333,58.333,37.333,95c0,25.333-6.333,48.666-19,70c-12.667,21.666-29.667,38.666-51,51
	c-21.333,12.666-44.667,18.666-69.667,18.666c-32,0-60.666-10-85.333-29.666c-24.667-19.667-41.333-45-49.333-75.334h-190
	c-35.667-1.666-66-15.333-90.667-41C144.333,501.667,131.667,470.667,131.667,435z M177,435c0,23.333,8,43.667,24.333,60.667
	C217.667,512.667,237,522,259.667,523h299.667c22.667-1,42.334-10,58.334-27.333C634,478.333,642,458.333,642,435
	c0-23.667-8.667-44-26.333-61c-17.667-17.333-38-25.667-62-25.667h-43c-3,0-4.667-1.667-4.667-4.667L503.667,328
	c-3-29-15.334-53.333-37.334-73s-47.333-29.667-76-29.667c-29.666,0-55.333,9.667-77,29.333c-21.667,19.667-33.333,44-36.333,73
	l-2,15.667c0,3-1.667,4.667-5.333,4.667h-13.333C234,350.667,215,360,200,376.667C184.667,393,177,412.667,177,435z
	 M383.667,735.333c-8.334-11-8.334-21.666,0-32.666l37.666-38.334c4.667-4,10.334-6,17.334-6c6.333,0,11.333,2,15.333,6
	s6,9.334,6,15.667c0,6.667-2,12-6,16l-38,39.333c-4,4-9.667,6.334-16.333,6.334C393,741.667,387.667,739.333,383.667,735.333z
	 M496.667,568c7,18,18.666,32.333,34.666,43.333S565,628,584.667,628c25.666,0,47.666-9.333,65.666-27.667
	c18-18.666,27-41,27-67.333c0-13-2-24.667-6.333-35c-11,20.333-26.667,37-46.333,49.667C604.667,560.333,583,567,559.333,568
	H496.667z M561.667,741c0-6.333,2.333-11.333,6.666-15.667c4.334-4,10-6.333,16-6.333S596,721.333,601,726c4,4,6.333,9,6.333,15
	v54.667c0,6.333-2.333,11.666-6.666,16.333c-4.334,4.667-10,7-16,7s-11.667-2.333-16-7c-4.334-4.667-6.667-10-6.667-16.333V741
	H561.667z M708.667,680c0-6,2-11,6.333-15.333c4.333-4,9.667-6.334,15.667-6.334c6.333,0,11.666,2,15.666,6l39.334,38.334
	c4.333,4.666,6.666,10,6.666,16c0,6.333-2.333,11.666-6.666,16c-4.334,4.333-10,6.666-16.334,6.666c-7,0-12.333-2-16.666-6.333
	L715,695.667C710.667,691,708.667,685.667,708.667,680z M708.667,386.333c0-6.333,2-11.667,6.333-15.667l37.667-39.333
	c4.666-4,10-6.333,16.666-6.333c6.334,0,11.667,2,16.667,6.333c4.333,5,6.667,10.667,6.667,17c0,6-2.334,11-6.667,16l-39.333,38.333
	c-4,4-9.334,6.333-15.667,6.333s-11.667-2-15.667-6.333C710.667,398,708.667,392.667,708.667,386.333z M769.333,533
	c0-6.333,2-11.667,6.334-16c4-4.333,9.333-6.667,15.666-6.667h54c6.334,0,12,2.334,16.667,6.667s7,9.667,7,16s-2.333,12-7,16.333
	c-4.667,4.334-10,6.667-16.667,6.667h-54c-6.333,0-11.333-2.333-15.666-6.667C771.333,545,769.333,539.667,769.333,533z"/>
</svg>
