<?xml version="1.0" encoding="utf-8"?>
<!-- Generator: Adobe Illustrator 16.0.3, SVG Export Plug-In . SVG Version: 6.00 Build 0)  -->
<!DOCTYPE svg PUBLIC "-//W3C//DTD SVG 1.1//EN" "http://www.w3.org/Graphics/SVG/1.1/DTD/svg11.dtd">
<svg version="1.1" id="Layer_1" xmlns="http://www.w3.org/2000/svg" xmlns:xlink="http://www.w3.org/1999/xlink" x="0px" y="0px"
	 width="1000px" height="1000px" viewBox="0 0 1000 1000" enable-background="new 0 0 1000 1000" xml:space="preserve">
<path fill="#0E70A0" d="M50.333,563c0,44.333,15.333,82.667,46.333,114.667s68.667,49,113.667,51c3.667,0,5.667-2,5.667-5.667
	v-44.667c0-3.666-2-5.666-5.667-5.666c-28.667-1.334-53-13-73-34.334c-20-21.333-30-46.666-30-75.333
	c0-27.333,9.333-51.333,28.333-72s42.333-32.333,70-35.667l17.667-1.666c4.333,0,6.667-2,6.667-5.667l2.333-18
	C236,394,251,363.667,278,339.333c27-24.333,58.667-36.667,95-36.667s68,12.333,95.333,36.667C495.667,363.667,511,394,515,430
	l2.333,19c0,4,2,6.333,5.667,6.333h54c29.667,0,55,10.667,76.667,32C675.333,508.667,686,533.667,686,563c0,29-10,54-30,75.333
	c-20,21.334-44.333,32.667-72.667,34.334c-4,0-6.333,2-6.333,5.666V723c0,3.667,2,5.667,6.333,5.667
	c44.334-1.334,82-18.334,113-50.334c31-32.333,46.334-70.666,46.334-115c0-24-4.667-46.333-14-67c26-32.333,39-69,39-110.333
	c0-31.667-8-61-23.667-88s-37-48.333-64-64s-56-23.333-87.333-23.333c-52,0-95,19.333-129.334,58C436,254,406,246.667,373,246.667
	c-47,0-89,14.667-125.333,44c-36.333,29.333-59.667,66.667-70,112c-37,8.666-67.333,28-91.333,58S50.333,524.667,50.333,563z
	 M230.333,791.667c0,5.666,1.667,11,5.333,16.333c3.667,5.333,9,9,16.333,11c3.667,0.667,6.667,1.333,9,1.333
	c13,0,21.667-7,25.667-21.333l52.667-196c2.334-8,1.334-15.333-2.666-22.333s-10-11-17.667-12.667
	c-7.333-2.333-14.333-1.667-21,2.333c-6.667,3.667-11.333,9.334-13.667,17l-52.667,197C231,788.667,230.333,791,230.333,791.667z
	 M317.333,894.333c0,6.334,1.667,12,5,17.334c3.334,5.333,9,8.666,17.334,10c3.666,0.666,6.666,1.333,8.666,1.333
	c5.334,0,10.334-2,15-5.667c4.667-4,7.667-9.333,9-16l80-297.666c2-7.667,1.334-15-2.333-21.334
	c-3.667-6.333-9.333-11-16.667-13.333c-7.666-2.333-15-1.667-21.666,2.333c-6.667,3.667-11.334,9.334-13.334,17l-80,297.667
	C317.667,891,317.333,894,317.333,894.333z M331.333,153.333c0,8,2.667,14.667,8.334,20.333l21.666,22
	c6.334,5,13.334,7.333,20.667,7.333c7,0,13.667-2.667,19.333-7.667C407,190,410,183.667,410,175.667s-2.667-15.333-8-21.333
	l-21.333-21.667c-6-5.667-12.667-8.333-20-8.333c-8,0-15,3-20.667,8.667S331.333,145.667,331.333,153.333z M455.667,792.333
	c0,5.334,1.666,10.667,5,15.667c3.333,5,8.666,8.667,15.333,10.667c3.667,0.666,6.667,1.333,8.333,1.333
	c5.667,0,11.334-1.667,16.334-5s8.333-8.667,10-16.333l52.666-196c2-7.667,1.334-15-2.333-21.334
	c-3.667-6.666-9.333-11-16.667-13.333c-8-2.333-15-1.667-21.666,2.333c-6.667,3.667-11,9.334-13,17l-52.667,197
	C456.333,789.333,455.667,792,455.667,792.333z M510,301c23.667-22.333,51-33.333,82.667-33.333
	c32.666,0,60.666,11.667,83.333,34.667c23,23,34.333,51,34.333,84c0,20.667-5.666,41.333-17.333,61.667
	c-32.333-32.333-71-48.333-116.333-48.333h-11C556.667,360.333,538,327.667,510,301z M564,126c0,7.667,2.667,14.333,8.333,19.667
	c5.667,5.333,12.334,8,20.334,8c7.666,0,14.333-2.667,19.666-7.667c5.334-5.333,8-11.667,8-19.667V57.667
	c0-8.667-2.666-15.667-7.666-21c-5.334-5.333-11.667-8-19.667-8c-8.333,0-15.333,2.667-20.667,8.333c-5.333,5.667-8,12.333-8,20.667
	V126H564z M748.333,202c0,8,3,14.667,9,19.667c4.667,5.333,10.667,8,18.334,8.667c7.666,0.667,14.666-2.333,20.666-8.667l48-47.667
	c6-5.667,8.667-12.667,8.667-21c0-8-2.667-15-8.333-20.333c-5.667-5.333-12.334-8-20.334-8c-7,0-13.333,2.667-19.333,8.333
	l-47.667,48C751.333,186.667,748.333,193.667,748.333,202z M775.333,597c0,8,2.667,15,8,21L805,639c6,4.667,12.667,7,20,7
	l0.667,0.667c7.666,0,14-2.667,19.333-8c5.333-5.334,8-12.334,8-20.334S850,604,844.333,599l-20.666-22c-6-5.333-13-8-20.667-8
	s-14.333,2.667-19.667,8.333C778,583,775.333,589,775.333,597z M824,386c0,8,3,14.333,8.667,19.667c6,6,12.666,8.666,20.666,8.666
	H921c8,0,14.667-2.666,20.333-8.333c5.667-5.667,8.334-12.333,8.334-20c0-8-2.667-14.667-8.334-20.333C935.667,360,929,357,921,357
	h-67.667c-8,0-14.666,3-20.666,8.667C826.667,371.333,824,378,824,386z"/>
</svg>
