<?xml version="1.0" encoding="utf-8"?>
<!-- Generator: Adobe Illustrator 16.0.3, SVG Export Plug-In . SVG Version: 6.00 Build 0)  -->
<!DOCTYPE svg PUBLIC "-//W3C//DTD SVG 1.1//EN" "http://www.w3.org/Graphics/SVG/1.1/DTD/svg11.dtd">
<svg version="1.1" id="Layer_1" xmlns="http://www.w3.org/2000/svg" xmlns:xlink="http://www.w3.org/1999/xlink" x="0px" y="0px"
	 width="1000px" height="1000px" viewBox="0 0 1000 1000" enable-background="new 0 0 1000 1000" xml:space="preserve">
<path fill="#0E70A0" d="M244.333,552.667C244.333,545,247,539,252,534c5.333-5,12.333-7.333,21.333-7.333h190.333
	c9,0,16,2.333,21.333,7.333s7.667,11,7.667,18.667c0,9-2.667,16.333-7.667,21.333s-12.333,7.667-21.333,7.667H273.333
	c-9,0-16-2.667-21.333-7.667S244.333,562,244.333,552.667z M244.333,355.667c0-7.333,2.667-13.667,7.667-18.333
	c5.333-5,12.333-7.333,21.333-7.333H372c9,0,16,2.333,21.333,7.333c5.334,4.667,8,11,8,18.333c0,9-2.666,16-8,21.333
	C388,382.333,381,385,372,385h-98.667c-9,0-16-2.667-21.333-7.667S244.333,364.667,244.333,355.667z M277.333,651.333
	c0-7.333,3-14,9.333-20c6-6,13-9.333,20-9.333c8.666,0,15.333,3,20.666,9c5.334,6,8,12.667,8,20.333c0,9-2.666,16.334-7.666,21.667
	s-12,7.667-21,7.667c-7.667,0-14.667-2.667-20.333-8C280,667,277.333,660,277.333,651.333z M324.667,453.667
	C324.667,446,327,439,332,433.333c5-6,11-9,18-9c8.667,0,16,3,21.333,9c5.334,6,8,12.667,8,20.334c0,9-2.666,16.333-7.666,21.666
	C366.333,480.667,359.333,483,350,483c-7.667,0-13.667-2.667-18.333-8C327,469.667,324.667,462.667,324.667,453.667z
	 M357.667,651.333c0-7.666,2.666-14.666,8-20.333c5.333-5.667,12.666-9,21.333-9h127.667L544,651.333c0,8.667-3,15.667-9,21.334
	c-6,5.666-12.667,8-20.333,8H387c-9,0-16.333-2.667-21.667-8C360,667.333,357.667,660.333,357.667,651.333z M401.667,453.667
	c0-7.334,3-14,9.333-20c6-6,13-9.334,20-9.334h127.667c8.666,0,15.666,3,21,9c5.333,6,8,12.667,8,20.334
	c0,9-2.667,16.333-7.667,21.666c-5.333,5.334-12.333,7.667-21.333,7.667H431c-7.667,0-14.667-2.667-20.333-8
	C404.667,469.667,401.667,462.667,401.667,453.667z M427,355.667c0-7.333,2.667-13.667,8-18.333
	c5.333-4.667,12.333-7.333,21.333-7.333h190.334c7.666,0,14.333,2.667,20.333,7.667s9,11,9,18c0,8.667-3,16-9,21.333
	s-12.667,8-20.333,8H456.333c-9,0-16.333-2.667-21.666-8C429.333,371.667,427,364.667,427,355.667z M514.667,552.667
	c0-7,3-13.334,9-18.334s12.666-7.666,20.333-7.666s14.333,2.666,20.333,7.666s9,11.334,9,18.334c0,8.666-3,15.666-9,21
	c-6,5.333-12.666,8-20.333,8s-14.667-2.667-20.333-8C517.667,568.667,514.667,561.667,514.667,552.667z M566,651.333
	c0-7.666,2.667-14.666,8-20.333c5.333-6,12.333-9,21-9h62.333c8.667,0,15.667,3,21,8.667c5.334,5.666,8,12.666,8,20.666
	c0,9-2.666,16.334-7.666,21.667s-12.334,7.667-21.334,7.667H595c-9,0-16-2.667-21.333-7.667
	C568.667,667.667,566,660.333,566,651.333z M595,552.667c0-7,3-13.334,9-18.334s12.667-7.666,20.333-7.666h102.334
	c7.333,0,13.333,2.666,18,7.666c4.666,5,7.333,11,7.333,18.334c0,9-2.333,16-7,21.333s-10.667,7.667-18.333,7.667H624.333
	c-7.666,0-14.666-2.667-20.333-8C598,568.667,595,561.667,595,552.667z M609.667,453.667c0-7.334,3-14,9.333-20
	c6-6,13-9.334,20-9.334h65.333c7,0,13,3,18,9S730,446,730,453.667c0,9-2.333,16-7.333,21.333c-4.667,5.333-11,8-18.334,8H639
	c-7.667,0-14.667-2.667-20.333-8C612.667,469.667,609.667,462.667,609.667,453.667z M701,355.667c0-7.333,2.333-13.333,7.333-18.333
	s11-7.333,18.334-7.333c9,0,16,2.333,21.333,7.333c5.333,4.667,8,11,8,18.333c0,9-2.667,16-8,21.333s-12.333,8-21.333,8
	c-7.667,0-13.667-2.667-18.334-8C703.333,371.667,701,364.667,701,355.667z"/>
</svg>
