<?xml version="1.0" encoding="utf-8"?>
<!-- Generator: Adobe Illustrator 16.0.3, SVG Export Plug-In . SVG Version: 6.00 Build 0)  -->
<!DOCTYPE svg PUBLIC "-//W3C//DTD SVG 1.1//EN" "http://www.w3.org/Graphics/SVG/1.1/DTD/svg11.dtd">
<svg version="1.1" id="Layer_1" xmlns="http://www.w3.org/2000/svg" xmlns:xlink="http://www.w3.org/1999/xlink" x="0px" y="0px"
	 width="1000px" height="1000px" viewBox="0 0 1000 1000" enable-background="new 0 0 1000 1000" xml:space="preserve">
<path fill="#0E70A0" d="M10.667,702c0,7.667,2.667,14.333,8.333,19.667c5.667,5.333,12.667,8,21,8h623.667
	c8,0,14.666-2.667,20.333-8c5.667-5.334,8.333-11.667,8.333-19.667s-2.666-14.667-8.333-20c-5.667-5.667-12.333-8.333-20.333-8.333
	H40c-8.333,0-15.333,2.666-21,8.333S10.667,694,10.667,702z M98,597.333c0,7.667,2.667,14.334,8.333,19.334c5.667,6,12.333,9,20,9
	h624c7.667,0,14.334-2.667,19.667-8.334c5.333-5.666,8-12.333,8-20c0-7.666-2.667-14.333-7.667-19.666
	c-5.333-5.334-11.666-8-19.666-8h-624c-8,0-14.667,2.666-20,8C101,583.333,98,589.667,98,597.333z M102.333,517.333
	c0,3,1.667,4.334,5.333,4.334h47.667c2.333,0,4.667-1.667,7-5.334C170.333,499,182,485,197.667,474c15.667-11,33-17.333,52-18.667
	l18-2.333c3.667,0,5.667-2,5.667-6l2.333-17c3.667-36,18.667-66,45.667-90.333c27-24,58.667-36.333,95.334-36.333
	c36,0,67.666,12,94.666,36s42.334,53.667,46,89.333L559.667,448c0,3.667,2,5.667,6.333,5.667h53.667
	c21.333,0,41,5.666,58.666,17.333C696,482.333,709,497.667,717.667,516.667C720,520.333,722,522,724.333,522h48
	c4.334,0,6-2.333,4.334-7.667L770,496c25.333-31.333,37.667-68,37.667-110.333c0-23.667-4.667-46-13.667-67.667
	s-21.333-40-37-55.667c-15.333-15.667-34-28-55.667-37.333c-21.666-9.333-44-13.333-68-13.333c-51.333,0-94,18.667-127.333,56
	c-28.333-14-58-21-89.333-21c-46.667,0-88.334,14.667-124.667,44C255.667,320,232.333,357.333,222,403
	c-59.333,15.667-99.333,52.667-119.333,111.667C102.333,515,102.333,516,102.333,517.333z M156.333,804.333c0,8,3,14.667,9,20
	C170.667,830,177,833,185,833h624.667c7.666,0,14.333-2.667,20-8.333C835.333,819,838,812.333,838,804.333
	c0-7.666-2.667-14-8.333-19.333c-5.667-5-12.334-7.667-20-7.667H185c-8,0-14.667,2.667-20.333,7.667
	C159,790.333,156.333,796.667,156.333,804.333z M375.333,155.333c0,8,2.667,14.333,7.667,19.667l21.667,21.333
	c5.666,6,12,9,19.333,9s14-2.667,20-8.333c5.667-5.667,8.667-12.333,8.667-20.333s-2.667-15-8.334-21L423,135.333
	c-5.333-5.667-12-8.667-20-8.667s-14.667,2.667-20,8.333C378,140.333,375.333,147.333,375.333,155.333z M552.667,301.333
	c22.333-22.667,49.333-33.667,81-33.667c32.666,0,60.666,11.667,83.666,34.667s34.667,51,34.667,83.333
	c0,21.667-5.333,41.667-16.333,60C704,414,665.333,398.333,620,398.333h-11.333C599,359,580.333,326.667,552.667,301.333z M606,127
	c0,7.667,2.667,14.333,8,19.667c5.333,5.333,11.667,8,19.667,8c8.333,0,15.333-2.667,21-8C660.333,141.333,663,135,663,127V58.667
	c0-7.667-3-14.333-8.667-20c-6-5.667-13-8.333-21-8.333c-7.666,0-14.333,2.667-19.666,8.333c-5.334,5.667-8,12.333-8,20V127H606z
	 M789,202.667c0,7.333,2.667,14.333,8,20c12.333,12,26,12,41,0L885.667,175c5.333-6,8-13,8-21.333c0-7.667-2.667-14.333-8-19.667
	c-5.334-5.333-12-8-19.667-8c-8,0-14.667,2.667-20,8l-48.667,49C791.667,189,789,195.667,789,202.667z M816,596
	c0,8,3,14.667,8.667,20L846,637.667c5.333,5.333,12,8,19.333,8c7,0,13.667-2.667,20.334-8c5.333-5.667,8-13,8-21.334
	c0-7.333-2.667-13.666-8-18.666l-21.667-22c-6-5.334-12.667-8-20-8c-8,0-14.667,2.666-20,8.333C818.667,581.333,816,588,816,596z
	 M865.333,385.667c0,8,3,14.667,8.667,20c5,5.666,11.667,8.333,19.667,8.333H962c7.667,0,14.333-2.667,19.667-8.333
	c5.333-5.667,8-12.333,8-20c0-8-2.667-14.667-8-20c-5.334-5.333-11.667-8-19.667-8h-68.333c-8,0-14.667,2.667-20,8.333
	C868,371.333,865.333,378,865.333,385.667z"/>
</svg>
