<?xml version="1.0" encoding="utf-8"?>
<!-- Generator: Adobe Illustrator 16.0.3, SVG Export Plug-In . SVG Version: 6.00 Build 0)  -->
<!DOCTYPE svg PUBLIC "-//W3C//DTD SVG 1.1//EN" "http://www.w3.org/Graphics/SVG/1.1/DTD/svg11.dtd">
<svg version="1.1" id="Layer_1" xmlns="http://www.w3.org/2000/svg" xmlns:xlink="http://www.w3.org/1999/xlink" x="0px" y="0px"
	 width="1000px" height="1000px" viewBox="0 0 1000 1000" enable-background="new 0 0 1000 1000" xml:space="preserve">
<path fill="#0E70A0" d="M145.667,520.667c0-8,2.667-14.667,8.333-20.334c6-5.666,12.667-8.333,20-8.333h68
	c7.667,0,14,2.667,19.333,8.333c5,5.667,7.667,12.334,7.667,20.334s-2.667,14.666-7.667,20c-5,5.666-11.667,8.333-19.333,8.333
	h-67.667c-7.667,0-14.333-2.667-20-8.333C148.667,535,145.667,528.333,145.667,520.667z M241,290.333
	c0-7.667,2.667-14.333,7.667-20.333c6.667-5.667,13.667-8.333,21.333-8.333c7,0,13.667,2.667,19.667,8.333l47.667,48.667
	c5.334,5,8,11.667,8,19.667s-2.666,14.667-8,20c-5.333,5.333-12,8-20,8s-14.667-2.667-19.667-8L249,310.667
	C243.667,305,241,298.333,241,290.333z M246.333,600.667c0-7.334,2.667-13.667,7.667-18.334c5.333-4.666,12.333-7.333,21.333-7.333
	h190.333c9,0,16,2.333,21.333,7.333c5.333,4.667,8,11,8,18.334c0,9-2.667,16-7.667,21.333c-5.333,5.333-12.333,8-21.666,8H275.333
	c-9,0-16-2.667-21.333-7.667S246.333,609.667,246.333,600.667z M279.333,699c0-7.333,3-14,9.333-20c6-6,13-9,20-9
	c8.666,0,15.666,3,21,8.667c5.333,6,8,12.666,8,20.333c0,9.333-2.667,16.333-7.667,21.667c-5,5.333-12.333,7.666-21.333,7.666
	c-7.667,0-14.667-2.666-20.333-8C282.333,715,279.333,707.667,279.333,699z M326.333,530.333V528c1-42,15.667-78.333,43.667-109.333
	c28-31,62.333-49.667,103.333-56.333H475c6.333-1.333,15-2,25.333-2c10.334,0,19,0.667,25.334,2H527
	c40.667,6.333,75.333,25.333,103.333,56.333C658.333,449.667,673,486,674,528v2.333c0,5.334-2.667,8-7.667,8h-37.666
	c-4,0-6.667-1-8.334-3c-1.666-2-2.333-4-2.333-6c-1.333-31-13.333-57.333-36-79C559.333,428.667,532.333,418,500.667,418
	C469,418,442,428.667,419.333,450.333c-22.666,21.667-34.666,48-36,79c0,2-1,4-2.666,6c-1.667,2-4.667,3-8.667,3h-37.667
	C329,538.333,326.333,535.667,326.333,530.333z M360,699c0-7.667,2.667-14.333,8-20.333C373.333,673,380.333,670,389,670h127.667
	c7.333,0,14,3,20,9S546,691.667,546,699c0,8.667-3,16-9,21.333c-6,5.334-12.667,8-20.333,8H389c-9,0-16-2.666-21.333-7.666
	C362.333,715.333,360,708.333,360,699z M471.333,263v-67.667c0-8,2.667-14.667,8.334-20.333c5.666-5.667,12.333-8.333,20.333-8.333
	s14.333,2.667,20,8.333s8.333,12.333,8.333,20.333V263c0,7.667-2.666,14.333-8.333,19.333s-12.333,8-20,8s-14.667-2.667-20-7.667
	S471.333,270.667,471.333,263z M516.667,600.667c0-7,3-13,9-18S538.333,575,546,575s14.333,2.667,20.333,7.667s9,11,9,18
	c0,8.666-3,16-9,21.333s-12.666,8-20.333,8s-14.667-2.667-20.333-8C519.667,616.333,516.667,609.333,516.667,600.667z M568,699
	c0-7.667,2.667-14.333,8-20.333C581.333,673,588.667,670,597.333,670h62c8.667,0,15.667,3,21,8.667c5.334,6,8,12.666,8,20.333
	c0,9.333-2.666,16.333-7.666,21.667c-5,5.333-12.334,7.666-21.334,7.666h-62c-9,0-16-2.666-21.333-7.666
	C570.667,715.333,568,708.333,568,699z M597.333,600.667c0-7,3-13,9-18S619,575,626.333,575h102.334c7.333,0,13.333,2.333,18,7.333
	c4.666,5,7.333,11,7.333,18.334c0,9-2.333,16-7,21.333s-10.667,8-18.333,8H626.333c-7.666,0-14.333-2.667-20.333-8
	C600.333,616.333,597.333,609.333,597.333,600.667z M655.333,338.333c0-8.333,2.667-15,7.667-19.667L710.333,270
	c6-5.667,12.667-8.333,19.667-8.333c7.667,0,14.333,2.667,20,8.333s8.333,12.333,8.333,20.333s-2.666,15-8,20.333L701.667,358
	c-6,5.333-12.667,8-20,8C674,366,668,363.333,663,358C658,353,655.333,346.333,655.333,338.333z M730.667,520.667
	c0-7.667,2.666-14.334,8-20.334c5.666-5.666,12-8.333,19-8.333H825c7.667,0,14.333,3,20,8.667c5.667,5.666,8.667,12.333,8.667,20
	c0,7.666-3,14.333-8.667,20c-5.667,5.666-12.333,8.333-20,8.333h-67.333c-7.667,0-14.334-2.667-19.334-8.333
	C733.333,535,730.667,528.667,730.667,520.667z"/>
</svg>
