<?xml version="1.0" encoding="utf-8"?>
<!-- Generator: Adobe Illustrator 16.0.3, SVG Export Plug-In . SVG Version: 6.00 Build 0)  -->
<!DOCTYPE svg PUBLIC "-//W3C//DTD SVG 1.1//EN" "http://www.w3.org/Graphics/SVG/1.1/DTD/svg11.dtd">
<svg version="1.1" id="Layer_1" xmlns="http://www.w3.org/2000/svg" xmlns:xlink="http://www.w3.org/1999/xlink" x="0px" y="0px"
	 width="1000px" height="1000px" viewBox="0 0 1000 1000" enable-background="new 0 0 1000 1000" xml:space="preserve">
<path fill="#0E70A0" d="M439.667,307c0-16.667,6-31,17.666-42.667c12-12,26-17.667,42.667-17.667c16.333,0,30.667,6,42.333,17.667
	C554,276.333,560,290.333,560,307s-6,31-17.667,43c-11.666,12-26,18-42.333,18s-30.667-6-42.667-18S439.667,323.667,439.667,307z
	 M469,307c0,8.667,3,16,9,22.333c6.333,6.333,13.667,9.333,22.333,9.333c8.667,0,16-3,22.334-9.333C529,323,532,315.667,532,307
	s-3-16-9.333-22c-6.334-6-13.667-9.333-22.334-9.333c-8.666,0-16,3-22.333,9C472,290.667,469,298,469,307z"/>
</svg>
