<?xml version="1.0" encoding="utf-8"?>
<!-- Generator: Adobe Illustrator 16.0.3, SVG Export Plug-In . SVG Version: 6.00 Build 0)  -->
<!DOCTYPE svg PUBLIC "-//W3C//DTD SVG 1.1//EN" "http://www.w3.org/Graphics/SVG/1.1/DTD/svg11.dtd">
<svg version="1.1" id="Layer_1" xmlns="http://www.w3.org/2000/svg" xmlns:xlink="http://www.w3.org/1999/xlink" x="0px" y="0px"
	 width="1000px" height="1000px" viewBox="0 0 1000 1000" enable-background="new 0 0 1000 1000" xml:space="preserve">
<path fill="#0E70A0" d="M49.333,562.667c0,44.666,15.667,83,46.667,115s69,49,113.333,51c4,0,6-2,6-5.667v-44.667c0-4-2-6-6-6
	c-28.667-1.333-53-13-73-34.333s-30-46.667-30-75.333c0-27.667,9.333-51.667,28.333-72.334c19-20.666,42.333-32.333,70-35.666
	l17.667-1.334c4.333,0,6.667-2,6.667-6L231.333,429C235,393,250,362.667,277,338.667c27-24.333,58.667-36.333,95.333-36.333
	c36.334,0,68,12,95.334,36.333C495,363,510.667,393,514.333,429l2.334,19.333c0,4,2,6.334,5.666,6.334h54
	c29.667,0,55.667,10.666,77.334,32c21.666,21.333,32.666,46.666,32.666,75.666s-10,54-30.333,75.334
	C635.667,659,611.333,670.333,583,672c-4.333,0-6.667,2-6.667,6v44.667c0,3.666,2.334,5.666,6.667,5.666
	C627.667,727,665.333,710,696,678c31-32.333,46.333-70.667,46.333-115.333c0-24.667-4.666-47-13.666-67
	c26.333-32,39.333-69,39.333-111c0-31.333-8-60.667-23.667-87.667c-16-27-37.333-48.333-64.333-64.333
	C653,217,623.667,209,592.333,209c-52,0-95.333,19.333-130,58.333c-26.666-14.667-56.666-22-90.333-22
	c-47,0-89,14.667-125.333,43.667s-60,66.667-70.333,112.333c-37,8.667-67.333,28-91.333,58
	C61.333,490,49.333,524.333,49.333,562.667z M227.333,798c3.333,7.333,8.333,12.333,15.333,15c6.667,3.333,13.667,3.667,21,0.667
	c7.333-2.667,12.333-7.667,15-15c3.333-7.334,3.667-14.334,0.667-21.667c-2.667-7-7.667-12-15-14.667
	c-6.667-3.666-13.667-4-20.667-1c-7.333,3-12.333,8-15.667,15.667C224.667,783,224.333,790,227.333,798z M248.667,703.333
	c0,4.667,1,9,3,12.667C258,726.333,268,731.333,281.333,731.333c10.667,0,18.333-7.333,23-21.666L339,602.333
	c2.667-8,2-15.666-2.333-22.333c-4.334-6.667-10.334-11-18.334-12.333c-7-1.667-14-1-20.667,2.333
	c-6.667,3.667-11.333,9.333-13.667,16.667L249.667,694C249,697.333,248.667,700.667,248.667,703.333z M311,890.667
	c0,4.333,0.667,7.666,1.667,9.666c3,7.334,8,12.334,15,15c3,1.667,7,2.334,11.666,2.334c2,0,5.334-0.667,10-2
	C356.667,913,362,908,365,900.667c3-7.334,3.333-14.667,0-22c-3.333-7.334-8.333-12.334-15-15c-6.667-2.667-13.667-2.667-20.667,0
	c-6.333,2.333-11,6.333-14,11.666C312.333,880.667,311,886,311,890.667z M331.333,152.333c0,8.333,2.667,15,8,20L361,194
	c5.333,5.333,11.333,8.333,18,9c7,1,13.667-1.667,20.333-7.667c6.667-6,10-13.333,10-21.333s-2.666-14.667-8-20L380,132.667
	c-6.333-5.667-13-8.333-20.667-8.333c-8,0-15,2.667-20.333,8C334,138,331.333,144.667,331.333,152.333z M335.333,801
	c0,5.333,1.667,10.667,5.334,16c3.666,5.333,9,9,16,11c3.666,0.667,6.333,1.333,8,1.333c5,0,9.333-1,12.666-2.666
	c6.667-2.667,11.334-9,14.334-19l60-204.667c2.333-8,1.666-15-2-21.667c-3.667-6.666-9-11-16.667-13c-8-2.333-15.333-1.666-22,2
	c-6.667,3.667-11.333,9-13.667,17L336,793.667C335.667,797.333,335.333,800,335.333,801z M450.333,788
	c0,4.333,0.667,7.667,2.334,10.333c3,7,8,11.667,15,14.667c3.666,1.667,7.333,2.667,11.666,2.667c2,0,5.334-0.667,10-2
	C497,810.667,502,806,504.667,799c2.666-7.333,2.666-14.333,0-21c-2.667-6.667-7.334-11.667-14-15c-7.667-3.667-14.667-4-22-1
	c-7,3-12.334,8-16,15.667C451,780.333,450.333,783.667,450.333,788z M474.333,702.667c0,5.333,1.667,10.333,5,15
	c3.334,5,8.667,8.333,15.334,10.333c3,0.667,5.666,1,8.333,1c13,0,21.667-6.667,26.333-20.333l34.334-106
	c2.666-7.667,1.666-15-2.334-21.667s-9.666-11-17.333-13c-8-2.333-15-1.667-21.333,2c-6.334,3.667-10.667,9-13.334,17l-34,106.667
	C475,698,474.333,701,474.333,702.667z M510,300c22.333-21.333,50-32.333,82.667-32.333C625.333,267.667,653,279,676,302
	c23,22.667,34.667,50.333,34.667,83c0,20.667-5.667,41.333-17.334,61.667c-32-32-70.666-48-117-48h-9.666
	C556.667,360,538,327,510,300z M564,124.333c0,8,2.667,14.667,8.333,20.333C578,150.333,584.667,153,592.667,153
	c7.666,0,14.333-2.667,19.666-8.333c5.334-5.667,8-12.333,8-20.333V55.667c0-8-2.666-14.667-8-20.333
	C607,29.667,600.667,27,592.667,27S578,29.667,572.333,35.333C566.667,41,564,47.667,564,55.667V124.333z M749,200.667
	c0,8,2.667,14.667,8.333,20c5,5.667,11.334,8.667,19.334,8.667c7.666,0,14.666-3,20-8.667l48-48c6-5,9-11.667,9-20
	c0-8-3-14.667-8.667-20.333c-5.667-5.667-12.667-8.333-20.333-8.333c-7.334,0-13.667,3-19,9l-48.334,47.667
	C752,185.667,749,192.667,749,200.667z M776,597.333c0,7.667,2.667,14.334,8,20l22,21c4.667,6,11.333,9,20,9c8,0,14.333-3,19-9
	c6-5.333,9-12,9-20s-3-14.666-9-20.333l-21.667-20.667c-5.333-6-11.666-8.666-19.333-8.666s-14.333,2.666-20,8.333
	C778.667,582.667,776,589.667,776,597.333z M824.667,385c0,8,3,14.667,8.666,20c6,6,12.667,8.667,20.667,8.667h67.667
	c8,0,14.666-2.667,20.333-8.334c5.667-5.666,8.667-12.333,8.667-20.333c0-7.667-2.667-14.333-8.334-19.667
	c-5.666-5.333-12.666-8-20.666-8H854c-8.333,0-15.333,2.667-21,8C827.667,370.667,824.667,377.333,824.667,385z"/>
</svg>
