<?xml version="1.0" encoding="utf-8"?>
<!-- Generator: Adobe Illustrator 16.0.3, SVG Export Plug-In . SVG Version: 6.00 Build 0)  -->
<!DOCTYPE svg PUBLIC "-//W3C//DTD SVG 1.1//EN" "http://www.w3.org/Graphics/SVG/1.1/DTD/svg11.dtd">
<svg version="1.1" id="Layer_1" xmlns="http://www.w3.org/2000/svg" xmlns:xlink="http://www.w3.org/1999/xlink" x="0px" y="0px"
	 width="1000px" height="1000px" viewBox="0 0 1000 1000" enable-background="new 0 0 1000 1000" xml:space="preserve">
<path fill="#0E70A0" d="M49.333,703.333c0,8,3,14.667,9,20C64,729,70.667,731.667,78.667,731.667h196c8.667,0,16,3,22.667,9.333
	c6.667,6.333,10,14,10,22.667c0,8.666-3.333,16.666-10,23c-6.667,6.333-14,9.666-22.667,9.666c-8.667,0-16-3.333-22.667-10
	c-6-5.333-12.667-8-20.333-8c-8,0-14.667,2.667-20,8c-5.333,5.334-8,12-8,20s2.667,14.667,8,20C229.333,844,250.333,853,274.667,853
	c24.667,0,45.667-8.667,62.667-26s26-38.333,26-63s-8.666-45.667-26-63C320,683.667,299,675,274.667,675h-196
	c-8,0-14.667,2.667-20.667,8.333C52.333,689,49.333,695.667,49.333,703.333z M49.333,603c0,7.667,3,14,9,19.333
	c5.333,5.334,12.333,8,20.333,8h365.667c24.667,0,45.667-8.666,63-26c17.334-17.333,26-38.333,26-63
	c0-24.666-8.666-45.333-26-62.666C490,461.667,469,453,444.333,453c-25.333,0-46,8.333-62.666,25.333
	c-5.334,5.334-7.667,12.334-7.667,20.334s2.667,14.666,7.667,20c5,5,11.666,7.666,20,7.666c8,0,14.666-2.666,20.666-7.666
	c6.334-6.334,13.667-9.334,22.667-9.334s16.333,3,22.667,9.334c6.333,6.333,9.666,14,9.666,22.666c0,9-3.333,16.667-9.666,23
	c-6.334,6.334-14,9.667-22.667,9.667H78.667c-8,0-14.667,3-20.667,8.667C52.333,588.667,49.333,595.333,49.333,603z M242.333,385
	c0-8,3-14.667,8.667-20.667c6-5.333,12.667-8,20-8h67.667c7.666,0,14,2.667,19.333,8.333c5.333,5.667,7.667,12.333,7.667,20.333
	S363,399.667,358,405c-5.333,5.667-11.667,8.333-19.333,8.333H271c-8,0-14.667-2.666-20.333-8.333
	C245,399.333,242.333,392.667,242.333,385z M337.333,154.333C337.333,146.667,340,140,345,134c6.333-5.333,13.667-8,21.333-8
	c7.334,0,14,2.667,19.667,8l47.667,49c5.333,5,8,11.667,8,19.667s-2.667,14.667-8,20c-5.334,5.333-12,8-19.667,8
	c-8,0-14.667-2.667-19.667-8l-49-47.667C340,169.333,337.333,162.667,337.333,154.333z M422.667,381v-2.333
	c0.666-30.333,9-58.333,24.666-84.333c16-25.667,37-46,63.334-61c26.333-15,55-22.333,85.666-22.333
	c23.334,0,45.667,4.667,67.334,14c21.333,9.333,40,21.667,55.333,37.333c15.667,15.667,28,34,37,55.333
	c9,21.333,13.667,44,13.667,67.333c0,31.333-7.667,60-23,86.667c-15.334,26.666-36.334,47.666-62.667,63
	c-26.333,15.666-55.333,23.333-86.667,23.666h-7c-2.333,0-4.333-0.666-5.666-2.333c-1.667-1.667-2.334-3.667-2.334-6v-40.667
	c0-4.333,2.334-6.666,7.334-6.666h8c32-0.334,59.666-11.667,82.333-35c22.667-23,34.333-50.667,34.333-83
	c0-32-11.666-59.333-34.666-82.333c-23-22.667-50.667-34-83.334-34C565,268.333,537.667,279,515,301c-22.667,21.667-34.667,48-36,79
	c0,2-1,3.667-2.667,5.667c-1.666,2-4.666,3-8.666,3H430C425,389,422.667,386.333,422.667,381z M567.667,710.333V644
	c0-8,2.666-14.667,8.333-20s12.333-8,20-8c8.333,0,15,2.667,20.333,8c5.334,5.333,8,12,8,20v66.333c0,8-2.666,15-8.333,20.667
	s-12.333,8.333-20,8.333c-8,0-14.667-2.666-20-8.333S567.667,718.333,567.667,710.333z M567.667,127.667V59.333
	c0-7.667,2.666-14.333,8.333-20C581.667,33.667,588.333,31,596,31c8,0,14.667,2.667,20,8.333c5.333,5.667,8.333,12.333,8.333,20v68
	c0,7.667-2.666,14-8.333,19.333c-5.667,5-12.333,7.667-20,7.667c-8,0-14.667-2.667-20-7.667S567.667,135.333,567.667,127.667z
	 M752,567c0-7.667,2.667-14,7.667-18.667c5-5.333,11.333-7.666,19-7.666c8,0,14.666,2.666,20,7.666L847,595.667
	c5.333,5.666,8,12.666,8,20.333s-2.667,14.333-8,19.667c-13.333,10.333-26.667,10.333-40,0L759.667,588
	C754.333,582.667,752,575.333,752,567z M752,202.667c0-8.333,2.667-15,7.667-19.667L807,134c6-5.333,12.333-8,19.667-8
	c7.666,0,14.333,2.667,20,8.333c5.666,5.667,8.333,12.333,8.333,20c0,8.333-2.667,15.333-8,20.667l-48.333,47.667
	c-6,5.333-12.667,8-20,8c-7.667,0-13.667-2.667-19-8C754.333,217.333,752,210.667,752,202.667z M827.333,385
	c0-8,2.667-14.667,8-20.667c5.334-5.333,11.667-8,19-8h67.334c7.666,0,14.333,3,20.333,8.667s8.667,12.333,8.667,20
	s-3,14.333-8.667,20c-6,5.667-12.667,8.333-20.333,8.333h-67.334c-7.666,0-14-2.666-19.333-8.333
	C829.667,399.667,827.333,393,827.333,385z"/>
</svg>
