<?xml version="1.0" encoding="utf-8"?>
<!-- Generator: Adobe Illustrator 16.0.3, SVG Export Plug-In . SVG Version: 6.00 Build 0)  -->
<!DOCTYPE svg PUBLIC "-//W3C//DTD SVG 1.1//EN" "http://www.w3.org/Graphics/SVG/1.1/DTD/svg11.dtd">
<svg version="1.1" id="Layer_1" xmlns="http://www.w3.org/2000/svg" xmlns:xlink="http://www.w3.org/1999/xlink" x="0px" y="0px"
	 width="1000px" height="1000px" viewBox="0 0 1000 1000" enable-background="new 0 0 1000 1000" xml:space="preserve">
<path fill="#0E70A0" d="M49.333,563.667c0,37.333,11,71,33.333,100.333c22.333,29.333,51,49,86,59c3,0.333,5.667-0.333,8-2.667
	l39-47C186,673.333,160.333,662.667,139,641s-32-47.333-32-77.667c0-27.666,9.333-51.666,28.333-72.333
	c19-20.333,42.333-32.333,70.333-35.667l16.333-1c4.333,0,6.667-2,6.667-6.333L231,430c3.667-36,19-66.333,46-90.667
	s59-36.667,95.333-36.667c36.667,0,68.667,12.333,96,36.667C495.667,363.667,511,394,514.667,430L517,449.667
	c1.333,3.666,4,5.666,7.333,5.666H579c29.333,0,54.667,10.667,76,31.667s32,46.667,32,76c0,28-9.333,52.667-28.333,73.667
	s-41.667,32.666-69,35c-16.334,2-26.334,5-30,9.333l-73,94c-4.667,6.333-6.334,13.333-5.334,21s4.334,14,10.334,18.667
	c5,5.666,11.666,8,20,7c8.333-1,15-5,20-12l64-82C623,725,648,716,670.667,700.333C693.333,685,711,665,724.333,640.667
	c13-24.334,19.667-50.334,19.667-78c0-24-4.667-46.334-14-67c26.333-32,39.333-69,39.333-111c0-23.667-4.666-46-14-67.667
	c-9.333-21.667-22-40.333-37.666-56c-15.667-15.667-34.334-28-56-37.333c-21.667-9.333-44.334-14-68-14c-50,0-93,19.333-129.334,58
	c-26.333-14.667-56.666-22-90.666-22c-47,0-88.667,14.667-125,44c-36.333,29.333-59.333,66.667-69,112.333
	c-37.667,8.667-68.667,27.667-93,57.667C62.333,489.667,49.333,525.333,49.333,563.667z M179.333,838.333
	c2.333,7.334,7.667,12.667,15.333,16c7.333,3.334,14.667,3.334,22.333,0.334s12.667-8.334,15.333-15.667c3-7,3.333-13.667,0-20.667
	c-3-7-8-12-15-15.333c-7.333-3.333-14.667-3.667-22-0.667c-7.333,3-12.333,8-15,15.334C177.333,826,177,833,179.333,838.333z
	 M239.667,747v3.667c0.667,7.333,4,13.333,10,18.333s12.667,7.333,21,6.667c8-0.667,14.333-4,19-9.667l72.667-94
	c4.667-6,7-13,6.334-21c-0.667-8-4-14.333-9.667-19c-6-5-13-7-21-6.333c-8,0.666-14.667,4.333-20,10.333l-71.667,93.333
	C241.667,734.667,239.667,740.667,239.667,747z M256.667,909c0,2,0.667,5.333,2,10c3,7.333,8,12.333,15.333,15.333
	c3.667,1.334,7.667,2.334,12,2.334c3,0,6.667-0.667,10.333-1.667c7-2.667,12-7.667,14.667-14.667
	c3.333-7.333,3.667-14.666,0.667-22.333c-2.667-7.667-7.667-12.667-15-15.333c-7.333-3.334-14.667-3.334-22.333-0.334
	c-7.667,3-12.667,8-15,15C257.667,901,256.667,905,256.667,909z M312.333,830v3.333c0.667,7.667,4.334,14,11,19.334
	c5,5.333,11.667,7.666,20,6.666c8.334-1,15-4.666,20-11.333l138-174.333C506,667,507.667,660,507,652.333
	c-0.667-7.666-4.333-14-10.333-19.666c-6-4.667-13-6.667-20.667-5.667s-14,4.333-18.667,10.333L318.667,812.667
	C314.333,817.667,312.333,823.667,312.333,830z M331.667,153.667c0,8,3,14.667,9,19.667l20.333,22c5.333,5.333,11.333,8,18,8.667
	c7,1,13.667-1.333,20.333-7.333c6.667-6,10-13,10-21.333c0-7.333-2.666-14.333-8-20L380,133.667c-5-5.333-11.333-8-19.333-8
	s-15,2.667-20.667,8C334.667,139.333,331.667,146,331.667,153.667z M430,868c0,4,0.667,7.333,2.333,10.333
	c3,7.334,8,12.334,15,15.334c3.667,1.666,7.334,2.666,11.667,2.666c2,0,5.333-0.666,10-2c7.333-3,12.667-8,15.333-15.333
	c3.334-7.333,3.667-14.667,0.667-22c-2.667-7.333-7.667-12.333-15-15c-7.333-3.333-14.667-3.667-22.333-0.667
	c-7.667,3-12.667,8-15.334,15C430.667,860,430,864,430,868z M510,301c23.667-21.333,51-32.333,82.667-32.333
	c33,0,61,11.333,84.333,34.333s35,50.333,35,83c0,22-5.667,42.667-17.333,62c-32.334-32.333-71-48.333-116-48.333h-11.334
	C558.333,361,539.333,328.333,510,301z M564.333,125.667c0,7.667,2.667,14.333,8.334,19.667c5.666,5.333,12.333,8,20,8
	c8,0,15-2.667,20.666-8c5.667-5.333,8.334-12,8.334-19.667v-69c0-7.667-3-14.333-8.667-20c-5.667-5.667-12.667-8.333-20.333-8.333
	c-7.667,0-14.334,2.667-20,8.333c-5.667,5.667-8.334,12.333-8.334,20V125.667L564.333,125.667z M750,201.667
	c0,8,2.333,14.667,7.333,20c6,5.667,12.667,8.333,20.334,8.667c7.666,0,14-2.667,19-8.667l50-48.333c5.333-5.333,8-12.333,8-20.333
	s-3-14.667-8.667-20.333C840.333,127,833.667,124,826,124c-7.333,0-14,2.667-20,8.333l-48.333,49
	C752.667,187,750,193.667,750,201.667z M776,598.333c0,8,2.667,14.667,8,20l22,21c5.333,5.334,11.333,8.334,18,9h2
	c6,0,12.667-3,20.667-9c5.333-5.333,8-12,8-19.333c0-8-2.667-15-8-21l-22-20.667c-5.334-5.666-12-8.333-19.667-8.333
	c-8,0-15,2.667-20.667,8.333C779,583.667,776,590.667,776,598.333z M826,386c0,8,2.667,14.667,8,20c5.333,6,12,9,20,9h68
	c8,0,14.667-3,20.333-8.667c5.667-5.666,8.334-12.667,8.334-20.333s-2.667-14.333-8.334-19.667c-5.666-5.333-12.333-8-20.333-8h-68
	c-8,0-14.667,2.667-20,8C828.667,371.667,826,378.333,826,386z"/>
</svg>
