<?xml version="1.0" encoding="utf-8"?>
<!-- Generator: Adobe Illustrator 16.0.3, SVG Export Plug-In . SVG Version: 6.00 Build 0)  -->
<!DOCTYPE svg PUBLIC "-//W3C//DTD SVG 1.1//EN" "http://www.w3.org/Graphics/SVG/1.1/DTD/svg11.dtd">
<svg version="1.1" id="Layer_1" xmlns="http://www.w3.org/2000/svg" xmlns:xlink="http://www.w3.org/1999/xlink" x="0px" y="0px"
	 width="1000px" height="1000px" viewBox="0 0 1000 1000" enable-background="new 0 0 1000 1000" xml:space="preserve">
<path fill="#0E70A0" d="M77.333,495c0,8,3,14.667,8.667,20c5.333,5.667,12,8.333,20,8.333h314c7.667,0,14.333-2.666,19.667-8.333
	c5.333-5.667,8-12.333,8-20S445,480.667,440,475.333c-5.333-5.333-11.667-8-19.667-8H106c-8,0-14.667,2.667-20.333,8
	C80,480.667,77.333,487.333,77.333,495z M88.333,700c0,8,2.667,14.667,8.333,20c5.333,5.667,12,8.333,20,8.333H431
	c8,0,14.667-2.666,20.333-8.333c5.667-5.667,8.334-12.333,8.334-20s-2.667-14.333-8.334-19.667c-5.666-5.333-12.333-8-20.333-8H117
	c-8,0-14.667,2.667-20,8C91.333,685.667,88.333,692.333,88.333,700z M134,596.667c0,8,2.667,14.333,8.333,19.666
	C148,621.667,155,624,163.333,624h313.333c8,0,14.333-2.667,19.666-7.667C501.667,611,504,604.667,504,596.667
	c0-8.334-2.667-15-7.667-20.334c-5.333-5.333-11.666-8-19.666-8H163.333c-8.333,0-15.333,2.667-21,8
	C137,581.667,134,588.333,134,596.667z M215,385c0-8,3-14.667,8.667-20.667c5.667-5.333,12.667-8,20-8h67.667
	c7.667,0,14,2.667,19.334,8.333C336,370.333,338.333,377,338.333,385s-2.666,14.667-7.666,20
	c-5.334,5.667-11.667,8.333-19.334,8.333h-67.667c-8,0-14.667-2.666-20.333-8.333C217.667,399.333,215,392.667,215,385z
	 M310.333,154.333c0-7.333,2.667-14.333,8-20.333c6.334-5.333,13.334-8,21-8c7.334,0,14,2.667,19.667,8l47.333,49
	c5.334,5,8,11.667,8,19.667s-2.666,14.667-8,20c-5.333,5.333-12,8-20,8s-14.666-2.667-19.666-8L318.333,175
	C313,169,310.333,162.333,310.333,154.333z M395.333,381v-2.333c0.667-30.333,9-58.333,24.667-84.333c15.667-25.667,37-46,63.333-61
	c26.334-15,55-22.333,85.667-22.333c23.333,0,45.667,4.667,67.333,14c21.334,9.333,40,21.667,55.334,37.333
	c15.666,15.667,28,34,37,55.333c9,21.333,13.666,44,13.666,67.333c0,31.333-7.666,60-23,86.667
	c-15.333,26.666-36.333,47.666-62.666,63C630.333,550.333,601.333,558,570,558.333h-6.667c-2.333,0-4.333-0.666-6-2.333
	c-1.666-1.667-2.666-3.667-2.666-6v-40.667c0-4.333,2.333-6.666,7.333-6.666h8c32-0.334,59.667-11.667,82.333-35
	c22.667-23,34.334-50.667,34.334-83c0-32-11.667-59.333-34.667-82.333c-23-22.667-50.667-34-83.333-34
	C537.333,268.333,510,279,487.333,301c-22.666,21.667-34.666,48-36,79c0,2-0.666,3.667-2.333,5.667s-4.333,3-8.333,3h-38
	C397.667,389,395.333,386.333,395.333,381z M541,710.333V644c0-8,2.667-14.667,8-20s12-8,20-8s15,2.667,20.333,8
	c5.334,5.333,8,12,8,20v66.333c0,8-2.666,15-8.333,20.667s-12.333,8.333-20,8.333c-8,0-14.667-2.666-20-8.333
	S541,718.667,541,710.333z M541,127.667V59.333c0-8,2.667-14.667,8.333-20C555,34,561.333,31,569.333,31
	c7.667,0,14.334,2.667,20,8.333c5.667,5.667,8.334,12.333,8.334,20v68c0,7.667-2.667,14-8.334,19.333
	c-5.666,5-12.333,7.667-20,7.667c-8,0-14.666-2.667-20-7.667C543.667,141.667,541,135.333,541,127.667z M724.667,567
	c0-7.667,2.333-14,7.666-18.667c5-5.333,11.334-7.666,19-7.666c8,0,14.667,2.666,20,7.666l48.334,47.334
	c5.333,5.666,8,12.666,8,20.333s-2.667,14.333-8,19.667c-13.334,10.333-26.667,10.333-40,0L732.333,588
	C727.333,582.667,724.667,575.333,724.667,567z M724.667,202.667c0-8.333,2.333-15,7.666-19.667l47.334-49
	c6-5.333,12.333-8,19.666-8c8,0,14.667,2.667,20,8.333c5.667,5.667,8.334,12.333,8.334,20c0,8.333-2.667,15.333-8,20.667
	l-48.334,47.667c-6,5.333-12.666,8-20,8c-7.666,0-13.666-2.667-19-8C727,217.333,724.667,210.667,724.667,202.667z M800,385
	c0-7.667,2.667-14.667,8.333-20.667c5.334-5.333,11.667-8,18.667-8h67.667c7.666,0,14.333,3,20.333,8.667
	c5.667,5.667,8.667,12.333,8.667,20s-3,14.333-8.667,20c-6,5.667-12.667,8.333-20.333,8.333H827c-7.667,0-14-2.666-19.333-8.333
	C802.667,399.667,800,393,800,385z"/>
</svg>
