<?xml version="1.0" encoding="utf-8"?>
<!-- Generator: Adobe Illustrator 16.0.3, SVG Export Plug-In . SVG Version: 6.00 Build 0)  -->
<!DOCTYPE svg PUBLIC "-//W3C//DTD SVG 1.1//EN" "http://www.w3.org/Graphics/SVG/1.1/DTD/svg11.dtd">
<svg version="1.1" id="Layer_1" xmlns="http://www.w3.org/2000/svg" xmlns:xlink="http://www.w3.org/1999/xlink" x="0px" y="0px"
	 width="1000px" height="1000px" viewBox="0 0 1000 1000" enable-background="new 0 0 1000 1000" xml:space="preserve">
<path fill="#0E70A0" d="M52,562.667C52,607,67.333,645,98.333,677S167,725.667,211.667,728c3.667,0,5.667-2,5.667-5.667v-44.666
	c0-4-2-6-5.667-6c-28.333-1.334-52.333-12.667-72.333-34c-20-21.334-29.667-46.334-29.667-75c0-28,9.333-52,28-72.334
	c18.667-20.333,42-32,70-35.333l16.667-1.333c4.333,0,6.667-2,6.667-6L233,430c3.667-36,18.667-66.333,45.667-90.333
	c27-24.333,58.667-36.333,95.333-36.333c36.333,0,68.333,12,95.333,36.333C496.333,364,511.667,394,515,430l2.333,19c0,4,2,6,6,6
	H579c29.333,0,54.333,10.667,75.667,32c21.333,21.333,32,46.333,32,75.667c0,28.333-10,53-30,74s-44,32.666-72,35
	c-3.667,0-5.667,2-5.667,6v44.666c0,3.667,2,5.667,5.667,5.667c29.333-0.667,55.666-8.667,80-24c24.333-15.333,43.333-35,57-60
	c14-25,20.666-52,20.666-81.333c0-23.667-4.666-45.667-13.666-65.334C754,466,766.333,429.667,766.333,388
	c0-23.667-4.666-46.333-13.666-68S731,280,715.333,264.333c-15.333-15.667-34-28-55.333-37c-21.667-9.333-44.333-13.667-68-13.667
	c-50.333,0-92.667,18.333-127,55.333c-26.333-14.333-56.667-21.333-91-21.333c-47,0-88.667,14.667-125,43.667S190,357.667,180,403
	c-37.333,8.667-68.333,27.667-92.333,57.333C64,490,52,524.333,52,562.667z M232.333,786c0,6,1.667,12,5.333,17.667
	c3.667,6,8.667,9.666,15,12C259,818,266,817.333,273,813.667c7.333-3.667,12-9.667,14.667-18.334l8.333-35
	c2.333-7,1.667-13.666-2.333-20.666s-9.667-11.667-17-14c-8.333-2-15.667-1-22.333,2.666C247.667,732,243.667,738.333,242,746
	l-9.333,33C232.667,780.667,232.333,783,232.333,786z M276,628.667c0,12.666,7,21.333,21.333,26.333
	c7.333,2.667,14.333,2,21.333-1.667c7-3.666,11.333-9.666,13.666-17.666l8-34.334c2.334-7,1.667-13.666-2.333-20.666
	c-3.667-7-9.333-11.667-17-14c-8-2-15.667-1.334-22.333,2.666c-6.667,4-10.667,9.667-12.333,17.334l-10,34
	C276.333,623.333,276,626,276,628.667z M316.667,891.667c0,5.333,2,11,5.666,16.666c3.667,5.667,9.334,9.667,16.334,12
	c0.333,0,1.333,0,3.333,0.334c2,0.333,3.667,0.333,5,0.333c4.667,0,8.667-0.667,12.333-2.333c6.334-2.667,11-9,13.667-19.334l9-33
	c2.333-7.666,1.667-15-2.333-21.666c-4-6.667-9.667-11.334-17-13.334c-7.667-2.333-15-1.666-21.667,2.334s-11.333,9.666-13.333,17
	l-9.334,34C317,887.667,316.667,890,316.667,891.667z M332,156c0,8.333,2.667,15.333,8.333,20.667l22,21.667
	c11.334,11.333,24.334,11.333,39,0c5.334-5.667,8-12.667,8-20.333s-2.666-14.333-8-20.333l-21-22c-5.333-5.333-12-8-20-8
	c-7.666,0-14.333,2.667-20,8.333C334.667,141.333,332,148,332,156z M361.667,732c0,5.667,1.666,11.333,5.333,17
	s8.667,9.333,15.667,11.667C390.333,763,397.333,762.333,404,759c6.333-3.333,11-9.667,13.333-18.667l8-33.666
	c2.334-7.667,1.667-15-2-21.667c-3.666-6.667-9.333-11.333-16.666-13.667C398.333,669,390.667,670,384,674s-11,10-12.333,17.667
	L362.333,726C361.667,727,361.667,729,361.667,732z M454.333,789.333C455,802,462,811,475.333,817l8.334,1.333
	c5.333,0,10.666-1.666,15.666-5.333S508,804,510,796.333l9.667-33.666c2-8,1-15.334-3-22c-4-6.667-10-11-17.667-12.334
	c-7-2.333-13.667-1.666-20.667,2.334s-11.333,9.666-13.666,17l-9,34c-0.334,0.666-0.334,1.666-0.667,2.666s-0.333,2-0.667,2.667
	C454,787.667,454.333,788.667,454.333,789.333z M501,630.667c0,5.333,1.667,10.666,5,16c3.333,5.333,8.333,9,15,10.666l8.333,1
	c6.334,0,12.334-2,17.334-6s8-9.333,9.333-15.666l9-33c2.333-8,1.667-15-2.333-21.667c-3.667-6.667-9.334-11-17-13
	c-7.667-2.333-15-1.667-21.334,2c-6.666,3.667-11,9.333-13,16.667l-10,35.333C501.333,625.667,501,628.333,501,630.667z M512,302
	c22-21.333,48.667-32,80-32c32.667,0,60.667,11.667,83.667,34.667s34.666,51,34.666,83.667c0,18.667-5.333,38.333-15.666,58.667
	c-32-32-70.334-47.667-115.667-47.667h-11.333C559,361.333,540.333,329,512,302z M563.333,127.667c0,8.333,2.667,15,8,20.333
	c5.334,5.333,12,8,20.334,8c8.333,0,15-2.667,20.333-8s8-12,8-20.333V60.333C620,52,617.333,45,612,39.667
	c-5.333-5.333-12-8-20.333-8c-8.334,0-15,2.667-20.334,8c-5.333,5.333-8,12.333-8,20.667V127.667z M748.333,204
	c0,8.333,2.667,15,7.667,20.333c7,5.667,13.667,8.333,20.667,8.333c6.333,0,12.666-2.667,19.666-8.333L844,176.667
	c5.333-6,8-13,8-21s-2.667-14.667-8-20c-5.333-5.333-12-8-19.667-8c-7.666,0-14.333,2.667-20.333,8l-48,47.667
	C751,189.333,748.333,196,748.333,204z M774.667,598.333c0,7.667,3,14.667,8.666,21L804,640.667c7,7,13.667,10.333,20.667,10.333
	c6.333,0,13-3.333,19.333-10.333c6-6,9-13,8.667-20.334c-0.334-7.666-3-14.333-8.667-20l-21.667-22c-5.333-5.333-11.666-8-19-8
	c-8,0-14.666,2.667-20.333,8.334C777.667,584,774.667,590.667,774.667,598.333z M823.667,388c0,7.333,2.666,14,8,19.333
	c5.333,5.334,12,8,19.333,8h68c8.667,0,15.667-2.666,21-7.666c5.333-5.334,8-11.667,8-19.667c0-8.333-2.667-15.333-8.333-20.667
	c-5.667-5.333-12.334-8-20.667-8h-68c-7.667,0-14.333,2.667-19.667,8.333C826.333,373.333,823.667,380.333,823.667,388z"/>
</svg>
