<?xml version="1.0" encoding="utf-8"?>
<!-- Generator: Adobe Illustrator 16.0.3, SVG Export Plug-In . SVG Version: 6.00 Build 0)  -->
<!DOCTYPE svg PUBLIC "-//W3C//DTD SVG 1.1//EN" "http://www.w3.org/Graphics/SVG/1.1/DTD/svg11.dtd">
<svg version="1.1" id="Layer_1" xmlns="http://www.w3.org/2000/svg" xmlns:xlink="http://www.w3.org/1999/xlink" x="0px" y="0px"
	 width="1000px" height="1000px" viewBox="0 0 1000 1000" enable-background="new 0 0 1000 1000" xml:space="preserve">
<path fill="#0E70A0" d="M392.333,549c0,7.333,2.667,13.333,8.334,18.333l80,81.667c5.333,5.333,11.666,7.667,19.333,7.667
	c8,0,14.333-2.667,19.667-7.667l80-81.667c5.333-4.666,8-11,8-18.333S605,535.333,600,530s-11.333-7.667-18.667-7.667
	c-7.333,0-14,2.667-19,7.667L527,565V345.333c0-7.333-2.667-13.667-8-18.667c-5-4.667-11.333-7.333-19-7.333s-14,2.333-19.333,7.333
	c-5.334,5-8,11.333-8,18.667V565l-35.334-35C432,524.667,426,522.333,419,522.333c-7.333,0-14,2.667-19,7.667
	S392.333,541.667,392.333,549z"/>
</svg>
