<?xml version="1.0" encoding="utf-8"?>
<!-- Generator: Adobe Illustrator 16.0.3, SVG Export Plug-In . SVG Version: 6.00 Build 0)  -->
<!DOCTYPE svg PUBLIC "-//W3C//DTD SVG 1.1//EN" "http://www.w3.org/Graphics/SVG/1.1/DTD/svg11.dtd">
<svg version="1.1" id="Layer_1" xmlns="http://www.w3.org/2000/svg" xmlns:xlink="http://www.w3.org/1999/xlink" x="0px" y="0px"
	 width="1000px" height="1000px" viewBox="0 0 1000 1000" enable-background="new 0 0 1000 1000" xml:space="preserve">
<path fill="#0E70A0" d="M236.333,498.667c0,12.333,4,22.666,12.333,30.666l128,125C384,662.667,393.667,667,405,667
	c11.667,0,21.667-4,29.667-11.667c8-7.666,12.333-17.666,12.333-29.333s-4-21.667-12.333-29.667L380,541.667h343.333
	c11.667,0,21.334-4,29-12.334c7.667-8.333,11.334-18.333,11.334-30c0-11.666-3.667-21.666-11.334-30
	c-7.666-8.333-17.333-12.666-29-13H380L434.667,401c8-8,12.333-17.667,12.333-28.667c0-11.667-4-21.667-12.333-29.667
	c-8.334-8-18-12.667-30-12.667c-10.667,0-20.334,4.667-28.334,13.667l-128,125C240.333,477,236.333,486.667,236.333,498.667z"/>
</svg>
