<?xml version="1.0" encoding="utf-8"?>
<!-- Generator: Adobe Illustrator 16.0.3, SVG Export Plug-In . SVG Version: 6.00 Build 0)  -->
<!DOCTYPE svg PUBLIC "-//W3C//DTD SVG 1.1//EN" "http://www.w3.org/Graphics/SVG/1.1/DTD/svg11.dtd">
<svg version="1.1" id="Layer_1" xmlns="http://www.w3.org/2000/svg" xmlns:xlink="http://www.w3.org/1999/xlink" x="0px" y="0px"
	 width="1000px" height="1000px" viewBox="0 0 1000 1000" enable-background="new 0 0 1000 1000" xml:space="preserve">
<path fill="#0E70A0" d="M49.667,562.667c0,37.333,11,70.666,33.333,100c22.333,29.333,51,49,86,58.666L147,778
	c-1.667,4.667,0,7.333,4.667,7.333h71L175,925.667h9.667L330,737c1.333-1.333,1.333-3,0.667-4.667C330,730.667,328.333,730,326,730
	h-73l83-155c2.333-4.667,1-7.333-4.667-7.333h-98.667c-3,0-5.667,1.666-7.667,5l-35.667,96c-24-6-44-18.667-59.333-38.667
	c-15.667-19.667-23.333-42-23.333-67.333c0-28,9.333-52.334,28-72.667C153.333,469.667,177,457.667,205,454.333l17-1
	c4,0,6.333-1.666,7.333-4.666L231.667,429c3.667-36,18.667-66.333,45.667-90.667c27-24.333,58.667-36.667,95.333-36.667
	c36.333,0,68,12.333,95.333,36.667C495.333,362.667,511,393,514.667,429l2.666,19.667c0,3.666,2,5.666,6,5.666H577
	c29.667,0,55.333,10.667,77,32c21.667,21.334,32.333,46.667,32.333,76.334c0,29-10,54-30,75.333s-44,32.667-72.666,34.333
	c-4.334,0-6.667,2-6.667,6V723c0,3.667,2.333,5.667,6.667,5.667C613,728,640,720,664.333,704.667c24.334-15,43.667-35.334,58-60.334
	c14.334-25,21.334-52.333,21.334-81.666c0-24.334-4.667-46.667-14.334-67.334c25.334-32,38-68.666,38-109.667
	c0-31.667-8-61-23.666-88c-15.667-27-37-48.333-64-64c-27-15.667-56.334-23.667-88-23.667c-24,0-47.334,5-70,15
	c-22.667,10-42,24-58.667,41.667C436,252.333,406,245,372.333,245C325,245,283,259.667,246.667,289
	c-36.333,29.333-60,66.667-70,112.333c-37,8.667-67.333,28-91.333,58C61.667,490,49.667,524.333,49.667,562.667z M330,153
	c0,7.667,2.667,14.333,8.333,20L360,195c5.333,5.333,11.333,8,18.333,8.667c7,1,13.667-1.333,20.334-7.667c6.666-6,10-13,10-21.333
	c0-7.667-2.667-14.333-8.334-20l-21-22c-5.333-5.333-12-8-20-8c-8.333,0-15.333,2.667-21,8C333,138.667,330,145.333,330,153z
	 M369.333,765.333c0,8,2.667,14.667,8,19.667c5.334,5.333,12,8,19.334,8c8,0,14.666-2.667,20.333-8s8.333-12,8.333-19.667
	c0-8-2.666-14.666-8.333-20.333s-12.333-8.667-20.333-8.667c-7.334,0-13.667,3-19.334,8.667
	C371.667,750.667,369.333,757.333,369.333,765.333z M369.333,644c0,8,2.667,14.333,8,19.333c5.334,5.334,12,8,19.334,8
	c8,0,15-2.666,20.333-7.666S425.333,652,425.333,644c0-7.667-2.666-14.333-8.333-20s-12.333-8.333-20.333-8.333
	c-7.667,0-14,2.666-19.334,8.333C372,629.667,369.333,636.333,369.333,644z M369.333,887.667c0,7.333,2.667,13.666,8,19
	c5.667,5.666,12,8.333,19.334,8.333c8,0,14.666-2.667,20.333-8s8.333-11.667,8.333-19.667S422.667,872.667,417,867
	s-12.333-8.667-20.333-8.667c-7.334,0-13.667,3-19.334,8.667C372,873,369.333,880,369.333,887.667z M477,700.667
	c0,8,2.667,14.666,8.333,20c5.667,5.333,12,8.333,20,8.333c7.667,0,14.334-2.667,19.667-8.333c5.333-5.667,8-12.334,8-20
	c0-7.334-2.667-14-8-19.334c-5.333-5.333-11.667-8-19.667-8c-7.666,0-14.333,2.667-20,8C479.667,686.667,477,693,477,700.667z
	 M477,822c0,7.667,2.667,14,8,19.333c5.333,5.334,12,8,20,8s14.333-2.666,19.667-8c5.333-5.333,7.666-11.666,7.666-19.666
	s-2.666-14.334-7.666-19.667c-5.334-5.333-11.667-7.667-19.667-7.667S490.333,797,485,802C479.667,807.333,477,814,477,822z
	 M510.333,300.667c22.334-21.333,49.334-32.333,81.667-32.333c32.667,0,60.667,11.333,83.667,34.333
	c23,22.667,34.666,50.667,34.666,83.333c0,22-5.333,42-15.666,60.333c-32-32-71-48-117.334-48H567
	C557.333,358.667,538.333,326,510.333,300.667z M563.667,125c0,8,2.666,14.667,8.333,20.333c5.667,5.667,12.333,8.333,20,8.333
	c8,0,14.667-2.667,20-8.333c5.333-5.667,8-12.333,8-20.333V56.333c0-8-2.667-15-8-20.333c-5.333-5.667-12-8.667-20-8.667
	S577.333,30,572,35.667C566.667,41.333,563.667,48,563.667,56V125z M749.667,201.333c0,8,2.666,14.667,7.666,20
	c4.667,5.333,10.667,8,18.334,8.667c7.666,0.667,14.666-2.333,21-8.667l48-48c6-5.333,8.666-12,8.666-20s-3-14.667-8.666-20
	c-5.334-6-12-8.667-20-8.667c-7.667,0-14,3-19.334,8.667l-48,48C752,186.333,749.667,193,749.667,201.333z M775.333,598.333
	c0,7.667,2.667,14.334,8.334,20l21.666,21c6,5.667,13,8.334,20.667,8.334l0.667,0.666c7.333,0,13.333-3,18-9
	c6-5.333,8.666-12,8.666-20c0-7.666-3-14.333-8.666-20.333L824,578.333c-6-6-12.667-9-20.333-9c-8,0-14.667,3-20,8.667
	C778.333,583.667,775.333,590.667,775.333,598.333z M824.333,386c0,8,3,14.667,8.667,19.667c5.333,6,12,8.666,20,8.666h68.667
	c8,0,14.666-2.666,20.333-8.333s8.333-12.333,8.333-20s-2.666-14.667-8.333-20s-12.333-8-20.333-8H853c-8,0-15,2.667-20.333,8
	C827,371.333,824.333,378,824.333,386z"/>
</svg>
