<?xml version="1.0" encoding="utf-8"?>
<!-- Generator: Adobe Illustrator 16.0.3, SVG Export Plug-In . SVG Version: 6.00 Build 0)  -->
<!DOCTYPE svg PUBLIC "-//W3C//DTD SVG 1.1//EN" "http://www.w3.org/Graphics/SVG/1.1/DTD/svg11.dtd">
<svg version="1.1" id="Layer_1" xmlns="http://www.w3.org/2000/svg" xmlns:xlink="http://www.w3.org/1999/xlink" x="0px" y="0px"
	 width="1000px" height="1000px" viewBox="0 0 1000 1000" enable-background="new 0 0 1000 1000" xml:space="preserve">
<path fill="#0E70A0" d="M52,563.333c0,30,7.333,57.667,22,83c14.667,25.334,34.667,45.334,60,60c25.333,14.667,52.667,22,82.333,22
	h361c29.667,0,57.334-7.333,82.667-22c25.333-14.666,45.667-34.666,60.333-60c14.667-25.333,22.334-53,22.334-83
	c0-22-4.667-44.333-14-66.666c25.333-30.667,38-67.667,38-110c0-23.667-4.667-46.333-13.667-68c-9-21.667-21.667-40-37.333-55.667
	c-15.667-15.667-34-28.333-55.667-37.333C638.333,216.333,615.667,212,592,212c-49.333,0-92.333,19.333-129.333,58
	c-25.667-14.667-55.667-22-90-22c-47,0-88.333,14.667-124.333,43.667S189,358,179,403.333C141.667,412,111.333,431,87.667,461
	C64,491,52,525,52,563.333z M109,563.333c0-28,9.333-52,28-72.333s42-32,70-35.333l16.667-1c4,0,6.333-2,6.333-6l2.333-18
	c4.667-36,20.333-66.333,47-90.333C306,316,337.333,304,373,304c36.667,0,68.667,12.333,95.667,36.667C496,365,511,395,514.333,431
	l2.334,19.333c0.666,3.667,3,5.667,7,5.667h53.666c29.334,0,54.667,10.667,76,32c21.334,21.333,32,46.333,32,75.667
	c0,30.333-10.666,56-31.666,77.333s-46.667,32-76,32H216.333C187,673,162,662.333,140.667,640.667
	C119.667,619,109,593.333,109,563.333z M332.333,154.333c0,8,2.667,15,8,21l22,21.333c8.334,6.333,15.334,9,21.334,8.333
	c7,0,13-3,18.333-8.667c5.333-5.667,8-12.667,8-20.667S407,161,401.333,156l-19.666-22c-6-5.333-12.667-8-20.334-8
	c-8,0-15,2.667-20.666,8.333C335,139.667,332.333,146.333,332.333,154.333z M510.333,302c23-22.333,50.334-33.333,81.667-33.333
	c33,0,61,11.333,84,34.333s34.667,50.667,34.667,83.667c0,20.667-5.667,41.333-17,61.333c-32.334-32-71-48-116.334-48h-10.666
	C558.333,363.667,539.667,331,510.333,302z M564.667,126c0,8.667,2.666,15.333,7.666,20.667c5,5.333,11.667,7.667,19.667,7.667
	c8.667,0,15.333-2.667,20.667-7.667c5.333-5.333,7.666-12,7.666-20.667V57.667c0-8-2.666-14.333-8-19.667
	c-5.333-5.333-12-7.667-20.333-7.667c-8,0-14.333,2.667-19.667,7.667c-5.333,5-7.666,11.667-7.666,19.667V126z M748.667,202.333
	C748.667,211,751,217.667,756,223c7,5.333,14,8,20.667,8c6,0,12.666-2.667,19.666-8L844,175.333c5.333-6,8-13,8-21.333
	c0-8-2.667-14.667-8-20s-12-8-19.667-8c-8,0-14.333,2.667-19.333,8l-49,47.667C751,188,748.667,194.667,748.667,202.333z M775,597
	c0,8,2.667,15,8.333,21L805,639c5,5.333,11.333,8,19.333,8s14.667-2.667,20-8.333c5.334-5.667,8-12.334,8-20.667
	c0-7.333-2.666-14-8-19.333L822.667,577c-5.334-5.333-11.667-8-19-8c-8,0-14.667,2.667-20,8C778,582.333,775,589,775,597z
	 M824,386.667c0,7.667,3,14,8.667,19.333C838,411.333,845,414,853,414h68c7.667,0,14-2.667,19.333-7.667
	c5.334-5,7.667-11.667,7.667-19.667s-2.667-14.667-7.667-20c-5-5.333-11.666-8.333-19.333-8.333h-68c-8,0-14.667,2.667-20.333,8.333
	C826.667,372.333,824,379,824,386.667z"/>
</svg>
