<?xml version="1.0" encoding="utf-8"?>
<!-- Generator: Adobe Illustrator 16.0.3, SVG Export Plug-In . SVG Version: 6.00 Build 0)  -->
<!DOCTYPE svg PUBLIC "-//W3C//DTD SVG 1.1//EN" "http://www.w3.org/Graphics/SVG/1.1/DTD/svg11.dtd">
<svg version="1.1" id="Layer_1" xmlns="http://www.w3.org/2000/svg" xmlns:xlink="http://www.w3.org/1999/xlink" x="0px" y="0px"
	 width="1000px" height="1000px" viewBox="0 0 1000 1000" enable-background="new 0 0 1000 1000" xml:space="preserve">
<path fill="#0E70A0" d="M103,447.667c0,9,3,16.333,9.333,22.333c6.333,6,14.333,8.667,24,8.667h56.333c9,0,16.667-3,23-9
	c6.333-6,9.667-13.334,9.667-22c0-9.667-3-17.667-9.333-23.667s-14-9.333-23-9.333h-56.667c-9.667,0-17.667,3-24,9.333
	C106,429.667,103,437.667,103,447.667z M162,653.667c0,32.333,11.667,60.333,35.333,84C221,761.333,248.667,773,281,773h228.667
	c32.333,0,60-11.667,83-35s34.666-51.333,34.666-84.333c0-16-2.333-29.667-7-41C648,595,670,571.333,686,542
	s24.333-61,24.333-94.667c0-27-5.333-53-16-77.666c-10.666-24.667-25-46-42.666-63.667c-17.667-17.667-39-32-63.667-42.667
	s-50.333-16-77.333-16c-36.334,0-70,9-100.667,27S355,316.667,337.333,347C319.667,377.667,311,411,311,447.333v11.334
	c-33.333,19-55.333,46.666-66,83c-25.333,8-45.333,22-60.333,42.333S162,627.667,162,653.667z M214,181.667
	c0,9.333,3,17,8.667,22.333l53.667,56.333c15.667,12,31.333,12,47,0c6.334-6.333,9.334-14,9.334-23.333c0-9-3-16.667-9.334-23.333
	l-55-55c-7-6.333-15-9.667-23.333-9.667c-9.333,0-17,3-22.667,9.333C216.667,164.667,214,172.333,214,181.667z M228,653.667
	c0-14,4.333-26,13.333-36s20.333-15.667,34-17L296,598c4.333,0,6.667-2.667,6.667-7.667l3-18.666
	C308,552.333,316,536.333,330,523.667c14-13,30.333-19.334,49.333-19.334c19.334,0,36.334,6.334,50.334,19.334
	c14.333,13,22.666,29,25,48l2.666,21.666c2,5,4.667,7.667,8,7.667h44c14.334,0,26.667,5.333,37.334,15.667
	C557.333,627,562.333,639.333,562.333,654c0,15-5.333,27.667-15.666,38.333c-10.334,10.667-23,16-37.334,16H281
	c-15,0-27.667-5.333-37.667-16C233,681.667,228,668.667,228,653.667z M375.333,440.667c2.334-36.334,16.334-67,42.334-92
	c25.666-24.667,57-37.333,93-37.333c37,0,68.666,13.333,94.666,39.667s39,58.667,39,96.333c0,23.334-5.666,45-17,65
	c-11.333,20-26.666,36-46,48.334c-19.666-16.334-42.333-24.334-67.666-24.334C504,507,486.667,484,462.333,466.667
	c-24.333-17.334-52-26-82.666-26H375.333L375.333,440.667z M478.333,149c0,9,3.334,17,9.667,23.333c6.333,6.333,14,9.667,23,9.667
	c9.333,0,17-3.333,23.333-9.667C540.667,166,544,158.333,544,149V71c0-8.667-3.333-16-9.667-22c-6.333-6-14-9-23.333-9
	c-9,0-16.667,3-23,9s-9.667,13.333-9.667,22V149z M689,656.667c0,9,3,16.666,9,23.333l54.667,54c14,14,29.666,14,47,0
	c6-5.667,8.666-13,8.666-22.667c0-9-3-16.333-8.666-22.333l-56.334-55.667c-6-5.666-13.666-8.333-22.666-8.333
	c-9.334,0-16.667,3-22.667,9S689,647.667,689,656.667z M689,236.333c0,9.333,3,17.333,9,24c6,6,13.667,9,22.667,9s16.666-3,22.666-9
	L799.667,204c6-5.667,8.666-13,8.666-22.333c0-9.333-3.333-17-9.666-23c-6.334-6-14-9.333-23.334-9.333
	c-8.666,0-16.333,3.333-22.666,9.667L698,213.333C692,219.333,689,227,689,236.333z M775,447.667c0,9,3,16.333,9.333,22.333
	c6.334,6,14.334,8.667,24,8.667h56.334c9,0,16.666-3,23-9c6.333-6,9.666-13.334,9.666-22c0-9.667-3-17.667-9.333-23.667
	s-14-9.333-23-9.333h-56.333c-9.667,0-17.667,3-24,9.333C778.333,429.667,775,437.667,775,447.667z"/>
</svg>
