<?xml version="1.0" encoding="utf-8"?>
<!-- Generator: Adobe Illustrator 16.0.3, SVG Export Plug-In . SVG Version: 6.00 Build 0)  -->
<!DOCTYPE svg PUBLIC "-//W3C//DTD SVG 1.1//EN" "http://www.w3.org/Graphics/SVG/1.1/DTD/svg11.dtd">
<svg version="1.1" id="Layer_1" xmlns="http://www.w3.org/2000/svg" xmlns:xlink="http://www.w3.org/1999/xlink" x="0px" y="0px"
	 width="1000px" height="1000px" viewBox="0 0 1000 1000" enable-background="new 0 0 1000 1000" xml:space="preserve">
<path fill="#0E70A0" d="M11.667,700.333c0,8,3,14.667,9,20C26.333,726,33,728.667,41,728.667h196c8.667,0,16,3,22.667,9.333
	c6.667,6.333,10,14,10,22.667c0,8.666-3.333,16.666-10,23c-6.667,6.333-14,9.666-22.667,9.666s-16-3.333-22.667-10
	c-6-5.333-12.667-8-20.333-8c-8,0-14.667,2.667-20,8c-5.333,5.334-8,12-8,20s2.667,14.667,8,20C191.667,841,212.667,850,237,850
	c24.667,0,45.667-8.667,62.667-26c17.333-17.333,26-38.333,26-63s-8.667-45.667-26-63c-17.333-17.667-38.333-26.333-62.667-26.333
	H41c-8,0-14.667,3-20.667,8.666C14.333,686,11.667,692.667,11.667,700.333z M11.667,600c0,7.333,3,13.667,9,19
	C26.333,624.667,33,627.333,41,627.333h365.667c24.666,0,45.666-8.666,63-26c17.333-17.333,26-38.333,26-63
	c0-24.666-8.667-45.333-26-62.666c-17.334-17-38.334-25.667-63-25.667c-25.334,0-46,8.333-62.667,25.333
	c-5.333,5.334-7.667,12.334-7.667,20.334s2.667,14.666,7.667,20c5,5,11.667,7.666,20,7.666c8,0,14.667-2.666,20.667-7.666
	c6.333-6.334,13.666-9.334,22.333-9.334s16.333,3,22.667,9.334c6.333,6.333,9.666,14,9.666,22.666c0,9-3.333,16.667-9.666,23
	c-6.334,6.334-14,9.667-22.667,9.667H41c-8,0-14.667,3-20.667,8.667C14.333,585.667,11.667,592.333,11.667,600z M100,521.667
	c0,2.666,2,4,5.667,4h47.667c2.333,0,4.333-1.667,6.667-4.667c7.333-18,19-33,35-45c15.667-11.667,33.333-18.333,53.333-20
	L266,453.667c4,0,6.333-2,6.333-5.667l2.333-17.333c3.667-36,18.667-66,45.667-90.334C347.333,316,379,304,415.333,304
	c36.667,0,68.334,12,95.334,36s42.333,54.333,46,90.333L559,449.667c0,4,2,6,6,6h54.333C649.333,455.667,675,466,696,487
	s31.667,46.333,31.667,75.667C727.667,592.333,717,618,696,639s-46.667,31.667-76.667,31.667h-230c-4.333,0-6.333,2-6.333,6v45.666
	c0,3.667,2,5.667,6.333,5.667h230c29.667,0,57.334-7.333,82.667-22.333c25.333-14.667,45.333-35,60-60.334
	c14.667-25.333,22-53,22-82.666c0-24.667-4.667-47-14-67.667c25.333-33,37.666-70,37.666-110.333c0-31.333-8-60.333-23.666-87.333
	c-15.667-27-37-48.333-64-64c-27-15.667-56-23.667-87.334-23.667c-51.333,0-94.333,19.333-128.666,57.667
	C477.333,253.667,447.667,247,415,247c-47,0-88.334,14.667-124.333,43.667c-36,29-59,66.333-68.667,111.333
	c-28.333,6.667-53.333,20.333-75,41c-21.667,20.667-37,45-45.333,73v1.333C100.333,519.667,100,520.667,100,521.667z M372.667,154
	c0,7.667,3,14.333,9,20L402,195.667c5.333,5.333,12.333,8,20.333,8c8.334,0,15-2.667,20.334-7.667c5.333-5,8-11.667,8-20
	c0-8-2.334-14.667-7.667-20l-22-21.667c-5.333-5.667-11.667-8.667-19.667-8.667S386.667,128.333,381,134
	S372.667,146.333,372.667,154z M550,301c24-22.667,51.333-34,82.667-34c32.333,0,60,11.667,83.666,35
	c23.334,23.333,35,51.333,35,83.667c0,21.667-5.666,42-17.333,61c-32-32-70.333-47.667-115.333-47.667h-11.334
	C599.667,362.667,580.333,330,550,301z M604,126.333c0,7.667,2.667,14.333,8.333,19.667c5.667,5.333,12.334,8,20,8
	c8,0,14.667-2.667,20.334-8c5.666-5.333,8.333-11.667,8.333-19.667V58c0-8-2.667-14.667-8.333-20.333
	C647,32,640.333,29.333,632.333,29.333s-14.666,2.667-20,8.333C607,43.333,604,50,604,58V126.333z M789,202
	c0,8,2.667,14.667,7.667,20c5.666,5.667,12.333,8.333,20.333,8.667C825,231,831.333,228,836,222l48.667-47.667
	C890.333,168.667,893,162,893,154c0-7.667-2.667-14.333-8.333-20c-5.667-5.667-12.334-8.333-20.334-8.333s-14.666,2.333-20,7.667
	l-47.666,49C791.667,187.667,789,194,789,202z M814.667,596.333c0,7.667,2.666,14.334,8.333,20L844.333,638
	C851,643.333,858,646,865,646c6.333,0,13-2.667,19.667-8c5.666-5.667,8.333-12.333,8.333-20c0-7.333-2.667-14-8.333-20.333
	L863.333,576c-5.333-5.333-12-8-19.333-8c-8.333,0-15.333,2.667-21,8.333C817.333,581.667,814.667,588.333,814.667,596.333z
	 M865,385.667c0,8,2.667,14.333,8.333,19.667c5,6,11.334,8.667,19,8.667h67.334c8,0,14.666-2.667,20.333-8.333
	c5.667-5.667,8.333-12.333,8.333-20c0-7.667-3-14.333-8.666-20C974,360,967.333,357,959.667,357h-67.334
	c-8,0-14.333,2.667-19.666,8.333C867.667,371,865,377.667,865,385.667z"/>
</svg>
