<?xml version="1.0" encoding="utf-8"?>
<!-- Generator: Adobe Illustrator 16.0.3, SVG Export Plug-In . SVG Version: 6.00 Build 0)  -->
<!DOCTYPE svg PUBLIC "-//W3C//DTD SVG 1.1//EN" "http://www.w3.org/Graphics/SVG/1.1/DTD/svg11.dtd">
<svg version="1.1" id="Layer_1" xmlns="http://www.w3.org/2000/svg" xmlns:xlink="http://www.w3.org/1999/xlink" x="0px" y="0px"
	 width="1000px" height="1000px" viewBox="0 0 1000 1000" enable-background="new 0 0 1000 1000" xml:space="preserve">
<path fill="#0E70A0" d="M175,510c0,5.333,2,9.667,5.667,13.333C184.333,527,189,528.667,194,528.667h99.333
	c4.667,0,9-1.334,12.667-4.334c3.667-3,5.667-6.666,6.667-11.333l30-175.667l54,439.333c0.666,4.666,3,8.666,6.333,12
	c3.333,3,7.333,4.666,12,4.666c5,0,9.333-1.666,12.667-4.666c3.333-3,5.666-7,6.666-12L476,454.333l34.667,93.334
	c1.333,3.666,3.333,6.666,6.666,9C520.667,559,524,560,528,560h1.667c4-0.333,7.666-1.667,10.666-4.333
	c3.334-2.667,5.334-6,6.334-10.334l51-228.667L621.333,756c0.334,4.667,2,9,5,12.333c3,3.334,7,5.334,12,5.667
	c4.667,0.333,9-0.667,12.667-3.333c3.667-2.667,6-6.334,7.333-11l55-231.334h92.334c5.333,0,9.666-1.666,13.333-5.333
	s5.667-8,5.667-13.333c0-5.334-2-9.667-5.667-13.334c-3.667-3.666-8.333-5.666-13.333-5.666H698c-4.333,0-8.333,1.333-11.667,4
	c-3.333,2.666-5.666,6-6.666,10.333L652,623l-24-445.333c-0.333-4.667-2-9-5.333-12.333c-3.334-3.333-7.334-5.333-12-5.333
	c-4.667-0.333-9,0.667-13,3.667s-6.334,6.667-7.334,11.333l-66.666,299L485,368.667c-1.333-4-4-7-8-9.333c-4-2.333-8-3.333-12-2.667
	C460.667,357,457,359,454,362s-5,7-5.667,11.333l-32.666,250.333l-51-418.667c-1-4.667-3-8.667-6.334-11.667
	c-3.333-3-7.333-4.667-12-5c-4.666-0.333-9,1-12.666,4c-3.667,3-6,6.667-6.667,11.667l-49.333,287H194
	c-5.333,0-9.667,2-13.333,5.667C177,500.333,175,504.667,175,510z"/>
</svg>
