<?xml version="1.0" encoding="utf-8"?>
<!-- Generator: Adobe Illustrator 16.0.3, SVG Export Plug-In . SVG Version: 6.00 Build 0)  -->
<!DOCTYPE svg PUBLIC "-//W3C//DTD SVG 1.1//EN" "http://www.w3.org/Graphics/SVG/1.1/DTD/svg11.dtd">
<svg version="1.1" id="Layer_1" xmlns="http://www.w3.org/2000/svg" xmlns:xlink="http://www.w3.org/1999/xlink" x="0px" y="0px"
	 width="1000px" height="1000px" viewBox="0 0 1000 1000" enable-background="new 0 0 1000 1000" xml:space="preserve">
<path fill="#0E70A0" d="M246,727.667c0-10,3.333-18.334,9.667-25.334C262,695.333,270,692,279,692v-0.667l438.667,1.334
	c2-0.334,3.333-0.667,3.333-0.667c9,0.333,17,4,23.333,11c6.334,7,9.667,15.667,9.334,25.667c0,10-3.334,18.333-9.667,25.333
	s-14.333,10.333-23.333,10.333v0.334l-434.333-1.334C283,763.667,280.667,764,279,764c-9.333-0.333-17-3.667-23.333-10.667
	C249,746.333,245.667,737.667,246,727.667z M273.333,545.667c-0.333-14.334,1.333-31,5.333-50.667c2-10,6.667-25.333,14.667-45.667
	c0.667-1.666,2.333-4.666,4.333-9.333c0.333,0.667,1,1,1.333,1.667c0.333,0.666,0.667,0.666,0.667,1c3.667,14.666,9,28,16.333,40
	c7,10.666,16,18.666,27.333,23c8.667,3.666,21,5.666,36.667,6c0.667,0,1.667,0,2.667,0s2,0,2.666,0
	c-11-11-19.666-22.334-26.333-33.334C349,461,342.667,441,340,418c-2-18-1-39.667,3-65.333c0.667-5,4-16.333,9.667-33.667
	c5-15.667,12-30,21.333-42.667c10.667-16.333,26-33,46.333-50.333c12.334-10.333,29.667-22.333,52-35.667
	c2.334-1.333,6-3.667,11.667-6.333c0,0.667,0,1.333,0,1.667c0,0.333,0,1,0,1.333v0.667c-8,19-13.667,38.333-16.333,57.667
	c-2,17.667,0.666,34,8,49.333c5.666,12,16,25,30.666,38.333c3,3,9.667,9.667,20,19.333c10,9.667,18,17.333,23.334,22.667
	l8.333,8.333c8.667-12.667,13.667-27.667,14.667-45c1.333-18.333,0-38.333-4.667-60c0-0.333,0-1.333,0.333-3.667
	c0.667,0.667,4.334,3.333,10,8C597,299.333,611,314.333,621,327.333c16,20.667,27.667,40.333,35.333,58
	C662.667,400.667,666.667,416,669,432c2,14,2.667,25.667,2.333,35C671,493,668,514.667,663,532.333
	c-2.333,7-4.333,12.667-6.333,17.334c8.333-2.334,15.666-5.334,21.666-8.667c8.334-5.333,15-12.333,20-22
	c5.334-9.667,9.667-20.667,12.667-32.667c0-0.333,0.333-1,1-1.666c0.333,0.666,0.667,1.666,1.667,3C714.333,489,715,490,715.333,491
	c4.334,10.333,7.334,21,9,32.333C727,536,727.667,548.333,727,561c-0.667,9.667-2.333,18.667-5.333,27
	c-2.667,8-5.334,14.333-7.334,19.333C708,620,701.333,631,693.667,640c-2,2.333-3.667,4.333-4.667,5.333H322.333
	c-0.333-0.333-1-1-2.333-2s-2-1.666-2.667-2.333c-8.666-8.333-18-21-27.333-37.667c-2.667-5-6-12.666-9.667-23
	C276.333,570,274,558.333,273.333,545.667z"/>
</svg>
