<?xml version="1.0" encoding="utf-8"?>
<!-- Generator: Adobe Illustrator 16.0.3, SVG Export Plug-In . SVG Version: 6.00 Build 0)  -->
<!DOCTYPE svg PUBLIC "-//W3C//DTD SVG 1.1//EN" "http://www.w3.org/Graphics/SVG/1.1/DTD/svg11.dtd">
<svg version="1.1" id="Layer_1" xmlns="http://www.w3.org/2000/svg" xmlns:xlink="http://www.w3.org/1999/xlink" x="0px" y="0px"
	 width="1000px" height="1000px" viewBox="0 0 1000 1000" enable-background="new 0 0 1000 1000" xml:space="preserve">
<path fill="#0E70A0" d="M322.333,367c0-16.667,6-31,17.667-42.667c11.667-11.667,26-17.667,42.667-17.667
	c16.333,0,30.666,6,42.333,17.667c11.667,12,17.667,26,17.667,42.667s-6,31-17.667,43s-26,18-42.333,18C366.333,428,352,422,340,410
	C328.333,398,322.333,383.667,322.333,367z M351.667,367c0,8.667,3,16,9,22.333c6.333,6.333,13.666,9.333,22.333,9.333
	s16-3,22.333-9.333c6.334-6.333,9.334-13.667,9.334-22.333s-3-16-9.334-22c-6.333-6-13.666-9.333-22.333-9.333s-16,3-22.333,9
	C354.667,350.667,351.667,358,351.667,367z M498.667,596.667c0,4.666,1.666,9,5,12.333c3.333,3.333,7.666,5,12.333,5
	s9-1.667,12.333-5c3.334-3.333,5-7.667,5-12.333V470.333h95.334c4.666,0,9-1.666,12.333-5.333s5-7.667,5-12.667s-1.667-9-5-12.666
	c-3.333-3.334-7.667-5-12.667-5H533v-91h127.333c4.667,0,8.667-1.667,12-5C675.667,335.333,677,331,677,326s-1.667-9-4.667-12.667
	c-3-3.667-7-5-12-5h-159C499,308.333,498,309.667,498,312v284.667H498.667z"/>
</svg>
