<?xml version="1.0" encoding="utf-8"?>
<!-- Generator: Adobe Illustrator 16.0.3, SVG Export Plug-In . SVG Version: 6.00 Build 0)  -->
<!DOCTYPE svg PUBLIC "-//W3C//DTD SVG 1.1//EN" "http://www.w3.org/Graphics/SVG/1.1/DTD/svg11.dtd">
<svg version="1.1" id="Layer_1" xmlns="http://www.w3.org/2000/svg" xmlns:xlink="http://www.w3.org/1999/xlink" x="0px" y="0px"
	 width="1000px" height="1000px" viewBox="0 0 1000 1000" enable-background="new 0 0 1000 1000" xml:space="preserve">
<path fill="#0E70A0" d="M224,692c0-1.667,0.333-4,0.667-7V526.333C234,542.667,246.667,556,263,566s34.333,15,53.667,15
	c19.666,0,37.666-5,54-15c16.333-10,29-23,38.333-39.667C418,542.667,431,556,447.333,566c16.334,10,34.334,15,54,15
	c19.334,0,37.334-5,53.667-15s29-23,38.333-39.667C602.667,542.667,615.667,556,631.667,566c16.333,10,34,15,53.333,15
	s37.333-5,53.667-15C755,556,768,543,777,526.333v160.334c0,0.666,0,1.666,0,2.666s0,2,0,2.667c0,0.333,0,1.333,0,2.333s0,2,0,2.667
	c-1,7.667-4.333,14.333-10,20s-12.333,9-20,10c-0.667,0-1.667,0-2.667,0.333c-1,0.334-2,0.334-2.666,0.334
	c-0.334,0-1.334,0-2.334-0.334c-1-0.333-2-0.333-2.666-0.333h-472c-0.667,0-1.333,0-2.667,0.333c-1,0.334-2,0.334-2.333,0.334
	c-0.667,0-1.667,0-2.667-0.334C256,727,255,727,254.667,727c-7.333-1-14-4-19.333-9.333c-5.333-5.334-9-11.334-10.667-18.667
	C224.333,696,224,693.667,224,692z M407.667,322.333c0-5.333,2-10,5.666-14l73.667-74l1-0.667c0.333,0,0.333,0,0.333-0.333
	c0.334,0,0.334,0,0.334-0.333c0.333,0,0.333,0,0.333-0.333h0.333c0.334,0,0.334,0,0.334-0.333c0-0.333,0-0.333,0.333-0.667h0.667
	l0.333-0.333h0.333l0.334-0.333H492l0.333-0.333h0.334c0.333-0.333,0.333-0.333,0.666-0.333h0.334c0-0.333,0.333-0.333,0.667-0.333
	c0.333-0.333,0.333-0.333,0.666-0.333l1.334-0.667h0.333c0.333,0,0.333,0,0.333-0.333h2.334l0.333-0.333h4
	c0.333,0,0.333,0,0.667,0.333h2c0,0.333,0,0.333,0.333,0.333h0.667c0.333,0.333,0.666,0.667,1,0.667L509,230h0.667l0.333,0.333
	h0.334l0.333,0.333c0.333,0,0.333,0,0.333,0.333h0.667c0.333,0,0.333,0,0.333,0s0,0,0.334,0c0.333,0.333,0.333,0.333,0.666,0.333
	c0,0.333,0,0.667,0.334,0.667l0.333,0.333h0.667l0.333,0.333l-1,0.667l0.333,0.333l0.667,0.667l74,74c4,4,6,8.667,6,14
	c0,5.333-2,10-6,13.667c-3.667,4-8.334,6-13.667,6s-10-2-13.667-6l-41-40.667v230c0,5.334-2,9.667-5.666,13.334
	c-3.667,3.666-8.334,5.666-13.667,5.666s-10-2-14-5.666c-4-3.667-5.667-8.334-5.667-13.334v-230L440.667,336c-4,4-8.667,6-14,6
	c-5.334,0-10-2-13.667-6C409.667,332.333,407.667,327.667,407.667,322.333z"/>
</svg>
