<?xml version="1.0" encoding="utf-8"?>
<!-- Generator: Adobe Illustrator 16.0.3, SVG Export Plug-In . SVG Version: 6.00 Build 0)  -->
<!DOCTYPE svg PUBLIC "-//W3C//DTD SVG 1.1//EN" "http://www.w3.org/Graphics/SVG/1.1/DTD/svg11.dtd">
<svg version="1.1" id="Layer_1" xmlns="http://www.w3.org/2000/svg" xmlns:xlink="http://www.w3.org/1999/xlink" x="0px" y="0px"
	 width="1000px" height="1000px" viewBox="0 0 1000 1000" enable-background="new 0 0 1000 1000" xml:space="preserve">
<path fill="#0E70A0" d="M87.333,701.667c0-8,2.667-15,8.333-20.334c5.667-5.333,12.667-8,21-8H739c8.333,0,15,2.667,20.333,8
	c5.334,5.334,8,12,8,20.334c0,7.666-2.666,14.333-8.333,19.333c-5.667,5.333-12.333,7.667-20,7.667H116.667
	c-8.333,0-15.333-2.667-21-7.667C90,715.667,87.333,709.333,87.333,701.667z M174.667,597c0-8,3-14.667,8.667-20
	c5-5,11.667-7.667,19.667-7.667h622.333c7.667,0,14,2.667,19.334,8C850,582.667,852.333,589,852.333,597s-2.666,14.667-7.666,20
	c-5.334,5.667-11.667,8.333-19.334,8.333H203c-8,0-14.667-2.666-20-8.333C177.333,611.333,174.667,604.667,174.667,597z
	 M179,517.333c0,3,1.667,4.334,5,4.334h47.667c2,0,4.333-1.667,6.667-5.334C246.333,499,258,485,273.667,474
	c15.667-11,33-17.333,51.667-18.667L343.667,453c3.666,0,5.666-2,5.666-6l2.334-16.667c3.666-36,18.666-66,45.666-90
	s58.667-36,95-36c36,0,67.334,12,94.334,35.667c26.666,23.667,42,53.667,45.666,89.333l2.667,19c0,3.667,2.333,5.667,6.667,5.667h53
	c21.333,0,41,5.667,58.666,17.333C771,483,784,498,792.667,517c2.333,3.667,4.666,5.333,7,5.333h47.666c4,0,5.667-2.333,4.667-7.666
	c-9.667-34-29.333-62-58-83.667c-29-21.667-62-32.333-99-32.333h-10.667c-11-44.333-34.333-80.667-70-109
	c-35.666-28.333-76-42.333-121.666-42.333c-46.667,0-88,14.667-124.334,44C332,320.667,309,358,298.667,403.333
	c-28.333,6.667-53.333,20-74.667,40.334C202.667,464,187.667,488,179.333,516.333V515C179,515,179,516,179,517.333z
	 M232.667,803.667c0-8,3-14.334,8.667-19.667c5-5,11.667-7.667,20-7.667H884c8,0,14.667,2.667,20,7.667
	c5.667,5.333,8.333,11.667,8.333,19.333c0,8-2.666,14.667-8.333,20.334c-5.667,5.666-12.333,8.333-20,8.333H261.333
	c-7.667,0-14.333-3-20-8.667C235.667,818.333,232.667,811.333,232.667,803.667z"/>
</svg>
