<?xml version="1.0" encoding="utf-8"?>
<!-- Generator: Adobe Illustrator 16.0.3, SVG Export Plug-In . SVG Version: 6.00 Build 0)  -->
<!DOCTYPE svg PUBLIC "-//W3C//DTD SVG 1.1//EN" "http://www.w3.org/Graphics/SVG/1.1/DTD/svg11.dtd">
<svg version="1.1" id="Layer_1" xmlns="http://www.w3.org/2000/svg" xmlns:xlink="http://www.w3.org/1999/xlink" x="0px" y="0px"
	 width="1000px" height="1000px" viewBox="0 0 1000 1000" enable-background="new 0 0 1000 1000" xml:space="preserve">
<path fill="#0E70A0" d="M164.333,699c0-8.667,3-15.667,9.333-20.667c4.667-5.333,11.667-7.666,21-7.666H806
	c8.333,0,15.333,2.666,21.333,8C833.333,684,836,691,836,699s-3,15-9,20.667c-6,5.666-13,9-21,9H194.667c-8.333,0-15.333-3-21.333-9
	C167.333,714,164.333,707,164.333,699z M230,422.667c0-8.667,2.667-15.667,7.667-21c5.667-6,12.667-8.667,21.667-8.667
	c7.667,0,14.333,3,20,8.667l50,50c6,6,9,13,9,21c0,7.666-3,14.666-9,20.666c-5,6-11.666,9-20,9c-8.333,0-15.667-3-21.333-9l-50-50
	C232.667,438.333,230,431.667,230,422.667z M327.667,609c-1.334,5.333,0.333,7.667,5,7.667h49.666c2.334,0,4.667-2,7.334-5.667
	c10-21.333,24.666-38,44.333-50.667c19.667-12.666,41.333-18.666,65.333-18.666c24.334,0,46.334,6.333,66.334,18.666
	c20,12.334,35,29.334,45,50.667c2.666,3.667,5.333,5.667,7.666,5.667h49.334c4.333,0,6-2.667,5-7.667
	c-11.334-37.667-33-68.333-65-92s-68-35.333-108.334-35.333c-40,0-76,11.666-107.666,35.333
	C360.667,540.667,339,571.333,327.667,609z M471.333,393.667v-71c0-8.333,2.667-15.333,8-21.333c5.334-6,12.334-8.667,20.334-8.667
	c8.333,0,15.333,3,21,8.667c5.666,5.667,8.333,13,8.333,21.333V394c0,8.667-2.667,15.667-8.333,21.333
	c-5.667,5.667-12.667,8.334-21,8.334c-8,0-15-3-20.334-8.667C474,409.333,471.333,402,471.333,393.667z M662,472.667
	c0-8,2.667-15,8.333-21l51.334-50c5.333-6,12-8.667,20.666-8.667c8,0,14.667,2.667,20,8.333C767.667,407,770,414,770,422.667
	c0,8.666-2.667,15.666-7.667,20.666l-49.333,50c-5.667,5.667-12,8.667-18.667,9.334c-7.666,0.666-14.666-2-21.666-8
	S662,481,662,472.667z"/>
</svg>
