<?xml version="1.0" encoding="utf-8"?>
<!-- Generator: Adobe Illustrator 16.0.3, SVG Export Plug-In . SVG Version: 6.00 Build 0)  -->
<!DOCTYPE svg PUBLIC "-//W3C//DTD SVG 1.1//EN" "http://www.w3.org/Graphics/SVG/1.1/DTD/svg11.dtd">
<svg version="1.1" id="Layer_1" xmlns="http://www.w3.org/2000/svg" xmlns:xlink="http://www.w3.org/1999/xlink" x="0px" y="0px"
	 width="1000px" height="1000px" viewBox="0 0 1000 1000" enable-background="new 0 0 1000 1000" xml:space="preserve">
<path fill="#0E70A0" d="M252,573c0-29.333,8-63,24-101s36.667-75,62-110.333C390,293,435.333,241,473.333,206l25-24
	c8.334,8.667,17.667,16.667,27.667,24c13.667,14,34.667,37,62.667,69.667C616.667,308.333,641,337.333,661,364
	c23.667,33.667,44,70,60.333,108.333c16.334,38.334,24.667,72,24.667,101c0,33.334-6.333,65-19.333,95.334
	c-13,30.333-30.334,56.666-52.334,78.666S626,787,595.333,800c-30.666,13-63,19.667-97,19.667c-33.333,0-65-6.334-95.333-19
	C372.667,788,346.333,771,324.333,749c-22-21.667-39.667-48-52.667-78.333C258.667,640.333,252,607.667,252,573z M327.333,475.333
	c0,27.667,5.667,49.667,17.334,66.334c11.666,16.333,29.333,24.666,53,24.666c24,0,41.666-8.333,53.666-24.666
	c11.667-16.334,17.667-38.334,18-66.334c-0.333-28-6.333-50-18-66.666C439.667,392.333,421.667,384,397.667,384
	c-23.667,0-41.334,8.333-53,24.667C333,425.333,327.333,447.333,327.333,475.333z M379.667,475.333c0-5,0-9,0-11.666
	c0-2.667,0.333-6.334,0.666-11C380.667,448,381,444.333,382,442s1.667-5.333,3-8s3-5,5-6c2.333-1.333,4.667-2,7.667-2
	c4.666,0,8.333,1.333,11,4c2.666,2.667,4.666,7,5.666,12.667c1,6,1.667,10.666,2,15c0.334,4.333,0.334,10,0.334,17.333
	c0,7.667,0,13.333-0.334,17.333c-0.333,4-1,9-2,15c-1,5.667-3,10-5.666,12.667c-2.667,2.667-6.334,4-11,4c-3,0-5.334-0.667-7.667-2
	s-4-3.333-5-6c-1.333-2.667-2.333-5.667-3-8c-0.667-2.667-1.333-6.333-1.667-10.667c-0.333-4.666-0.666-8.333-0.666-10.666
	C379.667,484.333,379.667,480.333,379.667,475.333z M399.333,733.667h44l166.334-358h-45L399.333,733.667z M542.667,634
	c0.333,28,6.666,50,18.333,66.667c11.667,16.333,29.667,24.666,53.333,24.666c24,0,41.667-8.333,53.334-24.666
	C679.333,684.333,685,662,685.333,634c-0.333-28-6-50-17.666-66.333C656,551.333,638.333,543,614.333,543
	c-23.666,0-41.666,8.333-53.333,24.667C549,584,543,606,542.667,634z M595,634c0-7.667,0-13.333,0.333-17.333c0.334-4,1-9,2-15
	s3-10,5.667-12.667s6.333-4,11-4c3,0,5.667,0.667,8,2s4,3.333,5.333,6.333c1.334,3,2.334,5.667,3.334,8
	c1,2.334,1.333,6,1.666,10.667l0.334,10.667V634c0,5.333,0,9.333,0,11.667l-0.334,10.666L630.667,667l-3.334,8L622,681.333l-8,2
	c-4.667,0-8.333-1.333-11-4c-2.667-2.666-4.667-7-5.667-12.666c-1-6-1.666-11-2-15C595,647.667,595,641.667,595,634z"/>
</svg>
