<?xml version="1.0" encoding="utf-8"?>
<!-- Generator: Adobe Illustrator 16.0.3, SVG Export Plug-In . SVG Version: 6.00 Build 0)  -->
<!DOCTYPE svg PUBLIC "-//W3C//DTD SVG 1.1//EN" "http://www.w3.org/Graphics/SVG/1.1/DTD/svg11.dtd">
<svg version="1.1" id="Layer_1" xmlns="http://www.w3.org/2000/svg" xmlns:xlink="http://www.w3.org/1999/xlink" x="0px" y="0px"
	 width="1000px" height="1000px" viewBox="0 0 1000 1000" enable-background="new 0 0 1000 1000" xml:space="preserve">
<path fill="#0E70A0" d="M138,492c0-8,3-14.667,9-20.333c5.667-5.667,12.667-8.334,20.667-8.334h68.667c8,0,14.667,2.667,20,8.334
	C262,477.333,264.667,484,264.667,492c0,8.333-2.667,15.333-8.333,21c-5.667,5.667-12.333,8.333-20,8.333h-68.667
	c-8.333,0-15.333-2.666-21-8.333C140.667,507.333,138,500.333,138,492z M235.333,258c0-7.667,2.667-14.667,8-20.667
	C250,232,257,229,265.333,229c7,0,13.667,2.667,19.667,8.333l48.333,49.333c5.667,5.333,8.334,12,8.334,20s-2.667,14.667-8.334,20
	c-5.666,5.667-12,8.333-20,8.333c-8.667,0-15.333-2.667-20.333-8.333l-50-48C238.333,273,235.333,266,235.333,258z M322.333,492
	c0-23.667,4.667-46.333,14.334-68c9.333-21.667,22.333-40.667,38-56.333c16-15.667,35-28.333,56.666-37.667
	C453,320.667,476,315.667,500,315.667c32,0,61.333,8,88.667,24c27.333,16,49,37.333,64.666,64.667C669,431.333,677,460.667,677,492
	c0,5-0.333,9.667-1,14c-9.333-5.667-20-8.333-32.333-8.333c-8,0-16,1.666-24,5C620,500.333,620,496.667,620,492
	c0-32.667-11.667-60.333-35.333-83.333c-23.667-23-52-34.667-85-34.667s-61,11.667-84.667,34.667c-23.667,23-35,50.666-35,83.333v6
	c-9.667,0.667-19,3.333-28,8.333c-0.333,0.334-1.333,1-3.333,2.334c-2,1.333-4,3-6.334,4.666C340,515,337.667,517,334.667,519.667
	c-3,2.666-6,5.333-8.667,8C323.333,517,322.333,505,322.333,492z M323.333,613.667v-5c-0.333-3,0-6.667,0.667-11
	c1.667-12,6.333-23.334,14-34c4.333-5.334,7.333-9,9-10.334c0.333-0.666,0.667-1.333,1.333-2l1.334-1.333
	c1-0.333,2.333-1.667,4-3.333c0.666-0.667,1.666-1.667,2.666-2.667s2-1.333,2.334-2c1.666-1.667,3.333-2.667,4.666-3.333L369,535
	c4.667-3,10.333-4.667,16.667-4.667h1c3.333,0,6.333,0.334,8.666,1c1,0.334,2.334,1,4.334,2.334V534
	c4.666,2,8.666,5.333,11.333,9.667c2.667,4.333,4.333,9,4.333,14c0,5.666-1.666,10.333-4.666,14c-2,3-4.667,5.666-7.334,7.666
	c-0.666,0.334-1.333,0.667-2,1C400.667,580.667,400,581,400,581l-2,1.333c-1.333,1-2.333,2-3.333,2.667s-2,2-3.667,3.667
	c-1.333,1.666-2.667,3-3.667,4.666c-1,1.334-2,3.334-3,5c-1,2-1.666,4-1.666,5.667v5c1.333,5,2.666,9,3.666,12
	c2.334,4.667,6,9.333,11.334,14.667c0.333,0.666,3,3.333,8,8.333C434.333,670,448,698,446,727.333c-0.667,10-3,19.667-7,29
	c-4,9.334-8.667,17-14.333,23.334c-5.334,6.333-9.667,11-13,14.333c-3.334,3-6,5.333-8.334,7c-0.333,0.333-1,0.667-2,1.333
	c-1,0.667-2,1.334-2.333,1.334c-2.667,1.333-5,2-7.333,2.333c-3,0.333-5,0.667-6.667,0.667c-10,0-18-3.334-23.667-10
	c-4.666-5.667-6.666-12.334-6-19.667c0.667-7.333,4.334-13.333,11-17.667l0.334-1c0.333-0.333,1-1,1.666-1.333
	c0.667-0.667,1.334-1.333,2.334-2s2-1.667,2.666-2.667c1-1,2-2.333,2.667-3.333c1-1.333,2-2.667,2.667-4c1-1.333,2-3,2.666-4.667
	c1-1.666,1.667-3.333,2.334-5c0.666-1.666,1-3.333,1.666-5.333c0.334-2,0.667-4,0.667-5.667c0.667-6.666-1-13.333-5-20
	c-1.667-3.666-4-7.333-7.333-11c-2.334-2.666-4-4.333-5-5.333c-3-3.667-4.667-5.667-5-6c-0.667-0.333-1.334-1-2.334-2
	s-1.666-1.333-2-1.667c-5-4.666-8.666-8.666-11.333-12c-4-5.333-7-8.666-8-10.666c-6.333-8.667-10.667-17.334-13-26
	c-1.333-4.667-2.333-8.334-2.667-10.667c0-0.667-0.333-1.667-0.666-2.667C323.333,615.333,323.333,614.667,323.333,613.667z
	 M452.667,602.667c0-2,0-3.334,0.333-4.667c0.667-7.333,3-14.333,6.667-21.333c3.666-7,7.333-13,11.666-17.667
	c4.334-4.667,8.334-9,12.667-12.667c4.333-3.666,7.667-6.333,10.333-8.333l4-2.333c5-3,10.667-4.667,16.667-4.667
	c3.667,0,7,0.333,10,1c0.333,0,0.667,0.333,1.667,0.667c1,0.666,1.666,1,2,1.333c0.333,0,0.666,0,1,0.333
	c0.333,0,1,0.667,2.333,1.667c6.667,4,10.667,10,12.667,18c0,0.667,0,1.333,0,2.333c0,0.667,0,1.334,0,1.667
	c0,1-0.334,2.333-0.667,4s-0.667,2.667-0.667,3c-2.333,7.667-7,13-14,16.667c-11,7.333-17,15-17.666,23
	c-0.334,2.666-0.334,5,0,7.333c0.666,4,2.666,8.333,5.666,13c3.667,5.333,6.334,9,8,10.667c5.334,5.333,8.334,8.333,9.334,9
	c4,3.666,9.333,9.333,15.666,17c18,21.666,26.334,44,24.667,66.666c-0.667,10-3,19.667-7,29c-4,9.334-8.667,17-14.333,23.334
	c-5.334,6-10,11-13.334,14.333c-3.666,3.333-6.333,5.667-8.333,7l-4,2.667c-3.667,1.333-5.667,2-7,2.333
	c-3.667,0.333-6,0.667-6.667,0.667h-1c-2.666,0-4.666-0.334-6.333-0.667c-0.667,0-1.667,0-2.667-0.333c-1-0.334-2-0.334-2.333-0.334
	s-0.667,0-1-0.333s-0.667-0.333-1.333-0.667C499.333,805,499,805,498.667,805c-5-3.667-8-5.667-8.667-7
	c-5.333-6-7.333-12.667-6.333-20s4.666-13,11.333-17.667l1-1.333c0.667-0.667,1.667-1.667,3-2.667l4-4l4.333-5.333l4-6.333l3-7.334
	l1.334-8C516,712,508.333,698,492.667,683c-6.334-5.667-11-10.333-14.667-14.333C459.667,645.667,451.333,624,452.667,602.667z
	 M470.667,230.667v-69c0-8,3-15,8.666-20.667c5.667-5.667,12.667-8.333,20.334-8.333c8,0,15,2.667,20.666,8.333
	c5.667,5.667,8.334,12.667,8.334,20.667v69c0,8-2.667,14.333-8.334,19.667C514.667,255.667,508,258,500,258
	s-14.667-2.667-20.333-7.667C473.667,245,470.667,238.667,470.667,230.667z M582.667,597.667c0.666-7.334,3-14.334,6.666-21.334
	c3.667-7,7.334-13,11.667-17.666c4.333-4.667,8.333-9,12.667-12.667c4-3.667,7.333-6.333,10-8.333l4.333-2.334
	c0.667-0.666,2-1.333,3.333-2.666c3.667-1.334,8-2.334,12.667-2.334c11.333,0,19.667,4.334,25.667,12.667
	c1.666,2.333,2.666,4.667,3.333,7.667c0.333,0.666,0.667,1.666,0.667,2.666V557c0,10.333-5,18.333-15,23.333
	c-10.667,7-16.334,14.667-17.334,23C640,614.667,647.667,628,664,643.333C693.333,669,706.667,697,705,726.667
	c-0.667,10-3,19.666-7,29c-4,9.333-9,17-14.333,23.333c-5.667,6.333-10,11-13,14.333c-3,3.334-6,5.334-8.334,7
	c-5.333,3.334-10,5-13.666,5.334c-1,0.333-2.667,0.333-5,0.333c-10,0-17.667-3.333-23-10c-5-5.667-7-12.333-6.334-19.667
	C615,769,618.667,763,625,758.667c1-0.334,3-2,6-4.667s6-7,9.667-12.667c3.333-6,5.333-11.666,5.666-17.666
	C647,710.333,639,696.333,623,681.333c-13.667-12-24.333-25-31.333-38.666C583.667,628.667,580.667,613.333,582.667,597.667z
	 M659,307c0-8.333,2.667-15,7.667-20l48.666-49.333c6-5.667,12.667-8.333,20.334-8.333c8,0,14.666,3,20.333,8.667
	s8.667,12.667,8.667,20.333c0,8.333-3,15.333-8.667,20.667l-49.333,48c-6,5.667-12.667,8.333-20.334,8.333
	c-7.666,0-14.333-2.667-19.333-8.333C661.667,321.667,659,314.667,659,307z M735.667,492c0-7.333,3-14,8.666-20.333
	c5.334-5.667,11.667-8.334,19.334-8.334h68.666c8,0,15,3,20.667,8.667s9,12.333,9,20c0,8-3,15-8.667,20.667
	c-6,5.666-12.666,8.666-21,8.666h-68.666c-8,0-15-2.666-20-8.333C738.333,507.333,735.667,500.333,735.667,492z"/>
</svg>
