<?xml version="1.0" encoding="utf-8"?>
<!-- Generator: Adobe Illustrator 16.0.3, SVG Export Plug-In . SVG Version: 6.00 Build 0)  -->
<!DOCTYPE svg PUBLIC "-//W3C//DTD SVG 1.1//EN" "http://www.w3.org/Graphics/SVG/1.1/DTD/svg11.dtd">
<svg version="1.1" id="Layer_1" xmlns="http://www.w3.org/2000/svg" xmlns:xlink="http://www.w3.org/1999/xlink" x="0px" y="0px"
	 width="1000px" height="1000px" viewBox="0 0 1000 1000" enable-background="new 0 0 1000 1000" xml:space="preserve">
<path fill="#0E70A0" d="M154.667,563.333c0,44.334,15.333,82.334,46.333,114.334s68.667,49,113.333,51c3.667,0,5.667-2,5.667-5.667
	v-44.667c0-3.666-2-5.666-5.667-5.666c-28.667-1.334-52.667-12.667-72.667-34c-20-21.334-30-46.334-30-75.334
	c0-27.666,9.333-51.333,28-72c18.667-20.333,42-32.333,69.667-35.666l17.667-1c4.333,0,6.667-2,6.667-6.334l2-17.666
	c3.666-36,18.666-66.333,45.666-90.333C408.333,316,440,304,476.333,304c36.334,0,68,12,95,36.333
	c27,24.333,42.334,54.333,46.334,90.333L620.333,450c0,3.667,2,5.667,6,5.667H680c29.667,0,55.333,10.666,77,32
	C778.667,509,789.667,534,789.667,563.333c0,29-10,54-30,75.334c-20,21.333-44.334,32.666-72.667,34c-4.333,0-6.667,2-6.667,5.666
	V723c0,3.667,2.334,5.667,6.667,5.667C716,728,742.667,720,767,705s43.667-35,57.667-60s21-52.333,21-81.333
	c0-29.667-7.334-57.334-22.334-82.334c-14.666-25-35-45-60.333-59.333s-53.333-22-83-22h-10.667
	c-10.666-44.667-34.333-81-70-109.333C563.667,262.333,522.667,248,476.667,248c-47,0-88.667,14.667-125,43.667
	c-36.334,29-59.667,66.333-70,111.667c-37,8.667-67.333,27.667-91,57.667C167,491,154.667,525,154.667,563.333z M336.333,803.333
	c3,7,8.334,12.334,15.334,15.334c6.666,3.333,13.666,3.666,20.666,0.666c7.334-3,12-8,15-15C390.667,797,391,790,388,783
	c-2.667-7-8-11.667-15-14.667c-6.667-3.666-13.333-4-20.333-1s-12,8-15.334,15.667C333.667,788.667,333.667,795.333,336.333,803.333
	z M357.333,709.333c0,5.334,1.667,10.334,5,15c3.334,5,8.667,8.334,15.334,10.667c6.333,3.667,13.333,4,20.666,0.333
	c7.334-3.333,12.334-10,14.667-20l30-112.666c2-8.334,1.333-15.667-2.667-22.334c-4-6.666-9.666-10.666-17.666-12
	c-2.667-0.666-5.334-1-8-1c-5.334,0-10.667,1.667-15.667,5c-5,3.334-8.667,8.334-10.667,14.667L359,700
	C357.667,705.333,357.333,708.333,357.333,709.333z M419.333,895.667c0,4,0.667,7.333,2,9.666c3,7.334,8,12.334,15,15
	c3,1.667,6.667,2.667,11,2.667c2,0,5.334-0.667,10-2c7.334-2.667,12.667-7.667,15.667-15c3.333-7.333,3.333-14.667,0-22
	s-8.333-12.333-15-15.333s-13.333-3-20.667,0c-6.333,2.666-10.666,6.666-13.666,12C420.667,886,419.333,891,419.333,895.667z
	 M443.667,808.667c0,12.333,7,20.333,21,24.333c3.666,1,6.333,1.333,8,1.333c5,0,9.333-1,12.666-2.666c7-2.667,11.667-9,14-19
	L555,603c2-8,1.333-15-2-21.667c-3.333-6.333-9-10.666-16.333-12.666c-2.667-0.667-5.667-1-9-1c-5.334,0-10.667,1.666-16,5
	c-5.334,3.333-8.667,8.333-10,14.666l-57,211.334C444,803.333,443.667,806.667,443.667,808.667z M558,793.333
	c0,4,0.667,7.667,2.667,10.667c2.666,6.333,7.666,11.333,14.666,14.667C579,820,583,821,587,821c2,0,5.333-0.667,10-2
	c7-2.667,12.333-7.667,15.333-14.667c2.334-7.333,2.334-14.333-0.333-21c-2.667-6.666-7.333-11.666-14-15
	c-7.667-3.666-14.667-4-21.667-1s-12,8-15.333,15.667C559,786.333,558,789.667,558,793.333z M582.333,707.667
	c0,4.666,1.667,9.666,5.334,15c3.666,5.333,8.666,9,15,11c5.333,1,8.333,1.666,9,1.666c3,0,7.333-1,12.333-3.333
	c6.667-3,11-9,13.333-17.333l30-111.334c0.667-5.666,1-8.666,1-8.666c0-5.334-1.666-10.334-5-15.334c-3.333-5-8.333-8.333-15-10.333
	c-3-0.667-6-1-8.666-1c-5.334,0-10.667,1.667-15.667,5s-8.333,8.333-10.333,15l-30,112L582.333,707.667z"/>
</svg>
