<?xml version="1.0" encoding="utf-8"?>
<!-- Generator: Adobe Illustrator 16.0.3, SVG Export Plug-In . SVG Version: 6.00 Build 0)  -->
<!DOCTYPE svg PUBLIC "-//W3C//DTD SVG 1.1//EN" "http://www.w3.org/Graphics/SVG/1.1/DTD/svg11.dtd">
<svg version="1.1" id="Layer_1" xmlns="http://www.w3.org/2000/svg" xmlns:xlink="http://www.w3.org/1999/xlink" x="0px" y="0px"
	 width="1000px" height="1000px" viewBox="0 0 1000 1000" enable-background="new 0 0 1000 1000" xml:space="preserve">
<path fill="#0E70A0" d="M369.333,484.333v-0.666c-0.333-2.667,0-6.667,0-12.334c0.334-5.333,1.334-14.333,3.334-27
	c2-12.666,4.666-25.333,8.333-38.333s9.333-28,17-45s16.667-33,27.333-48c10.667-15,24.667-30.667,42-46.333
	C484.667,251,504,237,525,225.333c5.333-3,10.667-3.667,16.333-2c5.667,1.667,10,5,12.667,10.333c3,5.333,3.667,10.667,2,16.667
	c-1.667,5.667-5,10.333-10,13C502.333,287.333,468.667,321,445,365c18-8.333,36-12.667,54.333-12.667
	C535,352.333,566,365,591.667,390.667C617.333,416.333,630,447,630,482.667c0,2.666,0,5.333,0,8c0,2.666-0.667,8.333-1.333,17.333
	c-0.667,9-2,17.333-3.667,25.667c-1.667,8.333-4.333,18.666-7.667,31C613.667,577,609.667,589,604.667,600
	s-11.334,23.333-19.334,36.667c-8,13.333-17,25.666-27,37.333s-22,23.333-36,35C508,720.667,492.667,731.333,476,740.667
	c-3,2-6.667,2.666-10.333,2.666c-8.667,0-15-4-19.334-11.666c-3-5.334-3.666-10.667-2-16.334c1.667-5.666,5-10,10.334-12.666
	c44.666-25,78.666-59.334,102-102.667c-18,8.667-37,12.667-57,12.667c-23,0-44.667-5.667-64.667-17.334
	c-20-11.333-35.667-27-47.667-47C375.667,529,369.667,507.667,369.333,484.333z M426,482.667c0,20.333,7.333,37.666,21.667,52.333
	c14.333,14.333,31.666,21.667,52,21.667c19,0,35.333-6.334,49.666-19c14-12.667,22-28.334,24.334-47L574,483
	c0-0.667,0-1.333,0.333-1.667c-0.333-20-7.666-37-22-50.666C538,416.667,520.333,410,500,410c-18.667,0-34.667,6-48.667,18
	s-22,27.333-24.333,45.333l-0.667,8.334v1H426z"/>
</svg>
