<?xml version="1.0" encoding="utf-8"?>
<!-- Generator: Adobe Illustrator 16.0.3, SVG Export Plug-In . SVG Version: 6.00 Build 0)  -->
<!DOCTYPE svg PUBLIC "-//W3C//DTD SVG 1.1//EN" "http://www.w3.org/Graphics/SVG/1.1/DTD/svg11.dtd">
<svg version="1.1" id="Layer_1" xmlns="http://www.w3.org/2000/svg" xmlns:xlink="http://www.w3.org/1999/xlink" x="0px" y="0px"
	 width="1000px" height="1000px" viewBox="0 0 1000 1000" enable-background="new 0 0 1000 1000" xml:space="preserve">
<path fill="#0E70A0" d="M326.667,487.333c0-31,7.666-60,23.333-86.666c15.667-26.667,36.667-48,63.333-63.667
	C440,321.333,469,313.667,500,313.667c31.333,0,60.333,7.667,87,23.333s47.667,36.667,63.333,63.333
	C666,427,673.667,456,673.667,487.333c0,31.334-7.667,60.334-23.334,87C634.667,601,613.667,622,587,637.667
	C560.333,653.333,531.333,661,500,661s-60-7.667-86.667-23.333C386.667,622,365.667,601,350,574.333
	C334.333,547.667,326.667,518.667,326.667,487.333z M475,374c29,3.667,53.333,16.333,73,38.333c19.667,22,29.667,48,29.667,77.667
	c0,27.667-8.667,52-26,73.333c-17.334,21.334-39.334,34.667-66,40.334C492.333,604.333,497,605,500,605
	c32.667,0,60.333-11.667,83.333-34.667S618,519.667,618,487c0-32-11.667-59.333-34.667-82.333c-23-22.667-51-34-83.333-34
	C491.333,371.333,483,372.333,475,374z"/>
</svg>
