<?xml version="1.0" encoding="utf-8"?>
<!-- Generator: Adobe Illustrator 16.0.3, SVG Export Plug-In . SVG Version: 6.00 Build 0)  -->
<!DOCTYPE svg PUBLIC "-//W3C//DTD SVG 1.1//EN" "http://www.w3.org/Graphics/SVG/1.1/DTD/svg11.dtd">
<svg version="1.1" id="Layer_1" xmlns="http://www.w3.org/2000/svg" xmlns:xlink="http://www.w3.org/1999/xlink" x="0px" y="0px"
	 width="1000px" height="1000px" viewBox="0 0 1000 1000" enable-background="new 0 0 1000 1000" xml:space="preserve">
<path fill="#0E70A0" d="M265.333,817h13l229.333-339.333c3-6,1.333-9-5-9H408L507.667,287c3-6,0.666-9-6.667-9H374
	c-3.667,0-6.667,2-9.667,6l-92.666,246.667c-0.667,6,1.333,9,6.333,9h91.667L265.333,817z M548.667,606h9l174-255.667
	c1.666-2.667,2-5,1.333-6.667c-0.667-1.667-2.667-2.333-5.667-2.333h-70L730,207c4-6.667,2-10-6-10h-91.333
	c-4.334,0-7.667,2-10,6.333L553.333,386c-1,3-1,5.333,0.334,7c1.333,1.667,3.333,2.333,6.333,2.333h68L548.667,606z"/>
</svg>
