<?xml version="1.0" encoding="utf-8"?>
<!-- Generator: Adobe Illustrator 16.0.3, SVG Export Plug-In . SVG Version: 6.00 Build 0)  -->
<!DOCTYPE svg PUBLIC "-//W3C//DTD SVG 1.1//EN" "http://www.w3.org/Graphics/SVG/1.1/DTD/svg11.dtd">
<svg version="1.1" id="Layer_1" xmlns="http://www.w3.org/2000/svg" xmlns:xlink="http://www.w3.org/1999/xlink" x="0px" y="0px"
	 width="1000px" height="1000px" viewBox="0 0 1000 1000" enable-background="new 0 0 1000 1000" xml:space="preserve">
<path fill="#0E70A0" d="M393.333,481c0,79.667,8,150.667,23.667,213s43.667,116.667,83.667,163c50.666,0,99.333-10,145.666-29.667
	c46.334-19.666,86.334-46.666,120-80c33.667-33.333,60.334-73.333,80-120C866,580.667,876,532.333,876,481s-10-99.667-29.667-146
	c-19.666-46.333-46.666-86-80-119.667c-33.333-33.667-73.333-60.333-120-80c-46.666-19.667-95-29.667-145.666-29.667
	c-34,48.667-60.334,105.333-79,171C403,342.333,393.333,410,393.333,481z"/>
</svg>
