<?xml version="1.0" encoding="utf-8"?>
<!-- Generator: Adobe Illustrator 16.0.3, SVG Export Plug-In . SVG Version: 6.00 Build 0)  -->
<!DOCTYPE svg PUBLIC "-//W3C//DTD SVG 1.1//EN" "http://www.w3.org/Graphics/SVG/1.1/DTD/svg11.dtd">
<svg version="1.1" id="Layer_1" xmlns="http://www.w3.org/2000/svg" xmlns:xlink="http://www.w3.org/1999/xlink" x="0px" y="0px"
	 width="1000px" height="1000px" viewBox="0 0 1000 1000" enable-background="new 0 0 1000 1000" xml:space="preserve">
<path fill="#0E70A0" d="M286,481c0,34.333,2,65.667,6,94.333C296,604,302.667,633,312.667,661.667c10,28.666,23,55,38.666,78
	C367,762.667,388,784.667,413,805s54.333,37.333,87.667,51.667c51,0,99.666-10,146-29.667c46.333-19.667,86-46.667,119.666-80
	c33.667-33.333,60.334-73.333,80-120C866,580.333,876,532,876,480.667c0-68-16.667-131-50.333-188.333
	C792,235,746.667,189,689,155.667c-57.667-33.333-120.333-50.333-188.333-50.333C434.333,138.667,382,189,343.333,257
	C304.667,325,286,399.667,286,481z"/>
</svg>
