<?xml version="1.0" encoding="utf-8"?>
<!-- Generator: Adobe Illustrator 16.0.3, SVG Export Plug-In . SVG Version: 6.00 Build 0)  -->
<!DOCTYPE svg PUBLIC "-//W3C//DTD SVG 1.1//EN" "http://www.w3.org/Graphics/SVG/1.1/DTD/svg11.dtd">
<svg version="1.1" id="Layer_1" xmlns="http://www.w3.org/2000/svg" xmlns:xlink="http://www.w3.org/1999/xlink" x="0px" y="0px"
	 width="1000px" height="1000px" viewBox="0 0 1000 1000" enable-background="new 0 0 1000 1000" xml:space="preserve">
<path fill="#0E70A0" d="M236.333,646.333c0-4.333,0-7.666,0.333-9.666V634c0-0.667,0-1.333,0-2s0-1,0-1.667c0-0.666,0-1,0-1.666
	c0-0.667,0-1,0-1.334v-0.666c0-1,0.333-2.334,0.667-4c0.333-1.667,0.667-2.667,0.667-3v-1c0-0.334,0-1,0-1.667s0-1,0-1.333
	l2.667-12.334c0-0.333,0-0.333,0.333-0.667V602l1.333-4.667c0.333-0.333,0.333-0.333,0.333-0.667c0.333-0.333,0.333-0.666,0.333-1
	v-1c1.333-4,2.333-7.333,3.333-9.333c0-0.333,0.333-0.667,0.667-1s0.667-2,1.667-5c5.667-12.667,12.667-24.667,21-36l2-2.333
	c0.333-0.334,0.667-0.667,1-1.334c0.333-0.666,0.667-1,1-1.333c0.333-0.333,1-1,2.333-2c0.333-0.667,0.667-1.333,1.333-2
	c0.667-0.667,1-1.333,1.333-2c1.333-0.667,2-1.667,2.333-2.333c0.333-0.334,1-0.667,2.333-2l2.333-2.334L539,248l-12.667,73.333
	l227.334-243L614.333,349.667l139.334-105.333L627.333,497.666l90.334-62.333L561.667,713c0,0.333-0.334,0.666-0.667,1.333
	s-0.667,1.333-1,1.667c-0.333,0.333-0.333,0.666-0.667,1.333C559,718,559,718.333,558.667,719c-0.334,0.333-0.334,0.666-0.667,1.666
	c-0.334,0.667-0.667,1.334-0.667,1.667c-14.333,28-35,50.333-62,67.333S438.667,815,406.333,815c-30.666,0-59-7.667-85-22.667
	c-26-15.333-46.667-35.667-62-62C244,704,236.333,677,236.333,646.333z M276.333,646.333c0,36,12.667,66.334,38,91.667
	c25.334,25.333,56,38,91.667,38c27.333,0,52-8,74-23.667C502,736.667,517.667,716,527,691c5.667-14.333,8.333-29,8.333-44.667
	c0-35.666-12.666-66.333-37.666-91.666C472.333,529.333,442,517,406,517c-33.333,0-62.333,11-86.667,33.333
	c-13.666,12-24,26-31.666,42.667C280,610,276.333,627.667,276.333,646.333z"/>
</svg>
