<?xml version="1.0" encoding="utf-8"?>
<!-- Generator: Adobe Illustrator 16.0.3, SVG Export Plug-In . SVG Version: 6.00 Build 0)  -->
<!DOCTYPE svg PUBLIC "-//W3C//DTD SVG 1.1//EN" "http://www.w3.org/Graphics/SVG/1.1/DTD/svg11.dtd">
<svg version="1.1" id="Layer_1" xmlns="http://www.w3.org/2000/svg" xmlns:xlink="http://www.w3.org/1999/xlink" x="0px" y="0px"
	 width="1000px" height="1000px" viewBox="0 0 1000 1000" enable-background="new 0 0 1000 1000" xml:space="preserve">
<path fill="#0E70A0" d="M260,495.333c0-32.666,6.333-64,19.333-94c12.667-30,30-55.667,51.667-77.333s47.667-39,77.333-52
	c29.667-13,61.334-19.333,94.334-19.333h39c5.333,1.333,8,4.667,8,9.333L551,292c1.333,43.333,17,80.333,47,111
	c30,30.667,66.667,47,109.333,48.667L735.667,454c5.333,0,7.666,2.667,7.666,7.667v33.666C743.667,529.667,737,562,724,592.667
	h-68.333c17-24.667,27.666-53,32.333-84.334c-55.667-11.666-100.667-35.666-134.333-72c-33.667-36.333-53-79-58.334-127.667
	c-32.333,1.667-61.666,11.667-88.666,30C380,357,359,380,344.333,408c-14.666,28-22,57.333-22,87.667
	c0,35.666,9.334,68,27.667,97.333h-70C266.667,561.667,260,529.333,260,495.333z M269.667,695.667c0-9.667,3-17.334,9.333-22.667
	c6-6,13.667-8.667,23-8.667h87.667l103.666-97.666c3.334-2.667,7.334-2.667,11.667,0L610.333,664h92.334c9,0,16.666,3,23,9.333
	c6.333,6,9.666,13.667,9.666,22.334c0,9-3.333,16.666-9.666,23c-6.334,6.333-14,9.666-23,9.666H590
	c-3.333,0-6.667-0.666-9.667-2.333L500,650.333L420.333,726c-2.666,1.667-5.666,2.333-9.333,2.333H302c-9,0-16.667-3.333-23-9.666
	C272.667,712.333,269.667,704.667,269.667,695.667z"/>
</svg>
