<?xml version="1.0" encoding="utf-8"?>
<!-- Generator: Adobe Illustrator 16.0.3, SVG Export Plug-In . SVG Version: 6.00 Build 0)  -->
<!DOCTYPE svg PUBLIC "-//W3C//DTD SVG 1.1//EN" "http://www.w3.org/Graphics/SVG/1.1/DTD/svg11.dtd">
<svg version="1.1" id="Layer_1" xmlns="http://www.w3.org/2000/svg" xmlns:xlink="http://www.w3.org/1999/xlink" x="0px" y="0px"
	 width="1000px" height="1000px" viewBox="0 0 1000 1000" enable-background="new 0 0 1000 1000" xml:space="preserve">
<path fill="#0E70A0" d="M124.667,481.333c0-51,10-100,29.667-146.333c19.667-46.333,46.667-86.333,80-120
	c33.333-33.667,73.333-60.333,120-80c46.667-19.667,95-29.667,145.667-29.667c51,0,100,10,146.333,29.667
	c46.334,19.667,86.334,46.667,120,80c33.667,33.333,60.334,73.333,80,120C866,381.667,876,430,876,481.333
	C876,532,866,580.667,846.333,627c-19.666,46.333-46.666,86.333-80,120c-33.333,33.667-73.333,60.333-120,80
	c-46.666,19.667-95,29.667-146.333,29.667c-50.667,0-99.333-10-145.667-29.667c-46.333-19.667-86.333-46.667-120-80
	c-33.667-33.333-60.333-73.333-80-120C134.667,580.333,124.667,532.333,124.667,481.333z M304.333,481
	c0,156,49.333,266.667,148.333,332.667C467.333,816,483,817,500,817c45.667,0,89-9,130.333-26.667
	c41.334-17.666,77-41.666,107.334-71.666c30.333-30,54-65.667,71.666-107.334c17.667-41.666,26.667-85,26.667-130
	c0-60.666-15-116.666-45-168.333c-30-51.667-71-92.333-122.667-122.667c-51.666-30.333-107.666-45-168.333-45
	c-15,0-28,0.667-39.667,2c-46.666,35.333-84.333,82-113,140C318.667,345.333,304.333,409.667,304.333,481z"/>
</svg>
