<?xml version="1.0" encoding="utf-8"?>
<!-- Generator: Adobe Illustrator 16.0.3, SVG Export Plug-In . SVG Version: 6.00 Build 0)  -->
<!DOCTYPE svg PUBLIC "-//W3C//DTD SVG 1.1//EN" "http://www.w3.org/Graphics/SVG/1.1/DTD/svg11.dtd">
<svg version="1.1" id="Layer_1" xmlns="http://www.w3.org/2000/svg" xmlns:xlink="http://www.w3.org/1999/xlink" x="0px" y="0px"
	 width="1000px" height="1000px" viewBox="0 0 1000 1000" enable-background="new 0 0 1000 1000" xml:space="preserve">
<path fill="#0E70A0" d="M124.667,481c0-68,17-130.667,50.667-188.333C209,235,254.667,190,312.333,156.333
	c57.667-33.667,120.334-50,188.334-50S631.333,123,689,156.333C746.667,189.667,792,235,825.333,292.667
	c33.334,57.667,50,120.333,50,188.333s-16.666,131-50,188.333C792,726.667,746.667,772.667,689,806.333
	C631.333,840,568.667,857,500.667,857s-131-17-188.334-50.667C255,772.667,209,727,175.333,669.333
	C141.667,611.667,124.667,549,124.667,481z M164.667,481c0,45.333,9,88.667,27,130s41.667,77.333,71.667,107.333
	S329,772.333,370.667,790c41.666,17.667,85,27,130,27c28.666,0,54-3,76.333-9.333c27.667-14.667,51.667-32,72.333-52.334
	C670,735,686,714.667,698,693.667s21.333-44.334,28.667-69.667c7.333-25.333,12-49.333,14.333-71.333S744.333,507,744.333,481
	c0-31-3.333-61.333-9.999-91.333c-6.667-30-17.001-59.667-31.001-89c-14-29.333-33-57.333-57.333-83.333S593.667,169,561.333,151
	c-13.333-3-33.666-4.333-60.666-4.333c-45.334,0-88.667,8.667-130,26.333c-41.334,17.667-77.333,41.333-107.333,71
	s-54,65.667-71.667,106.667C174,391.667,164.667,435.333,164.667,481z"/>
</svg>
