<?xml version="1.0" encoding="utf-8"?>
<!-- Generator: Adobe Illustrator 16.0.3, SVG Export Plug-In . SVG Version: 6.00 Build 0)  -->
<!DOCTYPE svg PUBLIC "-//W3C//DTD SVG 1.1//EN" "http://www.w3.org/Graphics/SVG/1.1/DTD/svg11.dtd">
<svg version="1.1" id="Layer_1" xmlns="http://www.w3.org/2000/svg" xmlns:xlink="http://www.w3.org/1999/xlink" x="0px" y="0px"
	 width="1000px" height="1000px" viewBox="0 0 1000 1000" enable-background="new 0 0 1000 1000" xml:space="preserve">
<path fill="#0E70A0" d="M124.667,481.333c0-51,10-100,29.667-146.333c19.667-46.333,46.667-86.333,80-120
	c33.333-33.667,73.333-60.333,120-80c46.667-19.667,95-29.667,145.667-29.667c51,0,100,10,146.333,29.667
	c46.334,19.667,86.334,46.667,120,80c33.667,33.333,60.334,73.333,80,120C866,381.667,876,430,876,481.333
	C876,532,866,580.667,846.333,627c-19.666,46.333-46.666,86.333-80,120c-33.333,33.667-73.333,60.333-120,80
	c-46.666,19.667-95,29.667-146.333,29.667c-50.667,0-99.333-10-145.667-29.667c-46.333-19.667-86.333-46.667-120-80
	c-33.667-33.333-60.333-73.333-80-120C134.667,580.333,124.667,532.333,124.667,481.333z M214,481.333c0,26,1.667,50,5,71.667
	s9.667,45,19,69.667c9.333,24.666,22,47,37.667,67.666c15.667,20.667,36.333,41.334,62.667,62c26.334,20.667,56.667,40,92.334,57
	c22.333,5,45.666,7.334,69.666,7.334c45.667,0,89-9,130.334-26.667c41.333-17.667,77-41.667,107.333-71.667S792,652.667,809.667,611
	c17.666-41.667,26.666-85,26.666-130c0-60.667-15-116.667-45-168.333c-30-51.667-71-92.333-122.666-122.667
	C617,159.667,561,145,500.333,145c-28.333,0-54,3-77,8.667c-29.666,14.667-55.666,30-78.333,46.333s-41.667,33.667-56.333,51.333
	c-14.667,17.667-27.333,36-37.667,54s-18,37.333-23,58c-5,20.667-8.667,40-10.667,58.333C215.333,440,214,460,214,481.333z"/>
</svg>
