<?xml version="1.0" encoding="utf-8"?>
<!-- Generator: Adobe Illustrator 16.0.3, SVG Export Plug-In . SVG Version: 6.00 Build 0)  -->
<!DOCTYPE svg PUBLIC "-//W3C//DTD SVG 1.1//EN" "http://www.w3.org/Graphics/SVG/1.1/DTD/svg11.dtd">
<svg version="1.1" id="Layer_1" xmlns="http://www.w3.org/2000/svg" xmlns:xlink="http://www.w3.org/1999/xlink" x="0px" y="0px"
	 width="1000px" height="1000px" viewBox="0 0 1000 1000" enable-background="new 0 0 1000 1000" xml:space="preserve">
<path fill="#0E70A0" d="M124.667,481.333c0-50.666,10-99.333,29.667-145.667c19.667-46.333,46.667-86,80-119.667
	c33.333-33.667,73.333-60.333,119.667-80s94.667-29.667,145.667-29.667S599,116.333,645.333,136c46.334,19.667,86.334,46.667,120,80
	c33.667,33.333,60.334,73.333,80,119.667C865,382,875,430.333,875,481.333S865,580.667,845.333,627
	c-19.666,46.333-46.666,86.333-80,120c-33.333,33.667-73.333,60.333-120,80c-46.666,19.667-95,29.667-145.666,29.667
	c-50.667,0-99.334-10-145.667-29.667s-86-46.667-119.667-80c-33.667-33.333-60.333-73.333-80-120
	C134.667,580.333,124.667,532.333,124.667,481.333z M164.667,481.333c0,44.667,8.667,87.334,25.667,128.334S230.667,686,259.667,716
	s64,54,104.333,72s82.667,27.667,127,29c-57-77.333-85.333-189.333-85.333-335.333c0-62.334,7.666-122.333,23-180.333
	c15.333-58,37-109.667,65-154.667c-60,1-115,16.667-165.334,47C278,224,238.333,264.667,209,315.333
	C179.667,366,164.667,421.667,164.667,481.333z"/>
</svg>
