<?xml version="1.0" encoding="utf-8"?>
<!-- Generator: Adobe Illustrator 16.0.3, SVG Export Plug-In . SVG Version: 6.00 Build 0)  -->
<!DOCTYPE svg PUBLIC "-//W3C//DTD SVG 1.1//EN" "http://www.w3.org/Graphics/SVG/1.1/DTD/svg11.dtd">
<svg version="1.1" id="Layer_1" xmlns="http://www.w3.org/2000/svg" xmlns:xlink="http://www.w3.org/1999/xlink" x="0px" y="0px"
	 width="1000px" height="1000px" viewBox="0 0 1000 1000" enable-background="new 0 0 1000 1000" xml:space="preserve">
<path fill="#0E70A0" d="M258,495.333c0-32.666,6.333-64,19.333-94c12.667-30,30-55.667,51.667-77.333s47.667-39,77.333-52
	c30-13,61.334-19.333,94.334-19.333h39c5.333,1.333,8,4.667,8,9.333l1.666,30c0.667,21.333,5,41.667,13.334,61
	C571,372.333,582,389,596,403c14,14.333,30.333,25.667,49.333,34.333c19,8.667,39,13.334,60,14.334L733.667,454
	c5.333,0,8,2.667,8,7.667v33.666c0.333,33.667-6.334,66-19.667,97.334h-68.333c17-24.667,27.666-53,32.333-84.334
	c-56-11.666-100.667-35.666-134.334-72c-33.666-36.333-53-79-58.333-127.667c-32.333,1.667-61.667,11.667-88.667,30
	C378,357,357.333,380,342.333,408c-14.666,28-22,57.333-22,87.667c0,35.666,9.334,68,27.667,97.333h-70
	C264.667,561.667,258,529.333,258,495.333z M266.333,696.333c0-8.666,3.333-16.333,10-23c6-6,13.667-9,22.667-9h107.333
	c3.667,0,6.667,0.667,9.334,2.667L494,741l79.667-74.333C576,665,579.333,664,583.333,664h110c9,0,16.667,3,23,9.333
	c6.334,6.334,9.667,14,9.667,22.667c0,9-3.333,16.667-9.667,23c-6.333,6.333-14,9.667-23,9.667H604l-104.333,94.666
	c-4,3-8,3-11.334,0l-102.666-94.666H299c-9,0-16.667-3.334-23-9.667C269.667,713,266.333,705.333,266.333,696.333z"/>
</svg>
