<?xml version="1.0" encoding="utf-8"?>
<!-- Generator: Adobe Illustrator 16.0.3, SVG Export Plug-In . SVG Version: 6.00 Build 0)  -->
<!DOCTYPE svg PUBLIC "-//W3C//DTD SVG 1.1//EN" "http://www.w3.org/Graphics/SVG/1.1/DTD/svg11.dtd">
<svg version="1.1" id="Layer_1" xmlns="http://www.w3.org/2000/svg" xmlns:xlink="http://www.w3.org/1999/xlink" x="0px" y="0px"
	 width="1000px" height="1000px" viewBox="0 0 1000 1000" enable-background="new 0 0 1000 1000" xml:space="preserve">
<path fill="#0E70A0" d="M500.333,857c68,0,130.667-16.667,188.334-50.333C746.333,773,791.667,727.667,825,670
	s50.333-120.333,50.333-188.333S858.667,351,825,293.333c-33.667-57.667-79-103-136.333-136.333
	c-57.334-33.333-120.334-50.333-188.334-50.333c57,42,99,96.667,126,163.667c27,67,40.334,137.667,40.334,211
	c0,30-1,57.667-3.334,83.334c-2.333,25.666-7,53-14.333,82.333s-17,56-28.667,80c-11.666,24-27.666,47.333-48.333,70.667
	C551.333,821,527.667,840.333,500.333,857z"/>
</svg>
