<?xml version="1.0" encoding="utf-8"?>
<!-- Generator: Adobe Illustrator 16.0.3, SVG Export Plug-In . SVG Version: 6.00 Build 0)  -->
<!DOCTYPE svg PUBLIC "-//W3C//DTD SVG 1.1//EN" "http://www.w3.org/Graphics/SVG/1.1/DTD/svg11.dtd">
<svg version="1.1" id="Layer_1" xmlns="http://www.w3.org/2000/svg" xmlns:xlink="http://www.w3.org/1999/xlink" x="0px" y="0px"
	 width="1000px" height="1000px" viewBox="0 0 1000 1000" enable-background="new 0 0 1000 1000" xml:space="preserve">
<path fill="#0E70A0" d="M124.667,481.333c0,68,16.667,131,50.333,188.334C208.667,727,254,773,311.667,806.333
	C369.333,839.667,432,856.667,500,856.667S630.667,840,688.333,806.333c57.667-33.666,103-79,136.334-136.666
	C858,612,875,549.333,875,481.333S858.333,350.667,824.667,293c-33.667-57.667-79-103-136.334-136.333
	C631,123.333,568,106.333,500,106.333s-130.667,17-188.333,50.333C254,190,208.333,235.667,175,293S124.667,413.333,124.667,481.333
	z"/>
</svg>
