<?xml version="1.0" encoding="utf-8"?>
<!-- Generator: Adobe Illustrator 16.0.3, SVG Export Plug-In . SVG Version: 6.00 Build 0)  -->
<!DOCTYPE svg PUBLIC "-//W3C//DTD SVG 1.1//EN" "http://www.w3.org/Graphics/SVG/1.1/DTD/svg11.dtd">
<svg version="1.1" id="Layer_1" xmlns="http://www.w3.org/2000/svg" xmlns:xlink="http://www.w3.org/1999/xlink" x="0px" y="0px"
	 width="1000px" height="1000px" viewBox="0 0 1000 1000" enable-background="new 0 0 1000 1000" xml:space="preserve">
<path fill="#0E70A0" d="M124.667,481.333c0-51,10-100,29.667-146.333c19.667-46.333,46.667-86.333,80-120
	c33.333-33.667,73.333-60.333,120-80c46.667-19.667,95-29.667,145.667-29.667c51,0,100,10,146.333,29.667
	c46.334,19.667,86.334,46.667,120,80c33.667,33.333,60.334,73.333,80,120C866,381.667,876,430,876,481.333
	C876,532,866,580.667,846.333,627c-19.666,46.333-46.666,86.333-80,120c-33.333,33.667-73.333,60.333-120,80
	c-46.666,19.667-95,29.667-146.333,29.667c-50.667,0-99.333-10-145.667-29.667c-46.333-19.667-86.333-46.667-120-80
	c-33.667-33.333-60.333-73.333-80-120C134.667,580.333,124.667,532.333,124.667,481.333z M164.667,481.333
	c0,45.334,9,88.667,26.667,130C209,652.667,233,688.667,263,718.667s65.667,53.666,107.333,71.666c41.667,18,85,26.667,130,26.667
	c45.667,0,89-9,130.334-26.667c41.333-17.666,77-41.666,107.333-71.666S792,653,809.667,611.333c17.666-41.666,26.666-85,26.666-130
	c0-60.666-15-116.667-45-168.333s-71-92.333-122.666-122.667C617,160,561,145.333,500.333,145.333c-45.333,0-88.666,9-130,26.667
	C329,189.667,293,213.667,263,244s-53.667,66-71.667,107.333C173.333,392.667,164.667,436,164.667,481.333z"/>
</svg>
