<?xml version="1.0" encoding="utf-8"?>
<!-- Generator: Adobe Illustrator 16.0.3, SVG Export Plug-In . SVG Version: 6.00 Build 0)  -->
<!DOCTYPE svg PUBLIC "-//W3C//DTD SVG 1.1//EN" "http://www.w3.org/Graphics/SVG/1.1/DTD/svg11.dtd">
<svg version="1.1" id="Layer_1" xmlns="http://www.w3.org/2000/svg" xmlns:xlink="http://www.w3.org/1999/xlink" x="0px" y="0px"
	 width="1000px" height="1000px" viewBox="0 0 1000 1000" enable-background="new 0 0 1000 1000" xml:space="preserve">
<path fill="#0E70A0" d="M125,481.333c0-50.666,10-99.333,29.667-145.667c19.667-46.333,46.667-86,80-119.667
	C268,182.333,308,155.667,354.333,136c46.334-19.667,95-29.667,145.667-29.667s99.333,10,145.667,29.667
	c46.333,19.667,86.333,46.667,120,80c33.666,33.333,60.333,73.333,80,119.667c19.666,46.333,29.666,94.667,29.666,145.667
	s-10,99.334-29.666,145.667c-19.667,46.333-46.667,86.333-80,120c-33.334,33.667-73.334,60.333-120,80
	c-46.667,19.667-95,29.667-145.667,29.667s-99.333-10-145.667-29.667c-46.333-19.667-86-46.667-119.667-80
	c-33.667-33.333-60.333-73.333-80-120C135,580.333,125,532.333,125,481.333z M511.667,146.333c35,42.333,63.666,91.667,85.666,148
	c22,56.333,33,118.667,33,187c0,146.334-38,258.334-114.333,335.334c43.667-2,85-12.334,124.667-30.667
	c39.666-18.333,73.333-42.667,101.666-72.667c28.334-30,51-65,68-105.333s25-82.667,25-127c0-59.333-14.333-114.333-43.333-164.667
	c-29-50.333-68-91-117.667-121.667C624.667,164,570.667,148.333,511.667,146.333z"/>
</svg>
