<?xml version="1.0" encoding="utf-8"?>
<!-- Generator: Adobe Illustrator 16.0.3, SVG Export Plug-In . SVG Version: 6.00 Build 0)  -->
<!DOCTYPE svg PUBLIC "-//W3C//DTD SVG 1.1//EN" "http://www.w3.org/Graphics/SVG/1.1/DTD/svg11.dtd">
<svg version="1.1" id="Layer_1" xmlns="http://www.w3.org/2000/svg" xmlns:xlink="http://www.w3.org/1999/xlink" x="0px" y="0px"
	 width="1000px" height="1000px" viewBox="0 0 1000 1000" enable-background="new 0 0 1000 1000" xml:space="preserve">
<path fill="#0E70A0" d="M124.667,481.333c0-50.666,10-99.333,29.667-145.667c19.667-46.333,46.667-86,80-119.667
	c33.333-33.667,73.333-60.333,119.667-80s94.667-29.667,145.667-29.667S599,116.333,645.333,136c46.334,19.667,86.334,46.667,120,80
	c33.667,33.333,60.334,73.333,80,119.667C865,382,875,430.333,875,481.333S865,580.667,845.333,627
	c-19.666,46.333-46.666,86.333-80,120c-33.333,33.667-73.333,60.333-120,80c-46.666,19.667-95,29.667-145.666,29.667
	c-50.667,0-99.334-10-145.667-29.667s-86-46.667-119.667-80c-33.667-33.333-60.333-73.333-80-120
	C134.667,580.333,124.667,532.333,124.667,481.333z M530,147.333c49.333,33,90,78,121.667,135c31.666,57,47.333,123.333,47.333,199
	c0,160-53.333,271-159.667,333c55-6.666,105-25.333,150-56C734.333,727.667,770,687.667,796,639s39-101,39-157.333
	c0-57.334-13.667-110.667-40.667-160C767.333,272.333,730.667,232,684,201.333C637.333,170.667,586.333,152.333,530,147.333z"/>
</svg>
