<?xml version="1.0" encoding="utf-8"?>
<!-- Generator: Adobe Illustrator 16.0.3, SVG Export Plug-In . SVG Version: 6.00 Build 0)  -->
<!DOCTYPE svg PUBLIC "-//W3C//DTD SVG 1.1//EN" "http://www.w3.org/Graphics/SVG/1.1/DTD/svg11.dtd">
<svg version="1.1" id="Layer_1" xmlns="http://www.w3.org/2000/svg" xmlns:xlink="http://www.w3.org/1999/xlink" x="0px" y="0px"
	 width="1000px" height="1000px" viewBox="0 0 1000 1000" enable-background="new 0 0 1000 1000" xml:space="preserve">
<path fill="#0E70A0" d="M124.667,481.333c0-67.666,16.667-130.333,50.333-188C208.667,235.667,254,190,311.667,156.667
	c57.666-33.333,120.333-50.333,188-50.333c50.666,0,99.333,10,145.666,29.667c46.334,19.667,86.334,46.667,120,80
	c33.667,33.333,60.334,73.333,80,119.667C865,382,875,430.333,875,481.333S865,580.667,845.333,627
	c-19.666,46.333-46.666,86.333-80,120c-33.333,33.667-73.333,60.333-120,80c-46.666,19.667-95,29.667-145.666,29.667
	c-50.667,0-99.334-10-145.667-29.667s-86.333-46.667-119.667-80c-33.333-33.333-60-73.333-80-120S124.667,532.333,124.667,481.333z
	 M351.333,481.333c0,148,39,259.334,116.667,334c2.333,0,5.667,0,10,0.334c4.333,0.333,8.333,0.666,11.667,0.666
	c3.333,0,6.666,0.334,10,0.334c45.333,0,88.666-9,130-26.667C671,772.333,707,748.333,737,718.333s53.667-65.666,71.667-107
	c18-41.333,26.666-84.666,26.666-130.333c0-45.333-9-88.667-26.666-130C791,309.667,767,274,737,244s-65.667-53.667-107.333-71.667
	c-41.667-18-85-26.667-130-26.667c-12,0-21,0.333-27,1c-36,40.667-65.334,89.667-88,147.333
	C362,351.667,351.333,414.333,351.333,481.333z"/>
</svg>
