<?xml version="1.0" encoding="utf-8"?>
<!-- Generator: Adobe Illustrator 16.0.3, SVG Export Plug-In . SVG Version: 6.00 Build 0)  -->
<!DOCTYPE svg PUBLIC "-//W3C//DTD SVG 1.1//EN" "http://www.w3.org/Graphics/SVG/1.1/DTD/svg11.dtd">
<svg version="1.1" id="Layer_1" xmlns="http://www.w3.org/2000/svg" xmlns:xlink="http://www.w3.org/1999/xlink" x="0px" y="0px"
	 width="1000px" height="1000px" viewBox="0 0 1000 1000" enable-background="new 0 0 1000 1000" xml:space="preserve">
<path fill="#0E70A0" d="M124.667,481.333c0-50.666,10-99.333,29.667-145.667c19.667-46.333,46.667-86,80-119.667
	c33.333-33.667,73.333-60.333,119.667-80s94.667-29.667,145.667-29.667S599,116.333,645.333,136c46.334,19.667,86.334,46.667,120,80
	c33.667,33.333,60.334,73.333,80,119.667C865,382,875,430.333,875,481.333S865,580.667,845.333,627
	c-19.666,46.333-46.666,86.333-80,120c-33.333,33.667-73.333,60.333-120,80c-46.666,19.667-95,29.667-145.666,29.667
	c-50.667,0-99.334-10-145.667-29.667s-86-46.667-119.667-80c-33.667-33.333-60.333-73.333-80-120
	C134.667,580.333,124.667,532.333,124.667,481.333z M164.667,481.333c0,45.334,8.667,88.334,26.333,129.667
	s41.333,76.667,70.667,106.667c29.333,30,65,54,105.667,71.666c40.667,17.667,84,27,129,27.334
	c-38.666-82.334-58-194.334-58-335.334c0-120.333,20-232,60-335c-45.333,0-88.333,9-129.666,27C327.333,191.333,292,215,262.333,245
	c-29.667,30-53.667,65.667-71.333,106.667S164.667,436.333,164.667,481.333z"/>
</svg>
