<?xml version="1.0" encoding="utf-8"?>
<!-- Generator: Adobe Illustrator 16.0.3, SVG Export Plug-In . SVG Version: 6.00 Build 0)  -->
<!DOCTYPE svg PUBLIC "-//W3C//DTD SVG 1.1//EN" "http://www.w3.org/Graphics/SVG/1.1/DTD/svg11.dtd">
<svg version="1.1" id="Layer_1" xmlns="http://www.w3.org/2000/svg" xmlns:xlink="http://www.w3.org/1999/xlink" x="0px" y="0px"
	 width="1000px" height="1000px" viewBox="0 0 1000 1000" enable-background="new 0 0 1000 1000" xml:space="preserve">
<path fill="#0E70A0" d="M357.667,481c0,39.667,2.333,76.333,6.666,110c4.334,33.667,11.667,66.667,22.334,99.667
	C397.333,723.667,412,754,431,782.333c19,28.334,42.333,53,69.667,75c51,0,99.666-10,146-29.666c46.333-19.667,86-46.667,119.666-80
	c33.667-33.334,60.334-73.334,80-120C866,581,876,532.667,876,481.333c0-68-16.667-131-50.333-188.333
	C792,235.667,746.667,189.667,689,156.333C631.333,123,568.667,106,500.667,106c-45,43.333-80,98-105.334,164.333
	C370,336.667,357.667,406.333,357.667,481z"/>
</svg>
