<?xml version="1.0" encoding="utf-8"?>
<!-- Generator: Adobe Illustrator 16.0.3, SVG Export Plug-In . SVG Version: 6.00 Build 0)  -->
<!DOCTYPE svg PUBLIC "-//W3C//DTD SVG 1.1//EN" "http://www.w3.org/Graphics/SVG/1.1/DTD/svg11.dtd">
<svg version="1.1" id="Layer_1" xmlns="http://www.w3.org/2000/svg" xmlns:xlink="http://www.w3.org/1999/xlink" x="0px" y="0px"
	 width="1000px" height="1000px" viewBox="0 0 1000 1000" enable-background="new 0 0 1000 1000" xml:space="preserve">
<path fill="#0E70A0" d="M137,563c0,44.333,15.333,82.667,46.333,114.333c31,32,68.667,49,113.333,51.334c4,0,6-2,6-6v-44.334
	c0-4-2-6-6-6C268,671,244,659.667,224,638.333C204,617,194,592,194,563c0-27.667,9.333-51.667,28-72.333
	c18.667-20.334,42-32.334,70-35.667l17.333-1.333c4.334,0,6.667-2,6.667-6l2.333-18C322,393.667,337,363.333,364,339.333
	C391,315,422.667,303,459,303s68,12.333,95.333,36.667C581.667,364,597,394,601,430l2.333,19c0,4,2,6.333,6,6.333h54
	c29.667,0,55,10.667,76.667,32C761.667,508.667,772.333,534,772.333,563s-10,54-30,75.333c-20,21.334-44.333,32.667-72.666,34
	c-4,0-6.334,2-6.334,6v44.334c0,4,2,6,6.334,6c29.333-1,56-9,80.333-24s43.667-35,57.667-60s21-52.334,21-81.334
	s-7.667-56-22.667-81.666c26-24.667,43-53.334,51.333-86L862,371.333c0.333-0.333,0.667-1,0.667-2.333
	c0-2.333-1.667-4.333-5.334-5.333l-19-5.667c-19-5.333-35.333-14.667-48.666-27.333c-13.667-12.667-23.334-26.333-29-40.333
	C755,276,752,262,752,247.667c0-9.667,1.333-19,3.667-28.333L760,199c0.667-3.333-0.667-6-4.333-7.667l-26.667-8
	c-15-3.333-29-5-42.333-5c-12,0-24.334,1.333-37.334,4.333c-12.666,3-26,7.333-39.666,13.333c-13.667,6-27,14.667-40,26.333
	c-13.001,11.667-24,24.667-33.334,40c-27-10.333-53-15.333-77.666-15.333c-47,0-89,14.667-125.334,44
	c-36.333,29.333-60,66.667-70.333,112c-37,8.667-67.333,28-91,58C149,490.333,137,524.667,137,563z M335,592.333
	C335,605,339.667,616,349,625s20.667,13.333,34,13.333S407.333,634,416.333,625s13.334-19.667,13.334-32.667c0-8.666-4-20-11.667-34
	s-15-25-21.667-32.666c-3.666-4-8-8.667-13.666-14.334L371,525c-9,9.667-17.333,21.333-25,34.667
	C338.333,573,335,583.667,335,592.333z M434.667,725.333c0,22,7.666,40.334,22.666,55.334c15.334,15,33.667,22.333,55,22.333
	c22,0,40.334-7.667,55.334-22.667c15-15.333,22.666-33.666,22.666-55c0-18.333-9-40.666-26.666-66.666
	c-14.667-19.334-29-36-42.667-49.667c-2.667-2-5.667-4.333-8.667-7.667L504.667,609c-13,12-27.334,28.667-42.667,49.333
	c-8,11-14.333,22.667-19.667,34.667C437,705.333,434.667,716,434.667,725.333z M483.667,503c0,8.667,3.333,15.667,9.666,22
	c6.334,6.333,14,9,23.334,9c8.666,0,15.666-3,22-9c6-6,9-13.333,9-22c0-14.333-10.334-32.333-31-54l-8.334,9
	c-6,6.667-11.666,14.333-16.666,23.333C486,490.333,483.667,497.667,483.667,503z M585.333,292.333C597,273.333,612,259,630,249.333
	c18-9.667,37.333-14.667,57.333-14.667c4,0,7,0.333,9,0.667v10c0,32,8.667,62.333,26.334,91.333
	c17.666,29,41.666,50.667,72.666,65.667c-5.333,12.667-13.666,24-25,34.334c-31-25.334-66.333-38-107-38h-11
	C642.333,355,620,319.667,585.333,292.333z"/>
</svg>
