<?xml version="1.0" encoding="utf-8"?>
<!-- Generator: Adobe Illustrator 16.0.3, SVG Export Plug-In . SVG Version: 6.00 Build 0)  -->
<!DOCTYPE svg PUBLIC "-//W3C//DTD SVG 1.1//EN" "http://www.w3.org/Graphics/SVG/1.1/DTD/svg11.dtd">
<svg version="1.1" id="Layer_1" xmlns="http://www.w3.org/2000/svg" xmlns:xlink="http://www.w3.org/1999/xlink" x="0px" y="0px"
	 width="1000px" height="1000px" viewBox="0 0 1000 1000" enable-background="new 0 0 1000 1000" xml:space="preserve">
<path fill="#0E70A0" d="M136,562.667c0,37,11,70,33,99.333s50.667,49,86,59.667L233,778c-1,4.667,0.667,7,5,7h70.667l-32.333,117
	H286l130.333-164.667c1.334-1.666,1.334-3.333,0.334-5c-1-1.666-2.667-2.333-5-2.333H339l82.667-154.333
	c2.333-4.667,1-7.334-4.334-7.334h-98.666c-3,0-5.334,1.667-7.667,4.667l-35.667,96c-24-6-43.667-19-59.333-39
	s-23.333-42.334-23.333-67c0-27.667,9.333-51.667,28.333-72.334C240,470,263.333,458.333,291,455l17.333-2.667
	c4.334,0,6.667-2,6.667-5.667l2.333-17.333C321,393.333,336,363,363,338.667S421.667,302,458,302c36,0,67.667,12.333,95,36.667
	s43,54.667,47,90.333l2.333,19.666c0,3.667,2,5.667,6,5.667h54c30.334,0,56,10.667,77.667,31.667s32.333,46.666,32.333,76.333
	c0,28.333-10,53-30,73.667c-20,20.666-44.333,32.333-73.333,34.666c-4,0-6.333,2-6.333,5.667v46c0,4,2,6,6.333,6
	c29.333-1,56-9,80.333-24c24.334-15,43.667-35,57.667-60s21-52.333,21-81.667c0-29-7.333-56-22-81.666
	c26.333-25.334,43.667-54.334,52-87.333l4.667-24c0.333-0.333,0.666-1.333,0.666-2.333c0-2.333-1.666-4-5.333-5l-18.667-6
	C820.333,351,804,341.667,790.667,329c-13.667-12.667-23.334-26.667-29-41C756,273.333,753,258.667,753,244
	c0-8.667,1-17.667,2.667-26.667L760.333,197c1.334-3.333,0-6-4.666-7.667c-7-3-17-5.667-30-8.667s-25.667-4.333-38.334-4.333
	c-12,0-24.333,1.333-37.333,4.333c-12.667,3-26,7.333-39.667,13.667c-13.666,6-27,15-40,26.667c-13,11.667-24,25-33.333,40.667
	c-27.333-10-54-15-79.333-15c-47,0-89,14.667-125.334,43.667c-36.333,29-60,66.333-70.333,112c-37,8.667-67.333,28-91.333,58
	C148,489.667,136,524,136,562.667z M406,890c0,5.333,1.667,10.667,5,15.333c3.333,5,8.333,8.334,15,10c3.667,0.667,7,1,10,1
	c13.667,0,22-7,25.333-21l77.334-293c2-8,1.333-15-2.334-21.666c-3.666-6.667-9.333-11-16.666-13c-7.667-2.334-15-1.667-21.667,2
	c-6.667,3.666-11.333,9-13.333,16.333l-77.334,294.667C406.333,884,406,887,406,890z M545,789.333c0,5.334,1.667,10.667,5,15.334
	c3.333,4.666,8.333,8.333,15.333,10.333c1,0,2.667,0,5,0.333c2.334,0.334,4.334,0.334,5.334,0.334c12.666,0,20.666-7,24-21
	l50-192.334c2-8,1.333-15.333-2.667-22c-3.667-6.333-9.333-10.666-17-12.666c-7.667-2.334-15-1.667-21.667,2
	c-6.666,3.666-11,9-13,16.666l-50,194C545.333,783.667,545,786.667,545,789.333z M586.333,291.667
	c11-19,25.667-33.333,44.334-43.333c18.333-10,38-15,58.666-15c4,0,7.334,0,9,0.333v10.667c0,32,8.667,62.333,26,91
	C741.667,364,766,385.667,796.667,401c-6,14-14.667,25.667-26.334,35.667C739.667,410.333,704,397.333,663,397.333h-10.667
	C643,355.333,621,320.333,586.333,291.667z"/>
</svg>
