<?xml version="1.0" encoding="utf-8"?>
<!-- Generator: Adobe Illustrator 16.0.3, SVG Export Plug-In . SVG Version: 6.00 Build 0)  -->
<!DOCTYPE svg PUBLIC "-//W3C//DTD SVG 1.1//EN" "http://www.w3.org/Graphics/SVG/1.1/DTD/svg11.dtd">
<svg version="1.1" id="Layer_1" xmlns="http://www.w3.org/2000/svg" xmlns:xlink="http://www.w3.org/1999/xlink" x="0px" y="0px"
	 width="1000px" height="1000px" viewBox="0 0 1000 1000" enable-background="new 0 0 1000 1000" xml:space="preserve">
<path fill="#0E70A0" d="M88.667,697.333c0,7.667,2.667,14,8.333,19c5.667,5.334,12.667,7.667,20.667,7.667H738
	c8,0,14.667-2.667,20-7.667c5.667-5.333,8.333-11.666,8.333-19c0-8-2.666-15-8-20.333C753,671.333,746,668.667,738,668.667H117.667
	c-8,0-14.667,2.666-20.333,8.333C91.667,682.667,88.667,689.667,88.667,697.333z M175.667,593.667c0,8,3,14.333,8.667,19.666
	c4.667,6,11,9,19.667,9h620.333c7.667,0,14-2.666,19.334-8.333c5.333-5.667,7.666-12.333,7.666-20.333
	c0-7.667-2.666-14.334-7.666-19.334s-11.667-7.666-19.334-7.666H204c-8,0-14.667,2.666-20,7.666
	C178.333,579.667,175.667,586,175.667,593.667z M180.667,513v-1.667c-1.333,5,0,7.334,4,7.334h48c2,0,4-1.667,6.333-5
	c8-17.334,19.667-31.334,35.333-42.334c15.667-11,33-17.333,51.667-18.666L343.667,450c4,0,6.333-2,6.333-6l2-16.667
	c3.667-36,18.667-65.667,45.333-90c26.667-24,58.334-36,94.667-36c35.667,0,67.333,12,94,35.667s42.333,53.333,46,89l2.333,19
	c0,4,2.334,6,7,6H694c21.333,0,41,5.667,58.333,17.333c17.334,11.334,30.667,26.667,39,45.334c2.334,3.333,4.667,5,7.334,5H846
	c4,0,5.667-2.334,5-7.334C843.667,492.667,838.666,481,835.667,476c24-21.667,41-50.333,50-85.667l5.666-22c1-2,0.667-4-0.333-5.333
	s-2.333-2.333-4-2.333l-20.667-7.333c-29.667-8.667-52.333-26-68-52.667c-15.666-26.667-19.666-55-12.333-85.333L790.333,196
	c1.667-3,0.333-5.667-4.333-7.667l-28-7.667c-36.334-9-72.334-6-107.333,8.667c-35,14.667-62.334,38.333-82.334,70.667
	c-26.333-10.333-52-15.333-76.333-15.333c-46.333,0-87.333,14.667-123.667,43.667c-36.333,29-59.333,66.333-70,111.667
	c-28,6.667-52.667,20-74,40.333C203,460.667,189,485,180.667,513z M233.333,799c0,8,3,14.333,8.667,19.667
	c5.667,6,12.333,9,19.667,9h621.667c7.667,0,14.334-2.667,19.667-8.334c5.333-5.666,8-12.333,8-20.333c0-7.667-2.667-14-8-19.333
	c-5.333-5.334-12-7.667-19.667-7.667H262c-8,0-14.667,2.667-20,7.667C236.333,785,233.333,791.333,233.333,799z M617,290
	c11.667-19,27.333-34,47-44.333C683.667,235.333,704.333,231,726.333,233C724,267.667,732,300.333,749.667,330.667
	c18,30.333,42.666,52.667,74,67.333c-5,11.667-13.334,23.667-25,35.667C768,408.333,733,396,694,396h-10.667
	C672.667,352.333,650.667,317,617,290z"/>
</svg>
