<?xml version="1.0" encoding="utf-8"?>
<!-- Generator: Adobe Illustrator 16.0.3, SVG Export Plug-In . SVG Version: 6.00 Build 0)  -->
<!DOCTYPE svg PUBLIC "-//W3C//DTD SVG 1.1//EN" "http://www.w3.org/Graphics/SVG/1.1/DTD/svg11.dtd">
<svg version="1.1" id="Layer_1" xmlns="http://www.w3.org/2000/svg" xmlns:xlink="http://www.w3.org/1999/xlink" x="0px" y="0px"
	 width="1000px" height="1000px" viewBox="0 0 1000 1000" enable-background="new 0 0 1000 1000" xml:space="preserve">
<rect fill="#FFFFFF" width="1000" height="1000"/>
<path fill="#0E70A0" d="M119.333,448.333c0-38.333,12-72.667,36-102.333c24-30,54.333-49.333,91.333-58
	c10.333-45.667,34-83,70.333-112.333c36.333-29.333,78.333-44,125.333-44c46,0,87,14.333,123,42.667c36,28.333,59.334,65,70,109.667
	h11c30,0,57.667,7.333,83,21.667C754.667,320,775,340,789.667,365.333C804.333,390.667,812,418,812,448
	c0,6.667-0.333,13.333-1,20.333c21.667,17,38.667,38.334,51.333,63.667C875,557.333,881,584.333,881,613c0,25.667-5,50-15,73
	s-23.334,42.667-40,59.333c-16.667,16.334-36.667,29.667-59.667,39.334c-23,9.666-47,14.666-72.333,14.666c-25,0-49-5-72-14.666
	c-23-9.667-42.667-23-59.333-39.667C546,728.333,533,708.667,523,685.667s-15-47-15-72H279.333c-44.667-2-82.333-19-113.333-51
	C135,531.333,119.333,493,119.333,448.333z M176.333,448.333c0,29,10,54,30,75.334c20,21.333,44.333,32.666,73,34.333h373
	c28.667-1.333,53-13,73-34.333c20.334-21.334,30.334-46.667,30.334-75.334c0-29.333-11-54.333-32.667-75.667
	c-21.667-21.333-47.333-32-77.333-32h-54c-3.667,0-5.667-2-5.667-5.667l-2.333-19.333C580,279.667,564.333,249.333,537,225
	s-59-36.667-95.333-36.667c-36.334,0-68.334,12.333-95,36.667c-26.667,24.333-42,54.667-45.333,90.667L298.667,335
	c0,3.667-2.333,5.667-6.667,5.667h-17.333c-28,3.333-51.333,15.333-70,35.667C185.667,396.667,176.333,420.667,176.333,448.333z
	 M551.667,618.667c2,37.333,17.333,69,45.666,94.333c28.334,25.333,60.667,38,97,38c20,0,39-4,56.667-11.667
	c17.667-7.666,32.667-18.333,44.667-31c12-13,21.666-27.666,28.333-44.333c7-16.667,10.333-33.333,10.333-50.667
	c0-16.333-3.333-32.666-10-49c-6.666-16.333-16-31.333-28.333-45c-13,27.334-32.333,50-58,67.334
	C712.333,604,683.667,613,652.333,614.333h-101C551.333,614.667,551.333,615.667,551.667,618.667z"/>
</svg>
