<?xml version="1.0" encoding="utf-8"?>
<!-- Generator: Adobe Illustrator 16.0.3, SVG Export Plug-In . SVG Version: 6.00 Build 0)  -->
<!DOCTYPE svg PUBLIC "-//W3C//DTD SVG 1.1//EN" "http://www.w3.org/Graphics/SVG/1.1/DTD/svg11.dtd">
<svg version="1.1" id="Layer_1" xmlns="http://www.w3.org/2000/svg" xmlns:xlink="http://www.w3.org/1999/xlink" x="0px" y="0px"
	 width="1000px" height="1000px" viewBox="0 0 1000 1000" enable-background="new 0 0 1000 1000" xml:space="preserve">
<path fill="#0E70A0" d="M141,566.333v-0.666c0-38.667,12-73,36-103s54.667-49.667,91.333-58c10.333-45.667,33.667-83,70-112.333
	c36.334-29.333,78.334-44,125.667-44c33,0,63.333,7.333,90.667,22c16.666-17.667,36.333-31.667,58.666-41.667
	c22.334-10,45.667-15,69.667-15c31.667,0,61,8,88,23.667c27,15.667,48.333,37,64,64s23.667,56.333,23.667,88
	c0,41-12.667,77.667-38,109.667C830.333,519.333,835,541.667,835,566.333c0,29.334-7,56.667-21.333,81.667
	c-14,25-33.334,45.333-58,60.333c-24.334,15-51.334,23-80.667,24c-4.333,0-6.667-2-6.667-5.666V682c0-4,2.334-6,6.667-6
	c28.667-1.333,52.667-13,72.667-34.333c20-21.334,30-46.667,30-75.334c0-29.666-10.667-55-32.334-76.333c-21.333-21.333-47-32-77-32
	h-53.666c-4,0-6-2-6-6L606,432.333c-3.667-36-19.333-66.333-46.667-90.667C532,317.333,500,305,464,305
	c-36.667,0-68.333,12.333-95.333,36.667S326.333,396.333,323,432.333L320.333,452c-1,3-3.666,4.667-7.333,4.667L296,458
	c-28,3.333-51.667,15-70.333,35.333c-18.667,20.334-28,44.667-28,72.667v1.333c0.333,0.334,0.667,0.667,1,0.667
	c0.333,28.333,10.333,53,30,74c9.333,9.667,19.667,17.333,30.667,22.333V665c12.667,6.333,26.333,10.333,41.333,11.333
	c3.667,0,5.667,2,5.667,5.667v44.667c0,3.666-2,5.666-5.667,5.666c-16.333-0.666-32.333-4-47.667-9.666
	c-25.333-9-47.333-22.667-65.667-42C169,661.333,155.667,639.333,148,614C143.333,598.333,141,582.667,141,566.333z
	 M324.333,805.333c0-1,0.334-2.333,0.667-4.333s0.667-3.333,0.667-4l3-19.333c2.333-8,7-14,13.666-17.667c7-4,14.334-5,22.667-2.667
	c7.667,2.334,13,7,17,13.667c3.667,7,4.333,14,2.333,21l-4.666,20c-3.334,14.667-11.667,22-25.334,22c-1,0-2.666,0-5-0.333
	c-2.333-0.334-3.666-0.334-4.333-0.334c-7-2-12-5.666-15.333-11C326,816.333,324.333,811,324.333,805.333z M349,707
	c0-8,2.667-14.333,7.667-19.667c5-5.333,11.666-7.666,19.666-7.666s14.334,2.666,19.667,7.666S403.667,699,403.667,707
	c0,7.667-2.667,14.333-7.667,19.333S384.333,734,376.333,734c-7.666,0-14-2.667-19-8C352,720.667,349,714.333,349,707z
	 M403.667,906.333c0-1.333,0.333-3.666,1.333-7.666L409.333,879c2.334-7.667,7-13,13.667-17c7-3.667,14-4.333,21-2.333
	c7.667,1.333,13.667,5.666,17.667,12.333s5,14.333,2.666,22.667L460,914c-3.667,13.667-12.333,20.667-26.667,20.667
	c-1.666,0-4.333-0.334-8-1.334c-7.333-2-12.666-5.666-16.333-11C405.333,917,403.667,912,403.667,906.333z M430,809.333
	c0-7.666,2.667-14,7.667-19.333c5.333-5,11.666-7.667,19.666-7.667S471.667,785,477,790s7.667,11.667,7.667,19.333
	c0,8-2.667,14.334-7.667,19.667c-5.333,5.333-11.667,7.667-19.667,7.667c-7.666,0-14-2.667-19.333-8
	C432.667,823.333,430,817,430,809.333z M450.667,733.667c0-3,0.333-6,1-8.667l7.666-30c2.334-8,7-14,13.667-17.667
	c6.667-3.666,14-5,21.333-2.666C502.333,677,508,681.333,512,688s4.667,13.667,2.333,21l-8.666,30
	c-2.667,9-7.334,15.333-13.667,18.667c-6.333,3.333-13.667,4-21.333,2c-6.667-1.334-11.667-4.667-15-10
	C451.667,744,450.333,738.667,450.667,733.667z M542.667,805.333c0-1,0-2.666,0.333-4.666s0.333-3.334,0.333-3.667l3-19.333
	c2.334-8,7-14,13.667-17.667c7-4,14.333-5,22.333-2.667c7.667,2.334,13.334,7,17,13.667c4,7,4.667,14,2.334,21L597,812
	c-3.333,14.667-11.667,22-25.333,22c-1,0-2.667,0-5-0.333c-2.334-0.334-3.667-0.334-4.334-0.334c-6.666-2-11.666-5.666-15-11
	C544,817,542.667,811,542.667,805.333z M567.333,707c0-8,2.667-14.333,7.667-19.667c5-5.333,11.667-7.666,19.667-7.666
	s14.333,2.666,19.666,7.666C619.667,692.667,622,699,622,707c0,7.667-2.667,14.333-7.667,19.333
	C609,731.667,602.667,734,594.667,734s-14.334-2.667-19.334-8C570.333,721,567.333,714.667,567.333,707z M602,303.333
	c28,25.333,46.667,58,56.667,97.667H669c46,0,85,16,117.333,48C796.667,430.667,802,410.667,802,388.667
	c0-32.667-11.667-60.333-34.667-83.333c-23-22.667-51-34.333-83.666-34.333C651.333,271.333,624.333,282,602,303.333z"/>
</svg>
