<?xml version="1.0" encoding="utf-8"?>
<!-- Generator: Adobe Illustrator 16.0.3, SVG Export Plug-In . SVG Version: 6.00 Build 0)  -->
<!DOCTYPE svg PUBLIC "-//W3C//DTD SVG 1.1//EN" "http://www.w3.org/Graphics/SVG/1.1/DTD/svg11.dtd">
<svg version="1.1" id="Layer_1" xmlns="http://www.w3.org/2000/svg" xmlns:xlink="http://www.w3.org/1999/xlink" x="0px" y="0px"
	 width="1000px" height="1000px" viewBox="0 0 1000 1000" enable-background="new 0 0 1000 1000" xml:space="preserve">
<path fill="#0E70A0" d="M136.667,563.667C136.667,608,152,646.333,183,678s68.667,49,113.333,51c4,0,6-2,6-5.667v-44.666
	c0-3.667-2-5.667-6-5.667c-28.667-1.333-52.667-12.667-72.667-34s-30-46.333-30-75.333c0-27.667,9.333-51.667,28-72.334
	c18.667-20.333,42-32.333,70-35.666l17.667-1c4.334,0,6.667-2,6.667-6l2.333-18C322,394.667,337,364.333,364,340
	s58.667-36.667,95-36.667c36,0,67.667,12.333,95,36.667s42.667,54.667,46.667,90.667L603.333,450c0,3.667,2,5.667,5.667,5.667
	h53.667c29.666,0,55.333,10.666,77,32c21.666,21.333,32.666,46.666,32.666,75.666s-10,54-30,75.334
	c-20,21.333-44.333,32.666-72.666,34c-4.334,0-6.667,2-6.667,5.666V723c0,3.667,2.333,5.667,6.667,5.667
	c44.333-1.334,82-18.334,112.666-50.334c31-32,46.334-70.333,46.334-115c0-28.666-7.334-55.333-21.667-80.333
	c26.333-24.667,43.333-54,51.666-87.333L863,373c0.666-0.333,1-1,1-2.333c0-2.333-1.667-4.333-5.334-5.333L840,359.667
	c-19-5.667-35-15-48.667-28.333c-13.333-13.333-23-27-28.666-41.667c-5.667-14.333-8.334-29-8.334-44
	c-0.333-8,0.667-17,2.667-26.333L761.667,200c1-3-0.667-5.333-4.667-7.333l-26.667-8.333c-14-4-28.666-6.333-43.666-6.333
	c-11.667,0-23.667,1.333-36,4.333c-12.334,3-25.334,7.333-39,13.333c-13.667,6-26.667,15-39.667,26.667
	c-12.667,11.667-24,25-33.333,40.667c-25-10.667-51.334-16.333-79-16.333c-47,0-89,14.667-125.334,43.667
	c-36.333,29-59.667,66.333-70,112C227.333,411,197,430,173,460S136.667,525.333,136.667,563.667z M319.333,798c3,7,8,12,15.334,15
	c6.333,3.333,13.333,3.667,20.666,0.667c7.334-2.667,12.334-7.667,15-15C373.667,791.333,374,784.333,371,777
	c-2.667-7-7.667-12-15-14.667c-6.667-3.333-13.667-3.666-20.667-0.666s-12.333,8-15.666,15.333
	C316.667,782.667,316.333,789.667,319.333,798z M340,703.667c0,5,1.667,10,5.333,15c3.667,5,8.667,8.666,15.334,10.666
	c8.666,3.334,16,3.334,22.333,0c6.333-3.333,10.667-9.666,13.333-19l29.334-107C428,595,427,587.667,423,581s-10-10.667-18-12.333
	c-7.333-2.334-14.333-1.667-21,2.333c-6.667,3.667-11,9.333-13.333,17l-29.334,107.333c0,0.667-0.333,2-0.666,4
	C340.333,701,340,702.667,340,703.667z M402.333,890.333c0,4,0.667,7.334,2,9.667c3,7.333,8,12.333,15,15
	c3,1.667,6.667,2.333,11,2.333c2,0,5.334-0.666,10-2c7.667-2.666,13-7.666,16-15c3.334-7.333,3.334-14.666,0-22
	C453,871,448,866,441.333,863c-6.666-3-13.333-3-20.333,0c-6.333,2.667-11,6.667-14,12
	C403.667,880.667,402.333,885.667,402.333,890.333z M427,802c0,12.667,7,21.333,21.333,26c3,1,5.667,1.667,7.667,1.667
	c3.667,0,7.667-1,11.667-2.667c7.666-2.667,13-9,15.666-19l55-204c2-8,1.334-15-2.333-21.667c-3.667-6.333-9.333-10.666-16.667-13
	c-7.666-2.333-15-1.666-21.666,2.334c-6.667,3.666-11.334,9.333-13.334,17l-56,205.666C427.333,797.333,427,800,427,802z
	 M541.667,788c0,4.333,0.666,7.667,2.333,10.333C546.667,805,551.667,810,558.667,813c4,1.667,7.666,2.667,11.666,2.667
	c2,0,5.334-0.667,10-2c7.334-3,12.334-7.667,15-14.667c2.667-7.333,2.667-14.333,0-21c-2.666-6.667-7.333-11.667-14-15
	c-7.333-3.333-14.666-3.667-21.666-0.667c-7.334,2.667-12.334,8-15.667,15.334C542.333,780.333,541.667,783.667,541.667,788z
	 M565.667,702.667c0,5.333,1.666,10.666,5,15.333c3.333,4.667,8.333,8.333,15,10.333c5.666,0.667,8.666,1,9,1
	c13.666,0,22-6.666,25.666-20.333l29-105.667c2-8,1.334-15-2.333-21.666c-3.667-6.334-9.333-10.667-16.667-13
	c-7.666-2.334-15-1.667-21.333,2.333c-6.667,3.667-11,9.333-13.333,17l-29,105.667C566,696.667,565.667,699.667,565.667,702.667z
	 M587.333,294.333c10.334-19,25-33.667,43.334-43.667c18.333-10,38-15,58.666-14.667c3.667,0,6.667,0.333,8.334,0.667V247
	c0,32.667,8.666,63,26,91.667C741,367.333,765.333,389,796,403.667c-6.333,14.666-14.667,26.333-25,35.666
	C741.667,413,705.667,400,662.667,400H652C643.333,358.333,622,323,587.333,294.333z"/>
</svg>
