<?xml version="1.0" encoding="utf-8"?>
<!-- Generator: Adobe Illustrator 16.0.3, SVG Export Plug-In . SVG Version: 6.00 Build 0)  -->
<!DOCTYPE svg PUBLIC "-//W3C//DTD SVG 1.1//EN" "http://www.w3.org/Graphics/SVG/1.1/DTD/svg11.dtd">
<svg version="1.1" id="Layer_1" xmlns="http://www.w3.org/2000/svg" xmlns:xlink="http://www.w3.org/1999/xlink" x="0px" y="0px"
	 width="1000px" height="1000px" viewBox="0 0 1000 1000" enable-background="new 0 0 1000 1000" xml:space="preserve">
<path fill="#0E70A0" d="M225.667,655c0-26.333,7.667-49.333,22.667-69.667C263.333,565,283.667,551,308.667,543
	c10.666-36.333,32.666-64,66.333-83v-11.667C375,399.667,390.333,357,421,320s69.667-60,116.667-68.667c12-2,24-3,36-3h1
	c7,0,14.666,0.667,23.333,1.667c8.667,0.667,16.667,2,24.333,3.667L652.667,263c4.333,2.333,6,5.333,5.333,8.667L653.667,295
	c-2.334,11-3.667,21.667-3.667,32.333C650,339,651.667,351,655.333,363c3.667,12.333,9,24,16.667,36s17.333,22.667,30.333,32.333
	c12.667,9.667,27.667,17,44.334,22l23.666,7c3.667,1,5.667,2.667,5.667,6c0,1.334,0,2-0.333,2.334l-6,22.666
	c-2,8-4.334,16.334-7.334,24.334c-5,14.666-12.666,29.666-23.333,45.666c0-0.333,0-0.333-0.333-0.333
	C724,582,706,599.667,684,613.667c4.667,11.333,7,25,7,41.333c0,33-11.667,61-34.667,84.333c-23,23.334-50.666,35-83,35H345
	c-32.333,0-60.333-11.666-84-35.333C237.667,715.333,225.667,687.333,225.667,655z M291.667,655c0,15,5,27.667,15.333,38.333
	C317.333,704,330,709,345,709h228.333c14.334,0,26.667-5.333,37.334-16c10.666-10.667,15.666-23.333,15.666-38
	c0-14.333-5.333-26.667-15.666-37.333C600.333,607,587.667,602,573.333,602H530c-3.667,0-6.333-2.333-8.333-7.667L519,573
	c-2.333-19.333-10.667-35.333-25-48s-31-19.333-50.333-19.333c-19,0-35.334,6.333-49.334,19.333s-22,29-24.333,48l-3.333,18.333
	c0,5-2,7.334-6.334,7.334l-21,2.666c-13.666,1.334-25,7-34,17C296.333,629,291.667,641,291.667,655z M439.333,441.667h4
	c31,0,58.334,8.666,83,26c24.334,17.333,41.667,40.666,51.334,70c25.666,0,48.333,8,67.666,24c23-14.334,40-34,51-58.334
	c-34.666-17.333-61.666-42.333-81-75C596,395.667,586,361.333,586,324.667V313c-1,0-2.333,0-4,0s-3,0-4,0c-20.333,0-40,4.333-59,13
	s-35,21.333-48,37.333l-1-0.667C451.667,385.333,441.667,411.667,439.333,441.667z"/>
</svg>
