<?xml version="1.0" encoding="utf-8"?>
<!-- Generator: Adobe Illustrator 16.0.3, SVG Export Plug-In . SVG Version: 6.00 Build 0)  -->
<!DOCTYPE svg PUBLIC "-//W3C//DTD SVG 1.1//EN" "http://www.w3.org/Graphics/SVG/1.1/DTD/svg11.dtd">
<svg version="1.1" id="Layer_1" xmlns="http://www.w3.org/2000/svg" xmlns:xlink="http://www.w3.org/1999/xlink" x="0px" y="0px"
	 width="1000px" height="1000px" viewBox="0 0 1000 1000" enable-background="new 0 0 1000 1000" xml:space="preserve">
<path fill="#0E70A0" d="M135.667,563.333c0,44.334,15.667,82.667,46.667,114.667s69,49,113.333,51c4,0,6-2,6-5.667v-44.666
	c0-3.667-2-5.667-6-5.667c-28.667-1.667-53-13-73-34.333c-20-21.334-30-46.334-30-75.334c0-27.666,9.333-51.666,28.333-72.333
	s42.333-32.333,70-35.667L308.667,454c4.333,0,6.666-2,6.666-5.667l2.334-18c3.666-36,19-66.333,46-90.667
	c27-24.333,59-36.667,95.333-36.667s68,12.333,95.333,36.667C581.667,364,597,394.333,601,430.333l2.667,19c0,4,2,6,5.666,6h54
	c29.667,0,55.667,10.667,77.334,32c21.666,21.334,32.666,46.667,32.666,76c0,29-10,54-30,75.334c-20,21.333-44.333,32.666-73,34.333
	c-4.666,0-7,2-7,5.667v44.666c0,3.667,2.334,5.667,7,5.667c44.334-1.333,82-18.333,112.667-50.333
	c31-32.334,46.333-70.667,46.333-115c0-29.334-7.666-56.667-22.666-82c26.999-24.334,44.333-53.334,52.666-87.333l4.667-24
	c0.333-0.333,0.666-1,0.666-2.333c0-2.333-1.666-4.333-5.333-5.333l-18.666-6C821.667,351.333,805.333,342,792,329
	c-13.667-13-23.333-26.667-29-41s-8.667-28.667-8.667-42.667C753.667,238,754.667,228.667,757,218l4.667-20.333
	c1.333-3.333,0-6-4.667-8l-26.333-8c-15.001-3.333-29.001-5-42.334-5c-12.666,0-25.333,1.333-38,4.333c-13,3-26.333,7.333-40,13.667
	c-13.666,6-27,15-40,26.667c-13,11.667-24,25-33.333,40.667c-27.334-10-53.334-15-77.667-15c-47,0-89,14.667-125.333,44
	c-36.333,29.333-60,66.667-70.333,112.333C226.667,412,196.333,431,172.333,461C147.667,490.667,135.667,525,135.667,563.333z
	 M321,791.333c0,5.667,1.667,11,5.333,16.334c3.667,5.333,9,9,16.334,11c7.666,2.333,15,1.666,21.333-1.334
	c6.667-3.333,11-9.333,13.333-18.666L425,603c2-8.333,1-16-2.667-22.333c-4-6.667-9.666-10.667-17.333-12.334
	c-7.333-2.333-14.333-1.666-21,2.334c-6.667,3.666-11.333,9.333-13.667,17l-48,196.666c0,0.334-0.333,1.334-0.666,3
	C321.333,789,321,790.333,321,791.333z M408,893.667C408,899,409.667,904,413,909s8.333,8.333,15,10.333
	c3.667,1,6.333,1.334,8,1.334c14.667,0,23.667-6.667,27.333-19.667l75-297.667c2-8,1.334-15.333-2.333-21.666
	c-3.667-6.334-9.333-10.667-16.667-13c-7.666-2.334-15-1.667-22,2.333s-11.333,9.333-13,16.667L409,885c0,0.333,0,1.667-0.333,4
	C408,891,408,892.667,408,893.667z M546.667,794c0,12,7,20,21,24.667c4.666,1.333,8,2,10,2c3.666,0,7.666-0.667,11.666-2.334
	c7-2.666,11.334-9.333,13-19.333L650,603.333c2-8,1.333-15-2.667-21.666c-3.666-6.334-9.333-10.667-17-13
	c-7.666-2.334-15-1.667-22,2.333c-7,3.667-11,9.333-12.666,17L548,784.667C547.333,790,546.667,793.333,546.667,794z M586,292.333
	c10.667-19.333,25-34,43.667-44.333c18.333-10,38-15,58.666-14.667c4,0,7,0,9,0.333v10C697,276,705.333,306.333,723,335.333
	C740.333,364,765,386,796.667,401c-7.334,15.333-16.334,27-26.334,35.667C739.667,411.333,704,399,662.667,399h-10.334
	C643.333,356.667,621.333,321.333,586,292.333z"/>
</svg>
