<?xml version="1.0" encoding="utf-8"?>
<!-- Generator: Adobe Illustrator 16.0.3, SVG Export Plug-In . SVG Version: 6.00 Build 0)  -->
<!DOCTYPE svg PUBLIC "-//W3C//DTD SVG 1.1//EN" "http://www.w3.org/Graphics/SVG/1.1/DTD/svg11.dtd">
<svg version="1.1" id="Layer_1" xmlns="http://www.w3.org/2000/svg" xmlns:xlink="http://www.w3.org/1999/xlink" x="0px" y="0px"
	 width="1000px" height="1000px" viewBox="0 0 1000 1000" enable-background="new 0 0 1000 1000" xml:space="preserve">
<path fill="#0E70A0" d="M141.667,564c0,22,4,42.667,12.667,62.667c8.333,20,19.667,37,34,51.666
	c14.333,14.667,31.333,26.334,51,35.334c19.667,9,40.667,14,62.667,15c4,0,6-2,6-5.667v-44.667c0-3.666-2-5.666-6-5.666
	c-28.333-1.334-52.667-13-72.667-34.334c-20-21.333-30-46.333-30-74.666c0-28.334,9.333-52.667,28-73.334
	c18.667-20.666,42-32,70-34.333L315,453.667c3.333,0,5-1.667,5-5L322.667,431c3.666-36.333,19.333-66.667,46.666-91
	c27.334-24.333,59.334-36.333,96-36.333c36.334,0,68,12,95,36c27.334,24,42.667,54,46.667,90l2.333,19c0,4,2,6.333,6,6.333h54
	c29.667,0,55,10.667,76.334,32c21.333,21.333,32,47,32,77c0,28.333-10,53.333-29.667,74.667C728.333,660,704,671.333,675.667,673
	c-4.334,0-6.334,2-6.334,5.667v44.666c0,3.667,2,5.667,6.334,5.667c44.666-2,82.333-19,113-50.667
	c31-31.666,46.333-69.666,46.333-114c0-21.333-4.667-43.666-13.667-66.666C846.667,464.667,859,428,859,388
	c0-31.333-8-60.667-23.667-87.667c-15.666-27-37-48.333-64-64c-27-15.667-56-23.667-87.333-23.667c-51,0-94,18.667-128.667,55.667
	c-29-14.333-59-21.667-90-21.667c-47.333,0-89.333,14.667-125.666,44c-36.333,29.333-59.667,67-70,112.667
	c-37.667,8.667-68.333,28-92,57.334C154,490,141.667,524.667,141.667,564z M321.333,789c0,5.667,1.667,11,5,16
	c3.334,5,8.667,9,16,11.333c3.667,2,8,2.667,12.334,2.334C359,818.333,363.667,816,368,812s7.667-9.333,9.333-16l9.334-33.667
	c2-8.333,1.333-16-2.667-22.333c-4-6.667-9.667-10.667-17.667-12.333c-7-2.334-14-1.667-21,2.333s-11.333,9.333-13.666,16.667
	l-9.334,34.666C321.667,784.333,321.333,787,321.333,789z M365,630c0.333,6.333,2,12.333,5.667,17.333c3.666,5,9,8.334,16,9.334
	c6,1,9,1.666,10,1.666c12.666,0,21-7.333,25.333-22L431.333,603c2-7.667,1.334-15-2.666-22S419,569.333,411,567
	c-7.333-2-14.667-1.333-21.333,2.667c-6.667,4-11,9.666-13.334,17.333l-10,35C365.667,626,365,628.667,365,630z M406.333,893.333
	c0,6,1.667,11.334,5,16.667c3.334,5.333,8.667,9,16,11c4.667,1,7.667,1.667,9.334,1.667c3,0,7-1,12.666-3.334
	c5.667-2.666,10-9,12.667-18.333l10-33.667c2-8.333,1-16-2.667-22.666c-4-6.667-9.666-11-17.333-12.334
	c-7.333-2.333-14.333-1.666-21.333,2.334s-11.667,9.666-14,17l-9.334,34.666C406.667,889,406.333,891.333,406.333,893.333z
	 M450.667,733.333c0,5.667,1.666,11,5.333,16.334c3.667,5.333,9,9,16.333,11c7.334,2.333,14.667,1.666,21-1.667
	c6.667-3.333,11-9.667,13.667-18.667l9.333-33.666C518.667,698.333,518,691,514,684.333c-4-6.333-9.667-10.333-17.667-12
	c-7.333-2.666-14.333-1.666-21.333,2c-7,3.667-11.333,9.667-13.667,17L452,726C451.333,729.333,450.667,731.667,450.667,733.333z
	 M545.667,791.667c-0.334,5.333,1,10.333,4.666,15.333c3.667,5,8.667,8.667,15.334,11l8.333,1c3.667,0.333,8-0.667,12.667-2.333
	c7-2.667,11.666-8.667,14-18l9.333-35c2.333-7.667,1.667-15-2.333-21.334c-4-6.666-9.667-11-17-13.333
	c-8.334-2-15.667-1-22.334,2.667c-6.666,3.666-10.666,10-12,17.666l-9.666,33.334C546,788.333,545.667,791.333,545.667,791.667z
	 M590.667,631.667c0,5.666,1.666,11.333,5.333,16.666c3.667,5.334,9,8.667,16,10l8.333,1c14.334,0,23.334-7,27-20.666l9.334-34.334
	c2-8.333,1-16-2.667-22.666C650.333,575,644,571,636.333,569.333c-7.666-2.333-15-1.666-21.333,2.334c-6.667,4-11,9.666-13,17.666
	l-10,34C591.333,627.333,590.667,630,590.667,631.667z M602,301.667c22.333-21.333,49.333-32.333,81.667-32.333
	c32.666,0,60.333,11.667,83,35c23,23.333,34.333,51,34.333,83.667c0,21.333-5.333,41-16,59c-32-32-70.667-48-116.333-48H658
	C650,362.333,631.333,330,602,301.667z"/>
</svg>
