<?xml version="1.0" encoding="utf-8"?>
<!-- Generator: Adobe Illustrator 16.0.3, SVG Export Plug-In . SVG Version: 6.00 Build 0)  -->
<!DOCTYPE svg PUBLIC "-//W3C//DTD SVG 1.1//EN" "http://www.w3.org/Graphics/SVG/1.1/DTD/svg11.dtd">
<svg version="1.1" id="Layer_1" xmlns="http://www.w3.org/2000/svg" xmlns:xlink="http://www.w3.org/1999/xlink" x="0px" y="0px"
	 width="1000px" height="1000px" viewBox="0 0 1000 1000" enable-background="new 0 0 1000 1000" xml:space="preserve">
<path fill="#0E70A0" d="M136.333,571v-12.333c1.333-37.334,14-70.334,37.667-99C197.667,431,227.667,412.333,263.333,404
	c10.333-45.333,34-82.667,70.333-112C370,262.667,412,248.333,459,248.333c24.667,0,51,5,79.333,15.333
	c9.334-15.333,20.334-28.667,33-40c12.667-11.333,25.667-20,39.334-26.333c13.666-6,26.666-10.667,39.666-13.333
	c12.667-2.667,25.334-4,37.667-4c13,0,26.667,1.333,41.333,4.333L756,192.667c4,2,5.667,4.333,4.667,7.667l-4,20.667
	c-2.334,9.667-3.334,19-3.334,28c0,10.333,1.667,20.667,5,31.667c3.334,10.667,8,21.333,14.667,31.667
	c6.667,10.333,15.333,19.667,26.667,28.333c11.333,8.667,24,15,38.666,19.333L859,365.667c3.333,1,5,2.667,5,5.333
	c0,1.333,0,2-0.333,2.333L857.333,396c-8,33.667-25,63-50.333,87.333C821.667,508.667,829,536,829,565
	c0,44.667-15.333,83-46.333,115c-31,32.333-68.667,49-113,50.333c-4,0-6.334-2-6.334-6.333v-45.333c0-4,2-6,6.334-6
	c29-2,53.333-13.667,73.333-34.334c20-20.666,30-45.333,30-73.666c0-29.667-10.667-55.334-32.333-76.334
	c-21.667-21-47.334-31.666-77.667-31.666h-54c-3.667,0-5.667-2-5.667-6L601,431.333c-3.667-35.667-19.333-66-46.667-90.333
	c-27.333-24.333-59-36.667-95.333-36.667S390.667,316.667,364,341c-27,24.333-42.333,54.667-45.667,90.667L316,449
	c0,3.667-2.333,5.667-6.667,5.667L291.667,457c-28,3.333-51.333,15.333-70,35.667c-19,20.666-28.333,44.666-28.333,72.333v0.667
	l0.333,0.333h0.667c0,17.333,4,34,12,49.333c8,15.334,18.667,28,32.333,38H239l0.333,0.334l0.333,0.333
	c7.333,5.333,14,9,20.667,11.667c11.333,5,23,7.666,35.667,8c3.667,0,5.667,2,5.667,5.666V724c0,4-2,6-5.667,6
	c-31-1.333-59.333-10.667-85-27.333h-0.333c-22-14.334-39.667-33-53-56.334C144.333,623,137.333,598,136.333,571z M319.667,803.333
	c0-1,0.333-2.333,0.666-4.333c0.334-2,0.667-3,0.667-4l3-19.667c2.333-8,6.667-13.666,13.667-17.666S352,753,360.333,755
	c7.667,2.333,13,7,17,13.667c3.667,7,4.334,14,2.334,21l-4.667,20c-3.333,14.333-11.667,21.666-25.333,21.666c-1,0-2.667,0-5-0.333
	c-2.334-0.333-3.667-0.333-4.334-0.333c-7-2-12-5.667-15.333-11C321.333,814.333,319.667,809,319.667,803.333z M344.333,705.333
	c0-8,2.667-14.333,7.667-19.666c5-5.334,11.667-7.667,19.667-7.667s14.333,2.667,19.666,7.667c5.334,5,7.667,11.666,7.667,19.666
	c0,7.667-2.667,14.334-7.667,19.334s-11.666,7.666-19.666,7.666c-7.667,0-14-2.666-19-8.333
	C347.333,719,344.333,712.667,344.333,705.333z M399,905.333c0-1.333,0.333-3.666,1.333-7.333l4.334-19.667
	c2.333-7.666,7-13.333,13.666-17c7-4,14-4.666,21-2.333C447,860.333,453,864.667,457,871.333c4,6.667,5,14.334,2.667,22.667
	l-4.334,19.667C452,927.333,443,934,428.667,934c-2.334,0-5.334-0.333-8-1c-7.334-2-12.667-5.667-16.334-11
	C401,916.333,399,911,399,905.333z M425.333,808.333c0-7.666,2.667-14,7.667-19.333c5.333-5.333,11.667-7.667,19.667-7.667
	S467,784,472.333,789c5.334,5.333,7.667,11.667,7.667,19.333c0,8-2.667,14.334-7.667,19.667c-5.333,5.333-11.666,7.667-19.666,7.667
	c-7.667,0-14-2.667-19.334-8C428,822.333,425.333,816,425.333,808.333z M446,732.667c0-3,0.333-6,1-9l7.667-30
	C457,686,461.667,680,468.333,676c7-4,14-5,21.334-2.667c8,2.334,13.666,6.667,17.666,13.334c4,6.666,4.667,13.666,2.334,21
	l-8.667,30c-2.667,9.333-7.333,15.333-13.667,18.666c-6.333,3.334-13.666,4-21.333,2c-6.667-1.333-11.667-4.666-15-10
	C447,743,445.667,737.667,446,732.667z M538,804c0-1,0-2.667,0.333-4.333c0.334-1.667,0.334-3,0.334-3.667l3-19.667
	c2.333-8,6.666-13.666,13.666-17.666S569.667,754,578,756c7.667,2.333,13.333,7,17,13.667c4,7,4.667,14,2.333,21l-4.666,20
	c-3.334,14.666-11.667,22-25.334,22c-1,0-2.666-0.334-4.666-0.667S559,831.333,558,831.333c-6.667-2-11.667-5.666-15-11
	C539.667,815,538,809.667,538,804z M562.667,706c0-8,2.666-14.333,7.666-19.667c5-5.333,11.667-7.666,19.667-7.666
	s14.333,2.666,19.667,7.666C615,691.667,617.333,698,617.333,706c0,7.667-2.666,14-7.666,19.333C604.333,730.667,598,733,590,733
	s-14.333-2.667-19.333-8C565.667,720,562.667,713.667,562.667,706z M586.333,294c34.667,28.333,56.667,63.333,66,105.333h11
	c41,0,76.667,13,107.334,39.334C782,428.333,790.333,417,796,404c-20.667-10-38.333-23.333-53.667-40.333
	c-15-17-26.333-35.333-34-55.333c-7.666-20-11.333-40.667-11.333-62v-10h-7.333c-20.667,0-40.334,5-59,15
	C612,261.333,597.333,275.667,586.333,294z"/>
</svg>
