<?xml version="1.0" encoding="utf-8"?>
<!-- Generator: Adobe Illustrator 16.0.3, SVG Export Plug-In . SVG Version: 6.00 Build 0)  -->
<!DOCTYPE svg PUBLIC "-//W3C//DTD SVG 1.1//EN" "http://www.w3.org/Graphics/SVG/1.1/DTD/svg11.dtd">
<svg version="1.1" id="Layer_1" xmlns="http://www.w3.org/2000/svg" xmlns:xlink="http://www.w3.org/1999/xlink" x="0px" y="0px"
	 width="1000px" height="1000px" viewBox="0 0 1000 1000" enable-background="new 0 0 1000 1000" xml:space="preserve">
<path fill="#0E70A0" d="M137.333,563.667c0,44.333,15.333,82.666,46.333,114.333S252.333,727,297,729c3.667,0,5.667-2,5.667-5.667
	v-45.666c0-4-2-6-5.667-6C268,669.333,243.667,658,224,637c-19.667-20.667-29.667-45.333-29.667-73.667c0-28,9.333-52.333,28.333-73
	c19-20.666,42-32.333,70-34.666l17.667-2.334c4.334,0,6.667-2,6.667-5.666l2.333-17.334C323,394.333,338,364,365,340
	c27-24.333,58.667-36.333,95-36.333s68,12,95,36.333c27,24,42.333,54.333,46.333,90.667L603.667,450c0,4,2,6,6,6h53.666
	c30.334,0,56,10.667,77.334,31.667c21.333,21,32,46.333,32,76c0,28.333-10,53-29.667,73.666C723.333,658,699,669.667,670,672
	c-4.333,0-6.667,2-6.667,6v45.667c0,3.666,2.334,5.666,6.667,5.666C714.333,728,752,711,782.667,679c30.666-32,46-70.333,46-115
	c0-29.667-7.667-57.333-22.667-82.667c26.667-24,44-52.666,51.667-86l5-24C863,371,863,370.333,863,369
	c0-2.333-1.667-4.333-5.333-5.333L838.333,358c-19-5.333-35-14.667-48.333-27.333c-13.333-13-22.667-26.667-28.333-41
	c-5.667-14.333-8.334-29-8.334-44c0-8,1-17,3-26.333L761,198.667c1-3-0.667-5.667-4.667-7.333l-26.333-8
	c-14.667-3.667-28.334-5.333-41.667-5.333c-12,0-24.333,1.333-37.333,4.333c-12.667,3-26,7.333-39.667,13.667
	c-13.667,6-27,15-40,26.667c-13,11.667-24,25-33.333,40.667c-23.667-10-49.334-15-77.667-15c-47,0-88.667,14.667-125,43.667
	s-59.667,66.333-70,111.667c-36.667,8.667-67,28-91,58C149.333,491.333,137.333,525.333,137.333,563.667z M393,718.667
	c-1.667,4.666,0,7.333,4.667,7.333h72L426,864h10l139-186.333c1.333-1.334,1.667-3,1-4.667s-2-2.333-4.333-2.333h-73.334l77-140.334
	c2.334-4.666,0.667-7.333-4.666-7.333h-98c-2.667,0-5,1.667-7.334,4.667L393,718.667z M586.667,293.667
	c11-19,25.666-33.333,44.333-43.333c18.333-10,37.667-15,57.333-15c4.334,0,7.334,0.333,9,0.667v10.333c0,32,8.667,62.333,26,91
	c17.334,28.667,41.334,50.333,72.334,65.333C790.333,415,782,427,770.667,438.333C740,412,704.333,399,663.333,399h-10.666
	C643,357,621,322,586.667,293.667z"/>
</svg>
