<?xml version="1.0" encoding="utf-8"?>
<!-- Generator: Adobe Illustrator 16.0.3, SVG Export Plug-In . SVG Version: 6.00 Build 0)  -->
<!DOCTYPE svg PUBLIC "-//W3C//DTD SVG 1.1//EN" "http://www.w3.org/Graphics/SVG/1.1/DTD/svg11.dtd">
<svg version="1.1" id="Layer_1" xmlns="http://www.w3.org/2000/svg" xmlns:xlink="http://www.w3.org/1999/xlink" x="0px" y="0px"
	 width="1000px" height="1000px" viewBox="0 0 1000 1000" enable-background="new 0 0 1000 1000" xml:space="preserve">
<path fill="#0E70A0" d="M135.667,563.667C135.667,608,151,646.333,182,678s68.667,49,113.333,51c3.667,0,5.667-2,5.667-5.667
	v-45.666c0-4-2-6-5.667-6c-29-2.334-53.333-13.667-73-34.667c-19.667-20.667-29.667-45.333-29.667-73.667
	c0-27.666,9.333-51.333,28-72c18.667-20.666,42-32.333,70-35.666l17.667-2.334c4.334,0,6.667-2,6.667-5.666l2.333-17.334
	C321,394.333,336,364,363,340c27-24.333,58.667-36.333,95-36.333s68,12,95,36.333c27,24,42.667,54.333,46.333,90.667L602,450
	c0,4,2,6,6,6h53.667c30,0,55.666,10.667,77.333,31.667c21.333,21,32.333,46.333,32.333,76c0,28.333-10,53-29.666,73.666
	C722,658,697.333,669.667,668.667,672c-4.334,0-6.667,2-6.667,6v45.667c0,3.666,2.333,5.666,6.667,5.666
	C713,728,750.667,711,781.333,679c30.667-32,46-70.333,46-115c0-29-7.333-56-21.666-81c27-24.333,44.666-53.333,52.666-87.333
	v-4.333L864.667,365l-25.334-7c-27-8-48-23.333-63-45c-15-22-22.333-44.667-22.333-67.667c0-8.667,1-17.333,2.667-26l6.666-26.667
	L735,184.333L730,183c-15.667-3-29.333-4.667-41.667-4.667c-12.666,0-25.333,1.333-38,4.333c-13,3-26.333,7.333-40,13.667
	c-14,6.333-27.333,15-40,26.667c-12.666,11.667-24,25.333-33.333,41c-24.667-11-51-16.333-78.667-16.333
	c-47,0-88.666,14.667-125,43.667c-36.333,29-59,66.333-69,112C227,412,196,431,172,460.667
	C147.667,491,135.667,525.333,135.667,563.667z M315.667,789.333c0,5,1.666,10,5,15c3.333,5,8.333,8.667,15,11
	c7.333,2.334,14.333,2,21.333-1.666c7-3.667,11.333-9.334,13.667-17L380,761.333c2.333-7,1.667-13.666-2.333-20.666
	s-9.667-11.334-17-13.667c-7.667-2-15-1-21.667,2.667c-6.667,3.666-11.333,10-14,17.666l-7.667,33
	C316.333,785.667,315.667,788.667,315.667,789.333z M359,631.667c0,3.666,1,7.666,3.333,12c2.334,5.666,8.334,10,17.667,12.666
	c8,2,15.333,1.334,22-2C408.333,651,413,645,415.333,637l9.334-34.333c2.333-7.667,1.666-15-2.334-21.334c-4-6.666-9.666-11-17-13
	c-8-2-15.666-1.333-22.333,2.334c-6.667,3.666-11,9.333-13.333,17.333l-9,33.667C359.667,626,359,629.333,359,631.667z
	 M400.667,893.333c0,5.667,1.666,11,5,16.334c3.333,5.333,8.333,9,15,11c3.666,1,6,1.666,7.666,1.666c3,0,7-1,12.667-3.333
	c6.667-2.667,11.333-9,14.333-18.333l10-35c2.334-7,1.667-14-2.333-21s-9.667-11.334-17-13.667c-8-2-15.667-1.333-22.333,2.667
	c-6.667,4-11.334,9.666-13.667,17.666L401.667,885C401,887.667,400.667,890.667,400.667,893.333z M445,734.333c0,5,1.667,10,5,15
	s8.333,8.667,15.333,11c7.334,2.334,14.667,1.667,21.334-2c6.666-3.666,11-9.333,13.333-17.333l9-34.667c2.333-7,1.667-14-2-20.666
	c-3.667-6.667-9-11.334-16.333-13.667c-8-2-15.667-1-22.667,2.667c-7,3.666-11.667,10-14,17.666l-8,33.334L445,734.333z
	 M538.667,793c0,12.667,7,20.667,21.333,25c3,0.667,5.667,1,8,1c5,0,9-0.667,12.333-2.333c7-2.667,12-9,14.667-19l9-34
	c2-8.334,1.333-15.667-2.667-22.334c-4-6.666-9.666-10.666-17.666-12.333c-7.667-2.333-15-1.667-21.334,2.333
	c-6.333,4-11,9.667-13.333,17L540,783c0,0.667-0.333,2.333-0.667,5C538.667,790.333,538.667,792,538.667,793z M585,632.667
	C585,638,586.667,643,590,648s8.667,8.667,15.333,10.667c4.667,1,7.334,1.666,7.667,1.666c3,0,7-1,12.667-3.333
	c6.999-2.667,11.666-9,14.666-18.333L649.667,604c2-7.333,1-14.333-2.667-21s-10-11-17.667-13.333C622,567.333,615,568,608.333,572
	c-6.666,4-11,9.667-13.333,17.333l-8.667,35.334C585.333,627.667,585,630.667,585,632.667z M586,293.667
	C596.667,275,611.333,260.333,630.333,250s39-15.667,60.334-15.667h7c-0.334,3-0.334,7-0.334,12.667
	c0,31.667,8.667,61.667,26,90.333C740.667,366,765,387.667,795.667,402.667c-7.334,14.333-16,26.666-26,36.666
	c-31-27-67.334-40.333-108.334-40.333h-10.666C642.333,359.333,621,324.333,586,293.667z"/>
</svg>
