<?xml version="1.0" encoding="utf-8"?>
<!-- Generator: Adobe Illustrator 16.0.3, SVG Export Plug-In . SVG Version: 6.00 Build 0)  -->
<!DOCTYPE svg PUBLIC "-//W3C//DTD SVG 1.1//EN" "http://www.w3.org/Graphics/SVG/1.1/DTD/svg11.dtd">
<svg version="1.1" id="Layer_1" xmlns="http://www.w3.org/2000/svg" xmlns:xlink="http://www.w3.org/1999/xlink" x="0px" y="0px"
	 width="1000px" height="1000px" viewBox="0 0 1000 1000" enable-background="new 0 0 1000 1000" xml:space="preserve">
<path fill="#0E70A0" d="M102,699.333c0,8,3,14.667,9,20c6,6,12.667,9,20.333,9h196c8.667,0,16.334,3,23,9.334
	c6.667,6.333,10,14,10,22.666c0,8.667-3.333,16-10,22.667c-6.666,6.667-14.333,10-22.666,10c-8.334,0-16-3.333-22.667-10
	c-6.333-5.667-13-8.667-20.667-8.667c-7.667,0-14.333,2.667-19.667,8.334c-5.333,5.666-8,12.333-8,20.333s2.667,14.667,8,20
	C282,840.333,303,849,327.333,849c24.667,0,46-8.667,63-25.667c17.334-17.333,26-38,26-62.666c0-24.667-8.666-46-26-63.334
	C373,680,352,671,327.333,671h-196c-8,0-14.667,2.667-20.667,8.333C104.667,685,102,691.667,102,699.333z M102,599
	c0,7.667,3,14,9,19.333c5,5.334,11.667,8,20.333,8h366.333c24.666,0,45.666-8.666,63-26c17.333-17.333,26-38.333,26-62.666
	c0-24.334-8.667-45.334-26-62.667c-17.334-17.333-38.334-25.667-63-25.667c-25.334,0-46.334,8.334-63,25
	c-5,5.667-7.667,12.667-7.667,21c0,8,2.667,14.334,7.667,19.667s11.666,7.667,20,7.667c8.333,0,15-2.334,20.333-7.667
	c6.333-6.333,14-9.333,22.667-9.333c8.666,0,16,3,22.666,9.333c6.334,6.333,9.667,14,9.667,22.667c0,8.666-3.333,16.666-9.667,23
	c-6.333,6.333-14,9.666-22.666,9.666H131.333c-8,0-14.667,2.667-20.667,8.334C104.667,584.667,102,591.333,102,599z M190.333,521
	c0,2.667,2,4,5.667,4h47.667c2.667,0,5-1.667,7.333-4.667c7.667-18,19-33,35-45c15.667-12,33.333-18.666,53-20L356.333,453
	c4,0,6.334-2,6.334-6.333L365,430c3.667-36,19-66.333,46-90.333c27-24.333,59-36.333,95.333-36.333c36.334,0,68,12,95,36
	s42.334,54.333,46.334,90.667L650,449c0,4,2,6,6,6h54.333c30,0,55.667,10.667,77,31.667c21.334,21,32,46.333,32,76
	c0,29.666-10.666,55.333-32,76.333c-21.333,21-47,31.667-77,31.667H480c-3.667,0-5.667,2-5.667,6v45.666c0,4,2,6,5.667,6h230.333
	C740,728.333,767.667,721,793,706c25.333-14.667,45.333-35,60-60.333c14.666-25.334,22-53,22-83c0-24.667-4.667-47.334-14-67.334
	c25.333-33.333,38-70.333,38-111c0-23.667-4.667-46.333-14-68c-9.334-21.667-21.667-40-37.334-55.667
	c-15.666-15.667-34.333-28-55.666-37c-21.334-9-44.667-13.667-68.333-13.667c-51.334,0-94.667,19.333-129.334,57.667
	c-26-13.667-55.666-20.333-88.333-20.333c-47,0-88.667,14.667-125,43.667s-59,66.333-69,111.667
	c-28.333,6.666-53.333,20.333-75.333,41c-22,20.666-37,45-45.667,72.666v1.334C190.667,519.333,190.333,520.667,190.333,521z
	 M641.333,300c24-22.667,51.334-34,82.667-34c32.667,0,60.333,11.667,83.667,35c23.333,23.333,35,51,35,83.333
	c0,20.333-5.667,40.667-17,61.667c-32-32-70.334-47.667-115.667-47.667h-11C691,362.667,672,329.667,641.333,300z"/>
</svg>
