<?xml version="1.0" encoding="utf-8"?>
<!-- Generator: Adobe Illustrator 16.0.3, SVG Export Plug-In . SVG Version: 6.00 Build 0)  -->
<!DOCTYPE svg PUBLIC "-//W3C//DTD SVG 1.1//EN" "http://www.w3.org/Graphics/SVG/1.1/DTD/svg11.dtd">
<svg version="1.1" id="Layer_1" xmlns="http://www.w3.org/2000/svg" xmlns:xlink="http://www.w3.org/1999/xlink" x="0px" y="0px"
	 width="1000px" height="1000px" viewBox="0 0 1000 1000" enable-background="new 0 0 1000 1000" xml:space="preserve">
<path fill="#0E70A0" d="M139.667,562.667c0,37.333,11,70.666,33.333,100c22.333,29.333,51,49,86,58.666L237,778
	c-1.667,4.667,0,7.333,4.667,7.333h71L265,925.667h9.667L420,737c1.333-1.333,1.333-3,0.667-4.667C420,730.667,418.333,730,416,730
	h-73l83-155c2.333-4.667,1-7.333-4.667-7.333h-98.666c-3,0-5.667,1.666-7.667,5l-35.667,96c-24-6-43.667-18.667-59.333-38.667
	c-15.667-19.667-23.333-42-23.333-67.333c0-28,9.333-52.334,28-72.667c18.667-20.333,42-32.333,70.333-35.667l17-1
	c4,0,6.333-1.666,7.333-4.666L321.667,429c3.666-36,18.666-66.333,45.666-90.667c27-24.333,58.667-36.667,95.334-36.667
	c36.333,0,68,12.333,95.333,36.667C585.333,362.667,601,393,604.667,429l2.666,19.667c0,3.666,2,5.666,6,5.666H667
	c29.667,0,55.333,10.667,77,32c21.667,21.334,32.333,46.667,32.333,76.334c0,29-10,54-30,75.333s-44,32.667-72.666,34.333
	c-4.334,0-6.667,2-6.667,6V723c0,3.667,2.333,5.667,6.667,5.667C703,728,730,720,754.333,704.667c24.334-15,43.667-35.334,58-60.334
	c14.334-25,21.334-52.333,21.334-81.666c0-24.334-4.667-46.667-14.334-67.334c25.334-32,38-68.666,38-109.666
	c0-31.667-8-61-23.666-88c-15.667-27-37-48.333-64-64c-27-15.667-56.334-23.667-88-23.667c-24,0-47.334,5-70,15
	c-22.667,10-42,24-58.667,41.667C526,252.333,496,245,462.333,245C415,245,373,259.667,336.667,289
	c-36.333,29.333-60,66.667-70,112.333c-37,8.667-67.333,28-91.333,58C151.667,490,139.667,524.333,139.667,562.667z
	 M402.333,903.333c0,5.667,1.667,11,5.334,16.334c3.666,5.333,9,9,16.333,11c3,0.666,5.667,1,8,1
	c14.333,0,23.333-6.667,26.667-20.334L463,891.667c2-8.667,1-16-2.667-22.667c-4-6.667-9.666-10.667-17.666-12.333
	c-7-2.334-14-1.667-21,2.333s-11.334,9.667-13.667,17l-4.333,19.667C402.667,899.667,402.333,902.333,402.333,903.333z
	 M428.667,806.667c0,7.666,2.666,14,8,19.333c5.333,5.333,12,8,19.333,8c8,0,14.333-2.667,19.667-7.667
	c5.333-5.333,7.666-11.666,7.666-19.666c0-7.667-2.666-14-7.666-19.334C470.333,782,464,779.667,456,779.667
	s-14.333,2.666-19.667,7.666C431,792.333,428.667,799,428.667,806.667z M449.333,731c-0.333,5,1,10.333,4.667,15.667
	c3.333,5.333,8.333,8.666,15,10c7.667,2,14.667,1.333,21.333-2C497,751.333,501.333,745,504,736l8.667-30
	c2.333-7.333,1.666-14.333-2.334-21s-9.666-11-17.666-13.333c-7.334-2.334-14.334-1.334-21.334,2.666S460,684.333,457.667,692
	l-7.334,30C449.667,724.667,449.333,727.667,449.333,731z M541.333,802.667c0,5.666,1.667,11,5,16
	c3.334,5,8.334,8.666,15.334,10.666c1,0,2.666,0.334,4.666,0.667s3.667,0.667,4.667,0.667c13.667,0,22-7.334,25.333-22l4.667-20
	c2.333-7,1.667-14-2.333-21s-9.667-11.334-17-13.667c-8.334-2-16-1.333-22.667,2.667s-11.333,9.666-13.667,17.666l-3,19.667
	c0,0.333,0,1.667-0.333,3.667C541.667,800,541.333,801.333,541.333,802.667z M566,704c0,7.667,2.667,14,8,19
	c5,5.333,11.333,8,19.333,8s14.334-2.667,19.667-7.667c5.333-5.333,7.667-11.666,7.667-19.333c0-8-2.667-14.333-7.667-19.667
	c-5.333-5.333-11.667-7.666-19.667-7.666s-14.333,2.666-19.666,7.666C568.333,689.333,566,696,566,704z M600.667,300.667
	C623,279.333,650,268.333,682.333,268.333C715,268.333,743,279.667,766,302.667c23,22.667,34.667,50.667,34.667,83.333
	c0,22-5.334,42-15.667,60.333c-32-32-71-48-117.333-48h-10.334C647.333,358.667,628.333,326,600.667,300.667z"/>
</svg>
