<?xml version="1.0" encoding="utf-8"?>
<!-- Generator: Adobe Illustrator 16.0.3, SVG Export Plug-In . SVG Version: 6.00 Build 0)  -->
<!DOCTYPE svg PUBLIC "-//W3C//DTD SVG 1.1//EN" "http://www.w3.org/Graphics/SVG/1.1/DTD/svg11.dtd">
<svg version="1.1" id="Layer_1" xmlns="http://www.w3.org/2000/svg" xmlns:xlink="http://www.w3.org/1999/xlink" x="0px" y="0px"
	 width="1000px" height="1000px" viewBox="0 0 1000 1000" enable-background="new 0 0 1000 1000" xml:space="preserve">
<path fill="#0E70A0" d="M141,563c0,44.333,15.667,82.667,46.667,114.667s69,49,113.333,51c4,0,6-2,6-5.667v-44.667
	c0-3.666-2-5.666-6-5.666c-28.667-1.667-53-13-73-34.334C208,617,198,592,198,563c0-27.667,9.333-51.667,28.333-72.333
	c19-20.334,42.333-32.334,70-35.667L314,453.667c4.333,0,6.667-2,6.667-6l2.333-18c3.667-36,18.667-66.333,45.667-90.667
	s58.666-36.667,95-36.667c36.333,0,68,12.333,95.333,36.667s42.667,54.667,46.667,90.667l2.666,19c0,4,2,6.333,5.667,6.333h54
	c30.333,0,56,10.667,77.667,31.667c21.333,21,32.333,46.666,32.333,76c0,28.666-10,53.666-30.333,75
	c-20.334,21.333-44.667,33-73,34.666c-4,0-6.334,2-6.334,5.667v44.667c0,3.666,2,5.666,6.334,5.666C719.333,727,757,710,788,678
	c31-32.333,46.333-70.667,46.333-115c0-23.667-4.666-46-14.333-67c26.333-32,39.333-69,39.333-110.667c0-31.667-8-61-23.666-88
	c-15.667-27-37-48.333-64-64c-27-15.667-56-23.333-87.334-23.333c-51.666,0-95,19.333-129.666,57.667
	c-27-14.333-57-21.667-90.334-21.667c-47,0-89,14.667-125.333,44c-36.333,29.333-60,66.667-70.333,112
	c-37,8.667-67.333,28-91.333,58C153,490.333,141,524.667,141,563z M354,700.333c0,7.334,2.667,13.667,8,19
	c5.667,5.667,12,8.334,19.333,8.334C389,727.667,395.667,725,401,720s8-11.667,8-19.667s-2.667-14.333-7.667-19.666
	C396,675.333,389.667,673,381.667,673s-14.334,2.667-19.667,7.667S354,692.333,354,700.333z M354,821.333c0,8,2.667,14.334,8,19.334
	c5.333,5.333,12,8,19.333,8c8,0,14.334-2.667,19.667-7.667c5.333-5.333,7.667-11.667,7.667-19.667s-2.667-14.666-8-20
	C395.333,796,389,793,381,793c-7.667,0-14.333,2.667-19.667,8.333C356,807,354,813.333,354,821.333z M460.333,763.333
	c0,7.667,2.667,14.667,8.334,20.334c5.666,5.666,12,9,19.333,9c7.667,0,14.333-3,20-8.667s8.333-12.667,8.333-20.667
	c0-7.333-2.666-13.666-8.333-19.333s-12.333-8.333-20-8.333c-7.333,0-13.667,2.666-19.333,8.333
	C463,749.667,460.333,756,460.333,763.333z M460.333,643.667c0,7.666,2.667,14,8,19.333c5.334,5.333,12,8,19.667,8
	c8,0,14.667-2.667,20-8s8.333-11.667,8.333-19.667s-2.666-14.333-8.333-20c-5.667-5.666-12.333-8.333-20-8.333
	s-14,2.667-19.667,8.333C462.667,629,460.333,636,460.333,643.667z M460.333,886c0,7.667,2.667,14.333,8.334,20
	c5.666,5.667,12,8.333,19.666,8.333c7.667,0,14.334-2.666,20-8.333c5.667-5.667,8.334-12.333,8.334-20
	c0-7.333-2.667-13.667-8.334-19.333c-5.666-5.667-12.333-8.334-20-8.334c-7.333,0-13.666,2.667-19.333,8.334
	C463.333,872.333,460.333,878.667,460.333,886z M568.333,700.333c0,7,2.667,13.334,8,19c5.667,5.667,12.334,8.334,20,8.334
	C604,727.667,610.667,725,616,720c5.333-5.333,8-11.667,8-19.667s-2.667-14.333-7.667-19.666C611,675.333,604.667,673,596.667,673
	s-14.667,2.667-20,7.667C571,685.667,568.333,692.333,568.333,700.333z M568.333,821.333c0,7.334,2.667,14,8,19.334
	c5.334,5.333,12,8,20,8S610.667,846,616,841c5.333-5.333,7.667-11.667,7.667-19.667s-2.667-14.666-8-20
	C610.333,795.667,604,793,596,793c-7.667,0-14.333,2.667-20,8.333C570.333,807,568.333,813.333,568.333,821.333z M601,300.667
	C623.667,278,651,267,683.667,267C716.333,267,744,278.667,767,301.667s34.333,51,34.333,84c0,19.667-5.666,40-17,61.333
	c-32-32-71-48-116.666-48h-10.334C648,360,629,327.333,601,300.667z"/>
</svg>
