<?xml version="1.0" encoding="utf-8"?>
<!-- Generator: Adobe Illustrator 16.0.3, SVG Export Plug-In . SVG Version: 6.00 Build 0)  -->
<!DOCTYPE svg PUBLIC "-//W3C//DTD SVG 1.1//EN" "http://www.w3.org/Graphics/SVG/1.1/DTD/svg11.dtd">
<svg version="1.1" id="Layer_1" xmlns="http://www.w3.org/2000/svg" xmlns:xlink="http://www.w3.org/1999/xlink" x="0px" y="0px"
	 width="1000px" height="1000px" viewBox="0 0 1000 1000" enable-background="new 0 0 1000 1000" xml:space="preserve">
<path fill="#0E70A0" d="M135.333,564.333c0,37.334,11,70.667,33.333,100c22.333,29.334,50.667,49,85.667,59
	c3,0.667,5.667-0.333,8-2.666L300,674c-29.333,0-54.333-10.667-75.667-32.333c-21.333-21.667-32-47.334-32-77.334
	c0-28,9.333-52,28-72.333c18.667-20.333,42.333-31.667,70.333-34.333l16.667-2.334c4,0,6.334-2,6.334-6.333l2.666-17.667
	c4-36.333,19.667-66.667,47-91c27-24.333,59-36.667,95.334-36.667c36.333,0,68,12.333,95.333,36.667
	C581.333,364.667,597,395,601,431l2.333,19.333c0,3.667,2,5.667,6,5.667h54c29.334,0,54.667,10.667,76,32
	c21.334,21.333,32,46.667,32,76c0,28.333-9.333,53-28,74c-18.666,21-41.666,32.667-69,35c-15,2-24.666,5-28.666,9.333l-77.667,97
	c-5.333,5.667-7.333,12.667-6.333,21c0.666,8,4.333,14.334,10.333,19.667s12.333,7.667,19,7.667c7.667,0,14.667-4,21.333-12.667
	l68-86.333c20.667-2,40-8,58.667-17.334c18.333-9.333,34.333-21.666,47.333-36c13-14.666,23.667-31.666,31.334-51
	C825.333,605,829.333,585,829.333,564c0-29-7.666-56-22.666-81.333C833.666,458,851.333,429,859.333,395.333v-3L866,366.667
	L840.667,358c-19-5.667-35.334-15-49-27.667c-13.667-12.667-23-26.667-28.667-41c-5.667-14.333-8.667-29-8.667-43.667
	c0-8.667,1-17.333,2.667-26.667l6.333-26l-27.666-7.667c-0.334,0-0.667,0-1-0.333c-0.334-0.333-0.667-0.667-1.334-0.667
	s-1-0.333-1.333-0.667c-1.667-0.333-2-0.667-2-0.667c-14.667-3.667-28.333-5.333-41.667-5.333C675.667,178,663,179.333,650,182.333
	s-26,7.333-40,13.667s-27.333,15.333-40,27s-24,25.333-33.333,41.333c-25-11-51-16.333-78-16.333c-47,0-89,14.667-125.334,43.667
	c-36.333,29-60,66.333-70.333,112c-37.667,9-68.333,28.666-92,58.333S135.333,525.667,135.333,564.333z M259,830.667
	c0,4.333,0.667,7.666,2.333,10.333c3,7.333,7.667,12.333,14.333,15.333c7.333,3.334,14.667,3.667,22.333,1
	c7.667-2.666,12.667-7.666,15.333-14.666c3.334-7.334,3.334-14.667,0.334-22.334c-3-7.666-8-12.666-15-15
	c-7.333-3.333-14.667-3.666-22-0.666c-7.333,2.666-12.333,8-15,15C259.667,822.333,259,826.333,259,830.667z M320.333,749v3.667
	c0.667,7.666,4.334,13.666,11,18.333c4.334,5,10.334,7.333,18,7.333c7.667-0.333,15-3.666,22-10.666L449,670.333
	c4.667-5.666,6.333-12.666,5.667-20.666c-1-8-4-14.334-10-19.334c-6-4.666-12.667-6.666-21-6c-8,0.667-14.334,4.667-19,11.334
	L327.333,731C322.667,736.333,320.333,742.333,320.333,749z M339.667,922.667c3,7,8,12,15.333,15c3.667,1.666,7.333,2.666,11,2.666
	c2,0,5.333-0.666,10-2c7-3,12-7.666,14.667-14.666c2.666-7.334,2.666-14.334,0.333-21.667c-2.333-7-7.333-12.333-14.667-16
	c-7.333-2.667-14.333-2.667-21,0c-6.666,2.667-11.666,7.667-15,14.667C336.667,907.333,336.333,914.333,339.667,922.667z
	 M392.667,834v2.667c0.666,7.333,4.333,14,10.666,19.333c6.334,5.333,12.667,8,18.667,8c7.333,0,14-3.667,20-11.333L585.667,674
	c4.666-5.667,7-12.667,6.333-20.667s-4-14.666-9.667-19.333c-6.666-4.667-14-6.667-22-6s-14.333,4-19,10L399,816.667
	C394.667,821.667,392.667,827.667,392.667,834z M509.667,871c0,3.667,0.666,7.333,2.333,11c2.667,7.667,8,12.667,15.667,15.667
	c7.666,3,14.333,3,20.333,0.666c7.333-3,12.333-8,15.333-15.333c3.334-7.333,3.667-14.333,1-21.333c-2.666-7-7.666-12-15-15.334
	c-7.333-2.666-14.666-2.666-21.666,0c-7.334,2.667-12.334,7.334-15.667,14C510.333,864,509.667,867.667,509.667,871z
	 M585.667,293.667c10.333-19,25-33.667,43.333-44c18.333-10,38-15,58.667-14.667c4,0,7,0,8.666,0.333v10
	c0,32.333,9,63,26.667,91.667c17.667,29,42,50.667,73,65.333c-8.333,15.667-17,28-26.333,37.334
	c-29.667-26.334-65.334-39.334-107.334-39.334h-10.666C642,358,620,322.333,585.667,293.667z"/>
</svg>
