<?xml version="1.0" encoding="utf-8"?>
<!-- Generator: Adobe Illustrator 16.0.3, SVG Export Plug-In . SVG Version: 6.00 Build 0)  -->
<!DOCTYPE svg PUBLIC "-//W3C//DTD SVG 1.1//EN" "http://www.w3.org/Graphics/SVG/1.1/DTD/svg11.dtd">
<svg version="1.1" id="Layer_1" xmlns="http://www.w3.org/2000/svg" xmlns:xlink="http://www.w3.org/1999/xlink" x="0px" y="0px"
	 width="1000px" height="1000px" viewBox="0 0 1000 1000" enable-background="new 0 0 1000 1000" xml:space="preserve">
<path fill="#0E70A0" d="M141.667,562c0,36.667,11,69.667,33.333,99.333c22.333,29.334,50.667,49.334,85.667,60L239,776.667
	c-1.333,4.666,0,7,4.667,7h70.667l-38,136.333H286l136-183c1.333-1.333,1.333-3,0.333-4.667c-1-1.666-2.666-2.333-5-2.333H345
	l82.333-155.667c2.334-4.666,1-7.333-4.333-7.333h-98.667c-3,0-5.333,1.667-6.333,4.667l-37,97.666c-23.667-6-43.333-19-59.333-39
	C206,610.333,198,588,198,563c0-28,9.333-52.333,28.333-73s42.333-32.333,70-35l17.333-2.333c4.333,0,6.666-2,6.666-5.667
	l2.334-17.333C326.333,393.333,341.333,363,368.333,339c27-24.333,58.667-36.333,95.334-36.333C500,302.667,532,314.667,559,339
	s42.667,54.667,46.667,90.667L608,449c0,3.667,2,5.667,6,5.667h54c30.333,0,56,10.666,77.667,31.666
	C767,507.333,778,533,778,562.333c0,28.667-10,53.334-30,74.334S703.667,669,674.667,671.333c-4,0-6.334,2-6.334,6v46
	c0,3.667,2,5.667,6.334,5.667c44.333-1.333,82-18.333,113-50.667C818.667,646,834,607.667,834,562.667
	c0-24.334-4.667-46.334-13.667-66.667c25.334-33.333,38-70,38-109.667c0-23.667-4.667-46.333-14-68
	c-9.333-21.667-22-40-37.333-55.667c-15.334-15.667-34.334-28-56-37.333c-21.667-9.333-44.334-14-67.667-14
	c-24.667,0-48,5-70.667,15c-22.333,10-42,24-58,42c-27.333-14.667-57.333-22-90-22C417.333,246.333,375.333,261,339,290
	c-36.333,29-60,66.667-70.333,112.333C231.667,411,201.333,430,177.333,460S141.667,523.667,141.667,562z M414,891
	c0,6,1.667,11.667,5.333,17c3.667,5.667,8.667,9,15.334,10c0.666,0,1.666,0,2.666,0.333c1,0.334,2.334,0.334,3,0.334
	c0.667,0,1.667,0,2.667,0c14.333-1,23-7.667,26.667-20.334L479.333,863c2-7.333,1-14.333-3-21s-10-11.333-17.666-13.667
	c-7.334-2-14.334-1-21,2.667C431,835,426.333,841,424,848.667L415.667,882C414.667,888,414,890.667,414,891z M458.667,732
	c0,5,1.666,10,5,15c3.333,5,8.666,8.667,15.333,11.333c7.333,2.667,14.333,2,21-1.666C506.667,753,511,747,513.333,739l10-34.667
	c2-8.333,1.334-16-2.666-22.666C516.667,675,511,671,503,669.333c-7.333-2.333-14.667-1.666-21.333,2.334
	c-6.667,4-11.334,9.666-14,17.666l-8.334,34c0,0.667,0,1.667-0.333,2.667s-0.333,2.333-0.333,3C458.667,730,458.667,731,458.667,732
	z M553,786c0,6.333,1.667,12,5.333,17.333C562,808.667,567,812.333,574,814c5.333,1,8.333,1.667,9,1.667
	c13,0,21.667-6.667,25.667-20l8-35.334c2.333-7.333,1.666-14.333-2-21c-3.667-6.666-9-11.333-16.667-13.666c-8.333-2-16-1-22.667,3
	c-7,4-11,10-12.666,17.666l-9.334,33C553.333,781,553,783.333,553,786z M598.333,627.667c0,5.333,1.667,10.666,5.334,15.666
	c3.666,5,9,9,16.333,11.334c5.667,0.666,8.667,1,8.667,1c4,0,8-1,12.666-2.667c6.334-3.333,11-9,13-17.333L664,601
	c2-7.333,1-14.333-3-21s-10-11.333-17.667-13.667c-7.666-2.333-14.666-1.666-21.333,2.334s-11,9.666-13.333,17.666l-9.334,34
	C598.667,623.333,598.333,625.667,598.333,627.667z M602,299.333c22-21.333,49.333-32,81.667-32
	C716.333,267.333,744.333,279,767,302c23,23,34.333,51,34.333,83.667c0,21-5.333,40.667-16.333,59.333c-33-32-71.667-48-116.333-48
	H658C648,358.333,629.333,325.667,602,299.333z"/>
</svg>
