<?xml version="1.0" encoding="utf-8"?>
<!-- Generator: Adobe Illustrator 16.0.3, SVG Export Plug-In . SVG Version: 6.00 Build 0)  -->
<!DOCTYPE svg PUBLIC "-//W3C//DTD SVG 1.1//EN" "http://www.w3.org/Graphics/SVG/1.1/DTD/svg11.dtd">
<svg version="1.1" id="Layer_1" xmlns="http://www.w3.org/2000/svg" xmlns:xlink="http://www.w3.org/1999/xlink" x="0px" y="0px"
	 width="1000px" height="1000px" viewBox="0 0 1000 1000" enable-background="new 0 0 1000 1000" xml:space="preserve">
<path fill="#0E70A0" d="M81,700c0,8.333,3,15,9,20c5.667,5.667,12.333,8.667,20.333,8.667h318c7.667,0,14.334-2.667,19.667-8.334
	c5.333-5.666,8-12.333,8-20.333s-2.667-14.667-8-20.333c-5.333-5.667-11.667-8.334-19.667-8.334h-318c-8,0-14.667,3-20.667,8.667
	C84,685.667,81,692.333,81,700z M169,599c0,7.667,3,14,9,19.333c5.333,5.334,12,8,20,8h318.333c8,0,14.334-2.666,19.667-7.666
	c5.333-5.334,7.667-11.667,7.667-19.667s-2.667-14.667-8-20c-5.334-5.667-11.667-8.333-19.667-8.333H198
	c-8,0-14.667,2.666-20.333,8.333C171.667,584.667,169,591.333,169,599z M207,521.333c0,2.334,2.333,3.667,6.667,3.667H261
	c3,0,5.333-1.667,7.667-4.667c7.333-18,19-33,35-45c15.667-12,33.333-18.666,52.667-20l18-2.333c4,0,6-2,6-6l2.334-17
	c3.666-36,19-66.333,46-90.667c27-24.333,59-36.667,95.666-36.667C561,302.667,593,314.667,620,339c27,24,42.667,54.333,46.333,91
	L669,449c0,4,2,6.333,5.667,6.333h54C759,455.333,785,466,806.333,487c21.334,21,32,46.333,32,76.333c0,29.667-10.666,55-32,76.334
	c-21.333,21.333-47.333,32-77.666,32H498.333c-3.666,0-5.666,2-5.666,5.666v46c0,4,2,6,5.666,6h230.334
	c30.333,0,58-7.333,83.666-22.333C838,692.333,858,672,873,646.667c15-25.334,22.333-53,22.333-83c0-23.667-5-45.667-14.666-67
	C906.333,463,919,426.667,919,387c0-31.667-8-61-23.667-88c-15.666-27-37-48.333-64-64c-27-15.667-56.333-23.333-88-23.333
	c-50.666,0-93.666,18.667-128,55.667c-28.666-14-58.666-20.667-90.666-20.667c-31,0-60.334,6.667-87.667,19.667
	S386.667,298,368,321.667c-18.667,23.667-31.333,50.667-37.667,81c-29.333,6.666-54.667,20-76.333,40S217,487,208.667,515
	L207,521.333z M227.667,803c0,7.667,3,14.333,8.667,19.333c5.333,5.334,12,8,20,8H575c8,0,14.667-2.666,20-7.666
	S603.333,811,603.333,803s-2.666-14.667-8.333-20.333c-5.667-5.667-12.333-8.334-20-8.334H256.333c-7.667,0-14.333,3-20,8.667
	C230.667,788.667,227.667,795.333,227.667,803z M661,300.667C683.333,279,711,268,743.333,268c33,0,61,11.667,84,34.667
	s34.667,51,34.667,84c0,21-5.333,40.667-16.333,59C813,413.667,774,398,728.333,398h-10.666C710,361.333,691,329,661,300.667z"/>
</svg>
