<?xml version="1.0" encoding="utf-8"?>
<!-- Generator: Adobe Illustrator 16.0.3, SVG Export Plug-In . SVG Version: 6.00 Build 0)  -->
<!DOCTYPE svg PUBLIC "-//W3C//DTD SVG 1.1//EN" "http://www.w3.org/Graphics/SVG/1.1/DTD/svg11.dtd">
<svg version="1.1" id="Layer_1" xmlns="http://www.w3.org/2000/svg" xmlns:xlink="http://www.w3.org/1999/xlink" x="0px" y="0px"
	 width="1000px" height="1000px" viewBox="0 0 1000 1000" enable-background="new 0 0 1000 1000" xml:space="preserve">
<path fill="#0E70A0" d="M225.667,653.667c0,32.333,11.667,60.333,35.333,84C284.667,761.333,312.667,773,345,773h228.333
	c32.334,0,60-11.667,83-35S691,686.667,691,653.667c0-16-2.333-29.667-7-41C711.667,595,733.667,571.333,749.667,542
	S774,481,774,447.333c0-27-5.333-53-15.667-77.666c-10.666-24.667-24.666-46-42.666-63.667c-18-17.667-39-32-63.667-42.667
	c-24.667-10.667-50.333-16-77.333-16c-36.334,0-70,9-100.667,27S419,316.667,401.333,347C383.667,377.667,375,411,375,447.333
	v11.334c-33.667,19-55.667,47-66.333,83c-25.333,8-45.333,22-60.333,42.333S225.667,627.667,225.667,653.667z M291.667,653.667
	c0-14,4.333-26,13.333-36s20.333-15.667,34-17L360,598c4,0,6.333-2.667,6.333-7.667l3.334-18.666
	C372,552.333,380,536.333,394,523.667c14-13,30.333-19.334,49.333-19.334c19.334,0,36.334,6.334,50.334,19.334
	c14.333,13,22.666,29,25,48l2.666,21.666c2,5,5,7.667,8.334,7.667h43.666c14.334,0,26.667,5.333,37.334,15.667
	C621.333,627,626.333,639.333,626.333,654c0,15-5.333,27.667-15.666,38.333c-10.334,10.667-23,16-37.334,16H345
	c-15,0-27.667-5.333-38-16C296.667,681.667,291.667,668.667,291.667,653.667z M439.333,440.667c2.334-36.334,16.334-67,42.334-92
	c26-24.667,57-37.333,93.333-37.333c37,0,68.667,13.333,94.667,39.667s39,58.667,39,96.333c0,23.334-5.667,45-17,65
	c-11.334,20-26.667,36-46,48.334C626,544.333,603.333,536.333,578,536.333C568.333,507,551,484,526.667,466.667
	c-24.334-17.334-52-26-83-26H439.333L439.333,440.667z"/>
</svg>
