<?xml version="1.0" encoding="utf-8"?>
<!-- Generator: Adobe Illustrator 16.0.3, SVG Export Plug-In . SVG Version: 6.00 Build 0)  -->
<!DOCTYPE svg PUBLIC "-//W3C//DTD SVG 1.1//EN" "http://www.w3.org/Graphics/SVG/1.1/DTD/svg11.dtd">
<svg version="1.1" id="Layer_1" xmlns="http://www.w3.org/2000/svg" xmlns:xlink="http://www.w3.org/1999/xlink" x="0px" y="0px"
	 width="1000px" height="1000px" viewBox="0 0 1000 1000" enable-background="new 0 0 1000 1000" xml:space="preserve">
<path fill="#0E70A0" d="M136.333,563c0,37,11,70,33,99s50.667,49,86,59.667l-21.667,56.666c-1.333,4.667,0,7,4.667,7H309
	l-43,139.334h9.333l141-187.334c1.334-1.333,1.334-3,0.667-4.666c-1-1.667-2.333-2.334-4.667-2.334h-72.666L422,575.667
	c2.333-4.667,1-7.334-4.333-7.334H319c-3,0-5.333,1.667-7.333,5l-35.667,96c-23.667-6-43.333-19-59.333-39S193,588,193,563.333
	c0-27.666,9.333-51.666,28.333-72.333c19-20.333,42.333-32.333,70-35.667L309,453c4.333,0,6.667-2,6.667-6L318,430
	c3.667-36,18.667-66.333,45.667-90.667c27-24.333,58.666-36.667,95-36.667c36.333,0,68,12.333,95.333,36.667
	c27.333,24.333,42.667,54.667,46.667,90.333l2.333,19c0,4,2,6.333,5.667,6.333h54c30.333,0,56,10.667,77.666,31.667
	c21.667,21,32.334,46.666,32.334,76c0,28.333-10,53-30,73.666c-20,20.667-44.334,32.334-73.334,34.334c-4,0-6.333,2-6.333,6.333
	v45.333c0,4,2,6,6.333,6c44.334-1.333,82-18.333,113-50.333c31-32.333,46.334-70.667,46.334-115c0-29-7.334-56-22-81.667
	C832,456.667,849,427.667,857,394l6.333-22.667c0.334-0.333,0.334-1,0.334-2.333c0-2.667-1.667-4.333-5-5.333L838,358
	c-19-5.667-35.333-15-48.667-28C776,317,766.667,303.333,761,289.333s-8.333-28-8-42c0-9.333,1-18.667,3.333-28.333L760,198.667
	c0.667-3.333-0.667-6-4.667-7.667l-26.666-8c-15.667-3-29.334-4.667-41.334-4.667c-12.333-0.333-25,1-37.666,4
	C637,185,623.667,189.667,610,195.667s-26.667,15-39.333,26.333c-12.667,11.333-23.667,24.667-33,40
	c-27.667-10.333-54-15.333-78.667-15.333c-47,0-89,14.667-125.333,44c-36.333,29.333-60,66.667-70.333,112
	c-37,8.666-67.333,28-91.333,58C148.333,490.333,136.333,524.667,136.333,563z M408.667,892c0,5.333,1.666,10.333,5,15.667
	c3.333,5.333,8.333,9,15,11c5.333,1,8.333,1.666,9,1.666c3,0,7.333-1,12.333-3.333c7-3.333,11.667-9,14-17.667l9.333-35
	c2-7.333,1.334-14.333-2.666-21c-4-6.666-9.667-11.333-17.667-13.666c-7.333-2-14.333-1-21,2.666c-6.667,4-11.333,10-13.667,17.667
	l-9,33.333L408.667,892z M453.333,733.333c0,14.334,6.667,22.667,20.334,25c4.666,1,7.666,1.667,9,1.667c12.666,0,21-7,25.666-21
	l10-34c2-7.333,1-14.333-2.666-21c-3.667-6.667-10-11.333-17.667-13.667c-7.333-2.333-14.667-1.666-21.333,2.334
	c-6.667,4-11.334,9.666-13.667,17.666L454.667,724C453.667,727,453.333,730,453.333,733.333z M547,789c0.333,5.667,2.333,11,6,16
	s9,9,16,11.333c5.333,1.334,9,2,11,2c11.333,0,19.333-7.666,23.667-22.666l8-34c2.333-7.667,1.666-15-2-22
	c-3.667-7-9.334-11.334-16.667-13.667c-8.333-2-16-1-22.667,2.667c-6.666,4-11,10-12.333,17.666l-9.667,34.334
	c0,0.666-0.333,2-0.666,4C547,787,547,788.333,547,789z M586.333,292.333c11-18.667,26-33,44.667-43s38.333-15,58.667-15H697V245
	c0,21.333,3.667,42,11.333,62c7.667,20,18.667,38.333,34,55.333c15,17,33,30.333,53.667,40.333c-5.667,12.666-14,24-25.333,34.333
	c-30.334-26-66-39-107.334-39h-11C642.667,356,620.667,320.667,586.333,292.333z M592.667,629c0,14.333,7.333,23.667,21.666,27.333
	c4.667,0.667,8,1.334,10,1.334c12,0,20.334-7.334,24.667-21.667l9.333-34.667c0.334-1.666,0.334-4,0.334-7.333
	c0.333-5.667-1-11-4.667-16.333c-3.667-5.334-9-9-16.333-11c-0.334,0-1.667,0-3.334-0.334C632.667,566,631,566,630,566
	c-5.333,0-10.667,1.667-16,5s-9,8.667-11,15.667l-9.667,34c0,0.333,0,1.333-0.333,3.333C593,626.333,592.667,628,592.667,629z"/>
</svg>
