<?xml version="1.0" encoding="utf-8"?>
<!-- Generator: Adobe Illustrator 16.0.3, SVG Export Plug-In . SVG Version: 6.00 Build 0)  -->
<!DOCTYPE svg PUBLIC "-//W3C//DTD SVG 1.1//EN" "http://www.w3.org/Graphics/SVG/1.1/DTD/svg11.dtd">
<svg version="1.1" id="Layer_1" xmlns="http://www.w3.org/2000/svg" xmlns:xlink="http://www.w3.org/1999/xlink" x="0px" y="0px"
	 width="1000px" height="1000px" viewBox="0 0 1000 1000" enable-background="new 0 0 1000 1000" xml:space="preserve">
<path fill="#0E70A0" d="M138,563.333c0-38.666,11.667-72.666,35.333-102.666c23.667-30,54-49,91.333-57.334
	C272.333,369,288,339,311.333,313.333c23.334-25.667,51.667-44,84.334-55c20.666-7,42-10.667,64.333-10.667
	c27,0,53.333,5.333,78.333,16c9.334-15.667,20.334-29.333,33-40.667c12.667-11.333,25.667-20.333,39-26.333
	C623.667,190.667,637,186,649.667,183c12.666-3,25.333-4.333,37.333-4.333c12.667,0,26.333,1.667,41,5.333l27.333,8.333
	c4.667,2,6,4.333,4.667,7.333l-4.667,20C753,230,752,239.667,752,248.333c0,10.333,1.667,21,5,31.667s8,21,14.667,31.333
	C778,321.667,787,330.667,798.333,339c11.334,8.333,24,14.667,38.334,19l20.666,7.333c3.334,1,5,2.667,5,5.333
	c0,0.667-0.333,1.333-0.666,2.333l-6,22.333c-9,36-26,64.333-50,85.667c13.333,23.333,20.666,48.333,21.666,74.667
	c0.334,1.666,0.334,4,0.334,7.666c0,29.667-7.334,57.334-22.334,82.667c-14.666,25.333-35,45.333-60,60
	c-25.333,14.667-53,22.333-82.666,22.333H302.333C272.667,728.333,245,721,219.667,706c-25.333-15-45-35-59.667-60
	S138,593.333,138,563.333z M195,563.333c0,29.667,10.667,55.334,32,77C248.333,662,273.333,673,302.333,673h360.333
	c29.666,0,55-10.667,76-32.333c21-21.667,31.666-47.334,31.666-77.334c0-29.333-10.666-54.333-32-75.333
	c-21.333-21-46.666-31.667-76-31.667H603l-3.333-25c-3.334-33.666-17.334-62.667-42-86.333c-24.667-23.667-54-37-87.667-40
	c-1,0-2.667,0-5-0.333c-2.333-0.333-3.667-0.333-5-0.333c-17,0-34,3.333-51.333,9.667v-0.667c-24.334,9.333-45,24.667-61.334,45.667
	c-16.666,21-26.666,45-30,72.333l-2.333,24l-22.667,1c-28,3.334-51.333,15-70,35.334C203.667,512,195,535.667,195,563.333z
	 M586.667,293C622,323.333,644,358.667,652.333,399H663c41.333,0,76.667,13,105.667,39.333C779.667,428,788,416,794,402.667
	c-30.333-14.333-54.333-36.333-72-65.667c-17.333-29.333-26.333-60.333-26.333-92.667v-8C694,236,691.333,236,687.667,236
	c-19.334-0.333-38.334,4.333-56.667,14.667C612.667,260.667,597.667,274.667,586.667,293z"/>
</svg>
