<?xml version="1.0" encoding="utf-8"?>
<!-- Generator: Adobe Illustrator 16.0.3, SVG Export Plug-In . SVG Version: 6.00 Build 0)  -->
<!DOCTYPE svg PUBLIC "-//W3C//DTD SVG 1.1//EN" "http://www.w3.org/Graphics/SVG/1.1/DTD/svg11.dtd">
<svg version="1.1" id="Layer_1" xmlns="http://www.w3.org/2000/svg" xmlns:xlink="http://www.w3.org/1999/xlink" x="0px" y="0px"
	 width="1000px" height="1000px" viewBox="0 0 1000 1000" enable-background="new 0 0 1000 1000" xml:space="preserve">
<path fill="#0E70A0" d="M143,564.333c0,22,4,42.667,12.667,62.667c8.667,20,19.667,37,34,51.667
	C204,693.333,221,705,240.333,713.667c19.333,8.666,40.333,14,62.333,15c4,0,6-2,6-5.667v-44.667c0-3.666-2-5.666-6-5.666
	c-29-2-53.333-13.667-73-34.334C210,617.667,200,592.667,200,564.333c0-28,9.333-52.333,28.333-72.666
	c19-20.667,42-32.334,70-34.667l17.333-2c4,0,6.333-2,6.333-6l2.667-17.333c2.333-23.667,10-45.334,23-64.667
	c13-19.333,30-34.667,50.666-45.333c20.667-10.667,43-16.333,67.334-16.333c36.333,0,68,12,95,36S603,395.333,607,431l2.333,19.333
	c0,3.667,2,5.667,6.334,5.667H669c30,0,55.667,10.667,77.333,32c21.334,21.333,32.334,46.667,32.334,76.333
	c0,28.667-10,53.334-29.667,74c-19.667,20.667-44.333,32.333-73,34.334c-4.333,0-6.667,1.999-6.667,5.666V723
	c0,3.667,2.334,5.667,6.667,5.667c44.667-2,82.333-19,112.667-50.334c29.333-31.666,44.666-69.666,44.666-114
	c0-21.333-5.333-44-15.666-68.666c26.333-33,39.666-69.334,39.666-109c0-31.667-8-61-23.666-87.667c-15.667-27-37-48-63.667-63.667
	C743.333,219.667,714,212,682.667,212c-53,0-96,19.333-129,57.667c-27-14.333-56.667-21.333-88.667-21.333
	c-47,0-88.666,14.667-125,44c-36.333,29.333-59.667,66.667-70,112.333c-37.333,8.666-67.667,27.666-91.333,57.333
	C154.667,491.667,143,525.667,143,564.333z M398,718.333c-0.667,4.667,0.667,7,4.667,7H475l-44,139h9.667l139.333-186
	c1.333-1.333,1.667-3,0.667-4.666c-1-1.667-2.334-2.334-4.667-2.334h-72.667L580,530c2.333-4.667,1-7.333-4.667-7.333h-98
	c-2.666,0-4.666,1.666-7,4.666L398,718.333z M600,301.667c22.333-22,49.667-33,82.333-33C715,268.667,742.667,280,765.667,303
	c23,22.667,34.333,50.667,34.333,83.667c0,19.667-5.667,39.667-17.333,60c-32.334-31-70.667-46.667-115-46.667h-10.334
	C648,360.333,628.667,327.667,600,301.667z"/>
</svg>
