<?xml version="1.0" encoding="utf-8"?>
<!-- Generator: Adobe Illustrator 16.0.3, SVG Export Plug-In . SVG Version: 6.00 Build 0)  -->
<!DOCTYPE svg PUBLIC "-//W3C//DTD SVG 1.1//EN" "http://www.w3.org/Graphics/SVG/1.1/DTD/svg11.dtd">
<svg version="1.1" id="Layer_1" xmlns="http://www.w3.org/2000/svg" xmlns:xlink="http://www.w3.org/1999/xlink" x="0px" y="0px"
	 width="1000px" height="1000px" viewBox="0 0 1000 1000" enable-background="new 0 0 1000 1000" xml:space="preserve">
<path fill="#0E70A0" d="M135.667,564.333c0,44.334,15.667,82.334,46.667,114.334s69,49,113.333,50.333c4,0,6-2,6-5.667v-44.666
	c0-3.667-2-5.667-6-5.667C267.333,671.667,243,660,223,638.667c-20-21.334-30.333-46.334-30.333-74.334
	c0-28.333,9.333-53,28.333-73.666C240,470,263.333,458.333,291,456l17.667-2.333c4.333,0,6.666-2,6.666-6l2.334-17
	C321.333,394,336.333,363.333,363.333,339s58.667-36.667,95.334-36.667c36.333,0,68,12.333,95.333,36.667s43,54.667,46.667,90.667
	l2.333,19c0,4,2,6.333,5.667,6.333h54c30.333,0,56,10.667,77.666,32.333c21.667,21.334,32.334,47,32.334,77
	c0,18.334-4.667,35.667-13.667,52c-9,16.334-21.667,29.667-37.667,40c-16,10.334-33.333,16-52,17c-4.333,0-6.666,2-6.666,5.667
	v44.667c0,3.666,2.333,5.666,6.666,5.666c29.334-0.666,56.334-8.666,80.667-23.666s43.667-35,57.667-60s21-52,21-81
	c0-29.334-7.667-57.334-22.667-83.667c27.667-24.667,45.333-54,52.667-87.333L863.333,371c0.667-0.667,1-1.333,1-2.333
	c0-2-2-3.667-5.666-5.333l-18.334-6c-19-5.667-35.666-15-49-28.333c-13.666-13.333-23.333-27-29-41.667
	c-5.666-14.333-8.666-28.667-8.666-43c-0.667-7,0.333-16.333,3-27.333L761,197.667c1.333-3.333,0-6-4.333-7.667L730,182
	c-13.667-3.667-28-5.667-43-5.667c-12,0-24.667,1.333-37.333,4.333c-12.667,3-26,7.333-39.667,13.667s-27,15.333-40,27
	s-24,25.333-33.333,41C509.667,252,483.333,247,458.333,247c-47,0-89,14.667-125.333,44c-36.333,29.333-60,66.667-70.333,112.333
	c-37.333,9.667-68,29.334-91.667,59C147.333,491.333,135.667,525.667,135.667,564.333z M316,799.333c0,5.667,1.667,11.334,5.333,17
	C325,822,330.333,825.667,337,828c7.667,2.333,14.667,2,21.333-1.333c6.667-3.334,10.667-9.334,13-18.667L376,787.667
	c1.667-7.667,0.667-14.667-3-21c-3.667-6.667-9.333-11-17.333-13.334C348,751,341,752,334.333,756C327.667,760,323,766,321,773.667
	L316.667,793C316,794.333,316,796.333,316,799.333z M341.333,702.667c0,7,2.667,13.333,8.334,19C355,727.333,361,730,368.333,730
	c8,0,14.667-2.667,20-8c5.334-5.333,8-11.667,8-19.667c0-7.666-2.666-14.333-8-19.666c-5.333-5.334-12-8-20-8
	c-7.666,0-14.333,2.666-19.333,7.666S341.333,695,341.333,702.667z M361.667,627c-0.334,5.333,1,10.333,4.666,15
	c3.334,5,8.667,8.333,16,10.667c7,2,13.667,1.333,20.667-2.334c7-3.666,11.333-9.333,13.667-17l9.333-30
	c2.333-8,1.667-15.333-2.333-21.666c-4-6.334-10-10.667-18-13c-7.334-2.334-14.334-1.667-21,2.333
	c-6.667,3.667-11.334,9.333-13.667,16.667l-8,30.666c0,0.667-0.333,2-0.667,4C361.667,624,361.667,625.667,361.667,627z
	 M400.333,903.333c0,6,1.667,11.334,5,16.667c3.334,5.333,8.667,9,16,11c2.667,0.667,5.667,1,8.334,1
	c14.333,0,23-6.667,26.333-20.333L460.667,892c2-8.667,1-16-2.667-22.667c-3.667-6.666-9.667-10.666-17.333-12.333
	c-7-2.333-14-1.667-21,2.333s-11.334,9.667-13.667,17L401.333,896C400.667,899,400.333,901.333,400.333,903.333z M426.333,806.667
	c0,7.333,2.667,13.666,8.334,19.333c5.333,5.333,11.666,8,19,8c8,0,14.333-2.667,19.666-7.667C478.667,821,481,814.667,481,806.667
	c0-7.667-2.667-14-7.667-19.334c-5-5.333-11.666-7.666-19.666-7.666s-14.334,2.666-19.667,7.666
	C429,792.333,426.333,799,426.333,806.667z M447.333,731c-0.333,5,1,10.333,4.334,15.667c3.333,5.333,8.333,8.666,15,10
	c7.666,2,14.666,1.333,21.333-2c6.333-3.334,11-9.667,13.667-18.667l9-30c2.333-7.333,1.666-14.333-2.334-21
	s-9.666-11-17.666-13.333c-7.334-2.334-14.334-1.334-21.334,2.666S458,684.333,455.667,692l-7.334,30
	C447.667,724.667,447.333,727.667,447.333,731z M539,802.667c0,5.333,1.667,10.666,5,16c3.333,5.333,8.667,9,15.333,11
	c1,0,2.667,0.333,4.667,0.666c2,0.334,3.333,0.667,4.667,0.667c13.666,0,22-7.333,25.333-22l4.667-20c2.333-7,1.666-14-2.334-21
	c-3.666-7-9.333-11.333-17-13.667c-8.333-2-16-1.333-22.666,2.667c-6.667,4-11.334,9.667-13.667,17.667l-3,19.666
	c0,0.667-0.333,2.334-0.667,4C539.333,800,539,801.333,539,802.667z M563.667,704c0,7.333,2.666,14,8.333,19c5,5.333,11.333,8,19,8
	c8,0,14.333-2.667,19.667-7.667c5.333-5,7.666-11.666,7.666-19.333c0-8-2.666-14.333-7.666-19.667
	c-5-5.333-11.667-7.666-19.667-7.666s-14.333,2.666-19.667,7.666C566,689.333,563.667,696,563.667,704z M584,627
	c0,5.667,1.667,11,5.333,16c3.667,5,9,8.667,16.334,10.667c0.666,0,2,0.333,4,0.666c2,0.334,3.666,0.667,4.666,0.667
	c3.334,0,7.334-1,12-3c7-3.667,11.667-9.667,13.667-17.333l8-30c2-7.667,1.333-14.667-2.667-21c-3.666-6.667-9.333-11-17-13.334
	c-7.666-2.333-14.666-1.666-21.333,2c-6.667,3.667-10.667,9-13,17l-9.333,30.334c0,0.666-0.334,2-0.667,4
	C584.333,624.667,584,626,584,627z M586.333,292C597,272.667,611.667,258,630,247.333c18.667-10.667,37.667-15.667,57.667-15.333
	c3,0,6.333,0.333,10,1v10.333c-0.334,32.667,8.333,63.333,25.666,92c17.667,28.667,42.334,50,74,64.667
	C791,413.667,782,426,770.667,437C740,411.667,704,399,663,399h-10.333C642.333,355.333,620.333,319.667,586.333,292z"/>
</svg>
