<?xml version="1.0" encoding="utf-8"?>
<!-- Generator: Adobe Illustrator 16.0.3, SVG Export Plug-In . SVG Version: 6.00 Build 0)  -->
<!DOCTYPE svg PUBLIC "-//W3C//DTD SVG 1.1//EN" "http://www.w3.org/Graphics/SVG/1.1/DTD/svg11.dtd">
<svg version="1.1" id="Layer_1" xmlns="http://www.w3.org/2000/svg" xmlns:xlink="http://www.w3.org/1999/xlink" x="0px" y="0px"
	 width="1000px" height="1000px" viewBox="0 0 1000 1000" enable-background="new 0 0 1000 1000" xml:space="preserve">
<path fill="#0E70A0" d="M141.667,563c0,44.333,15.333,82.667,46.333,114.333c31,32,68.667,49,113.333,51.334c4,0,6-2,6-6v-44.334
	c0-4-2-6-6-6c-28.667-1.333-52.667-12.666-72.667-34c-20-21.333-30-46.333-30-75.333c0-27.667,9.333-51.667,28-72.333
	c18.667-20.334,42-32.334,70-35.667L314,452.667c4.333,0,6.667-2,6.667-6l2.666-17C327,393.667,342,363.333,369,339.333
	C396,315,427.667,303,464,303s68,12.333,95.333,36.667C586.667,364,602,394,606,430l2.333,19.333c0,4,2,6,6,6h54
	c30.334,0,56,10.667,77.334,31.667c21.333,21,32,46.333,32,76.333c0,29-10,54-30,75.334c-20,21.333-44.334,32.666-72.667,34
	c-4.333,0-6.333,2-6.333,6V723c0,4,2,6,6.333,6c29.333-1,56-9,80.333-24C779.667,690,799,670,813,645s21-52.333,21-81.333
	c0-24.667-4.667-47-14.333-67C846,464.667,859,428,859,386c0-31.333-8-60.667-23.667-87.333c-15.666-27-37-48.333-64-64
	C744.333,219,715.333,211,684,211c-52,0-95,19.333-129.333,57.667c-27.334-14.667-57.334-22-90.334-22c-47,0-89,14.667-125.333,44
	c-36.333,29.333-60,66.667-70.333,112c-36.667,8.666-67,28-91,58C153.667,490.333,141.667,524.667,141.667,563z M320.667,795.667
	c3,7.333,8,12.333,15.333,15.333c6.667,3.333,13.667,3.667,20.667,0.667c7.333-2.667,12-7.667,15-15c3-7.334,3-14.667,0.333-21.667
	c-2.667-7.333-7.667-12.333-14.667-15.667c-6.666-2.666-13.333-2.666-20.333,0.334s-12,7.666-15.333,14.333
	C318,779.667,317.667,787,320.667,795.667z M341.667,701.333c0,5.334,1.666,10.334,5,15.334C350,721.667,355.333,725,362,727
	c7.333,2.333,14.667,1.667,21.667-2s11.666-9.667,14.333-18.333L430.667,603c2.333-8,1.666-15.667-2.667-22.333
	c-4-6.667-10.333-11-18.333-12.667c-7.334-2.333-14.334-1.667-20.667,2c-6.667,3.667-11,9.333-13.333,16.667l-33.334,106
	L341.667,701.333z M403.667,888c0,2.333,0.666,5.667,2,9.667c3,7.333,8.333,12.666,15.333,15c2.667,1.666,6.333,2.666,11,2.666
	c2,0,5.333-0.666,10-2c7.333-2.666,12.667-7.666,15.667-15c3.333-7.333,3.333-14.666,0-22c-3.334-7.333-8.334-12.333-15-15.333
	C436,858,429,858,422,860.667c-6.333,2.666-11,6.666-14,12C405,878,403.667,883,403.667,888z M428.333,799c0,6,1.667,11,5,16
	c3.334,4.667,8.667,8,16,9.333c0.667,0,2,0.334,3.667,0.667s3.333,0.667,4.333,0.667c14.334-1,23.334-8,27-20.667L543,602.667
	c2.333-8,1.667-15.334-2-21.667s-9.333-10.667-16.667-13c-7.666-2.333-15-1.667-21.666,2c-6.667,3.667-11,9.333-13.334,16.667
	l-60,202.333c0,0.667,0,2-0.333,3.333c-0.333,1.334-0.333,2.667-0.333,3.667C428.333,797.333,428.333,798.333,428.333,799z
	 M543,785.667c0,3.333,0.667,7,1.667,10.666c2.666,7,7.666,12,15.333,14.667c3,1.333,7,2.333,12,2.333c4,0,7.333-0.666,9.667-2
	c7.666-3,12.666-7.666,15.333-14.333c2.667-7.333,2.667-14.333,0-21.667c-2.667-7-7.333-12.333-14-16
	c-7.333-2.666-14.667-2.666-21.667,0.334c-7.333,3-12.333,7.666-15.666,14.333C544,777.667,543,781.333,543,785.667z M567,701
	c0,12,7,20.333,20.667,25c4.666,1.333,8,2,10,2c4,0,7.666-1,11.333-2.667c5.667-3,10.333-9,13.333-18.333L655,603.333
	c2.667-7.666,1.667-15-2-21.333c-4-6.667-9.667-11-17-13.333c-7.667-2.334-14.667-1.667-21.333,2
	c-6.334,3.666-11,9.333-13.334,16.666l-32.666,104.334C567.333,697,567,700.333,567,701z M601.333,300.667
	c23-22,50.334-33,82.667-33s60.333,11.667,83.333,34.667s34.667,51,34.667,83.333c0,20.667-5.667,41-17.333,61.333
	c-32.667-32.667-71.334-49-116.334-49h-11C647,359.333,628.333,327,601.333,300.667z"/>
</svg>
