<?xml version="1.0" encoding="utf-8"?>
<!-- Generator: Adobe Illustrator 16.0.3, SVG Export Plug-In . SVG Version: 6.00 Build 0)  -->
<!DOCTYPE svg PUBLIC "-//W3C//DTD SVG 1.1//EN" "http://www.w3.org/Graphics/SVG/1.1/DTD/svg11.dtd">
<svg version="1.1" id="Layer_1" xmlns="http://www.w3.org/2000/svg" xmlns:xlink="http://www.w3.org/1999/xlink" x="0px" y="0px"
	 width="1000px" height="1000px" viewBox="0 0 1000 1000" enable-background="new 0 0 1000 1000" xml:space="preserve">
<path fill="#0E70A0" d="M119,447.667C119,409.333,131,375,155,345s54.333-49.333,91-58c10.667-45.667,34-83,70.667-112.333
	C353.333,145.333,395,131,442,131c46,0,87,14.333,123,42.667c36,28.333,59.333,65,70,109.667h11c30,0,57.667,7.333,83,21.667
	s45.667,34.333,60.333,59.667C804,390,811.667,417.333,811.667,447.333C811.667,485.667,800,520,776.333,550
	c21.334,18.333,46.667,28,75.334,29l22,2c4,0,6,2,6,6.333V613c0.333,33.667-8,65-24.334,93.333C839,735,816.333,757.333,788,774
	s-59.333,25-93,25c-25.667,0-50-5-73-14.667c-23-9.666-42.667-23-59.333-39.666C546.333,728,533,708.333,523.333,685.333
	c-9.666-23-14.666-47-14.666-72.333H279c-44.667-2-82.333-19-113.333-51S119,492,119,447.667z M176,447.667c0,29,10,54,30,75.333
	s44.333,32.667,73,34h373c28.667-1.333,53-12.667,73-34s30-46.333,30-75.333c0-29.334-10.667-54.333-32.333-76
	c-21.667-21.333-47.334-32.333-77-32.333h-54c-3.667,0-5.667-2-5.667-5.667l-2.333-19.333C580,278.333,564.333,248,537,224
	s-59-36.333-95.333-36.333c-36.667,0-68.334,12-95.334,36.333c-26.999,24.333-42,54.333-45.333,90.333l-2.333,19.333
	c0,3.667-2.333,5.667-6.667,5.667h-17.667c-28,3.333-51.333,15.333-70,35.667C185.667,395.333,176,419.667,176,447.667z M557,613
	c0,26.333,6.667,50.667,20,72.333c13.333,21.667,30.333,38.334,51.333,50c21,11.667,43,17.334,66.334,17.334
	c20.666,0,41-5,60.666-15c20-10,37.334-25,52.667-45.334c15.333-20.333,25-43.666,28.667-70c-36-7.333-66-21.666-90.667-43.333
	c-28,21.667-59.333,33-94,33.667h-95V613z"/>
</svg>
