<?xml version="1.0" encoding="utf-8"?>
<!-- Generator: Adobe Illustrator 16.0.3, SVG Export Plug-In . SVG Version: 6.00 Build 0)  -->
<!DOCTYPE svg PUBLIC "-//W3C//DTD SVG 1.1//EN" "http://www.w3.org/Graphics/SVG/1.1/DTD/svg11.dtd">
<svg version="1.1" id="Layer_1" xmlns="http://www.w3.org/2000/svg" xmlns:xlink="http://www.w3.org/1999/xlink" x="0px" y="0px"
	 width="1000px" height="1000px" viewBox="0 0 1000 1000" enable-background="new 0 0 1000 1000" xml:space="preserve">
<path fill="#0E70A0" d="M140.667,563c0,44.333,15.333,82.667,46.333,114.667s68.667,49,113.667,51c3.667,0,5.667-2,5.667-5.667
	v-45.667c0-4.333-2-6.333-5.667-6.333C271.333,669,247,657.333,227,636.667C207,616,197,591.333,197,563
	c0-28,9.333-52.667,28.333-73.333c19-20.667,42.333-32.334,70.333-34.667L313,452.667c4,0,6.333-2,6.333-6.334l2.334-16.666
	c3.666-36,19-66.333,46-90.667s59-36.667,95.666-36.667c36.334,0,68.334,12,95.334,36.333c27,24.333,42.666,54.667,46.666,90.667
	l2,19c0,4,2,6,6.334,6H667c30.333,0,56,10.667,77.333,31.667c21.334,21,32.334,46.667,32.334,76c0,28.333-10,53-29.667,73.667
	C727.333,656.333,702.667,668,674,670c-4.667,0-7,2-7,6.333V722c0,3.667,2.333,5.667,7,5.667c44.333-1.334,82-18.334,113-50.334
	c31-32.333,46.333-70.666,46.333-115c0-24.666-4.666-47-14.333-67c26.333-32,39.333-69,39.333-112c0-31.333-8-60.667-23.666-87.667
	c-15.667-27-37-48.333-64-64c-27-15.667-56-23.667-87.334-23.667c-50.667,0-94.333,19.333-131,58.333
	c-27.666-12.667-57.333-19.667-89-19.667c-47,0-89,14.667-125.333,43.667c-36.333,29-60,66.667-70,112.333
	c-37,8.666-67.333,28-91.333,58C152.667,490.333,140.667,524.667,140.667,563z M338.333,592.333
	c0,12.667,4.667,23.334,14.334,32.667c9.333,9,20.666,13.667,34,13.667c13.333,0,24.333-4.334,33.333-13.334
	s13.667-20,13.667-32.666c0-8.667-4-20-11.667-34s-15-25.334-22-33.334c-0.667-0.666-2.667-3-6-6.666c-3.333-3.667-5.667-6.334-7-8
	L375,524c-9.333,10-17.667,21.667-25,35C342.333,572.333,338.333,583.667,338.333,592.333z M438,725.333
	c0,21,7.667,39.334,23,54.667s33.667,23,55,23s40-7.667,55.333-23c15.334-15.333,23-33.667,23-54.667c0-9-2.666-19.666-7.666-32.333
	c-5.334-12.667-11.334-24-18.667-34.667c-15.333-19.666-29.667-36.333-43-49.666c-2-1.334-4.667-4.334-8.667-8L496.667,620
	c-14.667,14-28.334,31.667-40.334,52C444,692.667,438,710.333,438,725.333z M487.333,502c0,9,3,16.333,9.334,22.333
	c6.333,6,14.333,9,23.666,9c8.667,0,16-3,22-9s9-13.333,9-22.333c0-13.667-10.333-31.333-31-53.667L512,457
	c-6.333,6.667-12,14.333-17,23.333C489.667,489,487.333,496.333,487.333,502z M600.333,300.667c22.334-22,50-33,82.667-33
	s60.333,11.333,83,34c22.667,22.667,34.333,50.333,34.333,82.667c0,21-5.666,41.667-17,61.667c-33.333-32-72.333-48-117-48h-9.666
	C647.333,358.667,628.333,326.333,600.333,300.667z"/>
</svg>
