<?xml version="1.0" encoding="utf-8"?>
<!-- Generator: Adobe Illustrator 16.0.3, SVG Export Plug-In . SVG Version: 6.00 Build 0)  -->
<!DOCTYPE svg PUBLIC "-//W3C//DTD SVG 1.1//EN" "http://www.w3.org/Graphics/SVG/1.1/DTD/svg11.dtd">
<svg version="1.1" id="Layer_1" xmlns="http://www.w3.org/2000/svg" xmlns:xlink="http://www.w3.org/1999/xlink" x="0px" y="0px"
	 width="1000px" height="1000px" viewBox="0 0 1000 1000" enable-background="new 0 0 1000 1000" xml:space="preserve">
<path fill="#0E70A0" d="M142.667,563c0,37,11,70.333,33,99.333S226.333,711,261,720.667l-21.333,56
	c-1.667,4.666,0,7.333,4.667,7.333H315l-34.667,139.667h9.333L422,736.333c1.333-1.333,1.333-3,0.333-4.666
	c-1-1.667-2.666-2.334-5-2.334H345l82.333-153.666c2.334-4.667,0.667-7.334-4.666-7.334h-98c-3,0-5.334,1.667-7.667,4.667
	l-35.667,95.667c-23.667-5.667-43.333-18.667-59-38c-15.667-19.334-23.333-42-23.333-67.334c0-27.666,9.333-51.666,28-72
	c18.667-20.333,42-32,70-35.333l17.667-1.333c4,0,6-2,6-6L323,431c2.333-23.667,10-45,23-64.667c13-19.333,30-34.667,50.667-45.667
	c20.666-11,43-16.667,67-16.667c36,0,67.666,12.333,94.666,36.667C585.333,365,600.667,395,604.667,431l2.666,18.667
	c0,4,2,6.333,5.667,6.333h54c29.667,0,55,10.667,76.667,32C765.333,509.333,776,534.333,776,563.667c0,28.666-10,53.666-30,75
	c-20,21.333-44.333,32.333-72.667,34c-4.333,0-6.666,2-6.666,6v44.666c0,3.667,2.333,5.667,6.666,5.667c29-0.667,55.667-8.667,80-24
	c24.334-15,43.667-35,57.334-60c13.666-25,20.999-52,20.999-81c0-24.333-4.666-46.667-13.999-67c26-31,38.999-67.667,38.999-110.333
	c0-23.667-4.666-46-14-67.333c-9.333-21.333-21.666-40-37.333-55.667c-15.666-15.667-34-28-55.667-37.333
	c-21.333-9.333-43.999-14-67.333-14C631,212.333,588,231.667,553.666,270c-27-14.333-57-21.667-90-21.667
	c-47,0-88.666,14.667-125,43.667c-36.333,29-59.666,66.333-70,111.667c-36.667,8.666-67,27.666-91,57.666
	S142.667,524.667,142.667,563z M407,892.333c0,5.334,1.667,10.667,5,15.334c3.333,4.666,8.333,8.333,15,10.333l8.333,1
	c14,0,22.667-6.667,26.667-20l81-296.333c2-7.667,1.333-15-2.333-21.334c-3.667-6.666-9-11-16.334-13.333
	c-7.666-2.333-15-1.667-21.666,2c-6.667,3.667-11.334,9.333-13.334,16.667l-81.666,296.666C407.333,889,407,892,407,892.333z
	 M545,791.333c0,13.334,7,22.334,20.667,26.667c5.666,0.667,8.666,1,8.666,1C578,819,582,818.333,586,816.333
	c6.667-3,11.333-9,14-18.333l54.667-195c2-7.667,1.333-15-2.667-21.333c-3.667-6.667-9.333-11-17-13.334
	c-7.667-2.333-15-1.666-21.667,2c-6.666,3.667-11,9.334-13,16.667l-54,196.333C545.667,788,545,790.667,545,791.333z
	 M600.667,301.333c22.666-21.333,50-32,82.666-32c32.334,0,60,11.333,82.667,34C789,326,800.333,353.667,800.333,386
	c0,21-5.666,41.667-17,61.667c-32-32-70.666-48-116-48h-10.666C647.333,361.333,628.667,328.667,600.667,301.333z"/>
</svg>
