<?xml version="1.0" encoding="utf-8"?>
<!-- Generator: Adobe Illustrator 16.0.3, SVG Export Plug-In . SVG Version: 6.00 Build 0)  -->
<!DOCTYPE svg PUBLIC "-//W3C//DTD SVG 1.1//EN" "http://www.w3.org/Graphics/SVG/1.1/DTD/svg11.dtd">
<svg version="1.1" id="Layer_1" xmlns="http://www.w3.org/2000/svg" xmlns:xlink="http://www.w3.org/1999/xlink" x="0px" y="0px"
	 width="1000px" height="1000px" viewBox="0 0 1000 1000" enable-background="new 0 0 1000 1000" xml:space="preserve">
<path fill="#0E70A0" d="M99.333,700.667c0,7.666,3,14.333,9,20C114,726.333,120.667,729,128.667,729H320
	c8.667,0,16.333,3.333,23,9.667c6.667,6.333,10,14,10,22.666c0,9-3.333,16.667-10,23c-6.667,6.334-14.333,9.667-23,9.667
	s-16-3.333-22.667-10c-6-5.333-12.667-8-20.333-8c-8,0-14.667,2.667-20,8s-8,12-8,20c0,7.333,2.667,14,8,20
	c17.333,17.667,38.667,26.334,63,26.334c24.333,0,45.667-8.667,63-26.001C400.333,807,409,786,409,761.334
	c0-24.667-8.667-45.667-26-63C365.667,681,344.667,672,320,672H128.667c-8,0-14.667,3-20.667,8.667
	C102.333,686.333,99.333,693,99.333,700.667z M99.333,600c0,7.333,3,13.667,9,19.333c5.667,5.334,12.667,8,20.333,8h361.667
	c24.667,0,45.667-8.666,63-26c17.334-17.333,26-38.333,26-62.666c0-24.667-8.666-45.334-26-62.667
	c-17.333-17.333-38.333-25.667-63-25.667c-25.333,0-46.333,8.334-63,25.334c-5,5.333-7.666,12-7.666,20.333s2.666,15,7.666,20
	S439,523.667,447,523.667s14.667-2.334,20.667-7.667c6.333-6.333,14-9.333,22.666-9.333c8.667,0,16,3,22.334,9.333
	c6.333,6.333,9.666,14,9.666,22.667c0,8.666-3.333,16.333-9.666,22.666c-6.334,6.334-14,9.667-22.334,9.667H128.667
	c-8,0-14.667,3-20.667,8.667C102.333,585.667,99.333,592.333,99.333,600z M183.333,521.667c0,3,1.667,4.333,5.333,4.333h48
	c2.667,0,5-1.667,7.333-5c7.333-18,19-33,35-45c15.667-11.667,33.333-18.333,52.667-20L349,453.667c4,0,6.333-2,6.333-5.667
	L358,430.667c3.667-36,19-66.333,46-90.333C431,316,463,304,499.333,304c36.334,0,68.334,12,95,36.333
	c27,24,42.334,54.333,46,90.667l2.334,19.333c0,4,2,6,6.333,6h54c30.333,0,56,10.667,77.333,31.667c21.334,21,32,46.333,32,76
	s-10.666,55-32,76.333c-21.333,21.334-47,32-77,32H473c-3.667,0-5.667,2-5.667,6V724c0,3.667,2,5.667,5.667,5.667h230.333
	c29.667,0,57.334-7.334,82.667-22.334s45.333-35,60-60.333c14.666-25.333,22.333-53,22.333-82.667c0-29.333-7.666-57-22.666-82.666
	C870,458,886.666,429.333,896,395.667l4-23c0.667-0.667,1-1.333,1-2.333c0-1.333-1.667-3.333-4.667-5.333l-20-7
	c-28-8.667-49.333-23.667-64-45.333c-14.666-21.667-22-44-22-67.333c0-8,1-17,3-26.333l4.334-20.667
	c0.666-3.333-0.667-6-4.334-7.333l-26.666-8c-14.667-3.667-28.334-5.333-41.667-5.333c-12.333,0-24.667,1.333-37.333,4.333
	C675,185,662,189.333,648.333,195.667c-13.333,6-26.666,15-39.333,26.667c-12.667,11.667-24,25-33.333,40.667
	c-23.667-10-49.334-15-77.334-15c-47,0-88.666,14.667-125,43.667c-36.333,29-59,66.333-69,111.666
	c-28.667,6.667-53.667,20.334-75.667,41c-22,20.667-37,45-45.333,73.334v1C183.667,519.333,183.333,520.333,183.333,521.667z
	 M624.333,292c10.334-18.333,24.667-32.333,43-42c18.334-9.667,37.334-14.667,57-14.667c4.667,0,8,0,10.334,0.333
	c-0.334,3-0.667,7-0.667,12c0,31.333,8.667,61.667,26.333,90.333c17.334,28.667,41.667,50.333,72.334,64.667
	c-5.334,12.666-13.667,24-25,34.333C778,411.667,743,399,702.333,399h-11C682.667,357,660.333,321.333,624.333,292z"/>
</svg>
