<?xml version="1.0" encoding="utf-8"?>
<!-- Generator: Adobe Illustrator 16.0.3, SVG Export Plug-In . SVG Version: 6.00 Build 0)  -->
<!DOCTYPE svg PUBLIC "-//W3C//DTD SVG 1.1//EN" "http://www.w3.org/Graphics/SVG/1.1/DTD/svg11.dtd">
<svg version="1.1" id="Layer_1" xmlns="http://www.w3.org/2000/svg" xmlns:xlink="http://www.w3.org/1999/xlink" x="0px" y="0px"
	 width="1000px" height="1000px" viewBox="0 0 1000 1000" enable-background="new 0 0 1000 1000" xml:space="preserve">
<path fill="#0E70A0" d="M143.333,563c0,29.667,7.333,57.333,22,82.667C180,671,199.667,691,225,705.667
	C250.333,720.333,277.667,728,307.667,728H668c29.667,0,57.333-7.333,82.667-22.333c25.333-15,45.333-35,60-60
	C825.333,620.333,833,592.667,833,563c0-21.333-4.667-43.333-14-66.667c25.333-31,37.667-67.666,37.667-110
	c0-31.667-7.667-61-23-87.667C818.333,272,797,250.667,770.333,235c-26.666-15.667-56-23.333-87.666-23.333
	c-49.667,0-92.667,19.333-129,58C528.333,255.333,498.333,248,464,248c-47,0-88.333,14.333-124.333,43.333
	c-36,29-59,66-69.333,111.667C233,411.333,202.667,430.333,179,460.333S143.333,524.667,143.333,563z M200.333,563
	c0-27.667,9.333-51.667,27.667-72c18.667-20.333,42-32,70-35.333l22.667-1l2.333-24c4.667-36,20.333-66.333,47-90.333
	C396.667,316,428,304,463.667,304C500,304,532,316.333,559,340.667C586,365,601.333,395,605,431l3.333,25h59.334
	c29.333,0,54.666,10.667,76,31.667c21.333,21,32,46.333,32,75.333c0,30-10.667,55.667-31.667,77.333
	c-21,21.667-46.667,32.334-76,32.334H307.667c-29,0-54-10.667-75.333-32.334C211,618.333,200.333,592.667,200.333,563z M601.333,302
	c23-22,50-33,81.334-33c33,0,61,11.333,84,34.333C789.667,326,801.333,354,801.333,387c0,20.667-5.666,41-17.333,61.333
	C752,416,713.333,400,667.667,400h-10.334C648.333,363,629.667,330.333,601.333,302z"/>
</svg>
