<?xml version="1.0" encoding="utf-8"?>
<!-- Generator: Adobe Illustrator 16.0.3, SVG Export Plug-In . SVG Version: 6.00 Build 0)  -->
<!DOCTYPE svg PUBLIC "-//W3C//DTD SVG 1.1//EN" "http://www.w3.org/Graphics/SVG/1.1/DTD/svg11.dtd">
<svg version="1.1" id="Layer_1" xmlns="http://www.w3.org/2000/svg" xmlns:xlink="http://www.w3.org/1999/xlink" x="0px" y="0px"
	 width="1000px" height="1000px" viewBox="0 0 1000 1000" enable-background="new 0 0 1000 1000" xml:space="preserve">
<path fill="#0E70A0" d="M78.333,701.667c0,8,2.667,14.333,8.333,19.666c5.667,5.334,12.667,7.667,21,7.667H421
	c8,0,14.333-2.667,19.667-7.667c5.333-5.333,7.666-11.666,7.666-19.666c0-8.334-2.666-15-7.666-20.334
	c-5.334-5.333-11.667-8-19.667-8H107.667c-8.333,0-15.333,2.667-21,8C81,686.667,78.333,693.333,78.333,701.667z M166,600
	c0,8,3,14.667,8.667,20c5.333,5.667,12,8.333,20,8.333h314c7.666,0,14.333-2.666,19.666-8.333c5.334-5.667,8-12.333,8-20
	s-2.666-14.333-7.666-19.667c-5-5.333-11.667-8-19.667-8H195c-8,0-14.667,2.667-20.333,8C169,585.667,166,592.333,166,600z
	 M200.667,522c0,3,2,4.667,6,4.667h47.667c3,0,5.333-1.667,7.333-4.667c7.667-18,19-33,34.667-45c15.667-12,33-18.667,52.667-20
	l18.333-2.333c4,0,6-2,6-5.667l2.334-17.333c3.666-36.333,19-66.667,46-90.667c27.333-24.333,59-36.333,95.666-36.333
	c36.334,0,68,12,94.667,36s42.333,54,47,90.333l2.667,19.333c0,3.667,2,5.667,6,5.667h53.666c30.334,0,56,10.667,77.334,32
	c21.333,21.333,32,47,32,77c0,29.333-10.667,55-32.334,76.333c-21.666,21.667-47,32.334-76.666,32.334H491.333
	c-3.666,0-5.666,2-5.666,5.666V724c0,3.667,2,5.667,5.666,5.667h230.334c30,0,57.666-7.334,83-22C830,693,850.333,673,865,647.667
	c14.667-25.334,22.333-53,22.333-83s-7.333-57.334-21.666-82.334c24-21.333,40.666-50,50.333-86l6-22.667
	c0.333-0.333,0.333-1,0.333-2.333c0-2.667-1.666-4.333-5-5.333l-20.666-7.333C882,354.333,869,348,858,339.667
	c-11.333-8.333-20-17.667-26.667-28C824.667,301.333,820,291,816.667,280.333c-3.334-10.667-5-21-5-31.667
	c0-8,1.333-17.667,3.666-29l4.334-20.333c1.333-3,0-5.667-4.334-7.667l-28-8.333C772.667,179.667,759,178,745.667,178
	c-12.667,0-25,1.333-37.667,4.333s-25.667,7.333-39.333,13.667C655,202,642,211,629.333,222.667c-12.666,11.667-23.666,25-33,40.667
	c-25.666-10.667-52.333-16-79-16c-47,0-88.666,14.667-125,44C356,320.667,333,358,323,404c-29,6.667-54.333,20.333-76,40.667
	c-21.667,20.666-37,45-45.333,73.666v1C201,519.667,200.667,520.667,200.667,522z M225,805c0,8,2.667,14.667,8.333,20
	c5.333,5.667,12,8.333,20,8.333h314.333c8,0,14.666-2.666,20.333-8.333s8.333-12.333,8.333-20s-2.666-14.333-8.333-19.667
	c-5.667-5.333-12.333-8-20.333-8H253.333c-8,0-14.667,2.667-20,8C227.667,790.667,225,797.333,225,805z M644.333,292.667
	c11.334-18.333,26.334-32.667,45-42.667c18.334-10,37.334-15,56.667-14.667c3.667,0,6.667,0,8.333,0.333v8
	c0,32.333,8.667,63.333,26.334,93c17.666,29.333,41.666,51.667,72.333,66C847.333,416,838.667,428,827.667,438.333
	C798.333,412,762.667,399,721,399h-10.667C702,359,680,323.667,644.333,292.667z"/>
</svg>
