<?xml version="1.0" encoding="utf-8"?>
<!-- Generator: Adobe Illustrator 16.0.3, SVG Export Plug-In . SVG Version: 6.00 Build 0)  -->
<!DOCTYPE svg PUBLIC "-//W3C//DTD SVG 1.1//EN" "http://www.w3.org/Graphics/SVG/1.1/DTD/svg11.dtd">
<svg version="1.1" id="Layer_1" xmlns="http://www.w3.org/2000/svg" xmlns:xlink="http://www.w3.org/1999/xlink" x="0px" y="0px"
	 width="1000px" height="1000px" viewBox="0 0 1000 1000" enable-background="new 0 0 1000 1000" xml:space="preserve">
<path fill="#0E70A0" d="M137,567.333c0,37.667,11,71,33.333,100.334c22.333,29.333,51.333,49.333,87.333,60
	c3.333,0.333,6-0.334,8.333-2.667l37.667-48.667c-29.667,0-55.333-10.666-77-32c-21.667-21.333-32.333-47-32.333-77
	c0-28.666,9.667-53.666,28.667-74.666s43-32.667,71.333-35l17.333-2.334c3.666,0,5.333-1.666,5.333-4.666L319.333,432
	c4-36.667,19.667-67.333,47-92c27.334-24.667,59.334-37,96-37c37,0,69.334,12.333,97,36.667C587,364,602.667,394.333,606,431
	l2.333,19.667c0.667,3.666,3,5.666,7,5.666h54.334c30,0,55.666,11,77.333,32.667c21.667,22,32.667,48,32.667,78.333
	c0,28-9.334,52.667-28.334,73.667s-42.333,32.667-70,35.333c-16,0-26,3-30.333,9.334l-72.667,80c-5.333,6-7.333,13-6.333,20.666
	c1,7.667,4.333,15,10.333,21c4.333,5.667,11,8.334,19.667,7.667s15.333-5,20-12.667l66-69c27.333-2.666,52.667-11.666,76-27.333
	c23-15.667,41.333-35.667,55-60s20-50.667,20-78.667c0-21-4.667-44-14.333-69.333C850.333,465.333,863,428.667,863,387.333
	c0-32.667-8-62.333-23.667-89.667c-16-27.333-37.333-48.667-64.666-64.333c-27.334-15.667-57-23.333-89.334-23.333
	c-52.333,0-95.666,19-130,57c-29-14.333-59.666-21.667-92.333-21.667c-47.667,0-90,14.667-126.333,44.333
	c-36.333,29.667-60,67.667-70.333,114.333c-38,8.667-69,28-93,58.333C149.333,492.667,137,527.667,137,567.333z M263.667,817.333
	c0,4.667,0.667,8.334,1.667,10.667C268,835,273,840,280,842.667c7.667,3.333,15,3.666,22.667,0.666c7.667-2.666,12.667-8,15-15
	C321,821,321.333,813.667,318.333,806s-8-12.667-15.333-15.333c-7.667-2.667-14.667-2.667-22,0c-7,2.666-12.333,7.666-15.667,15
	C264.333,808.333,263.667,812.333,263.667,817.333z M325,736c0,7.667,3.667,15,10.667,22.333c14.333,12,28,10.334,42-5l73-81.333
	c5-5.667,7-12.667,6-20.333c-1-7.667-4.334-14-10.334-19c-6-4.667-13-6.334-21-5.334S411,631.667,405.667,637l-73.334,79.333
	C327.333,723.333,325,730,325,736z M346.333,900.333c0,4,1,7.667,2.667,10.667c3,7.667,7.333,12.667,13.667,15.333
	c4,1.667,8,2.334,12.333,2.334c2.333,0,6-0.667,10.667-2c7-3,12-8,14.666-15C403.667,905,404,898,401,890.333
	c-2.667-7.666-7.667-12.666-15-15.333c-7.333-3.667-14.667-4-22-1c-7,3-12.667,8.333-16.333,16
	C347,893.333,346.333,896.667,346.333,900.333z M402,820.667V825c0.667,8,4,14.667,10.667,20c4.666,6,11.333,8.667,20,8
	c8.333-0.667,15-5,20-12.667l140.666-163.666c5.334-6,7.334-13,6.667-21.334c-0.667-8-4.667-14.333-11.667-19
	c-5.666-4.666-12.666-7-20-6.333c-7.666,0.667-14,4-19.333,10L408.333,804C404,808.333,402,813.667,402,820.667z M523,848.333
	c-2.333,7.667-2.333,14.334,0,20.667c3,7.333,8,12.667,15,16.333c3.667,1.667,7.667,2.334,12,2.334c2,0,5.333-0.667,10-2
	c7.667-3,12.667-8,15.333-15.334c3.334-7.666,3.667-14.666,1-22c-2.666-7-7.666-12-14.666-14.666c-7.667-3.667-15-4-22-1
	C532.333,835.667,526.667,841,523,848.333z M603,301c22.667-22.667,50.333-34,82.667-34c33.666,0,62,11.667,85.333,35
	s35,52,35,85.333c0,20.667-5.667,41-17.333,60.667c-32.334-32.667-72-48.667-118.334-48.667H660
	C651.667,361.333,632.667,328.667,603,301z"/>
</svg>
