<?xml version="1.0" encoding="utf-8"?>
<!-- Generator: Adobe Illustrator 16.0.3, SVG Export Plug-In . SVG Version: 6.00 Build 0)  -->
<!DOCTYPE svg PUBLIC "-//W3C//DTD SVG 1.1//EN" "http://www.w3.org/Graphics/SVG/1.1/DTD/svg11.dtd">
<svg version="1.1" id="Layer_1" xmlns="http://www.w3.org/2000/svg" xmlns:xlink="http://www.w3.org/1999/xlink" x="0px" y="0px"
	 width="1000px" height="1000px" viewBox="0 0 1000 1000" enable-background="new 0 0 1000 1000" xml:space="preserve">
<path fill="#0E70A0" d="M142,564.333c0,22,4,42.667,12.667,62.667c8.667,20,19.667,37,34,51.667C203,693,220,705,239.667,713.667
	c19.667,8.666,40.333,14,62.333,15c3.667,0,5.667-2,5.667-5.667v-44.667c0-3.666-2-5.666-5.667-5.666c-29-2-53.333-13.667-73-34.334
	c-19.667-20.666-29.667-45.666-29.667-74c0-28,9.333-52.333,28.333-73c19-20.666,42-32.333,70-34.666l17.667-2
	c4.334,0,6.667-2,6.667-6.334l2-17C327.667,395,342.667,365,369.667,341s58.666-36,95.333-36c36.333,0,68.333,12,95,35.667
	c27,24,42.333,53.667,46,89.667l2.333,19.334c0,4,2,6,6.334,6H668c30,0,55.667,10.666,77.333,32
	C767,509,777.667,534.333,777.667,564c0,28.667-10,53.333-29.667,74s-44.333,32.333-73,34.333c-4.333,0-6.667,2-6.667,5.667v44.667
	c0,3.666,2.334,5.666,6.667,5.666c44.667-2,82.333-19,113-50.333c30.667-31.667,46-69.667,46-114c0-24-4.667-46-14-66.333
	c26-31.334,39-68.667,39-112c0-31.333-7.667-60.333-23.334-87.333c-15.666-27-37-48.333-63.666-64
	c-26.667-15.667-56-23.667-87.333-23.667c-52,0-95,19.333-129.334,57.667C526,254,496,246.667,465.333,246.667
	c-47,0-88.666,14.667-125,44c-36.333,29.333-59.667,66.667-70,112.667c-36.667,8.667-67,27.667-91,57.667
	C154,492,142,526,142,564.333z M325,787c0,13.333,7.333,22,21.667,26c7,2.333,14,1.667,21-2s11.666-9.333,13.666-16.667l50-191
	c2-7.333,1-14.333-3-21c-4-6.666-10-11-18-13.333c-7.333-2.333-14.333-1.667-21,2.333c-6.666,4-11,9.667-13,17.334l-50,190
	C325.333,782.333,325,785,325,787z M411.333,888.667c0,4,1,8,2.667,12.333c3.333,7,9,11.667,17,14.333c0.667,0,2,0,3.333,0.334
	C435.667,916,437,916,438,916s2,0,3,0c14.333,0,22.667-7.333,25.333-22L543,602.667c2.333-7.334,1.667-14.334-2-21
	c-3.667-6.667-9.333-11-16.667-13.334c-8-2.333-15.666-1.666-22.666,2.334s-11,9.666-12.667,17.333l-77,291.667
	C411.667,883,411.333,886,411.333,888.667z M550,786.667c0,5.333,1.667,10.333,5.333,15.666C559,807.667,564,811,570.333,813
	c2,0.667,4.667,1,7.667,1c5.667,0,11-1.667,16.333-4.667c5.334-3,8.667-8,10.667-15l50-191c2.667-7,1.667-13.666-2.333-20.666
	S643,571.333,635.333,569c-8-2.333-15.333-1.667-22,2.333c-6.666,4-10.666,9.667-12,17.334l-50,190
	C550.333,782.333,550,785,550,786.667z M601,302.667c22.333-22.333,49.667-33.333,82.667-33.333c32.666,0,60.333,11.333,83,34
	C789.667,326,801,353.667,801,386c0,21-5.667,41.333-17.333,61.667C752,416,713.333,400,667.333,400H657
	C647.667,361,629,328.667,601,302.667z"/>
</svg>
