<?xml version="1.0" encoding="utf-8"?>
<!-- Generator: Adobe Illustrator 16.0.3, SVG Export Plug-In . SVG Version: 6.00 Build 0)  -->
<!DOCTYPE svg PUBLIC "-//W3C//DTD SVG 1.1//EN" "http://www.w3.org/Graphics/SVG/1.1/DTD/svg11.dtd">
<svg version="1.1" id="Layer_1" xmlns="http://www.w3.org/2000/svg" xmlns:xlink="http://www.w3.org/1999/xlink" x="0px" y="0px"
	 width="1000px" height="1000px" viewBox="0 0 1000 1000" enable-background="new 0 0 1000 1000" xml:space="preserve">
<path fill="#0E70A0" d="M135.667,564.333c0,44.334,15.667,82.334,46.667,114.334s69,49,113.333,50.333c4,0,6-2,6-5.667v-44.666
	c0-3.667-2-5.667-6-5.667C267.333,671.667,243,660,223,638.667c-20.333-21.334-30.333-46.334-30.333-74.667S202,511.333,221,490.667
	c19-20.667,42.333-32,70-34.334L308.667,454c4.333,0,6.666-2,6.666-5.667L317.667,431c3.666-36.333,18.666-67,45.666-91.667
	c27-24.667,58.667-37,95.334-37c36.333,0,68,12.333,95.333,36.667s42.667,54.667,46.667,90.667l2.666,19c0,4,2,6,5.667,6h54
	c30.333,0,56,10.666,77.667,32.333C762.333,508.333,773,534,773,564c0,28.333-10,53.333-30.333,74.667
	C722.333,660,698.333,671.333,670,673c-4.667,0-7,2-7,5.667v44.666c0,3.667,2.333,5.667,7,5.667
	c29.333-0.667,56-8.667,80.333-23.667c24.334-15,43.667-35,57.667-60s21-52,21-81c0-30.333-7.333-58-21.667-82.666
	c24.667-22,41.334-50.667,50.667-86l5.667-24c0.333-0.333,0.666-1.333,0.666-2.667c0-2.333-1.666-4.333-5.333-5.333L838.667,358
	c-14.667-4.333-27.667-10.667-39-19c-11.334-8.333-20.334-17.667-27-28C766,300.667,761.333,290.333,758,279.333
	c-3.333-10.667-5-21.333-5-31.667c0-9,1-18.667,3.333-28.667L760,198.333c0.667-3-0.667-5.667-4.667-7.333l-26.666-8
	c-14.667-3.667-28.334-5.333-41.667-5.333c-12.333,0-24.667,1.333-37.333,4.333C637,185,624,189.333,610.333,195.667
	c-13.666,6.333-26.666,15-39.333,26.667s-23.667,25-33,40.667c-27-11-53.333-16.667-79.333-16.667c-47,0-89,14.667-125.334,44
	C297,319.667,273.333,357,263,402.667c-37.333,9.333-68,29-91.667,58.667C147.667,491.333,135.667,525.667,135.667,564.333z
	 M348.667,700.667c0,8,2.666,14.666,8,20C362,726.333,368.333,729,376.333,729s14.667-2.667,20-8.333c5.334-5.667,8-12.334,8-20
	c0-7.334-2.666-14-8-19.334c-5.333-5.333-12-8-20-8c-7.666,0-14.333,2.667-19.666,8C351.333,686.667,348.667,693,348.667,700.667z
	 M348.667,822c0,7.667,2.666,14,8,19.333c5.333,5.334,12,8,19.333,8c8,0,14.667-2.666,20-7.666c5.333-5.334,8-11.667,8-19.667
	s-2.667-14.333-8-19.667c-5.333-5.333-12-7.666-20-7.666s-14.333,2.666-19.667,7.666C351.333,807.333,348.667,814,348.667,822z
	 M455.333,765.333c0,8,2.667,14.667,8,19.667c5.334,5.333,12,8,19.334,8c8,0,14.666-2.667,20.333-8s8.333-12,8.333-19.667
	c0-8-2.666-14.666-8.333-20.333s-12.333-8.667-20.333-8.667c-7.334,0-13.667,3-19.334,8.667
	C457.667,750.667,455.333,757.333,455.333,765.333z M455.333,644c0,8,2.667,14.333,8,19.333c5.334,5.334,12,8,19.334,8
	c8,0,15-2.666,20.333-7.666S511.333,652,511.333,644c0-7.667-2.666-14.333-8.333-20s-12.333-8.333-20.333-8.333
	c-7.334,0-14,2.666-19.334,8.333C458,629.667,455.333,636.333,455.333,644z M455.333,887.667c0,7.333,2.667,13.666,8,19
	c5.667,5.666,12,8.333,19.334,8.333c8,0,14.666-2.667,20.333-8s8.333-11.667,8.333-19.667S508.667,872.667,503,867
	s-12.333-8.667-20.333-8.667c-7.334,0-13.667,3-19.334,8.667C458.333,873,455.333,880,455.333,887.667z M563.333,700.667
	c0,8,2.667,14.666,8.334,20c5.666,5.333,12,8.333,20,8.333s14.333-2.667,19.666-8.333c5.334-5.667,8-12.334,8-20
	c0-7.334-2.666-14-8-19.334c-5.333-5.333-11.666-8-19.666-8s-14.334,2.667-20,8C566,686.667,563.333,693,563.333,700.667z
	 M563.333,822c0,7.667,2.667,14,8,19.333c5.334,5.334,12,8,20,8s14.334-2.666,19.667-8c5.333-5.333,7.667-11.666,7.667-19.666
	S616,807.333,611,802c-5.333-5.333-11.667-7.667-19.667-7.667s-14.666,2.667-20,7.667C566,807.333,563.333,814,563.333,822z
	 M586,292.333c10.333-18,25-32,43.333-42c18.334-10,37.334-15,57-15.333c5,0,8.667,0.333,11,0.667V246
	c0,32.333,8.667,62.667,26,91.333C740.667,366,765,387.667,795.667,402.667c-5.334,12-13.667,24-25.334,35.666
	C740.667,412,705,399,662.667,399h-10.334C643.333,358,621.333,322.667,586,292.333z"/>
</svg>
