<?xml version="1.0" encoding="utf-8"?>
<!-- Generator: Adobe Illustrator 16.0.3, SVG Export Plug-In . SVG Version: 6.00 Build 0)  -->
<!DOCTYPE svg PUBLIC "-//W3C//DTD SVG 1.1//EN" "http://www.w3.org/Graphics/SVG/1.1/DTD/svg11.dtd">
<svg version="1.1" id="Layer_1" xmlns="http://www.w3.org/2000/svg" xmlns:xlink="http://www.w3.org/1999/xlink" x="0px" y="0px"
	 width="1000px" height="1000px" viewBox="0 0 1000 1000" enable-background="new 0 0 1000 1000" xml:space="preserve">
<path fill="#0E70A0" d="M136.333,563c0,37,11,70,33,99s50.667,49,86,59.667l-21.667,56.666c-1.333,4.667,0,7,4.667,7H309
	l-43,139.334h9.333l141-187.334c1.334-1.333,1.334-3,0.667-4.666c-1-1.667-2.333-2.334-4.667-2.334h-72.666L422,575.667
	c2.333-4.667,1-7.334-4.333-7.334H319c-3,0-5.333,1.667-7.333,5l-35.667,96c-23.667-6-43.333-19-59.333-39S193,588,193,563.333
	c0-27.666,9.333-51.666,28.333-72.333c19-20.333,42.333-32.333,70-35.667L309,453c4.333,0,6.667-2,6.667-6L318,430
	c3.667-36,18.667-66.333,45.667-90.667c27-24.333,58.666-36.667,95-36.667c36.333,0,68,12.333,95.333,36.667
	c27.333,24.333,42.667,54.667,46.667,90.333l2.333,19c0,4,2,6.333,5.667,6.333h54c30.333,0,56,10.667,77.666,31.667
	c21.667,21,32.334,46.666,32.334,76c0,28.333-10,53-30,73.666c-20,20.667-44.334,32.334-73.334,34.334c-4,0-6.333,2-6.333,6.333
	v45.333c0,4,2,6,6.333,6c44.334-1.333,82-18.333,113-50.333c31-32.333,46.334-70.667,46.334-115c0-29-7.334-56-22-81.667
	C832,456.667,849,427.667,857,394l6.333-22.667c0.334-0.333,0.334-1,0.334-2.333c0-2.667-1.667-4.333-5-5.333L838,358
	c-19-5.667-35.333-15-48.667-28C776,317,766.667,303.333,761,289.333s-8.333-28-8-42c0-9.333,1-18.667,3.333-28.333L760,198.667
	c0.667-3.333-0.667-6-4.667-7.667l-26.666-8c-15.667-3-29.334-4.667-41.334-4.667c-12.333-0.333-25,1-37.666,4
	C637,185,623.667,189.667,610,195.667s-26.667,15-39.333,26.333c-12.667,11.333-23.667,24.667-33,40
	c-27.667-10.333-54-15.333-78.667-15.333c-47,0-89,14.667-125.333,44c-36.333,29.333-60,66.667-70.333,112
	c-37,8.666-67.333,28-91.333,58C148.333,490.333,136.333,524.667,136.333,563z M399,903.333c0,5.667,1.667,11,5.333,16.334
	c3.667,5.333,9,9,16.334,11c3,0.666,5.666,1,8,1c14.333,0,23.333-6.667,26.666-20.334l4.334-19.666c2-8.667,1-16-2.667-22.667
	c-4-6.667-9.667-10.667-17.667-12.333c-7-2.334-14-1.667-21,2.333s-11.333,9.667-13.666,17l-4.334,19.667
	C399.333,899.667,399,902.333,399,903.333z M425.333,806.667c0,7.666,2.667,14,8,19.333c5.334,5.333,12,8,19.334,8
	c8,0,14.333-2.667,19.666-7.667C477.667,821,480,814.667,480,806.667c0-7.667-2.667-14-7.667-19.334
	c-5.333-5.333-11.666-7.666-19.666-7.666s-14.334,2.666-19.667,7.666C428,792.333,425.333,799,425.333,806.667z M446,731
	c-0.333,5,1,10.333,4.667,15.667c3.333,5.333,8.333,8.666,15,10c7.666,2,14.666,1.333,21.333-2c6.667-3.334,11-9.667,13.667-18.667
	l8.666-30c2.334-7.333,1.667-14.333-2.333-21s-9.667-11-17.667-13.333C482,669.333,475,670.333,468,674.333
	s-11.333,10-13.667,17.667l-7.666,30C446.333,724.667,446,727.667,446,731z M538,802.667c0,5.666,1.667,11,5,16
	s8.333,8.666,15.333,10.666c1,0,2.667,0.334,4.667,0.667s3.667,0.667,4.667,0.667c13.666,0,22-7.334,25.333-22l4.667-20
	c2.333-7,1.666-14-2.334-21s-9.666-11.334-17-13.667c-8.333-2-16-1.333-22.666,2.667c-6.667,4-11.334,9.666-13.667,17.666L539,794
	c0,0.333,0,1.667-0.333,3.667C538.333,800,538,801.333,538,802.667z M562.667,704c0,7.667,2.666,14,8,19c5,5.333,11.333,8,19.333,8
	s14.333-2.667,19.667-7.667C615,718,617.333,711.667,617.333,704c0-8-2.666-14.333-7.666-19.667
	C604.333,679,598,676.667,590,676.667s-14.333,2.666-19.667,7.666C565,689.333,562.667,696,562.667,704z M586.333,292.333
	c11-18.667,26-33,44.667-43s38.333-15,58.667-15H697V245c0,21.333,3.667,42,11.333,62c7.667,20,18.667,38.333,34,55.333
	c15,17,33,30.333,53.667,40.333c-5.667,12.666-14,24-25.333,34.333c-30.334-26-66-39-107.334-39h-11
	C642.667,356,620.667,320.667,586.333,292.333z"/>
</svg>
