<?xml version="1.0" encoding="utf-8"?>
<!-- Generator: Adobe Illustrator 16.0.3, SVG Export Plug-In . SVG Version: 6.00 Build 0)  -->
<!DOCTYPE svg PUBLIC "-//W3C//DTD SVG 1.1//EN" "http://www.w3.org/Graphics/SVG/1.1/DTD/svg11.dtd">
<svg version="1.1" id="Layer_1" xmlns="http://www.w3.org/2000/svg" xmlns:xlink="http://www.w3.org/1999/xlink" x="0px" y="0px"
	 width="1000px" height="1000px" viewBox="0 0 1000 1000" enable-background="new 0 0 1000 1000" xml:space="preserve">
<path fill="#0E70A0" d="M141,562.667c0,37.333,11,70.666,33.333,100c22.333,29.333,51,49,86,58.666l-22,56.667
	c-1.667,4.667,0,7.333,4.667,7.333h71l-47.333,140.334h9.667L421.667,737c1.333-1.333,1.333-3,0.666-4.667
	C421.667,730.667,420,730,417.667,730h-73l83-155c2.333-4.667,1-7.333-4.667-7.333h-99c-3,0-5.667,1.666-7.667,5l-35.667,96
	c-24-6-43.667-18.667-59.333-38.667C205.667,610.333,198,588,198,562.667c0-28,9.333-52.334,28-72.667s42.333-32.333,70.333-35.667
	l17-1c4,0,6.334-1.666,7.334-4.666L323.333,429C327,393,342,362.667,369,338.333c27-24.333,58.667-36.667,95.333-36.667
	c36.334,0,68,12.333,95.334,36.667C587,362.667,602.667,393,606.333,429L609,448.667c0,3.666,2,5.666,6,5.666h53.667
	c29.666,0,55.333,10.667,77,32C767.333,507.667,778,533,778,562.667c0,29-10,54-30,75.333s-44,32.667-72.667,34.333
	c-4.333,0-6.666,2-6.666,6V723c0,3.667,2.333,5.667,6.666,5.667c29.334-0.667,56.334-8.667,80.667-24
	c24.333-15,43.667-35.334,58-60.334s21.333-52.333,21.333-81.666c0-24.334-4.666-46.667-14.333-67.334
	c25.333-32,38-68.666,38-109.667c0-31.667-8-61-23.667-88c-15.666-27-37-48.333-64-64C744.333,218,715,210,683.333,210
	c-24,0-47.333,5-70,15c-22.666,10-42,24-58.666,41.667c-27-14.333-57-21.667-90.667-21.667c-47.333,0-89.333,14.667-125.667,44
	c-36.333,29.333-60,66.667-70,112.333c-37,8.667-67.333,28-91.333,58C153,490,141,524.333,141,562.667z M460.667,765.333
	c0,8,2.666,14.667,8,19.667c5.333,5.333,12,8,19.333,8c8,0,14.667-2.667,20.333-8c5.667-5.333,8.334-12,8.334-19.667
	c0-8-2.667-14.666-8.334-20.333c-5.666-5.667-12.333-8.667-20.333-8.667c-7.333,0-13.667,3-19.333,8.667
	C463,750.667,460.667,757.333,460.667,765.333z M460.667,644c0,8,2.666,14.333,8,19.333c5.333,5.334,12,8,19.333,8
	c8,0,15-2.666,20.333-7.666c5.334-5,8.334-11.667,8.334-19.667c0-7.667-2.667-14.333-8.334-20
	c-5.666-5.667-12.333-8.333-20.333-8.333c-7.667,0-14,2.666-19.333,8.333C463.333,629.667,460.667,636.333,460.667,644z
	 M460.667,887.667c0,7.333,2.666,13.666,8,19c5.666,5.666,12,8.333,19.333,8.333c8,0,14.667-2.667,20.333-8
	c5.667-5.333,8.334-11.667,8.334-19.667S514,872.667,508.333,867c-5.666-5.667-12.333-8.667-20.333-8.667
	c-7.333,0-13.667,3-19.333,8.667C463.333,873,460.667,880,460.667,887.667z M568.333,700.667c0,8,2.667,14.666,8.334,20
	c5.666,5.333,12,8.333,20,8.333c7.666,0,14.333-2.667,19.666-8.333c5.334-5.667,8-12.334,8-20c0-7.334-2.666-14-8-19.334
	c-5.333-5.333-11.666-8-19.666-8c-7.667,0-14.334,2.667-20,8C571,686.667,568.333,693,568.333,700.667z M568.333,822
	c0,7.667,2.667,14,8,19.333c5.334,5.334,12,8,20,8s14.334-2.666,19.667-8c5.333-5.333,7.667-11.666,7.667-19.666
	S621,807.333,616,802c-5.333-5.333-11.667-7.667-19.667-7.667s-14.666,2.667-20,7.667C571,807.333,568.333,814,568.333,822z
	 M602,300.667c22.333-21.333,49.333-32.333,81.667-32.333c32.666,0,60.666,11.333,83.666,34.333
	C790.333,325.333,802,353.333,802,386c0,22-5.333,42-15.667,60.333c-32-32-71-48-117.333-48h-10.333
	C648.667,358.667,629.667,326,602,300.667z"/>
</svg>
