<?xml version="1.0" encoding="utf-8"?>
<!-- Generator: Adobe Illustrator 16.0.3, SVG Export Plug-In . SVG Version: 6.00 Build 0)  -->
<!DOCTYPE svg PUBLIC "-//W3C//DTD SVG 1.1//EN" "http://www.w3.org/Graphics/SVG/1.1/DTD/svg11.dtd">
<svg version="1.1" id="Layer_1" xmlns="http://www.w3.org/2000/svg" xmlns:xlink="http://www.w3.org/1999/xlink" x="0px" y="0px"
	 width="1000px" height="1000px" viewBox="0 0 1000 1000" enable-background="new 0 0 1000 1000" xml:space="preserve">
<path fill="#0E70A0" d="M263.667,482.667c0-32,6.333-62.334,18.667-91.667c12.333-29.333,29.333-54.333,50.333-75.333
	s46.333-38,75.666-50.667c29.334-12.667,60-19,91.667-19h38c5.333,1.333,7.667,4.667,7.667,9.333l1.666,29.333
	C548.667,327,563.667,363,593,392.667S657.667,438.333,699.333,440l27.334,2.333c5.333,0,8,2.667,8,7.667v32.667
	c0.333,42.666-10,82.333-31,118.666c-21,36.334-49.334,65-85.667,86.334c-36,21-75.667,31.666-118.333,31.666
	c-32.334,0-63.334-6.333-92.667-18.666c-29.333-12.334-54.333-29.334-75.333-50.334S294,604,281.667,575
	C270,545.667,263.667,515,263.667,482.667z M324.667,482.667c0,25.333,5,49.333,15,72C349.667,577,363,596,379.333,611.333
	c16.334,15.334,35,27.334,56.334,36c21,9,42.666,13.334,64.666,13.334c19.334,0,39-3.667,58.667-11.334
	c19.667-7.666,38-18.333,55-32c17-13.666,31.333-31,43.667-52.333c12.333-21.333,20-44.333,23.666-69.667
	c-54.333-11.333-98-34.666-130.666-70C518,390,499,348.667,494,300.667c-32,2-60.667,11.667-87,29.333
	c-26,17.667-46.333,40-60.667,67.333C332,424.667,324.667,453,324.667,482.667z"/>
</svg>
