<?xml version="1.0" encoding="utf-8"?>
<!-- Generator: Adobe Illustrator 16.0.3, SVG Export Plug-In . SVG Version: 6.00 Build 0)  -->
<!DOCTYPE svg PUBLIC "-//W3C//DTD SVG 1.1//EN" "http://www.w3.org/Graphics/SVG/1.1/DTD/svg11.dtd">
<svg version="1.1" id="Layer_1" xmlns="http://www.w3.org/2000/svg" xmlns:xlink="http://www.w3.org/1999/xlink" x="0px" y="0px"
	 width="1000px" height="1000px" viewBox="0 0 1000 1000" enable-background="new 0 0 1000 1000" xml:space="preserve">
<path fill="#0E70A0" d="M139.667,563.667c0,29,7,56,21.333,81c14,25,33.667,45,58,60c24.333,15.333,51.333,23.333,81,24
	c4,0,6.333-2,6.333-5.667v-44.667c0-4-2-6-6.333-6c-28.667-1.333-53-13-73-34.333s-30.333-46.333-30.333-74.667
	c0-28.333,9.333-53,28.333-73.666C244,469,267.333,457.333,295.333,455l17.333-2.333c4.333,0,6.666-2,6.666-5.667l2.334-17.333
	c3.666-36.667,19-67.333,46-92c27-24.667,59-37,95.666-37c36.334,0,68,12.333,95.334,36.667c27.333,24.333,42.666,55,46.666,91
	L608,447.667c0,3.666,2,5.666,6,5.666h54c30,0,55.667,10.667,77.333,32.334C767,507.333,777.667,533,777.667,563
	c0,28.333-10,53.333-30.334,74.667C727,659,703,670.333,674.667,672c-4.334,0-6.667,2-6.667,6v44.667
	c0,3.666,2.333,5.666,6.667,5.666c29.333-0.666,56.333-8.666,80.666-24c24.334-15,43.667-35,57.667-60s21-52,21-81
	c0-24.333-4.667-46.666-14-67.333c27-33,40.333-70.667,40.333-112.333c0-32-8-61.333-23.666-88.333c-15.667-27-37-48.333-64-64
	s-56.334-23.667-88-23.667C660,207.667,636,212.667,613,223c-22.667,11.333-42.333,25.333-59,43.667
	C524.667,252.333,494.667,245,463.667,245c-47.334,0-89.334,14.667-126,44C301,318.333,277.333,355.667,267,401.333
	c-37.333,9.667-68,29.334-92,59.334C151.333,490.667,139.667,525,139.667,563.667z M317.333,799.333c0,5.667,1.667,11.334,5.334,17
	c3.666,5.667,9,9.334,15.666,11.667c7.667,2.333,14.667,2,21.334-1.333c6.333-3,10.666-9.334,13-18.667l4.666-20.333
	c1.667-7.667,0.667-14.667-3-21c-3.666-6.667-9.333-11-17.333-13.334C349.667,751,342.333,752,335.667,756
	c-6.667,4-11.334,10-13.334,17.667l-4.666,19.666C317.667,794.333,317.333,796.333,317.333,799.333z M342.667,702.667
	c0,7,2.666,13.333,8.333,19c5.333,5.666,11.333,8.333,18.667,8.333c8,0,14.666-2.667,20-8c5.333-5.333,8-11.667,8-19.667
	c0-7.666-2.667-14.333-8-19.666c-5.334-5.334-12-8-20-8c-7.667,0-14,2.666-19.334,7.666
	C345.333,688.333,342.667,695,342.667,702.667z M363,627c-0.333,5.333,1,10.333,4.667,15c3.333,5,8.666,8.333,16,10.667
	c7,2,13.666,1.333,20.666-2.334c7-3.666,11.334-9.333,13.667-17l9.333-30c2.334-8,1.667-15.333-2.333-21.666
	c-4-6.334-10-10.667-18-13c-7.333-2.334-14.333-1.667-21,2.333c-6.667,3.667-11.333,9.333-13.667,16.667l-8,30.666
	c0,0.667-0.333,2-0.666,4C363.333,624,363,625.667,363,627z M401.667,903.333c0,6,1.666,11.334,5,16.667c3.333,5.333,8.666,9,16,11
	c2.666,0.667,5.666,1,8.333,1c14.333,0,23-6.667,26.333-20.333L462,892c2-8.667,1-16-2.667-22.667
	c-3.666-6.666-9.666-10.666-17.333-12.333c-7-2.333-14-1.667-21,2.333s-11.333,9.667-13.667,17L402.667,896
	C402,899,401.667,901.333,401.667,903.333z M427.667,806.667c0,7.333,2.666,13.666,8.333,19.333c5.333,5.333,11.667,8,19,8
	c8,0,14.333-2.667,19.667-7.667c5.333-5.333,7.666-11.666,7.666-19.666c0-7.667-2.666-14-7.666-19.334
	C469.333,782,463,779.667,455,779.667s-14.333,2.666-19.667,7.666C430.333,792.333,427.667,799,427.667,806.667z M448.667,731
	c-0.334,5,1,10.333,4.333,15.667c3.333,5.333,8.333,8.666,15,10c7.667,2,14.667,1.333,21.333-2C496,751.333,500.333,745,503,736
	l9-30c2.333-7.333,1.667-14.333-2.333-21S500,674,492,671.667c-7.333-2.334-14.333-1.334-21.333,2.666S459.333,684.333,457,692
	l-7.667,30C449,724.667,448.667,727.667,448.667,731z M540.333,802.667c0,5.333,1.667,10.666,5,16c3.334,5.333,8.667,9,15.334,11
	c1,0,2.666,0.333,4.666,0.666c2,0.334,3.334,0.667,4.667,0.667c13.667,0,22-7.333,25.333-22L600,789c2.333-7,1.666-14-2.333-21
	c-3.667-7-9.334-11.333-17-13.667c-8.334-2-16-1.333-22.667,2.667s-11.333,9.667-13.667,17.667l-3,19.666
	c0,0.667-0.333,2.334-0.667,4C540.333,800,540.333,801.333,540.333,802.667z M565,704c0,7.333,2.667,14,8.333,19
	c5,5.333,11.334,8,19,8c8,0,14.334-2.667,19.667-7.667c5.333-5.333,7.667-11.666,7.667-19.333c0-8-2.667-14.333-7.667-19.667
	c-5.333-5.333-11.667-7.666-19.667-7.666s-14.333,2.666-19.666,7.666C567.333,689.333,565,696,565,704z M585.333,627
	c0,5.667,1.667,11,5.334,16c3.666,5,9,8.667,16.333,10.667c0.667,0,2,0.333,4,0.666c2,0.334,3.667,0.667,4.667,0.667
	c3.333,0,7.333-1,12-3c7-3.667,11.666-9.667,13.666-17.333l8-30c2-7.667,1.334-14.667-2.333-21c-3.667-6.667-9.333-11-17-13.334
	c-7.667-2.333-14.667-1.666-21.333,2c-6.334,3.667-10.667,9-13,17l-9.334,30.334c0,0.666-0.333,2-0.666,4
	C585.667,624.667,585.333,626,585.333,627z M601,300.333c23-23,51-34.667,83.667-34.667c32.666,0,60.666,11.667,83.666,35
	C791.333,324,803,352,803,384.667c0,22.333-5.667,42.667-17,61.667c-32-32-71.333-48-118-48h-10.667
	C648,359,629.333,326.333,601,300.333z"/>
</svg>
