<?xml version="1.0" encoding="utf-8"?>
<!-- Generator: Adobe Illustrator 16.0.3, SVG Export Plug-In . SVG Version: 6.00 Build 0)  -->
<!DOCTYPE svg PUBLIC "-//W3C//DTD SVG 1.1//EN" "http://www.w3.org/Graphics/SVG/1.1/DTD/svg11.dtd">
<svg version="1.1" id="Layer_1" xmlns="http://www.w3.org/2000/svg" xmlns:xlink="http://www.w3.org/1999/xlink" x="0px" y="0px"
	 width="1000px" height="1000px" viewBox="0 0 1000 1000" enable-background="new 0 0 1000 1000" xml:space="preserve">
<path fill="#0E70A0" d="M154.667,563.667c0-38.334,12-72.334,36-102.334s54.333-49,91-57.666c10.333-45.333,34-82.667,70.333-112
	C388.333,262.333,430,248,477,248c46,0,86.667,14.333,122.667,42.667c36,28.333,59.333,65,70,109.667h10.666
	c29.667,0,57.334,7.334,82.667,21.667s45.667,34.333,60.333,59.333c14.667,25,22.334,52.667,22.334,82.334
	c0,29.333-7,56.333-21,81.333S791.333,690,767,705s-51,23-80,23.667c-4.333,0-6.667-2-6.667-5.667v-44.333c0-4,2.334-6,6.667-6
	c28.333-1.334,52.667-12.667,72.667-34c20-21.334,30-46.334,30-75.334s-11-54-32.667-75.333s-47.333-32-77-32h-53.667
	c-4,0-6-2-6-5.667L617.667,431c-3.667-36-19.334-66.333-46.334-90.333c-27.333-24.333-58.666-36.333-95-36.333
	c-36.333,0-68.333,12-95,36.333C354.333,365,339.333,395,336,431l-2.333,17.667c0,4-2.334,6.333-6.667,6.333l-17.667,1
	c-27.666,3.333-51,15.333-70,35.667C220.333,512,211,536,211,563.666c0,29.001,10,54.001,30,75.334s44.333,32.666,72.667,34
	c3.666,0,5.666,2,5.666,6v44.333c0,3.667-2,5.667-5.666,5.667c-44.667-2-82.333-19-113.333-51S154.667,608,154.667,563.667z
	 M333,786.667c0-1.334,0.333-3.667,1.333-6.667l54.334-192.333c2-6.334,5.666-11.334,10.666-14.667s10.334-5,15.334-5
	c2.333,0,5,0.333,8,1c8,1.333,14,5.667,18,12.333c4,6.667,5,14,2.666,22.334l-54.333,191C385,809,375.667,816,361.667,816
	c-1.334,0-2.334-0.333-3.667-0.667c-2-0.666-3-1-3.333-1c-7.334-2-12.667-5.666-16.334-11C334.667,797.667,333,792.333,333,786.667z
	 M420.333,880.333L501.667,588c1.333-6.333,4.666-11.333,10-14.667c5.333-3.333,10.666-5,16.333-5c3,0,6,0.334,9,1
	c7.333,2,12.667,6.334,16.333,13C557,589,557.667,596,555.667,603.667l-81,292.666c-1.334,5.667-4.334,10.334-9.667,14.334
	s-10.667,6-17,6c-3,0-6-0.667-8.333-1.667c-6.667-1.667-12.334-6-17.334-13C418.667,896,418,889,420.333,880.333z M558,787.333
	c0-1.333,0.333-3.666,1.333-7.666l54.334-192.334c2-6.333,5.333-11.333,10-14.666c5-3.334,10-5,15.333-5
	c2.667,0,5.667,0.333,8.667,1c7,2,12,5.333,15.333,10.333s5,10.333,5,15.667c0,1-0.333,2.666-0.667,4.666
	c-0.333,2-0.666,3.334-0.666,4l-54.334,191C611,800.667,608,806,603,809.667c-5,3.666-10.667,5.666-17,5.666l-8-1.666
	c-6.667-2-11.667-5.334-15.333-10.667C559.667,798,558,792.667,558,787.333z"/>
</svg>
