<?xml version="1.0" encoding="utf-8"?>
<!-- Generator: Adobe Illustrator 16.0.3, SVG Export Plug-In . SVG Version: 6.00 Build 0)  -->
<!DOCTYPE svg PUBLIC "-//W3C//DTD SVG 1.1//EN" "http://www.w3.org/Graphics/SVG/1.1/DTD/svg11.dtd">
<svg version="1.1" id="Layer_1" xmlns="http://www.w3.org/2000/svg" xmlns:xlink="http://www.w3.org/1999/xlink" x="0px" y="0px"
	 width="1000px" height="1000px" viewBox="0 0 1000 1000" enable-background="new 0 0 1000 1000" xml:space="preserve">
<path fill="#0E70A0" d="M367,407.667C367,399,371.333,388,379.667,374C388,360,396.333,348.333,404,339.333
	c2-2.333,4.667-5.667,7.667-9.333s5-5.667,5.333-6l12.333,14.333c9.334,10.333,17.667,22,25.334,35.667
	c7.666,13.667,11.666,24.667,11.666,33.667c0,13.666-4.666,25.666-14.333,35.333c-9.333,9.667-21,14.667-35,14.667
	c-13.667,0-25.667-5-35.333-14.667C372,433,367,421.333,367,407.667z M471,546c0-9.667,2.667-20.667,8-33.667
	c5.333-12.666,12-24.666,20-35.333c15.333-20.333,29.667-37.333,43.667-51c1.333-1,4.333-3.667,8.666-8l8.334,8
	c13,12.333,27.666,29.333,44,50.667C612.333,488,619,500,624.333,512.667c5.334,12.666,8,23.666,8,33.333
	c0,23-7.666,42-23.333,57.667C593.333,619.333,574,627,551.333,627c-22.666,0-41.666-8-57.333-23.667
	C478.333,587.667,471,568.333,471,546z M521.667,316c0-14.333,11-33.333,33.333-56.667l8.333,9.333c6.334,7.333,12,15.333,17,24.667
	c5,9,7.667,16.667,7.667,22.667c0,9.333-3.333,16.667-9.667,23c-6.333,6-14,9.333-23.333,9.333c-9.667,0-17.667-3-24-9.333
	C525,332.667,521.667,325,521.667,316z"/>
</svg>
