<?xml version="1.0" encoding="utf-8"?>
<!-- Generator: Adobe Illustrator 16.0.3, SVG Export Plug-In . SVG Version: 6.00 Build 0)  -->
<!DOCTYPE svg PUBLIC "-//W3C//DTD SVG 1.1//EN" "http://www.w3.org/Graphics/SVG/1.1/DTD/svg11.dtd">
<svg version="1.1" id="Layer_1" xmlns="http://www.w3.org/2000/svg" xmlns:xlink="http://www.w3.org/1999/xlink" x="0px" y="0px"
	 width="1000px" height="1000px" viewBox="0 0 1000 1000" enable-background="new 0 0 1000 1000" xml:space="preserve">
<path fill="#0E70A0" d="M325.667,517.667c0,31.333,8,60.666,23.666,87.333c15.667,26.667,37,48,63.667,63.333
	c26.667,15.667,55.667,23.334,87,23.334c32,0,61-7.667,87.667-23c26.666-15.334,47.666-36.334,63-63c15.333-26.667,23-56,23-87.667
	c0-8-2.667-14.667-8-20.333C660.333,492,654,489.333,646,489.333c-7.667,0-14.333,2.667-20,8.334
	c-5.667,5.666-8.333,12.333-8.333,20.333c0,32.667-11.667,60.667-34.667,83.667s-51,34.666-83.667,34.666
	c-32.333,0-59.666-11.666-82.333-34.666s-34-51-34-83.667c0-28.333,8.667-54,26.333-77c17.667-23,38-35.333,61.334-36.667
	L458,416.667c-5.333,6-8,12.333-8,19.333c0,7.333,2.667,14,8,20c12,11.667,25.667,11.667,40.333,0l61.334-60.667
	c5.333-4,8-11,8-20.667c0-8.667-2.667-15-8-19L499,293.333c-6-5.333-12.333-8-19-8c-8.333,0-15.333,2.667-21,8.333
	c-5.667,5.667-8.333,12.333-8.333,20c0,8,2.666,15,8,20.333l12.666,12c-41.666,7.333-76.333,27.333-104,60
	C339.667,438.667,325.667,475.667,325.667,517.667z"/>
</svg>
