<?xml version="1.0" encoding="utf-8"?>
<!-- Generator: Adobe Illustrator 16.0.3, SVG Export Plug-In . SVG Version: 6.00 Build 0)  -->
<!DOCTYPE svg PUBLIC "-//W3C//DTD SVG 1.1//EN" "http://www.w3.org/Graphics/SVG/1.1/DTD/svg11.dtd">
<svg version="1.1" id="Layer_1" xmlns="http://www.w3.org/2000/svg" xmlns:xlink="http://www.w3.org/1999/xlink" x="0px" y="0px"
	 width="1000px" height="1000px" viewBox="0 0 1000 1000" enable-background="new 0 0 1000 1000" xml:space="preserve">
<path fill="#0E70A0" d="M155,565.333c0,44,15.667,82,46.667,113.667c31,32,68.667,48.667,112.667,50c4,0,6-2,6-5.667V679
	c0-4-2-6-6-6c-28-1.333-52.333-12.667-72.333-34s-30.333-45.667-30.333-74c0-28,9.333-52.333,28.333-73s42-32.333,70-34.667
	L327.667,455c4,0,6.333-2,6.333-6l2.333-16.667c3.334-36.333,18.334-67,45.334-91.667s58.666-37,95.333-37
	c36,0,67.667,12.333,94.667,36.667c27,24.333,42.666,54.333,46.666,90.333L620.667,450c0,4,2,6,6.333,6h53.333
	c30,0,55.667,10.667,77.334,32.333C779,509.667,790,535.333,790,565c0,28-10,52.667-30,74c-20,21-44.333,32.333-72.667,34
	c-4.333,0-6.666,2-6.666,6v44.333c0,3.667,2.333,5.667,6.666,5.667c44.334-1.333,82-18,112.667-50c30.666-32,46-69.667,46-114
	c0-29.667-7.334-57.333-22.334-82.667C809,457,788.667,437,763.333,422.333c-25.333-14.666-53-22-82.666-22h-10.334
	c-11-44.667-34.333-81-70.333-109.667C564.333,262.333,523.333,248,477.333,248c-47,0-88.666,14.667-125,43.667
	c-36.333,29-59.667,66.333-70,111.667c-37.667,9.667-68,29.334-91.667,59C167,492,155,526.667,155,565.333z M335,799.333
	c0,5.667,1.667,11.334,5.333,17C344,822,349.333,825.667,356,828c7.667,2.333,14.667,2,21.333-1.333c6.334-3,11-9.334,13-18.667
	L395,787.667c1.667-7.667,0.667-14.667-3-21c-3.667-6.334-9.333-11-17.333-13.334C367.333,751,360,752,353.333,756
	C346.667,760,342,766,340,773.667l-4.667,19.666C335.333,794.333,335,796.333,335,799.333z M360.333,702.667
	c0,7,2.667,13.333,8.334,19C374,727.333,380,730,387.333,730c8,0,14.667-2.667,20-8c5.334-5.333,8-11.667,8-19.667
	c0-7.666-2.666-14.333-8-19.666c-5.333-5.334-12-8-20-8c-7.666,0-14,2.666-19.333,7.666C363,688.333,360.333,695,360.333,702.667z
	 M380.667,627c-0.334,5.333,1,10.333,4.666,15c3.334,5,8.667,8.333,16,10.667c7,2,13.667,1.333,20.667-2.334
	c7-3.666,11.333-9.333,13.667-17l9.333-30c2.333-8,1.667-15.333-2.333-21.666c-4-6.334-10-10.667-18-13
	c-7.334-2.334-14.334-1.667-21,2.333c-6.667,3.667-11.334,9.333-13.667,16.667l-8,30.666c0,0.667-0.333,2-0.667,4
	C381,624,380.667,625.667,380.667,627z M419.667,903.333c0,6,1.666,11.334,5,16.667c3.333,5.333,8.666,9,16,11
	c2.666,0.667,5.666,1,8.333,1c14.333,0,23-6.667,26.333-20.333L480,892c2-8.667,1-16-2.667-22.667
	c-4-6.666-9.666-10.666-17.333-12.333c-7-2.333-14-1.667-21,2.333s-11.333,9.667-13.667,17L420.667,896
	C420,899,419.667,901.333,419.667,903.333z M445.333,806.667c0,7.333,2.667,13.666,8.334,19.333c5.333,5.333,11.666,8,19,8
	c8,0,14.333-2.667,19.666-7.667C497.667,821,500,814.667,500,806.667c0-7.667-2.667-14-7.667-19.334
	c-5.333-5.333-11.666-7.666-19.666-7.666s-14.334,2.666-19.667,7.666S445.333,799,445.333,806.667z M466.333,731
	c-0.333,5,1,10.333,4.334,15.667c3.333,5.333,8.333,8.666,15,10c7.666,2,14.666,1.333,21.333-2c6.667-3.334,11-9.667,13.667-18.667
	l9-30c2.333-7.333,1.666-14.333-2.334-21s-9.666-11-17.666-13.333c-7.334-2.334-14.334-1.334-21.334,2.666S477,684.333,474.667,692
	L467,722C466.667,724.667,466.333,727.667,466.333,731z M558.333,802.667c0,5.333,1.667,10.666,5,16c3.334,5.333,8.667,9,15.334,11
	c1,0,2.666,0.333,4.666,0.666c2,0.334,3.334,0.667,4.667,0.667c13.667,0,22-7.333,25.333-22L618,789c2.333-7,1.667-14-2.333-21
	c-3.667-7-9.334-11.333-17-13.667c-8.334-2-16-1.333-22.667,2.667s-11.333,9.667-13.667,17.667l-3,19.666
	c0,0.667-0.333,2.334-0.666,4C558.333,800,558.333,801.333,558.333,802.667z M583,704c0,7.333,2.667,14,8.333,19
	c5,5.333,11.334,8,19,8c8,0,14.334-2.667,19.667-7.667s7.667-11.666,7.667-19.333c0-8-2.667-14.333-7.667-19.667
	c-5-5.333-11.667-7.666-19.667-7.666s-14.333,2.666-19.666,7.666C585.667,689.667,583,696,583,704z M603.333,627
	c0,5.667,1.667,11,5.334,16c3.666,5,9,8.667,16.333,10.667c0.667,0,2,0.333,4,0.666c2,0.334,3.667,0.667,4.667,0.667
	c3.333,0,7.333-1,12-3c7-3.667,11.666-9.667,13.666-17.333l8-30c2-7.667,1.334-14.667-2.666-21c-3.667-6.667-9.334-11-17-13.334
	c-7.667-2.333-14.667-1.666-21.334,2c-6.333,3.667-11,9-13,17L604,619.667c0,0.666-0.333,2-0.667,4
	C603.333,624.667,603.333,626,603.333,627z"/>
</svg>
