<?xml version="1.0" encoding="utf-8"?>
<!-- Generator: Adobe Illustrator 16.0.3, SVG Export Plug-In . SVG Version: 6.00 Build 0)  -->
<!DOCTYPE svg PUBLIC "-//W3C//DTD SVG 1.1//EN" "http://www.w3.org/Graphics/SVG/1.1/DTD/svg11.dtd">
<svg version="1.1" id="Layer_1" xmlns="http://www.w3.org/2000/svg" xmlns:xlink="http://www.w3.org/1999/xlink" x="0px" y="0px"
	 width="1000px" height="1000px" viewBox="0 0 1000 1000" enable-background="new 0 0 1000 1000" xml:space="preserve">
<path fill="#0E70A0" d="M154.333,564.333c0,37.334,11,70.334,32.667,99.667c21.667,29,50,49,85,59.667c3,0.666,5.667-0.334,8-2.667
	l38.667-47.667c-29.667,0-55-10.666-76-32c-21-21.333-31.667-47-31.667-77c0-28,9.333-52.666,28-73.333s42-32.333,70-34.667
	L326.667,454c3.666,0,5.333-1.333,5.333-4.333l2.667-18.334c4-36.667,19.666-67,46.333-91s58.333-36,95-36s68.667,12,95.667,36.333
	C599,365,614,395.333,617.333,431.333l2.334,19.334c0.666,3.666,3.333,5.666,7.333,5.666h54c30,0,55.667,10.667,76.667,31.667
	s31.666,46.333,31.666,76.333c0,27.667-9.333,52-28,72.667c-18.666,20.667-41.666,32.667-69,36c-4,0-9.333,0.667-16.333,2
	c-6.333,0.667-11,3-13.667,7.667l-78.666,93c-4.667,6-6.667,13-5.334,21c1,8,4.667,14.333,10.334,19
	c3.666,4,9.666,6.333,18.666,6.333c8.667,0,15.667-4,20.334-11.667L698.333,729c41.334-4.333,76.334-22,105-53.667
	C832,643.667,846,606.667,846,564.333c0-22.333-4.333-44-13-64.333s-20.333-38-35-52.667c-14.667-14.666-32.333-26.333-52.667-35
	c-20.333-8.666-41.666-13-64.333-13h-10.667c-11-44-34.666-80.333-70.666-108.667s-77.334-42.333-124-42.333
	c-31,0-60.334,6.667-87.667,20c-27.333,13.333-50.333,31.667-69.333,55.333S287.333,374.333,281,404.333
	c-37.333,8.334-68,27.334-91.667,57.334C166,491.333,154.333,525.667,154.333,564.333z M267,831.667c0,2,0.667,5.333,2,10
	c3,7,7.667,12,14.667,14.666C291,859.667,298.333,860,306,857c7.667-3,12.667-8,15.333-15c3.334-7.333,3.667-14.333,0.667-21.667
	c-3-7-8-12-15.333-14.333c-7.333-3.667-14.667-4-21.667-1s-12,8-15.333,15.667C268,824,267,827.667,267,831.667z M328.667,750.333
	v3.334c0.666,7.666,4,13.666,10,18.666c7.666,4.334,14.333,6.334,20.666,6.334c7.334,0,14.334-3.667,20.334-11L457,675.333
	c4.667-5.666,7-13,6.667-22c-0.667-7-4-13-9.334-17.666c-5.333-4.667-11-7.334-17.333-7.334c-2,0-3.333,0-4.667,0.334
	c-7.666,1.333-14,5-18.666,11L335,732C330.667,737.333,328.667,743.333,328.667,750.333z M354.333,907.667c0,4,1,7.666,2.667,10.666
	c2.667,7,7.667,12.334,14.667,15.667c3.666,1.667,7.333,2.333,11,2.333c4,0,7.666-0.666,10.333-2.333
	c7.667-3,13-7.667,15.667-13.667C412,913,412.333,905.667,409.333,898c-2.666-7.667-7.666-12.667-15-15.333
	C387,879.333,379.667,879,372,882s-12.667,8-15,15C355,900,354.333,903.667,354.333,907.667z M410,829.333V833
	c0.667,7.333,4.333,13.333,10.333,18.333s12.334,7.334,18.334,7.334c7.666,0,14.333-3.667,21-11l145-174.667
	c3.666-4,5.666-10,5.666-17.333v-4c-0.666-7.667-4-13.334-9-17.667c-5-4.334-11-6.667-17.333-6.667h-4.333
	c-7.667,0.333-14,4-18.334,10.333L416.333,811C411.667,817,410,823,410,829.333z M527,867.667c0,3,0.667,6.333,2,10
	c3,7.333,8,12.666,15.333,15.666c4.667,1.334,8,2,10.334,2c4.666,0,8.666-1,11.333-2.666c7.333-3,12.667-7.667,15.333-14
	c3.334-5.667,3.667-13,0.667-22.334c-2.667-7-7.667-11.666-14.667-14.666l-12-3c-3,0.666-6.333,1.333-10.666,2.333
	c-7.334,2.667-12.334,7.667-15,14.667C528,860,527,864,527,867.667z"/>
</svg>
