<?xml version="1.0" encoding="utf-8"?>
<!-- Generator: Adobe Illustrator 16.0.3, SVG Export Plug-In . SVG Version: 6.00 Build 0)  -->
<!DOCTYPE svg PUBLIC "-//W3C//DTD SVG 1.1//EN" "http://www.w3.org/Graphics/SVG/1.1/DTD/svg11.dtd">
<svg version="1.1" id="Layer_1" xmlns="http://www.w3.org/2000/svg" xmlns:xlink="http://www.w3.org/1999/xlink" x="0px" y="0px"
	 width="1000px" height="1000px" viewBox="0 0 1000 1000" enable-background="new 0 0 1000 1000" xml:space="preserve">
<path fill="#0E70A0" d="M392.667,497c0,26.333,6.333,50.333,19,72.333c12.666,22,30,39.667,52.333,52.334
	C486.333,634.333,510.333,641,536.667,641c6.333,0,11.666-2.333,16-7.333c4.333-4.667,6.666-10.334,6.666-17
	c0-6.334-2.333-11.667-6.666-16c-4.334-4.334-9.667-6.334-16.334-6.334c-27,0-50-9.333-69-28.333S439,524,439,497
	c0-26,9-48.333,26.667-67.333c17.666-19,38.666-28.667,62.666-28.667l-11,10.667c-5,5-7.333,10.333-7,16.333
	c0,6,2.334,11.333,6.667,16s9.667,7,16.333,7c6.667,0,12.334-2.333,17-7l50.334-50c4.333-3.667,6.666-9,6.666-17
	c0-7.333-2.333-12.667-6.666-15.667l-50.334-51c-4.333-4.667-9.666-7-16.333-7s-12,2.333-16.667,7c-4.666,4.667-7,10-7,16.667
	c0,7,2.334,12.667,7.334,17l10,9.333c-38.334,2.667-70.334,17.667-96.334,45C405.667,425.667,392.667,458.667,392.667,497z"/>
</svg>
