<?xml version="1.0" encoding="utf-8"?>
<!-- Generator: Adobe Illustrator 16.0.3, SVG Export Plug-In . SVG Version: 6.00 Build 0)  -->
<!DOCTYPE svg PUBLIC "-//W3C//DTD SVG 1.1//EN" "http://www.w3.org/Graphics/SVG/1.1/DTD/svg11.dtd">
<svg version="1.1" id="Layer_1" xmlns="http://www.w3.org/2000/svg" xmlns:xlink="http://www.w3.org/1999/xlink" x="0px" y="0px"
	 width="1000px" height="1000px" viewBox="0 0 1000 1000" enable-background="new 0 0 1000 1000" xml:space="preserve">
<path fill="#0E70A0" d="M327,508.333c0,30.667,7.667,59.334,23.333,85.667C366,620.333,387,641.667,413.667,657.333
	C440.333,673,469,681,500,681s60-8,87-23.667c27-15.666,48.333-37,64-63.333c15.667-26.667,23.667-55,23.667-85.667
	c0-20-5.667-43.666-17.334-71.333c-11.666-27.667-25.666-53.333-42-76.667c-14.666-19-32-40-52-62.667
	c-20-22.667-55-57.667-63-65.667l-42.666,43C437,295,417,318,398,344.333c-19,26.333-35.667,54.667-49.667,85
	C333.667,459.667,327,486,327,508.333z"/>
</svg>
