<?xml version="1.0" encoding="utf-8"?>
<!-- Generator: Adobe Illustrator 16.0.3, SVG Export Plug-In . SVG Version: 6.00 Build 0)  -->
<!DOCTYPE svg PUBLIC "-//W3C//DTD SVG 1.1//EN" "http://www.w3.org/Graphics/SVG/1.1/DTD/svg11.dtd">
<svg version="1.1" id="Layer_1" xmlns="http://www.w3.org/2000/svg" xmlns:xlink="http://www.w3.org/1999/xlink" x="0px" y="0px"
	 width="1000px" height="1000px" viewBox="0 0 1000 1000" enable-background="new 0 0 1000 1000" xml:space="preserve">
<path fill="#0E70A0" d="M211.667,415.333c0-31.333,10-59,30-83.333s45.667-40.333,77-47.667c7.666-37,26.333-67.667,56.666-91.667
	c30.334-24,65-36,104-36c37.334,0,71,11.667,100,34.667c29.334,23,48.334,53,57.334,90H646c25.333,0,48.667,5.333,70.667,16.333
	S756,323.333,769,342.333s19.667,39.333,19.667,61.333c0,37.333-14.334,69.333-43,95.333c0,11.667-3.667,25-10.667,40
	c-7.333,15-16.667,28.667-29,41c-12,12.333-24.333,19.667-36.667,22.667c-4,20.666-13.666,38-28.666,52.333
	s-33,23.667-54.334,28.333c10,10,15,21.667,15,35.334c0,16.333-5.666,30.333-17.333,42C572.333,772.333,558.333,778,541.667,778
	c-16.334,0-30.334-5.667-42-17.333C488,749,482,735,482,718.667c0-2,0.333-4.667,1.333-8.667s1.334-7,1.334-9H482
	c-19.667,0-36.333-7-50.333-21s-21-31-21-50.333c0-7.667,4-19.334,12.333-35.334c-16.333-8.666-29.333-22.333-39-42h-41.667
	C306,549.333,275,534.667,249.667,509C224.333,483,211.667,451.667,211.667,415.333z"/>
</svg>
