<?xml version="1.0" encoding="utf-8"?>
<!-- Generator: Adobe Illustrator 16.0.3, SVG Export Plug-In . SVG Version: 6.00 Build 0)  -->
<!DOCTYPE svg PUBLIC "-//W3C//DTD SVG 1.1//EN" "http://www.w3.org/Graphics/SVG/1.1/DTD/svg11.dtd">
<svg version="1.1" id="Layer_1" xmlns="http://www.w3.org/2000/svg" xmlns:xlink="http://www.w3.org/1999/xlink" x="0px" y="0px"
	 width="1000px" height="1000px" viewBox="0 0 1000 1000" enable-background="new 0 0 1000 1000" xml:space="preserve">
<path fill="#0E70A0" d="M154.667,563.667c0-38.334,12-72.334,36-102.334s54.333-49,91-57.666C292,358.333,315.333,321,351.667,292
	C388,263,430,248.333,477,248.333c46,0,86.667,14.333,122.667,42.333C635.333,319,659,355.333,670,400h10.333
	c29.667,0,57.334,7.333,82.667,21.667C788.333,436,808.667,456,823.333,481c14.667,25,22.334,52.667,22.334,82.333
	c0,44.667-15.334,83-46,115c-30.667,32-68.334,49-112.667,50.334c-4.333,0-6.667-2-6.667-5.667v-44.333c0-4,2.334-6,6.667-6
	c28.667-1.334,52.667-12.667,72.667-34c20-21.334,30-46.334,30-75.334S779,509.333,757,488c-21.667-21.333-47.333-32-77-32h-53.333
	c-4,0-6.334-2-6.334-5.667L618,431c-3.667-35.667-19-66-46-90.333C544.667,316.333,513,304,477,304
	c-36.333,0-68.333,12-95.333,36.333c-27,24.333-42.334,54.333-46,90.333l-2,18c0,4-2.334,6-6.667,6l-17.667,1
	C282,457,259,468,239.667,489C220.333,510,211,534.667,211,563c0,29,10,54,30,75.333c20,21.334,44.333,32.667,72.667,34
	c3.666,0,5.666,2,5.666,6v44.334c0,3.666-2,5.666-5.666,5.666c-44.667-2-82.333-19-113.333-51S154.667,608,154.667,563.667z
	 M352.333,593c0-8,4-19,12.334-33c8-14,15.666-25,22.666-33.667c7-8,11.334-12.666,12.667-14l12,13.334
	c8.667,9.333,16.667,20.333,24,34C443.333,573,447,584.333,447,593c0,13-4.333,24-13.333,32.667c-9,8.666-20,13-33.334,13
	c-13,0-24.333-4.334-33.666-13.334C357,616.667,352.333,605.667,352.333,593z M451.667,726c0-9.333,2.666-19.667,8-32
	c5.333-12.333,11.666-23.333,19.666-34c6-8.667,13.334-18,22.334-28c8.666-10,15.333-17.333,20-21.667c2.333-2,5-4.666,8-7.666
	l8,7.666c12.666,11,26.666,27.334,42.333,48.667c8,11,14.333,22.667,19.667,34.667c5.333,12,7.666,22.666,7.666,32.333
	c0,21.333-7.666,39.667-22.666,55S551,803.667,529.333,803.667c-21.333,0-39.666-7.667-55-22.334
	C459,766,451.667,747.667,451.667,726z M500.667,504c0-14,10.666-31.667,32.333-53.333l8,8.333c6,7,11,15,16,23.667
	c4.667,8.666,7.333,15.666,7.333,21.333c0,8.667-3,16-9.333,22c-6,6-13.333,9.333-22,9.333c-9,0-16.667-3-23-9.333
	C503.667,520,500.667,512.667,500.667,504z"/>
</svg>
