<?xml version="1.0" encoding="utf-8"?>
<!-- Generator: Adobe Illustrator 16.0.3, SVG Export Plug-In . SVG Version: 6.00 Build 0)  -->
<!DOCTYPE svg PUBLIC "-//W3C//DTD SVG 1.1//EN" "http://www.w3.org/Graphics/SVG/1.1/DTD/svg11.dtd">
<svg version="1.1" id="Layer_1" xmlns="http://www.w3.org/2000/svg" xmlns:xlink="http://www.w3.org/1999/xlink" x="0px" y="0px"
	 width="1000px" height="1000px" viewBox="0 0 1000 1000" enable-background="new 0 0 1000 1000" xml:space="preserve">
<path fill="#0E70A0" d="M211.333,416c0-31.333,10-59.333,29.667-84c19.667-24.667,44.667-40.333,75-47
	c8.333-37.333,27.333-68.333,57.333-92.333s64-36,102.667-36c37.333,0,71,11.667,100.667,35
	C606.333,215,625.333,245,634.333,281.333h9c37.334,0,69.334,13,96,39.333c26.334,26,39.667,58,39.667,95c0,20-4,39-12.333,56.666
	C758.333,490,747,505.333,732.333,518v1c0,19.667-6.333,37.333-18.666,53c-12.334,15.667-28,25.333-46.667,29.667
	c-4.667,20.666-15,38.333-30.333,52.666C621.333,668.667,603,677.667,582.333,681c9.667,11.333,14.334,24,14.334,37.667
	c0,16-5.667,29.666-17,41.333c-11.334,11.333-25,17.333-41,17.333s-29.667-5.666-41-17.333c-11.334-11.333-17-25.333-17-41.333
	c0-6.334,1-12.667,3.333-19h-3.333c-19.334,0-36-7-50-21s-21-30.667-21-50c0-13.334,3.333-25.334,10-35.667
	c-17.334-9.667-29.667-23.333-37.334-41.667h-42.666V551c-35.667-2.333-66-16.333-91-42.333S211.333,452,211.333,416z M258,407.667
	c0,26.666,9.333,49.333,28,68c18.667,18.666,41.333,28,67.667,28c16.333,0,31.666-3.667,45.666-11.334
	c4,24.667,15.667,45.334,34.667,62C453,571,475.667,579,501.333,579c29,0,53.667-10.333,74-30.667C589,564.333,606,572,626.667,572
	c19,0,35-6.667,48.666-20c13.334-13.333,20-29.667,20-48.667c13.334-9,24-20.333,31.667-34.666
	c7.667-14,11.667-29.334,11.667-45.667c0-26.333-9.334-49-28.334-67.333S668.667,328,642,328c-18.667,0-35.667,5-51,14.667
	c2-8,2.667-17,2.667-26.333c0-32-11.334-59.333-34.334-82c-23-22.667-50.666-33.667-83-33.667c-31.333,0-58.333,11-81,32.333
	c-22.666,21.333-34.666,48-35.666,79C359,312,358,312,357,312c-1.333,0-2.333,0-3,0c-26.333,0-48.667,9.333-67.667,28
	C267.333,358.667,258,381.667,258,407.667z"/>
</svg>
