<?xml version="1.0" encoding="utf-8"?>
<!-- Generator: Adobe Illustrator 16.0.3, SVG Export Plug-In . SVG Version: 6.00 Build 0)  -->
<!DOCTYPE svg PUBLIC "-//W3C//DTD SVG 1.1//EN" "http://www.w3.org/Graphics/SVG/1.1/DTD/svg11.dtd">
<svg version="1.1" id="Layer_1" xmlns="http://www.w3.org/2000/svg" xmlns:xlink="http://www.w3.org/1999/xlink" x="0px" y="0px"
	 width="1000px" height="1000px" viewBox="0 0 1000 1000" enable-background="new 0 0 1000 1000" xml:space="preserve">
<path fill="#0E70A0" d="M154.667,565c0-38.667,11.667-72.667,35.333-102.667s54-49.333,91.333-58.666
	c10.333-45.333,33.667-82.667,70-112c36.334-29.333,78-43.667,125-43.667c46,0,86.667,14.333,122.667,42.667
	c36,28.333,59.333,65,70,109.667h10.667c29.666,0,57.333,7.334,82.666,22C787.667,437,808,457,822.667,482.333
	C837.333,507.667,845,535.333,845,565c0,44-15.333,82.333-46.333,114C768,711,730.333,727.667,686,729c-4.333,0-6.667-2-6.667-5.667
	V679c0-4,2.334-6,6.667-6c28.333-1.333,52.667-12.667,72.667-34s30-46,30-74.333c0-29.667-10.667-55-32.334-76.667
	C734.667,466.333,709,455.667,679,455.667h-53.667c-4,0-6-2-6-5.667l-2.666-19.333c-3.667-36-19.334-66.333-46.334-90.667
	c-27.333-24.333-58.666-36.667-95-36.667c-36.666,0-68.333,12.333-95.333,37c-27,24.667-42.333,55-45.667,91.667l-2,16.667
	c0,4-2.333,6.333-6.666,6.333L308,457.333C280.333,459.667,257,471,238,492s-28.333,45-28.333,73c0,28.333,10,53,30,74.333
	c20,21.334,44.333,32.334,72.667,34c3.667,0,5.667,2,5.667,6v44.334c0,3.666-2,5.666-5.667,5.666
	c-44.667-1.333-82.333-18-113.333-50C170,647.333,154.667,609,154.667,565z M366.667,700.667c0-7.334,2.666-14,8-19.334
	c5.333-5.333,11.666-8,19.666-8c7.667,0,14.334,2.667,19.667,8c5.333,5.334,8,12,8,19.334c0,8-2.667,14.666-8,20
	c-5.333,5.666-11.667,8.333-19.667,8.333c-7.666,0-14.333-2.667-19.666-8.333C369.333,715.333,366.667,708.667,366.667,700.667z
	 M366.667,821.667c0-8,2.666-14.667,8-20C380,796.667,386.333,794,394,794s14.333,2.667,19.667,7.667c5.333,5.333,8,11.666,8,19.666
	s-2.667,14.334-8,19.667c-5.334,5.333-11.667,7.667-19.667,7.667c-7.667,0-14.333-2.667-19.667-7.667
	C369.333,836,366.667,829.333,366.667,821.667z M473,765c0-7.667,2.667-14.667,8.333-20.667c5.334-5.333,11.667-8,19-8
	c7.667,0,14.334,3,20,8.667C526,750.667,529,757.333,529,765s-2.667,14.333-8.333,20c-5.667,5.667-12.334,8.333-20.334,8.333
	c-7.666,0-14-2.666-19.333-8.333S473,772.667,473,765z M473,644.333c0-7.666,2.667-14.333,8.333-20c6-5.333,12.334-8,19-8
	c8,0,14.667,2.667,20.334,8.334c5.666,5.666,8.333,12,8.333,20c0,7.666-2.667,14.333-8.333,19.666c-5.667,5.334-12.334,8-20.334,8
	c-7.666,0-14-2.666-19.333-8C475.667,658.667,473,652,473,644.333z M473,887c0-7.667,2.667-14.333,8.333-20.333
	c5.334-5.334,11.667-8,19-8c8,0,14.667,2.666,20.334,8.333c5.666,5.667,8.333,12.333,8.333,20s-2.667,14.333-8.333,19.667
	c-5.667,5.333-12.334,8-20.334,8c-7.666,0-14-2.667-19.333-8C475.667,901,473,894.667,473,887z M580.333,700.667
	c0-7.334,2.667-13.667,8.334-19.334c5.666-5.666,12.333-8.333,20-8.333c7.666,0,14.333,2.667,19.666,8c5.334,5.333,8,12,8,19.333
	c0,8-2.666,14.667-8,20c-5.333,5.667-11.666,8.334-19.666,8.334s-14.667-2.667-20-8.334
	C583.333,715,580.333,708.333,580.333,700.667z M580.333,821.667c0-7.334,2.667-14,8.334-20c5.333-5,12-7.667,20-7.667
	s14.333,2.667,19.666,7.667c5.334,5,7.667,11.666,7.667,19.666s-2.667,14.334-7.667,19.667c-5.333,5.333-11.666,7.667-19.666,7.667
	s-14.667-2.667-20-8C583.333,835.667,580.333,829.333,580.333,821.667z"/>
</svg>
