<?xml version="1.0" encoding="utf-8"?>
<!-- Generator: Adobe Illustrator 16.0.3, SVG Export Plug-In . SVG Version: 6.00 Build 0)  -->
<!DOCTYPE svg PUBLIC "-//W3C//DTD SVG 1.1//EN" "http://www.w3.org/Graphics/SVG/1.1/DTD/svg11.dtd">
<svg version="1.1" id="Layer_1" xmlns="http://www.w3.org/2000/svg" xmlns:xlink="http://www.w3.org/1999/xlink" x="0px" y="0px"
	 width="1000px" height="1000px" viewBox="0 0 1000 1000" enable-background="new 0 0 1000 1000" xml:space="preserve">
<path fill="#0E70A0" d="M179,539.333c21.667-1,40-9.333,55-25c15-15.666,22.667-34.333,22.667-56c0,21.667,7.333,40.334,22.333,56
	c15,15.667,33.333,24,55,25c-21.667,1-40,9.334-55,25c-15,15.667-22.333,34.334-22.333,56c0-21.666-7.333-40.333-22.667-56
	C219,548.667,200.667,540.333,179,539.333z M256.667,299.333c42-2,77.667-18.333,107-49c29.333-30.667,44-67,44-109.333
	c0,42.333,14.666,78.667,44,109.333C481,281,516.667,297,559,299.333c-27.667,1.333-53,9-76.333,23.667
	c-23,14.333-41.334,33.667-55,57.667c-13.334,24-20,49.667-20,77.667c0-42.333-14.667-79-44-109.667
	C334.333,317.667,298.667,301.333,256.667,299.333z M367.333,658.333C399,657,426,644.667,448,621.667s33-50.334,33-82.334
	c0,32,11,59.334,33,82.334s48.667,35.333,80.333,36.666C562.667,659.667,536,672,514,695s-33,50.333-33,82.333
	c0-32-11-59.333-33-82.333C425.667,672,399,660,367.333,658.333z M594.333,500.333C626,499,652.667,486.667,674.667,463.667
	s32.666-50.334,32.666-82.667c0,32,11,59.333,33,82.333s49,35.334,80.667,36.667c-31.667,1.333-58.667,13.667-80.667,36.667
	s-33,50.333-33,82.333c0-32-11-59.333-32.666-82.333C652.667,514,626,501.667,594.333,500.333z"/>
</svg>
