<?xml version="1.0" encoding="utf-8"?>
<!-- Generator: Adobe Illustrator 16.0.3, SVG Export Plug-In . SVG Version: 6.00 Build 0)  -->
<!DOCTYPE svg PUBLIC "-//W3C//DTD SVG 1.1//EN" "http://www.w3.org/Graphics/SVG/1.1/DTD/svg11.dtd">
<svg version="1.1" id="Layer_1" xmlns="http://www.w3.org/2000/svg" xmlns:xlink="http://www.w3.org/1999/xlink" x="0px" y="0px"
	 width="1000px" height="1000px" viewBox="0 0 1000 1000" enable-background="new 0 0 1000 1000" xml:space="preserve">
<path fill="#0E70A0" d="M154.333,563.667c0,37,11,70,33,99s50.333,49,85.333,59.666l-21.667,56c-1,4.667,0.667,7.334,4.667,7.334h71
	l-34.667,126h9.333l132.333-174c1.333-1.334,1.333-3,0.666-4.667c-0.666-1.667-2.333-2.333-4.666-2.333H357L439.667,576
	c2-4.667,0.666-7-4.667-7h-98c-3,0-5.667,1.667-7.333,4.667l-36.333,95.666c-23.667-6-43.333-19-59-38.666
	c-15.667-19.667-23.333-42-23.333-67c0-27.667,9.333-51.667,28-72c18.667-20.334,42-32,70-35.334L326.333,454
	c4.334,0,6.667-2,6.667-5.667L335.333,431c3.334-36,18.334-66.333,45.334-90.667c27-24.333,58.666-36.667,95-36.667
	c36.333,0,68,12.333,95,36.667C598,364.667,613.333,395,617.333,431l2,19.333c0,4,2,6,6.334,6h53.666
	c30.334,0,56,10.667,77.334,31.667c21.333,21,32,46.333,32,76c0,28.333-10,53-29.667,73.667c-19.667,20.666-44,32-73,34.333
	c-4.333,0-6.667,2-6.667,6.333V724c0,3.667,2.334,5.667,6.667,5.667C707.667,729,728.333,724,748,715s36.667-21,50.667-35.667
	c14-14.666,25.333-32,33.666-52.333C840.667,607,845,586,845,564.333c0-30-7.333-57.666-22.333-83c-15-25.333-35-45.333-60.334-60
	c-25.333-14.666-53-22-82.666-22H669c-11-44.333-34.333-80.666-70.333-108.666S522,248.333,476,248.333
	c-47,0-89,14.667-125.333,43.667c-36.334,29-59.667,66.333-70,112c-36.667,8.667-67,27.667-91,57.667
	S154.333,525.333,154.333,563.667z M426.333,892.333c0,5.334,1.667,10.334,5,15.334c3.334,5,8.667,8.666,15.334,10.666
	c4.666,1,7.333,1.667,8.333,1.667c3,0,7-1,12.667-3.333c7-3,11.666-9,14-17.334l9.333-35c2-7.333,1.333-14.333-2.667-21
	c-4-6.666-9.666-11-17.666-13.333c-7.334-2-14.334-1.333-21,2.667c-6.667,4-11.334,9.666-13.667,17.666l-9,33.334
	C426.667,889.333,426.333,892.333,426.333,892.333z M471,733.333C471,738,472.667,743,476,748s8.333,8.667,15,11
	c7.333,2.333,14.667,2,21.333-1.667c6.667-3.666,11-9.333,13.334-17.333l10-34.667c2-7.333,1-14.333-2.667-21
	c-4-6.666-10-11.333-17.667-13.666c-7.666-2-14.666-1.334-21.666,2.666S482.333,683,480,690.667l-8,33.666
	C471.333,730,471,733,471,733.333z M565,788.333c0,5.667,1.667,11.334,5.333,17C574,811,579.333,814.667,586,817
	c0.667,0,2,0.333,4,0.667c1.667,0.333,3,0.666,4,0.666c4.333,0,8.667-0.666,12.667-2.666c6.333-2.334,11-8.667,13.666-19
	L628.667,763c2.333-7.667,1.666-15-2-22c-3.667-7-9.334-11.667-16.667-14c-8.333-2-16-1-22.667,2.667c-6.666,4-11,10-12.333,17.666
	l-9,34.334C565.333,783.667,565,786,565,788.333z M610.333,628.667c-0.333,5.333,1.334,10.333,5,15.666
	c3.667,5.334,9,9.334,16.334,12.667c2.666,1.333,5.333,2,8.666,2c3.667,0,7.334-1,11.334-2.667c7-3.333,11.666-9.666,14.666-19
	L676,603c0.667-4.333,1-6.667,1-7.333c0-5.667-1.667-11-5.333-16.334c-3.667-5.333-9-9-16.334-11c-0.666,0-2-0.333-3.666-0.666
	c-2-1-3.334-1-4.334-1c-5.666,0-11,1.666-16.333,5c-5.333,3.333-9,8.666-11,16l-9,33.666
	C610.667,624,610.333,626.333,610.333,628.667z"/>
</svg>
