<?xml version="1.0" encoding="utf-8"?>
<!-- Generator: Adobe Illustrator 16.0.3, SVG Export Plug-In . SVG Version: 6.00 Build 0)  -->
<!DOCTYPE svg PUBLIC "-//W3C//DTD SVG 1.1//EN" "http://www.w3.org/Graphics/SVG/1.1/DTD/svg11.dtd">
<svg version="1.1" id="Layer_1" xmlns="http://www.w3.org/2000/svg" xmlns:xlink="http://www.w3.org/1999/xlink" x="0px" y="0px"
	 width="1000px" height="1000px" viewBox="0 0 1000 1000" enable-background="new 0 0 1000 1000" xml:space="preserve">
<path fill="#0E70A0" d="M96,515.667C96,506.333,99.333,499,106,493c5.667-6,13.333-8.667,22.667-8.667h77c9,0,16.333,3,22.333,9
	c5.667,6,8.667,13.334,8.667,22.334c0,9.333-3,17.333-9,23.666c-6,6.334-13.333,9.667-22,9.667H129c-9,0-16.667-3.333-23-10
	C99.333,532.333,96,524.667,96,515.667z M205.667,253.667c0-9.333,2.667-17,8.333-22.667c6.667-6.667,14.333-10,23.333-10
	c9.667,0,17,3.333,22.667,10l54,54.333c15.333,14.667,15.333,29.667,0,45c-6.333,6.333-13.333,9.333-21.667,9.333
	c-7.333,0-14.667-3-22.667-9.333l-55.333-54C208.667,270.333,205.667,262.667,205.667,253.667z M271.333,696.333
	c0-8.666,3.333-16.333,10-23c6-6,13.667-9,22.667-9h107.333c3.667,0,6.667,0.667,9.334,2.667L499,741l79.667-74.333
	C581,665,584.333,664,588.333,664h110c9,0,16.667,3,23,9.333c6.334,6.334,9.667,14,9.667,22.667c0,9-3.333,16.667-9.667,23
	c-6.333,6.333-14,9.667-23,9.667H609l-104.667,94.666c-4,3-7.666,3-11,0l-102.666-94.666H304c-9,0-16.667-3.334-23-9.667
	C274.667,713,271.333,705.333,271.333,696.333z M302.667,515.667c0,33,6.333,62.333,19.333,87.333c2,3.667,5,5.333,9,5.333h62.333
	c2.667,0,4.334-0.666,5-2.333c0.667-1.667-0.333-3.667-2.333-6c-19.667-24.667-29.667-53-29.667-84.333
	c0-36.667,13-68,39.334-93.667c26.333-25.667,58-38.667,95-38.667c36.666,0,68,13,94.333,38.667c26,26,39.333,57,39.333,93.333
	c0,31.334-10,59.667-29.666,84.334c-2.334,2.333-3,4.333-2.334,6c0.667,1.666,2.334,2.333,5,2.333H670c4.333,0,7-1.667,8-5.333
	c13.667-26,20.667-55.334,20.667-87.334c0-26.333-5.334-52-15.667-76.333s-24.667-45.667-42.333-63.333
	C623,358,602,344,577.667,333.333c-24.334-10.667-50-15.667-76.667-15.667s-52.333,5.333-76.667,15.667
	C400,344,379,358,361.333,375.667C343.667,393.333,329.667,414.333,319,439S302.667,489.333,302.667,515.667z M468,222v-77.667
	c0-9,3.333-16.667,9.667-23c6.333-6.333,14-9.667,23-9.667s16.666,3.333,23,9.667c6.333,6.333,9.666,14,9.666,23v77.333
	c0,9-3.333,16.667-9.666,23c-6.334,6.333-14,9.667-23,9.667s-16.667-3.333-23-9.667C471,238.333,468,231,468,222z M677,308
	c0-9.333,3-17,8.667-22.333L740,231.333c5.333-6.667,13-10,22.667-10c9,0,16.666,3.333,22.666,9.667s9,14,9,23
	c0,9.333-2.666,17-8.333,22.667L730.667,331c-7.667,6.333-15.334,9.333-23,9.333c-8.667,0-16-3-22-9.333
	C680,324.667,677,317,677,308z M763.333,515.667c0-9,3-16.334,8.667-22.334s13.333-9,22.333-9h77.334c9,0,16.666,3,23,9
	c6.333,6,9.666,13.334,9.666,22.334S901,532.333,894.667,539c-6.334,6.667-14,10-23,10h-77.334c-8.666,0-16-3.333-22-9.667
	C766.333,533,763.333,525,763.333,515.667z"/>
</svg>
