<?xml version="1.0" encoding="utf-8"?>
<!-- Generator: Adobe Illustrator 16.0.3, SVG Export Plug-In . SVG Version: 6.00 Build 0)  -->
<!DOCTYPE svg PUBLIC "-//W3C//DTD SVG 1.1//EN" "http://www.w3.org/Graphics/SVG/1.1/DTD/svg11.dtd">
<svg version="1.1" id="Layer_1" xmlns="http://www.w3.org/2000/svg" xmlns:xlink="http://www.w3.org/1999/xlink" x="0px" y="0px"
	 width="1000px" height="1000px" viewBox="0 0 1000 1000" enable-background="new 0 0 1000 1000" xml:space="preserve">
<path fill="#0E70A0" d="M136.333,565c0-38.667,12-73,36-103s54.667-49.667,91.333-58c10.333-45.667,33.667-83,70-112.333
	c36.333-29.333,78.333-44,125.666-44c27,0,51.667,4.333,73.334,13.333c0,0.333,0,0.333,0.333,0.667
	c28,10.667,52.667,28,73.667,51.667h1c22.666,24.333,37.666,53.333,45.666,87.333h10.334c36,0,67.333,9.666,94.333,28.666V429
	c17.667,12,32.667,26.667,44.667,44.333c12,17.667,20,37,24.333,58c1.333,7,2,12.667,2.667,17.334v2c0,0.333,0,2,0.333,5.666
	c0.333,3.667,0.333,6.334,0.333,8v1c0,29.334-7,56.667-21.333,81.667c-14,25-33.333,45.333-58,60.333
	c-24.333,15-51.333,23-80.667,24c-4.333,0-6.666-2-6.666-5.666V681c0-4.333,2.333-6.333,6.666-6.333
	C699,673.333,723,662,743,640.667c20-21.334,30-46.334,30-75.334c0-29.666-10.667-55-32.333-76.333c-21.334-21.333-47-32-77-32H610
	c-4,0-6-2-6-5.667l-2.667-19.666C598,398.333,584,369.667,559,345.333c-0.333-0.333-0.333-0.667-0.667-1
	c-0.333-0.333-0.666-0.667-0.666-1c-0.334-0.333-0.667-0.667-1.334-0.667c0-0.667-0.333-1-0.666-1
	c-24.334-22-52.667-34.667-85.334-37.333C468,304,464.333,304,459,304c-36.667,0-68.333,12.333-95.333,36.667
	S321.333,395.333,318,431.333L315.333,451c-1,3-3.666,4.667-7.333,4.667l-16.333,1C263.667,460,240,472,221.333,492.333
	c-18.667,20.334-28,44.667-28,72.667v1.333h1c0.333,16,3.667,31,10,45C211,625.667,219.667,637.667,231,647.667
	c7,6,15,11.333,24.667,16V664C269,670.333,282.333,674,296,674.667c3.667,0,5.667,2,5.667,6v44.666c0,3.667-2,5.667-5.667,5.667
	c-17.333-1-33.667-4.333-49.333-10v0.333c-27.667-9.666-51.333-25.666-70.333-47.666s-31.667-48-37-77v-1
	C139,595.333,139,595,139,594.333C137,585.667,136.333,575.667,136.333,565z M319.667,804c0-1,0.333-2.333,0.666-4.333
	c0.334-1.667,0.667-3,0.667-4L324,776c2.333-8,6.667-13.667,13.667-17.667s14.333-4.666,22.666-2.666c7.667,2.333,13,7,17,13.666
	c3.667,7,4.334,14,2.334,21l-4.667,20c-3.333,14.667-11.667,22-25.333,22c-1,0-2.667-0.333-4.667-0.666
	c-2-0.334-3.333-0.667-4.667-0.667c-7-2-12-5.667-15.333-11C321.333,815,319.667,809.667,319.667,804z M344.333,706
	c0-8,2.667-14.333,7.667-19.667c5-5.333,11.667-7.666,19.667-7.666s14.333,2.666,19.666,7.666C396.667,691.333,399,698,399,706
	c0,7.667-2.667,14-7.667,19.333c-5,5.334-11.666,7.667-19.666,7.667c-7.667,0-14-2.667-19-8
	C347.333,719.667,344.333,713.333,344.333,706z M399,905.667c0-1.334,0.333-3.667,1.333-7.667l4.334-19.667
	c2.333-7.666,7-13.333,13.666-17c7-4,14-4.666,21-2.333C447,860.333,453,864.667,457,871.333c4,6.667,5,14.334,2.667,22.667
	l-4.334,19.667C452,927.333,443,934,428.667,934c-2.334,0-5.334-0.333-8-1c-7.334-2-12.667-5.667-16.334-11
	C401,916.667,399,911.333,399,905.667z M425.333,808.667c0-7.667,2.667-14.334,7.667-19.334c5.333-5.333,11.667-7.666,19.667-7.666
	s14.333,2.666,19.666,7.666C477.667,794.667,480,801,480,808.667c0,8-2.667,14.333-7.667,19.666
	C467,833.667,460.667,836,452.667,836c-7.667,0-14-2.667-19.334-8C428,822.667,425.333,816.333,425.333,808.667z M446,733
	c0-3.333,0.333-6.333,1-9l7.667-30c2.333-7.667,7-13.667,13.666-17.667c7-4,14-5,21.334-2.666c8,2.333,13.666,6.666,17.666,13.333
	s4.667,13.667,2.334,21L501,738c-2.667,9.333-7.333,15.333-13.667,18.667c-6.333,3.333-13.666,4-21.333,2
	c-6.667-1.334-11.667-4.667-15-10C447,743.333,445.667,738,446,733z M538,804.333c0-1,0-2.666,0.333-4.333
	c0.334-1.667,0.334-3,0.334-3.667l3-19.666c2.333-8,6.666-13.667,13.666-17.667s14.334-4.667,22.667-2.667
	c7.667,2.334,13.333,7,17,13.667c4,7,4.667,14,2.333,21l-4.666,20c-3.334,14.667-11.667,22-25.334,22c-1,0-2.666-0.333-4.666-0.667
	c-2-0.333-3.667-0.666-4.667-0.666c-6.667-2-11.667-5.667-15-11C540,815.333,538,810,538,804.333z M562.667,706.333
	c0-8,2.666-14.333,7.666-19.666C575.667,681.333,582,679,590,679s14.333,2.667,19.667,7.667c5.333,5.333,7.666,11.666,7.666,19.666
	c0,7.667-2.666,14.334-7.666,19.334s-11.334,7.666-19.334,7.666s-14.333-2.666-19.333-8
	C565.667,720.333,562.667,714,562.667,706.333z"/>
</svg>
