<?xml version="1.0" encoding="utf-8"?>
<!-- Generator: Adobe Illustrator 16.0.3, SVG Export Plug-In . SVG Version: 6.00 Build 0)  -->
<!DOCTYPE svg PUBLIC "-//W3C//DTD SVG 1.1//EN" "http://www.w3.org/Graphics/SVG/1.1/DTD/svg11.dtd">
<svg version="1.1" id="Layer_1" xmlns="http://www.w3.org/2000/svg" xmlns:xlink="http://www.w3.org/1999/xlink" x="0px" y="0px"
	 width="1000px" height="1000px" viewBox="0 0 1000 1000" enable-background="new 0 0 1000 1000" xml:space="preserve">
<path fill="#0E70A0" d="M248.667,480.333c0-6.333,2.333-12,6.667-16.666c4.333-4.667,9.667-7,16-7c6.333,0,12,2.333,16.333,7
	c4.333,4.666,6.667,10,6.667,16.666c0,6.334-2.333,11.667-6.667,16c-4.333,4.334-10,6.667-16,6.667s-11.667-2.333-16-6.667
	C250.667,491.667,248.667,486.333,248.667,480.333z M314.667,480.333c0-6.333,2.333-12,6.666-16.666c4.334-4.667,9.667-7,16-7H445
	l-76-76c-4.667-4-7-9.333-7-15.667s2.333-11.667,7-16.333c4.667-4.667,10-7,16.333-7c6.334,0,11.667,2.333,16.334,7l75.666,75.667
	v-107c0-6.333,2.334-12,7-16.667c4.667-4.667,10-7,16.667-7c6.333,0,11.667,2.333,16,7c4.333,4.667,6.667,10,6.667,16.667V425
	L600,348.333c4.666-4.667,10-7,16-7s11.667,2.333,16.333,7c4,4.667,6,10,6,16.333c0,6.333-2,11.667-6,15.667l-76,76H664
	c6,0,11.333,2.334,15.666,7c4.334,4.667,6.667,10,6.667,16.667c0,6-2.333,11.333-6.667,15.667C675.333,500,670,502.333,664,502.333
	H556.333l76.333,76.334c4.001,4,6.001,9.333,6.001,15.666c0,6.334-2,11.667-6.001,16.334c-4.666,4.666-10.333,7-16.333,7
	s-11.667-2.334-16-7L524,534v108c0,6.333-2.333,12-6.667,16.333c-4.333,4.334-9.666,6.667-16,6.667c-6.333,0-12-2.333-16.666-6.667
	c-4.667-4.333-7-10-7-16.333V534.667L402,610.333c-4.667,4.667-10,7-16.333,7c-6.334,0-11.667-2.333-16.334-7
	c-4.666-4.666-7-10-7-16.333s2.334-11.333,7-15.667L446,502H338c-6.333,0-11.667-2.333-16-6.667
	C316.667,491.667,314.667,486.333,314.667,480.333z M315,641.667c0-6,2.333-11.667,7-16c4-4.667,9.333-7,15.667-7
	c6.333,0,11.666,2.333,16.333,7c4.667,4.666,7,10,7,16s-2.333,11.666-7,16c-4.667,4.666-10,7-16.333,7
	c-6.334,0-11.667-2.334-15.667-7C317.333,653.333,315,648,315,641.667z M315,318c0-6,2.333-11.667,7-16c4-4.667,9.333-7,15.667-7
	c6.333,0,11.666,2.333,16.333,7s7,10,7,16s-2.333,11.667-7,16.333c-4.667,4.667-10,7-16.333,7c-6.334,0-11.667-2.333-15.667-7
	C317.333,329.667,315,324,315,318z M476.667,708.333c0-6,2.333-11.333,7-15.666c4.666-4.334,10-6.667,16.666-6.667
	c6.334,0,11.667,2.333,16,6.667C520.667,697,523,702.333,523,708.333c0,6.334-2.333,12-6.667,16.334
	c-4.333,4.333-9.666,6.666-16,6.666c-6.333,0-12-2.333-16.666-6.666C479,720.333,476.667,715,476.667,708.333z M476.667,251.333
	c0-6.333,2.333-12,7-16.333c4.666-4.333,10-6.667,16.666-6.667c6.334,0,11.667,2.333,16,6.667c4.334,4.333,6.667,10,6.667,16.333
	c0,6-2.333,11.333-6.667,15.667c-4.333,4.333-9.666,6.667-16,6.667c-6.333,0-12-2.333-16.666-6.667
	C479,262.667,476.667,257.333,476.667,251.333z M639,641.667c0-6,2.333-11.667,7-16c4-4.667,9.333-7,15.667-7
	c6.333,0,11.666,2.333,16.333,7c4.667,4.666,7,10,7,16s-2.333,11.666-7,16c-4.667,4.666-10,7-16.333,7
	c-6.334,0-11.667-2.334-15.667-7C641.333,653.333,639,648,639,641.667z M639,318c0-6,2.333-11.667,7-16c4-4.667,9.333-7,15.667-7
	c6.333,0,11.666,2.333,16.333,7s7,10,7,16s-2.333,11.667-7,16.333c-4.667,4.667-10,7-16.333,7c-6.334,0-11.667-2.333-15.667-7
	C641.333,329.667,639,324,639,318z M705.667,480.333c0-6.333,2.333-12,6.666-16.666c4.334-4.667,10-7,16.334-7
	c6,0,11.333,2.333,15.666,7c4.334,4.666,6.667,10,6.667,16.666c0,6-2.333,11.334-6.667,15.667
	c-4.333,4.333-9.666,6.667-15.666,6.667c-6.334,0-12-2.334-16.334-6.667C708,491.667,705.667,486.333,705.667,480.333z"/>
</svg>
