<?xml version="1.0" encoding="utf-8"?>
<!-- Generator: Adobe Illustrator 16.0.3, SVG Export Plug-In . SVG Version: 6.00 Build 0)  -->
<!DOCTYPE svg PUBLIC "-//W3C//DTD SVG 1.1//EN" "http://www.w3.org/Graphics/SVG/1.1/DTD/svg11.dtd">
<svg version="1.1" id="Layer_1" xmlns="http://www.w3.org/2000/svg" xmlns:xlink="http://www.w3.org/1999/xlink" x="0px" y="0px"
	 width="1000px" height="1000px" viewBox="0 0 1000 1000" enable-background="new 0 0 1000 1000" xml:space="preserve">
<path fill="#0E70A0" d="M91.667,512c0-8.333,3.333-16,10-23C109,482.667,117,479.333,125,479.333h77.667
	c9,0,16.333,3.334,22.333,9.667s9,14.333,9,23c0,9.667-3,17.667-9,24s-13.667,9.667-22.333,9.667H125c-9,0-16.667-3.334-23.333-10
	C95,528.667,91.667,520.667,91.667,512z M202.667,246c0-9,3-16.667,8.667-22.667c7.667-6.667,15.333-10,23.667-10
	c8.667,0,16.333,3.333,22.667,9.667l54.667,55c6.334,7.333,9.334,15,9.334,23c0,9.333-3,17.333-9,23.333s-13.333,9.333-22,9.333
	c-8,0-16-3.333-23.333-9.667l-56-53.667C205.667,263.333,202.667,255,202.667,246z M269.333,696c0-9.333,3.333-17,9.667-22.667
	c6-5.666,13.333-8.666,22.667-8.666h87.667L493,567.333c3.333-2.666,7-2.666,11.333,0l105.334,97.334H702c9,0,16.667,3,23,9.333
	c6.333,6,9.667,13.667,9.667,22.333c0,9-3.334,16.667-9.667,23c-6.333,6.334-14,9.667-23,9.667H589.333
	c-3.333,0-6.666-0.667-9.666-2.333L499.333,651l-79.666,75.667C417,728.333,414,729,410.333,729H301.667c-9,0-16.667-3.333-23-9.667
	C272.333,712.667,269.333,705,269.333,696z M300,512c0,32.333,7,61.667,20.667,88c0.666,4,3.666,6,8.333,6h62.667
	c2.333,0,4-1,5-2.667c1-2,0.666-4-0.667-6.333c-21.333-25.667-32-54-32-85c0-37.333,13.333-69.333,40-95.667
	C430.667,390,462.667,377,500.333,377c37.334,0,69,13,95.334,39.333c26.333,26.334,39.666,58,39.666,95.667
	c0,31.333-10.666,59.667-31.666,85c-1.334,2.333-1.667,4.333-1,6.333c0.666,2,2.333,2.667,5,2.667H671c4.333,0,7-2,7.667-6
	C693.333,574.333,700,545,700,512c0-27-5.333-53-16-77.333C673.333,410,659,389,641.333,371c-17.666-17.667-39-32-63.666-42.667
	c-24.667-10.667-50.334-15.667-77.334-15.667s-53,5.333-77.666,15.667C398,339,376.667,353,358.667,371
	c-18,17.667-32.334,39-43,63.667C305.333,459,300,484.667,300,512z M467.667,213.333v-76.667c0-9.667,3-17.333,9.333-23.667
	s14.333-9.333,23.667-9.333c9.333,0,17,3,23.333,9.333s9.333,14.667,9.333,24v76.667c0,9.667-3,17.333-9.333,23.667
	c-6,6-14,9.333-23.333,9.333c-9.667,0-17.334-3-23.667-9.333C470.667,231,467.667,223,467.667,213.333z M679.333,301.333
	c0-8.333,3-16,9-23l54-55c6.334-6.333,14.334-9.667,23.334-9.667s17,3.333,23,9.667c6.333,6.333,9.333,14,9.333,23
	c0,9.667-3,17.667-8.667,24.333l-56,53.667c-7,6.333-15,9.667-23.333,9.667c-9,0-16.333-3-22-9.333
	C682.333,318.333,679.333,310.667,679.333,301.333z M766.333,512c0-9,3-16.667,9-23s13.334-9.667,22-9.667h78.334
	c9,0,16.666,3.334,23,9.667c6.333,6.333,9.666,14.333,9.666,23c0,9.333-3.333,17-9.666,23.667c-6.334,6.666-14,10-23,10h-78.334
	c-9,0-16.333-3.334-22.333-9.667C769.333,529.333,766.333,521.333,766.333,512z"/>
</svg>
