<?xml version="1.0" encoding="utf-8"?>
<!-- Generator: Adobe Illustrator 16.0.3, SVG Export Plug-In . SVG Version: 6.00 Build 0)  -->
<!DOCTYPE svg PUBLIC "-//W3C//DTD SVG 1.1//EN" "http://www.w3.org/Graphics/SVG/1.1/DTD/svg11.dtd">
<svg version="1.1" id="Layer_1" xmlns="http://www.w3.org/2000/svg" xmlns:xlink="http://www.w3.org/1999/xlink" x="0px" y="0px"
	 width="1000px" height="1000px" viewBox="0 0 1000 1000" enable-background="new 0 0 1000 1000" xml:space="preserve">
<path fill="#0E70A0" d="M103.333,565.667c0,8,3,15,9.333,20.666c5.333,6.334,12.333,9.334,21,9.334h489.667
	c9.667,0,17.667,3.333,24.334,10c6.666,6.666,10,15,10,24.666c0,9.667-3.334,17.667-10,24C641,660.667,633,664,623,664
	c-9.667,0-18-3.333-24.333-9.667c-5.334-6-12-8.666-20-8.666c-8.334,0-15.334,3-21.334,8.666c-6,5.667-9,12.667-9,20.334
	c0,8.333,3,15.333,9.334,21C576.333,714,598.333,723.333,623,723.333c26,0,48.333-9,67-27s27.667-39.666,27.667-65.666
	s-9.334-48-28-66.667c-18.667-18.667-41-28-66.667-28H133.667c-8.333,0-15.333,3-21.333,8.667
	C106.333,550.333,103.333,557.333,103.333,565.667z M103.333,456.333c0,7.667,3,14.334,9.333,20.334c5.667,6,12.667,8.666,21,8.666
	h668c26,0,48.333-9,67-27.333c18.666-18,28-40,28-65.667c0-25.667-9.334-48-28-66.333c-18.667-18.333-41-27.667-67-27.667
	c-25.667,0-47.334,9-65,26.667c-6,5.333-9,12.667-9,22.333c0,8.667,3,15.667,8.666,21c5.667,5.333,12.667,8,21,8c8,0,15-2.667,21-8
	c6.334-7,14-10.333,23.334-10.333c9.666,0,17.666,3.333,24.333,10s10,14.667,10,24.333c0,9.667-3.333,17.667-10,24
	c-6.667,6.334-14.667,9.667-24.333,9.667h-668c-8.333,0-15.333,3-21.333,8.667C106.333,441,103.333,448,103.333,456.333z
	 M155.667,687c0,8,2.667,14.333,8,19.333c5.333,5.334,12,8,19.333,8c8,0,15-2.666,20.667-7.666C209.333,701.667,212,695,212,687
	c0-7.667-3-14.333-8.667-20c-5.667-5.667-12.667-8.333-20.333-8.333c-7.333,0-14,2.666-19.333,8.333
	C158.333,672.667,155.667,679.333,155.667,687z M187.333,356c0,8,2.667,14.333,8,19.333c5.333,5.333,12,8,19.333,8
	c8,0,15-2.667,20.333-7.667c5.667-5.333,8.333-11.667,8.333-19.667c0-7.667-2.667-14.333-8.333-20
	c-5.333-5.333-12.333-8.333-20-8.333c-7.333,0-14,2.667-19.333,8.333C190,341.667,187.333,348.333,187.333,356z M288.333,279
	c0,8,2.667,14.333,8,19.333c5.333,5.667,12,8.333,19.333,8.333c8,0,15-2.667,20.666-7.667c5.667-5.333,8.334-11.667,8.334-19.667
	c0-7.667-3-14.333-8.667-20c-5.333-5.667-12.333-8.333-20.333-8.333c-7.334,0-14,2.667-19.333,8.333
	C291,264.667,288.333,271.333,288.333,279z M291.333,665.667c0,7.666,2.667,14.333,8.333,19.333c5.333,5.333,11.667,8,19,8
	c8,0,15-2.667,20.666-7.667c5.667-5.333,8.334-11.666,8.334-19.666c0-7.667-3-14.334-8.667-20
	c-5.667-5.667-12.667-8.334-20.333-8.334c-7.334,0-14,2.667-19.333,8.334C294,651.333,291.333,658,291.333,665.667z M430.667,338
	c0,8,2.666,14.333,8,19.333c5.333,5.333,12,8,19.333,8c8,0,15-2.667,20.667-7.667C484.333,352.667,487,346,487,338
	c0-7.667-3-14.333-8.667-20c-5.666-5.667-12.666-8.333-20.333-8.333s-14,2.667-19.333,8.333
	C433.333,323.667,430.667,330.333,430.667,338z M441.333,704.333c0,7.667,2.667,14,8.334,19.334c5.333,5.333,11.666,8,19,8
	c8,0,15-2.667,20.666-7.667c5.667-5.333,8.334-11.667,8.334-19.667c0-7.666-3-14.333-8.667-20
	c-5.667-5.666-12.667-8.333-20.333-8.333c-7.334,0-14,2.667-19.334,8.333C444,690,441.333,696.667,441.333,704.333z
	 M590.667,332.667c0,7.667,2.666,14,8,19c5.666,5.667,12,8.333,19.333,8.333c8,0,15-2.667,20.667-7.667
	C644.333,347,647,340.667,647,332.667c0-7.667-3-14.333-8.667-20c-5.666-5.667-12.666-8.333-20.333-8.333
	c-7.333,0-13.667,2.667-19.333,8.333C593.667,318.333,590.667,325,590.667,332.667z M760.333,568c0,8,2.667,14.333,8,19.333
	c5.334,5.334,12,8,19.334,8c8,0,15-2.666,20.333-7.666c5.667-5.334,8.333-11.667,8.333-19.667c0-7.667-2.666-14.333-8.333-20
	s-12.333-8.333-20.333-8.333c-7.667,0-14,2.666-19.334,8.333C763.333,553.667,760.333,560.333,760.333,568z"/>
</svg>
