<?xml version="1.0" encoding="utf-8"?>
<!-- Generator: Adobe Illustrator 16.0.3, SVG Export Plug-In . SVG Version: 6.00 Build 0)  -->
<!DOCTYPE svg PUBLIC "-//W3C//DTD SVG 1.1//EN" "http://www.w3.org/Graphics/SVG/1.1/DTD/svg11.dtd">
<svg version="1.1" id="Layer_1" xmlns="http://www.w3.org/2000/svg" xmlns:xlink="http://www.w3.org/1999/xlink" x="0px" y="0px"
	 width="1000px" height="1000px" viewBox="0 0 1000 1000" enable-background="new 0 0 1000 1000" xml:space="preserve">
<path fill="#0E70A0" d="M145.667,487.333c0-8,2.667-15,8.333-20.666c5.667-5.334,12.667-8,20-8h68c7.667,0,14,2.666,19.333,8.333
	c5,5.667,7.667,12.333,7.667,20.333s-2.333,14.667-7.333,20.334c-5,5.666-11.667,8.333-19.333,8.333h-68
	c-7.667,0-14.333-2.667-20-8.333C148.667,502,145.667,495.333,145.667,487.333z M241,718.333c0-7.666,2.667-14.333,7.667-20.333
	l49-47.667c5-5.333,11.667-7.666,19.667-7.666s14.667,2.666,20,7.666c5.334,5,8,11.334,8,19c0,8-2.666,15.334-8,21.334L290,738
	c-13.667,10.667-27.333,10.667-41,0C243.667,732.667,241,726,241,718.333z M241,257c0-7.667,2.667-14.333,7.667-20.333
	c6.667-5.667,13.667-8.333,21.333-8.333c7.333,0,14,2.667,19.667,8l47.667,49c5.334,5,8,11.667,8,19.667s-2.666,14.667-8,20
	c-5.333,5.333-12,8-20,8s-14.667-2.667-19.667-8L249,277.333C243.667,272,241,265,241,257z M326,487.333
	c0-31,7.667-60,23.333-86.666C365,374,386,352.667,413,337s55.667-23.333,86.667-23.333c23.333,0,45.666,4.667,67.333,14
	C588.333,337,607,349.333,622.333,365c15.667,15.667,28,34,37,55.333c9,21.334,13.667,44,13.667,67.334
	c0,31.333-7.667,60.333-23.333,87C634,601.333,613,622.333,586.333,638c-26.666,15.667-55.666,23.333-87,23.333
	c-31.333,0-60.333-7.666-87-23.333c-26.666-15.667-47.666-36.667-63.333-63.333C334,547.667,326,518.667,326,487.333z
	 M471.333,746.667c0-8,2.667-14.667,8.334-20c5.666-5.334,12.333-8,20-8c8,0,15,2.666,20.333,8c5.333,5.333,8,12,8,20V813
	c0,8-2.667,15-8.333,20.667c-5.667,5.666-12.334,8.333-20,8.333c-7.667,0-14.667-2.667-20-8.333C474,828,471.333,821,471.333,813
	V746.667L471.333,746.667z M471.333,230v-68c0-7.667,2.667-14.333,8.334-20c5.666-5.667,12.333-8.667,20.333-8.667
	s14.333,2.667,20,8.333c5.667,5.667,8.333,12.333,8.333,20V230c0,7.667-2.666,14-8.333,19.333c-5.667,5.333-12.333,7.667-20,7.667
	s-14.667-2.667-20-7.667S471.333,237.667,471.333,230z M475,374c29,3.667,53.333,16.333,73,38.333
	c19.667,22,29.667,48,29.667,77.667c0,27.667-8.667,52-26,73.333c-17.334,21-39.334,34.667-66,40.334
	c6.666,0.666,11.666,1.333,14.666,1.333c32.334,0,60.334-11.667,83.334-34.667s34.666-50.666,34.666-83.333
	c0-32-11.666-59.333-34.666-82.333c-23-22.667-50.667-34-83.334-34C491.333,371.333,483,372.333,475,374z M655.333,669.333
	c0-7.666,2.667-14,7.667-18.666c5-5.334,11.333-7.667,18.667-7.667c8,0,14.666,2.667,20,7.667l48.666,47.666
	c5.334,5.667,8,12.667,8,20.334c0,7.666-2.666,14.333-8,19.666c-13.333,10.334-26.666,10.334-40,0L663,691
	C658,685,655.333,678,655.333,669.333z M655.333,305.333c0-8.333,2.667-15,7.667-19.667l47.333-49c5.667-5.333,12.334-8,19.667-8
	c8,0,14.667,2.667,20,8.333c5.667,5.667,8.333,12.333,8.333,20c0,8.333-2.666,15.333-8,20.667l-48.666,47.667
	c-6,5.333-12.667,8-20,8c-7.667,0-13.667-2.667-18.667-8C658,320,655.333,313.333,655.333,305.333z M730.667,487.333
	c0-8,2.666-14.666,8-20.666c5.333-5.334,11.666-8,19-8H825c7.667,0,14.333,3,20,8.666c5.667,5.667,8.667,12.334,8.667,20
	c0,7.667-3,14.334-8.667,20c-5.667,5.667-12.333,8.334-20,8.334h-67.333c-7.667,0-14.334-2.667-19.334-8.334
	C733.333,501.667,730.667,495.333,730.667,487.333z"/>
</svg>
