<?xml version="1.0" encoding="utf-8"?>
<!-- Generator: Adobe Illustrator 16.0.3, SVG Export Plug-In . SVG Version: 6.00 Build 0)  -->
<!DOCTYPE svg PUBLIC "-//W3C//DTD SVG 1.1//EN" "http://www.w3.org/Graphics/SVG/1.1/DTD/svg11.dtd">
<svg version="1.1" id="Layer_1" xmlns="http://www.w3.org/2000/svg" xmlns:xlink="http://www.w3.org/1999/xlink" x="0px" y="0px"
	 width="1000px" height="1000px" viewBox="0 0 1000 1000" enable-background="new 0 0 1000 1000" xml:space="preserve">
<path fill="#0E70A0" d="M153.333,564.333c0-38.666,12-72.666,36.333-102.666c24-30,55-49.334,92.667-57.667
	c9.667-46,32.667-83.333,69-113c36.334-29.667,78-44.333,125.334-44.333c46.333,0,87.666,14.333,124,42.667
	c36,28.333,59.666,65,70.666,110h11.334c30,0,57.666,7.334,82.666,22c25.334,14.667,45,34.667,59.667,60
	c14.333,25.334,21.667,53,21.667,83C846.667,609,831.333,647,801,679c-30.667,32-68,48.667-112.333,50c-4,0-6-2-6-5.667v-44.666
	c0-3.667,2-5.667,6-5.667c28-2.333,52.333-14,72.333-35s30-45.667,30-74c0-29.667-10.667-55.333-32-77
	c-21.333-21.333-46.667-32.333-76.333-32.333h-54.334c-4,0-6.333-2-7.333-6l-2.333-19c-2.334-23.667-10-45.333-23.334-64.667
	c-13.333-19.333-30.333-34.333-51-45.333c-20.666-11-43.333-16.333-67.333-16.333c-36.667,0-68.333,12-95.333,36.333
	c-27,24.333-42.334,54.667-45.667,90.666l-2.333,18c0,3-1.667,4.667-5.334,4.667l-18,3.667C282.333,459,258.667,470.333,240,491
	c-19,20.667-28.333,45-28.333,73.333c0,29,10,54,29.667,75c19.667,21,43.667,32.334,72.333,34c4,0,6,2,6,5.667v44.667
	c0,3.666-2,5.666-6,5.666c-22-1-42.667-6-62.667-15s-37-21-51-35.666C185.667,664,174.333,647,166,627
	S153.333,586.333,153.333,564.333z M334,790c0-1,0.333-2.667,0.667-4.333c0.333-1.667,0.666-3,0.666-3.667l9-34.333
	c2.334-7.334,6.667-13.334,13.334-17c6.666-4,13.666-4.667,21.333-2.334c7.667,2.334,13.333,6.667,17.333,13.334
	c4,6.666,4.667,13.666,2.334,21.333l-8,33.667c-4.334,14.666-12.667,22-25.334,22c-1,0-1.666,0-3,0c-1,0-2.333-0.334-3.666-0.334
	C357.333,818,356.333,818,355.333,818c-7-2-12.333-6-16-11.333C335.667,801.333,334,795.333,334,790z M378,629.333
	c0-0.666,0-2,0.333-3.666c0.334-1.667,0.334-2.667,0.334-3l10-35c2-6.334,5.666-11.334,10.666-15c5-3.334,10.334-5,15.667-5
	c0.667,0,1.667,0,2.667,0s2,0.333,3,0.333c1,0.333,2,0.333,2.666,0.333c7.667,2.334,13.334,6.667,17,13.334
	c4,6.666,4.667,13.666,2.334,21.333l-8,33.333C432.333,645.667,428,652,421.333,656c-6.666,4-14,4-21.666,0.667
	c-7.334-2-12.667-5.667-16.334-11.334C379.667,639.667,378,634.667,378,629.333z M419,894.333c0-1,0.333-2.333,0.667-4.333
	c0.333-2,0.666-3,0.666-4L430,853c2-8,6.667-14,13.333-18c6.667-4,14-5,21.667-2.667c7.667,2.334,13,6.667,17,13.667
	s4.333,14,2.333,21.667L476,902.333c-3.667,13.667-12.333,20.334-26.667,20.334c-1.666,0-4.333-0.334-8-1.334
	c-7.333-1.333-12.666-4.666-16.333-10C421,906,419,900.333,419,894.333z M463.667,735.333c0-2,0.333-4.666,1.333-8.333l9-34.333
	c2.333-7.667,6.667-13.334,13.667-17c6.666-4,14-4.667,21.666-2.334c7.667,2,13,6.334,17,13C530,693,530.667,700,528.333,708l-8,33
	c-4.333,15-12.333,22.667-24,22.667c-1.333,0-5-0.667-10.333-2c-7.333-1.334-12.667-4.667-16.333-10
	C465.667,746.667,463.667,741,463.667,735.333z M557.667,791.333c0-2.333,0.333-5,1-8l9.333-33c2.333-8,6.667-14,13.667-18
	s13.666-5,21-3c7.666,2.334,13.666,6.667,17.666,13.667c4,6.667,5,13.667,3,21l-9.666,35.333c-3.334,13.667-12,20.334-26.334,20.334
	c-3,0-6-0.334-8.666-1c-6.667-1.334-11.667-4.667-15.334-10C560,802.667,558,797,557.667,791.333z M603.667,632.667
	c0-1,0.666-4,1.666-8.667l10-34.333c1.334-7,4.334-12.334,9.667-15.667s10.667-5,16.333-4.667c1.334-0.333,4.334,0,8,1
	c7.334,1.667,13,6,17.334,12.667c4,5.667,4.666,12.667,2.333,21.667L661,639c-4.333,14.333-12.667,21.667-25.333,21.667
	c-2,0-5.667-0.667-11.334-2c-7-2-12-5.667-15.333-10.334C605.333,643,603.667,638,603.667,632.667z"/>
</svg>
