<?xml version="1.0" encoding="utf-8"?>
<!-- Generator: Adobe Illustrator 16.0.3, SVG Export Plug-In . SVG Version: 6.00 Build 0)  -->
<!DOCTYPE svg PUBLIC "-//W3C//DTD SVG 1.1//EN" "http://www.w3.org/Graphics/SVG/1.1/DTD/svg11.dtd">
<svg version="1.1" id="Layer_1" xmlns="http://www.w3.org/2000/svg" xmlns:xlink="http://www.w3.org/1999/xlink" x="0px" y="0px"
	 width="1000px" height="1000px" viewBox="0 0 1000 1000" enable-background="new 0 0 1000 1000" xml:space="preserve">
<path fill="#0E70A0" d="M103.333,565.667c0,8,3,15,9.333,20.666c5.333,6.334,12.333,9.334,21,9.334h489.667
	c9.667,0,17.667,3.333,24.334,10c6.666,6.666,10,15,10,24.666c0,9.667-3.334,17.667-10,24C641,660.667,633,664,623,664
	c-9.667,0-18-3.333-24.333-9.667c-5.334-6-12-8.666-20-8.666c-8.334,0-15.334,3-21.334,8.666c-6,5.667-9,12.667-9,20.334
	c0,8.333,3,15.333,9.334,21C576.333,714,598.333,723.333,623,723.333c26,0,48.333-9,67-27s27.667-39.666,27.667-65.666
	s-9.334-48-28-66.667c-18.667-18.667-41-28-66.667-28H133.667c-8.333,0-15.333,3-21.333,8.667
	C106.333,550.333,103.333,557.333,103.333,565.667z M103.333,456.333c0,7.667,3,14.334,9.333,20.334c5.667,6,12.667,8.666,21,8.666
	h668c26,0,48.333-9,67-27.333c18.666-18,28-40,28-65.667c0-25.667-9.334-48-28-66.333c-18.667-18.333-41-27.667-67-27.667
	c-25.667,0-47.334,9-65,26.667c-6,5.333-9,12.667-9,22.333c0,8.667,3,15.667,8.666,21c5.667,5.333,12.667,8,21,8c8,0,15-2.667,21-8
	c6.334-7,14-10.333,23.334-10.333c9.666,0,17.666,3.333,24.333,10s10,14.667,10,24.333c0,9.667-3.333,17.667-10,24
	c-6.667,6.334-14.667,9.667-24.333,9.667h-668c-8.333,0-15.333,3-21.333,8.667C106.333,441,103.333,448,103.333,456.333z"/>
</svg>
