<?xml version="1.0" encoding="utf-8"?>
<!-- Generator: Adobe Illustrator 16.0.3, SVG Export Plug-In . SVG Version: 6.00 Build 0)  -->
<!DOCTYPE svg PUBLIC "-//W3C//DTD SVG 1.1//EN" "http://www.w3.org/Graphics/SVG/1.1/DTD/svg11.dtd">
<svg version="1.1" id="Layer_1" xmlns="http://www.w3.org/2000/svg" xmlns:xlink="http://www.w3.org/1999/xlink" x="0px" y="0px"
	 width="1000px" height="1000px" viewBox="0 0 1000 1000" enable-background="new 0 0 1000 1000" xml:space="preserve">
<path fill="#0E70A0" d="M154.333,563.667c0,37,11,70,33,99s50.667,49,86,59.666l-22,56c-1,4.667,0.667,7.334,4.667,7.334h71
	L294.333,929h9.333l130.667-191.667c1.334-1.333,1.334-3,0.334-4.666c-1-1.667-2.667-2.334-5-2.334H357l82.667-154.666
	c2.333-4.667,0.666-7.334-4.667-7.334h-98c-3,0-5.667,1.667-7.667,5L293.667,669c-23.667-6-43.333-19-59-38.667
	c-15.667-19.666-23.333-42-23.333-67c0-27.666,9.333-51.666,28.333-72.333c19-20.333,42.333-32.333,70-35.667L327.333,453
	c4.334,0,6.667-2,6.667-6l2.333-17C340,394,355,363.667,382,339.333c27-24.333,58.667-36.667,95-36.667s68,12.333,95,36.667
	C599.333,363.667,614.667,394,618.667,430L621,449.333c0,3.667,2,5.667,6,5.667h53.333c30.334,0,56,10.667,77.334,31.667
	c21.333,21,32.333,46.666,32.333,76c0,28.333-10,53-29.667,73.666C740.667,657,716,668.667,687,671c-4.333,0-6.667,2-6.667,6v45.667
	c0,3.666,2.334,5.666,6.667,5.666C731.333,727,769,710,800,678s46.333-70.333,46.333-115c0-30-7.333-57.667-22.333-83
	c-14.667-25.333-35-45.333-60.333-60c-25.667-14.667-53.334-22-83.334-22H670c-11-44.333-34.667-80.667-70.333-108.667
	C564,261.333,523,247,477,247c-47,0-89,14.667-125.333,43.667c-36.334,29-59.667,66.333-70,112
	c-37,8.666-67.333,27.666-91.333,57.666S154.333,525.333,154.333,563.667z M425.667,887.333c0,13,6.333,21.667,19.333,25.667
	c0.333,0,1.667,0,3.667,0.333c2,0.334,3.666,0.334,4.666,0.334c5.667,0,11-1.667,16.334-5c5.333-3.334,9-8.667,10.666-16l75-289.667
	c2-8,1.334-15-2.333-21.667c-3.667-6.333-9-10.666-16.667-13c-5.666-0.666-8.666-1-8.666-1c-5.334,0-10.667,1.667-15.667,5
	c-5,3.334-8.667,8.334-10.333,15L426.333,878C426,881.333,425.667,884.333,425.667,887.333z M564.333,785.333
	c0,4.334,1,8.667,3.334,12.667c4.666,7.333,10.333,12.333,17,14.667c3.666,1,7,1.666,10,1.666s6.666-0.666,10.666-2.666
	c7-3,11.667-9.334,14-19l48-189c1-4.667,1.667-7.667,1.667-9c0-5-1.667-10-5.333-15C660,574.666,655,571,648.333,569
	c-5.666-0.667-8.666-1-8.666-1c-5.667,0-11,1.667-15.667,5s-8,8.333-10,15l-48.667,190c0,0.667,0,1.666-0.333,3.667
	C564.333,783.333,564.333,784.333,564.333,785.333z"/>
</svg>
