<?xml version="1.0" encoding="utf-8"?>
<!-- Generator: Adobe Illustrator 16.0.3, SVG Export Plug-In . SVG Version: 6.00 Build 0)  -->
<!DOCTYPE svg PUBLIC "-//W3C//DTD SVG 1.1//EN" "http://www.w3.org/Graphics/SVG/1.1/DTD/svg11.dtd">
<svg version="1.1" id="Layer_1" xmlns="http://www.w3.org/2000/svg" xmlns:xlink="http://www.w3.org/1999/xlink" x="0px" y="0px"
	 width="1000px" height="1000px" viewBox="0 0 1000 1000" enable-background="new 0 0 1000 1000" xml:space="preserve">
<path fill="#0E70A0" d="M416,652c0,23.667,8,44,24.333,60.667c16.334,16.666,35.667,25,58.667,25s42.667-8.334,59.667-25
	c17-16.667,25.333-37,25.333-60.334c0-21-7.333-39.666-21.667-55.666c-14.333-16-32-25.667-52.333-28.334V323
	c0-2-1-4.333-3.333-6.333c-2.334-2.333-4.667-3.333-7.334-3.333c-3,0-5.333,1-7,2.667c-1.666,2-2.666,4-2.666,7v244.667
	c-20.334,3-37.667,12.333-52,28.333C423,612.333,416,630.667,416,652z"/>
</svg>
