<?xml version="1.0" encoding="utf-8"?>
<!-- Generator: Adobe Illustrator 16.0.3, SVG Export Plug-In . SVG Version: 6.00 Build 0)  -->
<!DOCTYPE svg PUBLIC "-//W3C//DTD SVG 1.1//EN" "http://www.w3.org/Graphics/SVG/1.1/DTD/svg11.dtd">
<svg version="1.1" id="Layer_1" xmlns="http://www.w3.org/2000/svg" xmlns:xlink="http://www.w3.org/1999/xlink" x="0px" y="0px"
	 width="1000px" height="1000px" viewBox="0 0 1000 1000" enable-background="new 0 0 1000 1000" xml:space="preserve">
<path fill="#0E70A0" d="M169,708c0-5.333,2-10,5.667-14c4-4,8.333-6,13.667-6h13.333c-7-22-13-45-17.667-69
	c-7-36.667-10.667-70-10.667-99.667c0-57,10-110.666,30.333-160.333C224.333,310.333,253,268.667,290,233.667
	c37.333-35.333,80.667-62.333,130-80.667c50.333-19,104.667-28.667,163.667-28.667c35.333,0,68.666,3,100,9.333
	C715,141,745.333,152.333,774.667,168l56.666,30.333l-62.666,13c-19.334,4.333-32.667,13-40,26c-5.334,10.667-5,23,1,37L743.333,306
	l-34,1.667c-14.333,1-27.666,4-39.333,9c-11,5.333-17.333,10.667-19.333,16.667C647,341,651,352,662.667,366.667l27,32l-42,6
	c-51.667,7.666-94,18.333-127,32c-33,13.666-59,31.333-78.334,53c-18.666,20.666-32.666,47.333-41.666,79
	c-9,32-14,71.666-15,119.666H561v-92.666l-12.667,7.666c-4.666,3-9.666,3.667-15,2.334c-5.666-1.334-9.666-4.334-12.333-9.334
	c-3-4.666-3.667-9.666-2.667-15c1-5.333,4-9.666,9-12.666l127.334-79.334l0.666-0.666c0.334,0,0.334,0,0.334-0.334h0.667
	c0.333,0,0.666,0,1-0.333c2.333-0.667,4.666-1.667,7.666-2.333h2c0.334,0.333,0.667,0.666,1,0.666h2.334
	c0,0.334,0.333,0.334,0.666,0.334h1l0.667,0.333h0.667c0.333,0.333,0.666,0.667,0.666,1h0.667c0.333,0,0.333,0,0.333,0.333
	c0.667,0,1,0,1,0.334c0.334,0,0.667,0,1,0.333l0.667,0.333L805,567.667c4.667,3,7.667,7.333,9,12.666
	c1,5.667,0.334,10.667-2.666,15.334c-2.667,4.666-6.667,7.666-12.334,8.666c-5.666,1-10.666,0.334-15-2.666l-10.333-6.334v92.334h32
	c5.333,0,9.667,2,13.333,6c3.667,4,5.334,8.666,5.334,14C824.667,713.333,822.667,718,819,722c-3.666,4-8.333,6-13.333,6H188.333
	c-5.333,0-10-2-13.667-5.667C171,718.667,169,714,169,708z M220.667,519.333c0,23.667,3.333,54,10,91c5,27,11,50.667,18,70.667
	h89.667c1.667-48.333,6.667-88.333,15-119.667c11.667-42.333,29.334-77,53.334-103C431,431,463,409.333,503,393
	c27.333-11.333,62-21,103.667-29L604,355.667c-3.333-15.333-2.333-29,3-41c7.333-17,21.667-30.667,42.667-40.333
	c2.333-1,4.333-2,6.333-2.333c-28.667-6.667-57.667-8.333-86.667-4.667c-33,4-64,13.667-92.666,28.333
	c-37,19.333-70.334,47-100.334,82.667c-3.333,4-7.666,6-12.666,6c-4,0-7.334-1-10.334-3.333c-3.333-3-5.333-6.667-5.666-11.333
	c-0.334-4.667,0.666-8.667,3.666-12.333c33.334-39.667,70.334-70,111.334-91c32.666-16.333,67.666-27,104.666-31.667
	c19-2.333,37.334-2.667,55.667-0.667c18,2,30.667,4,38,5.667c7.333,1.667,12.333,3,15,4l2.667,1c1.666-10.333,4.333-19.667,8-28
	C692,207,699,198,708,190c-10-3-21.667-6.333-34.667-9.333c-26.666-6-56.666-8.667-89.666-8.667
	C531,172,482,180.667,436.333,197.667c-44.666,17-82.666,40.667-114,71.333c-32.667,30.333-57.667,66.667-74.333,108.667
	C229.667,421.667,220.667,469,220.667,519.333z M601.667,688H731V570.667l-66-40.334L601.667,570V688L601.667,688z"/>
</svg>
