<?xml version="1.0" encoding="utf-8"?>
<!-- Generator: Adobe Illustrator 16.0.3, SVG Export Plug-In . SVG Version: 6.00 Build 0)  -->
<!DOCTYPE svg PUBLIC "-//W3C//DTD SVG 1.1//EN" "http://www.w3.org/Graphics/SVG/1.1/DTD/svg11.dtd">
<svg version="1.1" id="Layer_1" xmlns="http://www.w3.org/2000/svg" xmlns:xlink="http://www.w3.org/1999/xlink" x="0px" y="0px"
	 width="1000px" height="1000px" viewBox="0 0 1000 1000" enable-background="new 0 0 1000 1000" xml:space="preserve">
<path fill="#0E70A0" d="M137.667,506.333c0,23,12,42.667,36,59c44,31,110.333,46.334,199.333,46.334c40,0,77-3.334,111.333-10.334
	c36-7.666,65.667-20,88.334-36.666C595.333,548,607,528.667,607,506c0-7-1.333-13.667-4-20.667c46.333-11.333,82.667-26.666,109-46
	c26.333-19.333,39.667-41.666,39.667-66.667c0-6.333-1-13-3-20C825,325.667,863,289.333,863,243.333
	c0-29.333-16.667-55.333-49.667-78c-65-43.333-160.333-65-286-65c-59.333,0-113,5.333-161,15.667C314,126.667,272,143.333,240,166
	s-48,48.667-48,77.667c0,17.333,5.333,33,16,47.333c-39.333,22.333-59,49.667-59,82c0,25,12.333,47,36.667,66
	C153.667,457.667,137.667,480,137.667,506.333z M157.667,656.333c0,24.334,15,43.667,45,57.334c30,13.666,68,20.666,113.667,20.666
	c46.334,0,84.334-7,114.667-20.666c30.333-13.667,45.333-33,45.333-57.334c0-9-3-16.666-8.666-23C462,627,454.333,624,445.333,624
	c-7.333,0-14,2.667-20,7.667s-9.666,11.666-11.333,19c-6.667,5.333-18.667,10-36.667,14.333s-38.333,6.667-61,6.667
	c-36.667,0-66.667-5.334-89.333-15.667c5.333-5.333,8-12,8.667-20c0.667-8-1.333-15-5-20.667c-5.333-7-12-11.666-20.333-13.333
	c-8.333-1.667-16,0-23.333,4.333C167.333,620,157.667,636.333,157.667,656.333z M200.333,506.333c0-0.333,2-2.333,6.333-6
	c3-3,9.333-6.666,18.667-11.333c9.333-4.667,20.333-8.333,32-11.667l4-2c54,18,117,27,189,27c31.667,0,60.334-1.666,86-5.333
	l8.667,7.667c-3,5.333-10,10.666-21,16.666c-13.333,7-34,13.667-62,19c-28,5.334-57.667,8.334-89,8.334s-61-2.667-89-8.334
	c-28-5.666-49-12-62.667-19C210,516.667,203,511.667,200.333,506.333z M204,787c0,21,12,37.333,36,48.667c24,11.333,53.667,17,89,17
	c36,0,66.333-5.667,90.667-17C444,824.333,456.333,808,456.333,787c0-8.333-3-16-9.333-22.333c-6.333-6.334-13.667-9.667-22-9.667
	c-15.667,0-26,8-30.667,24c-13,8-34.666,12.333-65.333,12.333c-26.667,0-48-4-64-12.333c-5-16-15-24-30.667-24
	c-8.333,0-15.667,3-21.333,9.333C207.333,770.667,204,778,204,787z M211,373c0-2.667,1.667-5.667,5-9.333c8-10,24-20,47.333-29.333
	c64,34.333,152,51.333,263.667,51.333c57,0,110.667-5.333,160.667-15.667v3c0,5-3,10-9.334,15c-13.666,12-39,23.333-76.333,34.333
	c-40.333,12-91,18-152,18c-61.333,0-112-6-152.333-18c-38.667-10.666-64.333-22-77.333-34C214,383.333,211,378.333,211,373z
	 M254.333,243.667c0-6,4-12.333,11.667-19.667c15-14,45-27.333,89.333-40.333c47.667-14,104.667-21,171.334-21
	c67,0,124.666,7,173,21c45,13,74.666,26.667,89.333,40.667c7.333,7.333,11.333,14,11.333,19.667s-3.666,11.667-11.333,18.667
	c-14.667,14-44.333,27.667-89.333,41c-48.334,14-105.667,21-173,21c-66.667,0-124-7-171.334-21
	c-44.666-13.333-74.667-27-89.333-41.333C258.333,255.333,254.333,249.333,254.333,243.667z"/>
</svg>
