<?xml version="1.0" encoding="utf-8"?>
<!-- Generator: Adobe Illustrator 16.0.3, SVG Export Plug-In . SVG Version: 6.00 Build 0)  -->
<!DOCTYPE svg PUBLIC "-//W3C//DTD SVG 1.1//EN" "http://www.w3.org/Graphics/SVG/1.1/DTD/svg11.dtd">
<svg version="1.1" id="Layer_1" xmlns="http://www.w3.org/2000/svg" xmlns:xlink="http://www.w3.org/1999/xlink" x="0px" y="0px"
	 width="1000px" height="1000px" viewBox="0 0 1000 1000" enable-background="new 0 0 1000 1000" xml:space="preserve">
<path fill="#0E70A0" d="M330.333,652c0-28.333,6.667-54.667,19.667-79.333c13-24.667,31.333-45,55-61.334V180.667
	c0-26.667,9-49.333,27.333-67.667c18.334-18.333,41-28,67.667-28c27,0,49.667,9.333,68,27.667
	c18.333,18.667,27.667,41,27.667,67.667V511c23.666,16.333,41.666,37,54.666,61.333c13,24.334,19.334,51,19.334,79.334
	C669.667,682.333,662,711,647,737s-35.667,46.667-61.667,61.667S531,821.333,500,821.333c-30.667,0-59-7.666-85-22.666
	S368.333,763,353,737S330.333,682.667,330.333,652z M389,652c0,31,11,57.667,32.667,79.667c21.666,22,48,33,78.666,33
	c31,0,57.667-11,80-33.334C602.667,709,614,682.667,614,652.333c0-20.666-5.333-40-16-57.666c-10.667-17.667-25.333-31.334-44-41
	L544.667,549c-3.334-1.333-5-4.667-5-9.667V180.667c0-10.667-3.667-19.667-11.334-27c-7.666-7-17-10.667-28.333-10.667
	c-10.667,0-20,3.667-27.667,10.667c-7.666,7-11.333,16-11.333,27v358c0,5-1.667,8.333-4.667,9.666l-9,4.667
	c-18.333,9.667-32.666,23.333-43,41C394,611.667,389,630.667,389,652z M415,652c0,23.667,8,44,24.333,60.667
	c16.334,16.666,35.667,25,58.667,25s42.667-8.334,59.667-25c17-16.667,25.333-37,25.333-60.334c0-21-7.333-39.666-21.667-55.666
	c-14.333-16-32-25.667-52.666-28.334V323c0-2-1-4.333-3.334-6.333c-2.333-2.333-4.666-3.333-7.333-3.333c-3,0-5.333,1-7,2.667
	c-1.667,2-2.667,4-2.667,7v244.667c-20.333,3-37.666,12.333-52,28.333C422,612.333,415,630.667,415,652z"/>
</svg>
