<?xml version="1.0" encoding="utf-8"?>
<!-- Generator: Adobe Illustrator 16.0.3, SVG Export Plug-In . SVG Version: 6.00 Build 0)  -->
<!DOCTYPE svg PUBLIC "-//W3C//DTD SVG 1.1//EN" "http://www.w3.org/Graphics/SVG/1.1/DTD/svg11.dtd">
<svg version="1.1" id="Layer_1" xmlns="http://www.w3.org/2000/svg" xmlns:xlink="http://www.w3.org/1999/xlink" x="0px" y="0px"
	 width="1000px" height="1000px" viewBox="0 0 1000 1000" enable-background="new 0 0 1000 1000" xml:space="preserve">
<path fill="#0E70A0" d="M141.667,422.667V412c0-3.333,1-6,3.333-8.333c2.333-2.334,5-3.334,8.333-3.334H406c3.333,0,6,1,8.333,3.334
	c2.334,2.333,3.334,5,3.334,8.333v10.667c0,3.333-1,6-3.334,8.333c-2.333,2.333-5,3.333-8.333,3.333h-14.667v55H462
	c0.667-9.333,4.667-17.333,11.667-23.666c7-6.334,15.333-9.667,25-9.667c9.666,0,17.666,3.333,24.666,9.667
	C530.333,472,534,480,535,489.333h44v-113c-4.667-0.333-8.333-2-11.667-5.333c-3.333-3.333-5-7.667-5-12.333v-10.333
	c0-4.667,1.667-9,5.334-12.667c3.666-3.667,8-5.333,13-5.333H647c5,0,9.333,1.667,12.667,5.333c3.333,3.667,5,7.667,5,12.667v10.333
	c0,4.667-1.667,9-4.667,12.333s-6.667,5.333-11.333,5.333v113h52c9,0,17,3.334,23.666,10c6.667,6.667,10,14.667,10,23.667v97.667
	L858.666,783H700.667V681.667H677c3.667,8.666,5.333,18,5.333,27.666c0,20.334-7,37.334-21.333,52
	C646.667,775.667,629.333,783,609.333,783c-20.333,0-37.333-7.333-52-21.667c-14.333-14.333-21.666-31.666-21.666-52
	c0-9.666,1.666-19,5.333-27.666h-33.333c3.666,9,5.666,18.333,5.666,27.666c0,20.334-7.333,37.334-21.666,52
	C477.333,776,460,783,439.667,783c-20.334,0-37.334-7.333-51.667-21.667c-14.333-14.333-21.333-31.666-21.333-52
	c0-9.666,1.666-19,5.333-27.666h-39.667c4,9.666,6,19,6,27.666c0,20.334-7.333,37.334-21.666,52C302.333,776,285,783,264.667,783
	c-20.333,0-37.333-7.333-52-21.667C198,747,191,729.667,191,709.333c0-9.666,2-19,5.667-28c-8-1.333-15-5-20.333-11.333
	c-5.333-6.333-8-13.667-8-22v-28.667h-0.667v-185h-14.333c-3.333,0-6-1-8.333-3.333S141.667,426,141.667,422.667z M210,554
	c0,7,2.333,13,7.333,18s11,7.333,18,7.333h48c7,0,13-2.333,17.667-7.333s7.333-11,7.333-18v-76.667c0-7-2.333-12.666-7.333-17.666
	s-10.667-7.334-17.667-7.334h-47.667c-7,0-13,2.334-18,7.667c-5,5-7.333,10.667-7.333,17.333V554H210z M526,181
	c0,13.667,5.333,25.333,15.667,34.667c0,6.667,3,14.333,8.666,22.667c5.667,8.333,12,13.333,18.667,14.667
	c1.333,7.333,5,13.667,10.333,19c5.334,5,12,8.333,19.667,10c-3.667,3.667-5.333,8-5.333,13c0,6,2,11,6,15s9,6,15,6
	s11-2,15.333-6.333c4.333-4,6.333-9.333,6.333-15c0-0.667,0-1.667-0.333-3c-0.333-1.333-0.333-2.667-0.333-3.333h1
	c7,0,13-2.667,18-7.667s7.666-11.333,7.666-18.333c0-3.333-1.333-7.333-4-12.667c5.667-3,10.334-8.333,13.667-15.667h15
	c13-0.667,24.333-5.667,33.333-15c9.334-9.333,14-20.333,14-33.667c0-11.333-3.666-21.333-11-30
	C716,146.667,706.667,141,695.667,138C693,124.667,686,113.667,675,105s-23.667-13-37.333-13c-13.667,0-25.667,4.333-36,12.667
	C591.333,113,584.333,124,581,137h-3.667c-13.666,0-25.666,4.333-36,13C531,158.333,526,169,526,181z"/>
</svg>
