<?xml version="1.0" encoding="utf-8"?>
<!-- Generator: Adobe Illustrator 16.0.3, SVG Export Plug-In . SVG Version: 6.00 Build 0)  -->
<!DOCTYPE svg PUBLIC "-//W3C//DTD SVG 1.1//EN" "http://www.w3.org/Graphics/SVG/1.1/DTD/svg11.dtd">
<svg version="1.1" id="Layer_1" xmlns="http://www.w3.org/2000/svg" xmlns:xlink="http://www.w3.org/1999/xlink" x="0px" y="0px"
	 width="1000px" height="1000px" viewBox="0 0 1000 1000" enable-background="new 0 0 1000 1000" xml:space="preserve">
<path fill="#0E70A0" d="M124.667,482.333c0-68,17-131,50.667-188.667c33.667-57.667,79.333-103.333,137-137
	c57.667-33.667,120.334-50.333,188-50.333c50.667,0,99.334,10,145.667,29.667s86,46.667,119.667,80
	c33.666,33.333,60.333,73.333,80,120c19.666,46.667,29.666,95,29.666,146.333c0,50.667-10,99.334-29.666,145.667
	c-19.667,46.333-46.667,86.333-80,119.667c-33.334,33.333-73.334,60-119.667,79.666C599.667,847,551.333,857,500.333,857
	s-100-10-146.333-29.667c-46.333-19.666-86.333-46.666-120-80C200.333,714,174,674,154,628S124.667,533.333,124.667,482.333z
	 M207.333,482.333c0,79,28.667,147.667,86.333,206C351.333,746,420,774.667,500.333,774.667c52.667,0,101.667-13,146.334-39.334
	c44.666-26.333,80.666-61.666,107-106.666c26.333-45,39.666-93.667,39.666-146.334c0-52.666-13.333-101.667-39.666-146.667
	c-26.334-45-62-80.667-107-107c-45-26.333-93.667-39.333-146.334-39.333c-52.666,0-101.666,13-146.333,39.333
	c-44.667,26.333-80.667,62-107.333,107C220,380.667,207.333,429.667,207.333,482.333z M471.333,482.333c0,7.334,2.667,14,8,19.667
	c5.334,5.667,12,8.333,19.667,8.333c7.333,0,14-2.666,19.667-8.333c5.666-5.667,8.333-12,8.333-19.667v-222
	c0-7.667-2.667-14.333-8.333-19.667c-5.667-5.333-12-8-19.667-8s-14.333,2.667-19.667,8c-5.333,5.333-8,12-8,19.667V482.333z"/>
</svg>
