<?xml version="1.0" encoding="utf-8"?>
<!-- Generator: Adobe Illustrator 16.0.3, SVG Export Plug-In . SVG Version: 6.00 Build 0)  -->
<!DOCTYPE svg PUBLIC "-//W3C//DTD SVG 1.1//EN" "http://www.w3.org/Graphics/SVG/1.1/DTD/svg11.dtd">
<svg version="1.1" id="Layer_1" xmlns="http://www.w3.org/2000/svg" xmlns:xlink="http://www.w3.org/1999/xlink" x="0px" y="0px"
	 width="1000px" height="1000px" viewBox="0 0 1000 1000" enable-background="new 0 0 1000 1000" xml:space="preserve">
<path fill="#0E70A0" d="M154.667,488.333c0.333-11.333,6-28.666,16.667-52.666c10.667-24,25.333-49.333,44.333-76.667
	c62-87,149.667-132.667,262.667-137.667V207c0-7,2.334-12.333,7-16.667c4.667-4.333,10-6.333,16-6.333
	c6.334,0,11.667,2,16.667,6.333c4.667,4.333,7.333,10,7.333,16.667v14.667C558,223,588.667,228,617,236.667
	c28.333,8.667,53,19.667,74,33.333s39,27.667,53.667,42.333c15,14.333,28.333,30,40,47c13.666,19.667,25.666,41,35.333,63.333
	C829.667,445,836.667,463,840.333,476.333c3.667,13.334,5.667,20,6,20.334V503c0,6-2.333,10.667-7,14.667
	c-4.666,4-10,5.666-16.333,5.666c-10.333,0-17-3-20-8.666C777,485.333,748.667,471,718,471c-11.333,0.667-23,3.333-34.333,7.667
	c-11.334,4.333-20.667,9-27.334,14c-7,4.666-13.333,9.666-19.333,14.666s-9,7.334-9.333,7.667
	c-6.334,5.667-12.334,8.667-17.667,8.667c-7.667,0-13.333-2-17.333-6c-24.334-24.334-46.334-39-67-44V726v5.667l-0.334,7
	L524,746.333l-2,8.334l-3,8.666l-4.333,9L509,781l-7,8.333c-17,19.667-41,29.334-72.667,29.334c-33.666,0-59-9.667-76-29.334
	c-4-4-7.333-8.333-10.333-12.666c-3-4.667-5.333-9-7-13.667c-1.667-4.333-3-8.667-4-12.667s-1.667-8-2-12c-0.667-5-1-8.333-1-11
	c0-2.666,0-5.333,0-7.666c0-2.334,0.333-4,0.333-4.334c0-6,2.667-11.333,7.667-15.666c5.333-4.334,11.333-6,18.333-4.667
	c6,0,10.667,2.667,14.667,7.667s6,11.333,6,18.666c-2,13.667,0.667,25.334,8.333,35c7,9.667,21.667,14.667,44,14.667
	c17.334,0,30-4,37.667-12c4.333-4.333,7.667-9.667,9.667-16s3-11.333,2.666-15.667L478,721V475.667c-24.333,6-46,18.666-64.333,38
	c-1.334,2.666-4,5.333-7.667,7.666c-3.667,2.334-7,3.667-10,3.667c-6,0-12.667-3.667-20-11.333C349.333,484,321,469.333,291,470
	c-13.333,0.333-26,2.333-37.333,6.667c-11.667,4.333-20.333,8.666-26.333,13c-5.667,4.333-12,9.333-18,15
	c-6,5.666-9.667,9-10.667,9.666c-7,4.667-12.667,7.334-17,7.334c-4.333,0-10-2-16-5.667c-5.333-3.333-8.667-7-10-10.667
	C154.667,501.333,154.333,495.667,154.667,488.333z M224.333,441c22.667-12,44-17.667,64-17.667H291
	c38.333,0,73.333,14.667,105,44.334c12.667-11,28-20.667,46.333-29.334c18-8.666,37.667-13.666,59-15H504
	c38.333,0,73.333,14.667,105,44.334c12.667-11,28-20.667,46.333-29.334c18-8.666,37.667-13.666,59-15h3
	c18.667,0,38.334,5,58.334,14.667C761,409.333,751,391,746.333,382.667c-59.666-78-142.333-117-247.666-117
	c-52.667,0-99.667,10-141.334,30c-41.333,20-75.333,49-101.667,87C248,394,237.333,413.667,224.333,441z"/>
</svg>
