<?xml version="1.0" encoding="utf-8"?>
<!-- Generator: Adobe Illustrator 16.0.3, SVG Export Plug-In . SVG Version: 6.00 Build 0)  -->
<!DOCTYPE svg PUBLIC "-//W3C//DTD SVG 1.1//EN" "http://www.w3.org/Graphics/SVG/1.1/DTD/svg11.dtd">
<svg version="1.1" id="Layer_1" xmlns="http://www.w3.org/2000/svg" xmlns:xlink="http://www.w3.org/1999/xlink" x="0px" y="0px"
	 width="1000px" height="1000px" viewBox="0 0 1000 1000" enable-background="new 0 0 1000 1000" xml:space="preserve">
<path fill="#0E70A0" d="M246.333,753.667c-4-9-3-18,3-27l46.667-89c0.333-1.334,1.667-3,3.667-5
	C301,631.333,305.333,628,312.333,623c0.667-0.333,8.334-6,22.667-16.667c16-10.666,34.333-24,56-39.666l60-99.334
	c5.667-9,13.667-13.666,24-13.666h23.333c-5.333,6.333-10.333,13-15,20c-4.666,7-9,16.666-12.666,28.333c-4,12-6,23.667-6,35.667
	s3,25.666,9.333,41.666c6.333,15.667,16,31.334,29.333,46.334c9,10.333,14.667,20.666,16.667,31c2,10.333,0.667,19.333-3.333,27.666
	C512.667,692.667,506,701,497,709s-18.667,15-29.333,21C457,736,445,741.667,432,747.333c-13,5.667-25,10-35,13.667
	c-10.333,3.333-20.667,6.667-31,9.667h-94c-5.333,0-10.667-1.667-15.333-4.667C251.667,763,248.333,759,246.333,753.667z M338,258
	c0-15.333,5-29.333,15-41.333c10-12.333,23-20,38.667-24c3.666-18.667,13.333-34,28.333-46s32.667-18,52-18
	c18.667,0,35.333,5.667,50,17.333s24.333,26.667,28.667,45h4.666c19,0,35.667,6,50,18c14,12,21.334,26.333,21.334,43.333
	c0,18.667-7.334,34.333-21.667,47.667c0,9-4,19.667-12,31c-8,11.667-16.667,18.333-26,20.333c-2,10.333-7,19-14.333,26
	c-7.667,7.333-16.667,12-27.334,14.333c5,5.333,7.334,11.333,7.334,18c0,8.333-3,15.333-8.667,21c-6,5.666-13,8.333-21.333,8.333
	c-8,0-15-3-21-8.667c-6-5.666-8.667-12.666-8.667-20.666c0-1,0.333-2.667,0.667-4.667c0.333-2,0.666-3.667,0.666-4.333h-1
	c-9.666,0-18-3.667-25-10.667s-10.666-15.333-10.666-25c0-4,2-10,6-17.667c-8-4-14.334-11-19-21h-21
	c-18-1.667-33.667-9-46.334-21.667C344.667,292,338,276.333,338,258z M492,516c0-5.333,0.667-11.333,2.333-18
	c1.667-6.667,3.667-11.667,5.334-15.667c1.666-4,4-9,7-15s5-10.333,6.333-13.666h12.667c9.333,0,16.333,3.666,22,10.666l2.333,3.334
	l43.667,82.666l155,174.334l1.333,1c7,9,8,18.666,2.667,29.333c-5,10.333-13.334,15.333-25,15.333H540
	c5.667-5.333,10.667-9.666,14.667-13c4-3.666,9-9,15-16.333s11-14.333,14-20.333s5.666-14,7.666-23s2.334-17.667,0.334-26.334
	c-2-8.333-6-17.666-12.667-28C572.667,633,563.667,623,552,613c-11.333-10-21.333-19.667-29.333-29.333
	c-8-9.334-14.334-18-18.667-25.334c-4.333-7.333-7.667-15-9.667-22.666C493,528,492,521.333,492,516z"/>
</svg>
