<?xml version="1.0" encoding="utf-8"?>
<!-- Generator: Adobe Illustrator 16.0.3, SVG Export Plug-In . SVG Version: 6.00 Build 0)  -->
<!DOCTYPE svg PUBLIC "-//W3C//DTD SVG 1.1//EN" "http://www.w3.org/Graphics/SVG/1.1/DTD/svg11.dtd">
<svg version="1.1" id="Layer_1" xmlns="http://www.w3.org/2000/svg" xmlns:xlink="http://www.w3.org/1999/xlink" x="0px" y="0px"
	 width="1000px" height="1000px" viewBox="0 0 1000 1000" enable-background="new 0 0 1000 1000" xml:space="preserve">
<path fill="#0E70A0" d="M124.667,483.333c0-68,17-131,50.667-188.667c33.667-57.667,79.333-103.333,137-137
	c57.667-33.667,120.334-50.333,188-50.333c50.667,0,99.334,10,145.667,29.667s86,46.667,119.667,80
	c33.666,33.333,60.333,73.333,80,120c19.666,46.667,29.666,95,29.666,146.333c0,50.667-10,99.334-29.666,145.667
	c-19.667,46.333-46.667,86.333-80,119.667c-33.334,33.333-73.334,60-119.667,79.666C599.667,848,551.333,858,500.333,858
	s-100-10-146.333-29.667c-46.333-19.666-86.333-46.666-120-80C200.333,715,174,675,154,629S124.667,534.333,124.667,483.333z
	 M207.333,483.333c0,79,28.667,147.667,86.333,206C351.333,747,420,775.667,500.333,775.667c52.667,0,101.667-13,146.334-39.334
	c44.666-26.333,80.666-61.666,107-106.666c26.333-45,39.666-93.667,39.666-146.334c0-52.666-13.333-101.667-39.666-146.667
	c-26.334-45-62-80.667-107-107c-45-26.333-93.667-39.333-146.334-39.333c-52.666,0-101.666,13-146.333,39.333
	c-44.667,26.333-80.667,62-107.333,107C220,381.667,207.333,430.667,207.333,483.333z M370.333,678.333l125-437c0.334-3.333,2-5,5-5
	s4.667,1.667,5,5l124.667,437c1.333,3.667,1,6.334-0.667,8.334c-1.666,2-4.333,2-8,0l-115.666-43.334
	C502.333,642,499,642,496,643.333l-116.667,43.334c-3.333,2-5.666,2-7,0C371,684.667,369.667,681.667,370.333,678.333z"/>
</svg>
