<?xml version="1.0" encoding="utf-8"?>
<!-- Generator: Adobe Illustrator 16.0.3, SVG Export Plug-In . SVG Version: 6.00 Build 0)  -->
<!DOCTYPE svg PUBLIC "-//W3C//DTD SVG 1.1//EN" "http://www.w3.org/Graphics/SVG/1.1/DTD/svg11.dtd">
<svg version="1.1" id="Layer_1" xmlns="http://www.w3.org/2000/svg" xmlns:xlink="http://www.w3.org/1999/xlink" x="0px" y="0px"
	 width="1000px" height="1000px" viewBox="0 0 1000 1000" enable-background="new 0 0 1000 1000" xml:space="preserve">
<path fill="#0E70A0" d="M161,450c0,6,2,10.333,5.667,13.333c4,3.667,8.667,5.667,14,5.667h346.667c5.667,0,11,2,15.334,6.333
	c4.333,4,6.666,9.334,6.666,15.334S547,502,542.667,506.333c-4.334,4.334-9.334,6.667-15.334,6.667s-11.333-2.333-15.666-7
	c-4-3.667-8.667-5.333-13.334-5.333c-5.333,0-10,1.666-13.666,5.333c-3.667,3.667-5.334,8-5.334,13c0,5.333,2,10,5.667,13.667
	c12,12,26,17.666,42.333,17.666c16.334,0,30.334-5.666,42-17.333c11.667-11.667,17.334-25.667,17.334-42.333
	c0-16.334-5.667-30.667-17.334-42.334c-11.666-11.666-25.666-17.666-42-17.666H180.667c-5.333,0-10,2-14,5.666
	C163,440.333,161,444.667,161,450z M161,382.667c0,5.667,2,10,5.667,13c4,3.667,8.667,5.333,14,5.333H641
	c16.333,0,30.667-6,42.333-17.333C695,372,700.667,358,700.667,341.333c0-16.333-5.667-30.333-17.334-42
	C671.667,287.667,657.667,282,641,282c-16.333,0-30.333,5.667-42.333,17c-3.667,4-5.334,9-5.334,14c0,5.333,1.667,10,5.334,13.333
	c3.666,3.333,8,5,13.333,5c5,0,9.667-1.667,13.667-5.333c4-4,9-6,15-6c5.666,0,11,2,15.333,6s6.667,9,6.667,15
	s-2.334,11.333-6.667,15.667s-9.333,6.667-15.333,6.667h-460c-5.333,0-10,2-14,5.667C163,372.667,161,377.333,161,382.667z
	 M628.333,730h82.334C719.333,687,735,648.333,757,614.333c22.333-34,46.333-61.333,72-81.333l12.667-62.333H643l-13.667,63h116.334
	C679.667,600,640.667,665.333,628.333,730z"/>
</svg>
