<?xml version="1.0" encoding="utf-8"?>
<!-- Generator: Adobe Illustrator 16.0.3, SVG Export Plug-In . SVG Version: 6.00 Build 0)  -->
<!DOCTYPE svg PUBLIC "-//W3C//DTD SVG 1.1//EN" "http://www.w3.org/Graphics/SVG/1.1/DTD/svg11.dtd">
<svg version="1.1" id="Layer_1" xmlns="http://www.w3.org/2000/svg" xmlns:xlink="http://www.w3.org/1999/xlink" x="0px" y="0px"
	 width="1000px" height="1000px" viewBox="0 0 1000 1000" enable-background="new 0 0 1000 1000" xml:space="preserve">
<path fill="#0E70A0" d="M164,450c0,6,2,10.333,5.667,13.333c4,3.667,8.667,5.667,14,5.667h346.667c6,0,11,2,15.334,6.333
	c4.333,4,6.666,9.334,6.666,15.334S550,502,545.667,506.333c-4.334,4.334-9.334,6.667-15.334,6.667s-11.333-2.333-15.666-7
	c-4.334-3.667-8.667-5.333-13.334-5.333c-5.333,0-10,1.666-13.666,5.333c-3.667,3.667-5.334,8-5.334,13c0,5.333,2,10,5.667,13.667
	c12,12,26,17.666,42.667,17.666c16.333,0,30.333-5.666,42-17.333C584.333,521.333,590,507.333,590,490.667
	c0-16.334-5.667-30.667-17.333-42.334c-11.667-11.666-25.667-17.666-42-17.666h-347c-5.333,0-10,2-14,5.666
	C166,440.333,164,444.667,164,450z M164,382.667c0,5.667,2,10,5.667,13c4,3.667,8.667,5.333,14,5.333H644
	c16.333,0,30.667-6,42.333-17.333C698,372,703.667,358,703.667,341.333c0-16.333-5.667-30.333-17.334-42
	C674.667,287.667,660.667,282,644,282c-16.333,0-30.333,5.667-42.333,17c-3.667,4-5.334,9-5.334,14c0,5.333,1.667,10,5.334,13.333
	c3.666,3.333,8,5,13.333,5c5,0,9.667-1.667,13.667-5.333c4-4,9-6,15-6c5.666,0,11,2,15.333,6s6.667,9,6.667,15
	s-2.334,11.333-6.667,15.667s-9.333,6.667-15.333,6.667h-460c-5.333,0-10,2-14,5.667C166,372.667,164,377.333,164,382.667z M611,624
	c0,32,8.333,57.667,25,77s42,29,76.333,29c31.667,0,57.667-9.667,78.334-29c20.666-19.333,30.666-44.667,30.666-76
	c0-21.333-7.333-39-22.333-52.333c-15-13.334-33-20-55-20c-24.333,0-43.333,8.333-57.333,25H686c11-38.667,29.333-58,55-58
	c8.333,0,14.667,1.666,19.333,4.666c4,3,6.667,7.334,7.667,13.667h70.333c-0.333-10.333-2.666-19.667-6.333-28
	c-4-8.333-8.667-15.333-14.667-20.667c-6-5.333-13-10-21-13.333c-8-3.667-16.333-6-25-7.667C762.667,467,754,466,744.667,466
	c-20.667,0-39.334,4-56,12c-16.667,8-29.334,18-39,29.667c-9.334,11.666-17.334,25-23.667,40s-10.333,28.666-12.667,41
	C612,601.333,611,613,611,624z M679.333,639c0-12.333,4-21.667,12.334-28c8-6.333,17.333-9.667,27.333-9.667
	c6.333,0,11.667,1,16,2.667s7.667,4,10,6.333c2.333,2.334,4,5.334,5,9c1.333,3.667,2,6.334,2.333,8.334c0.334,2,0.334,4,0.334,6.333
	c0,10.333-3.667,19.333-10.667,26.333S725.333,671,713.667,671c-10.334,0-18.334-3-25-9
	C682.667,656.333,679.333,648.667,679.333,639z"/>
</svg>
