<?xml version="1.0" encoding="utf-8"?>
<!-- Generator: Adobe Illustrator 16.0.3, SVG Export Plug-In . SVG Version: 6.00 Build 0)  -->
<!DOCTYPE svg PUBLIC "-//W3C//DTD SVG 1.1//EN" "http://www.w3.org/Graphics/SVG/1.1/DTD/svg11.dtd">
<svg version="1.1" id="Layer_1" xmlns="http://www.w3.org/2000/svg" xmlns:xlink="http://www.w3.org/1999/xlink" x="0px" y="0px"
	 width="1000px" height="1000px" viewBox="0 0 1000 1000" enable-background="new 0 0 1000 1000" xml:space="preserve">
<path fill="#0E70A0" d="M169.667,450c0,6,2,10.333,5.667,13.333c4,3.667,8.667,5.667,14,5.667H536c6,0,11,2,15.333,6.333
	c4.334,4,6.667,9.334,6.667,15.334s-2.333,11.333-6.667,15.666C547,510.667,542,513,536,513s-11.333-2.333-15.667-7
	c-4.333-3.667-8.666-5.333-13.333-5.333c-5.333,0-10,1.666-13.667,5.333c-3.666,3.667-5.333,8-5.333,13c0,5.333,2,10,5.667,13.667
	c12,12,26,17.666,42.333,17.666s30.333-5.666,42-17.333s17.333-25.667,17.333-42.333c0-16.334-5.666-30.667-17.333-42.334
	c-11.667-11.666-25.667-17.666-42-17.666H189.333c-5.333,0-10,2-14,5.666C171.333,440.333,169.667,444.667,169.667,450z
	 M169.667,382.667c0,5.667,2,10,5.667,13c4,3.667,8.667,5.333,14,5.333h460.333c16.333,0,30.666-6,42.333-17.333
	C703.667,372,709.333,358,709.333,341.333c0-16.333-5.666-30.333-17.333-42C680.333,287.667,666.333,282,649.667,282
	c-16.334,0-30.334,5.667-42.334,17c-3.666,4-5.333,9-5.333,14c0,5.333,1.667,10,5.333,13.333c3.667,3.333,8,5,13.334,5
	c5,0,9.666-1.667,13.666-5.333c4-4,9-6,15-6c5.667,0,11,2,15.334,6c4.333,4,6.666,9,6.666,15s-2.333,11.333-6.666,15.667
	c-4.334,4.333-9.334,6.667-15.334,6.667h-460c-5.333,0-10,2-14,5.667S169.667,377.333,169.667,382.667z M606,658.667
	c0.667,13,3.667,24.333,9.333,34c5.667,9.666,13,17,22.334,22.333c9.333,5.333,19.333,9,30,11.333
	C678.333,728.667,690,730,702.333,730c19,0,36.334-3.667,51.667-10.667c15.667-7,28-16,37.667-27
	c9.666-11,17.666-23.333,24.333-37.666c6.667-14.334,11-28,13.667-41c2.666-13,4-26,4-38.334c0-35.333-9-62.333-27-81
	c-18-19-42-28.333-72.334-28.333c-31,0-57.333,9.333-78.666,28.333c-21.334,19-32.334,44-32.334,74.667c0,22,7,40,21,54
	s32,21,54.334,21c12,0,23.333-2.333,35-7.333c11.333-4.667,19.333-11,23.999-18h1.001c-4.001,16-10.334,29.333-19.334,40.666
	c-9,11.334-20.667,17-35.333,17c-9.667,0-16-1-19.667-3.333c-4-3.667-7-8.333-8-14H606V658.667z M691.667,562.667
	c0-10.334,3.333-19.334,9.666-27c6.334-7.667,16-11.334,28.667-11.334c11.333,0,20,3,25.667,8.667c6,5.667,9,14.333,9,25.333
	c0,3-0.667,6.667-2,10.334c-1.333,3.666-3.334,7.666-6,12c-2.667,4-6.667,7.666-12.334,10.333c-5.666,2.667-11.666,4-18.666,4
	s-13-1.333-18-3.667c-5-2.333-8.334-5.666-10.667-9.666s-3.667-7.334-4.667-10.334S691.667,565.333,691.667,562.667z"/>
</svg>
