<?xml version="1.0" encoding="utf-8"?>
<!-- Generator: Adobe Illustrator 16.0.3, SVG Export Plug-In . SVG Version: 6.00 Build 0)  -->
<!DOCTYPE svg PUBLIC "-//W3C//DTD SVG 1.1//EN" "http://www.w3.org/Graphics/SVG/1.1/DTD/svg11.dtd">
<svg version="1.1" id="Layer_1" xmlns="http://www.w3.org/2000/svg" xmlns:xlink="http://www.w3.org/1999/xlink" x="0px" y="0px"
	 width="1000px" height="1000px" viewBox="0 0 1000 1000" enable-background="new 0 0 1000 1000" xml:space="preserve">
<path fill="#0E70A0" d="M102.333,450c0,6,2,10.333,5.667,13.333C112,467,116.667,469,122,469h346.667c5.666,0,11,2,15.333,6.333
	c4.333,4,6.667,9.334,6.667,15.334S488.333,502,484,506.333c-4.333,4.334-9.333,6.667-15.333,6.667s-11.334-2.333-15.667-7
	c-4.333-3.667-8.667-5.333-13.333-5.333c-5.334,0-10,1.666-13.667,5.333s-5.333,8-5.333,13c0,5.333,2,10,5.666,13.667
	c12,12,26,17.666,42.667,17.666s30.333-5.666,42-17.333s17.333-25.667,17.333-42.333c0-16.334-5.666-30.667-17.333-42.334
	c-11.667-11.666-25.667-17.666-42-17.666H122c-5.333,0-10,2-14,5.666C104.333,440.333,102.333,444.667,102.333,450z
	 M102.333,382.667c0,5.667,2,10,5.667,13c4,3.667,8.667,5.333,14,5.333h460.333c16.334,0,30.667-6,42.334-17.333
	C636.333,372,642,358,642,341.333c0-16.333-5.667-30.333-17.333-42C613,287.667,599,282,582.333,282C566,282,552,287.667,540,299
	c-3.667,4-5.333,9-5.333,14c0,5.333,1.666,10,5.333,13.333c3.667,3.333,8,5,13.333,5c5,0,9.667-1.667,13.667-5.333c4-4,9-6,15-6
	c5.667,0,11,2,15.333,6c4.334,4,6.667,9,6.667,15s-2.333,11.333-6.667,15.667C593,361,588,363.333,582,363.333H122
	c-5.333,0-10,2-14,5.667C104.333,372.667,102.333,377.333,102.333,382.667z M532,730h82.333l55-266.333H587L532,730z M650.333,730
	H871l13.333-63.333H762V666c6.667-3,16.333-7.333,28.667-12.333c12.666-5,23-9.334,31.666-12.667
	c8.667-3.333,18-8.333,28.667-14.667C861.667,620,870.333,613.667,876.667,607c6.333-6.667,12-15,16.666-25
	c4.667-10,7-21.333,7-33.333c0-18.667-4.666-34-14.333-46.667s-21.667-21.333-36-26.667c-14.333-5.333-30.667-7.666-48.333-7.666
	c-32.334,0-58.667,8.666-79,26c-20.334,17.333-32.667,43-36.667,77h69c0-12.667,3.667-23,11-31.667s17.667-12.667,31-12.667
	c10,0,17.333,2.667,22.333,8c5,5.334,7.334,11.334,7.334,18.334c0,10.666-3.667,19.333-11,25.333c-7.334,6-21,14-41.667,24
	c-1.333,0.333-2.333,0.667-2.667,1.333c-29.666,14.334-48,23.334-55,27.667c-26.333,15.667-44.666,35.333-55,58
	C656,701,652.333,714.667,650.333,730z"/>
</svg>
