<?xml version="1.0" encoding="utf-8"?>
<!-- Generator: Adobe Illustrator 16.0.3, SVG Export Plug-In . SVG Version: 6.00 Build 0)  -->
<!DOCTYPE svg PUBLIC "-//W3C//DTD SVG 1.1//EN" "http://www.w3.org/Graphics/SVG/1.1/DTD/svg11.dtd">
<svg version="1.1" id="Layer_1" xmlns="http://www.w3.org/2000/svg" xmlns:xlink="http://www.w3.org/1999/xlink" x="0px" y="0px"
	 width="1000px" height="1000px" viewBox="0 0 1000 1000" enable-background="new 0 0 1000 1000" xml:space="preserve">
<path fill="#0E70A0" d="M165.667,450c0,6,2,10.333,5.667,13.333c4,3.667,8.667,5.667,14,5.667H532c6,0,11,2,15.333,6.333
	c4.334,4,6.667,9.334,6.667,15.334s-2.333,11.333-6.667,15.666C543,510.667,538,513,532,513s-11.333-2.333-15.667-7
	c-4.333-3.667-8.666-5.333-13.333-5.333c-5.333,0-10,1.666-13.667,5.333c-3.666,3.667-5.333,8-5.333,13c0,5.333,2,10,5.667,13.667
	c12,12,26,17.666,42.666,17.666c16.334,0,30.334-5.666,42-17.333c11.667-11.667,17.334-25.667,17.334-42.333
	c0-16.334-5.667-30.667-17.334-42.334c-11.666-11.666-25.666-17.666-42-17.666h-347c-5.333,0-10,2-14,5.666
	C167.667,440.333,165.667,444.667,165.667,450z M165.667,382.667c0,5.667,2,10,5.667,13c4,3.667,8.667,5.333,14,5.333h460.333
	c16.333,0,30.666-6,42.333-17.333C699.667,372,705.333,358,705.333,341.333c0-16.333-5.666-30.333-17.333-42
	C676.333,287.667,662.333,282,645.667,282c-16.334,0-30.334,5.667-42.334,17C600,303,598,307.667,598,312.667
	c0,5.333,1.667,10,5.333,13.333c3.667,3.333,8,5,13.334,5c5,0,9.666-1.667,13.666-5.333c4-4,9-6,15-6c5.667,0,11,2,15.334,6
	c4.333,4,6.666,9,6.666,15S665,352,660.667,356.333c-4.334,4.333-9.334,6.667-15.334,6.667h-460c-5.333,0-10,2-14,5.667
	C167.667,372.667,165.667,377.333,165.667,382.667z M601.333,646c-0.666,10.667,0.334,20.667,4,30.333
	c3.334,9.667,9,18.667,16.667,27c7.667,8.334,18.333,14.667,32.667,19.667c14,5,30.666,7.333,49.666,7.333
	c19.334,0,36.334-2.666,51-7.666c14.667-5,26.667-11.334,35-19c8.334-7.334,15-16.334,20.334-26.334c5.333-10,9-19,10.666-27.333
	C823,641.667,824,633.667,824,625.333c0-22.333-7-40.333-21.333-53.666c-14.334-13.334-32.667-20.334-55-20.334
	c-23,0-39.334,4.667-48.334,14.334h-0.666l11.666-34h115l13-62.667H663.667l-48.334,148.667H682c5.333-11.334,17.667-17,37-17
	c10.667,0,19.333,2.666,25.667,8.333c6.333,5.667,9.666,13.667,9.666,25s-4,20.333-11.666,27.333c-7.667,7-19,10.333-33.334,10.333
	c-10.333,0-18.666-1.999-24.333-5.666c-7-3.667-11-10.333-12-20H601.333L601.333,646z"/>
</svg>
