<?xml version="1.0" encoding="utf-8"?>
<!-- Generator: Adobe Illustrator 16.0.3, SVG Export Plug-In . SVG Version: 6.00 Build 0)  -->
<!DOCTYPE svg PUBLIC "-//W3C//DTD SVG 1.1//EN" "http://www.w3.org/Graphics/SVG/1.1/DTD/svg11.dtd">
<svg version="1.1" id="Layer_1" xmlns="http://www.w3.org/2000/svg" xmlns:xlink="http://www.w3.org/1999/xlink" x="0px" y="0px"
	 width="1000px" height="1000px" viewBox="0 0 1000 1000" enable-background="new 0 0 1000 1000" xml:space="preserve">
<path fill="#0E70A0" d="M167.667,450c0,6,2,10.333,5.667,13.333c4,3.667,8.667,5.667,14,5.667H534c5.667,0,11,2,15.333,6.333
	c4.334,4,6.667,9.334,6.667,15.334s-2.333,11.333-6.667,15.666C545,510.667,540,513,534,513s-11.333-2.333-15.667-7
	c-4-3.667-8.666-5.333-13.333-5.333c-5.333,0-10,1.666-13.667,5.333c-3.666,3.667-5.333,8-5.333,13c0,5.333,2,10,5.667,13.667
	c12,12,26,17.666,42.333,17.666s30.333-5.666,42-17.333s17.333-25.667,17.333-42.333c0-16.334-5.666-30.667-17.333-42.334
	c-11.667-11.666-25.667-17.666-42-17.666H187.333c-5.333,0-10,2-14,5.666C169.667,440.333,167.667,444.667,167.667,450z
	 M167.667,382.667c0,5.667,2,10,5.667,13c4,3.667,8.667,5.333,14,5.333h460.333c16.333,0,30.666-6,42.333-17.333
	C701.667,372,707.333,358,707.333,341.333c0-16.333-5.666-30.333-17.333-42C678.333,287.667,664.333,282,647.667,282
	c-16.334,0-30.334,5.667-42.334,17C602,303,600,307.667,600,312.667c0,5.333,1.667,10,5.333,13.333c3.667,3.333,8,5,13.334,5
	c5,0,9.666-1.667,13.666-5.333c4-4,9-6,15-6c5.667,0,11,2,15.334,6c4.333,4,6.666,9,6.666,15S667,352,662.667,356.333
	c-4.334,4.333-9.334,6.667-15.334,6.667h-460c-5.333,0-10,2-14,5.667C169.667,372.667,167.667,377.333,167.667,382.667z
	 M604,650.667c0,9,1.667,17.666,5.333,26.333c3.667,8.667,9,16.667,16.667,25c7.667,8,18.333,14.333,32,19.333
	s30,7.334,48.667,7.334c40.333,0,69.333-8,87.666-24c18.334-16,27.334-37.667,27.334-65c0-12-3.334-23-10-33
	c-6.667-10-15.667-15.667-26.334-17V589c14.334-2.667,26.334-9,35.667-19.333c9.333-10.334,14.333-23,14.333-37.334
	c0-10.333-2-19.333-5.666-27.333C826,497,821,490.667,815,485.667s-13-9-21.333-12.334c-8.334-3.333-16.667-5.333-25-6.666
	c-8.334-1.334-17.334-2-26.667-2c-30.667,0-56,7.333-76,22.333c-19.667,15-32,37.333-36.667,67H697
	c1.333-10.333,5.667-18.333,12.667-24s15.666-8.667,26-8.667c9.666,0,17,2,22.666,6c5.667,4,8.334,9.667,8.334,16.667
	c0,15.667-14,23.333-42.334,23.333h-15.666L699,614h14.667c22.666,0,34,7.667,34,23.333c0,10.334-3.667,18.334-11.334,24
	c-7.666,5.667-16.666,8.334-27.666,8.334c-12.667,0-22-3.667-27.667-11.334c-5.667-7-8-17-7-29.666h-69
	C604.333,635.333,604,642.333,604,650.667z"/>
</svg>
