<?xml version="1.0" encoding="utf-8"?>
<!-- Generator: Adobe Illustrator 16.0.3, SVG Export Plug-In . SVG Version: 6.00 Build 0)  -->
<!DOCTYPE svg PUBLIC "-//W3C//DTD SVG 1.1//EN" "http://www.w3.org/Graphics/SVG/1.1/DTD/svg11.dtd">
<svg version="1.1" id="Layer_1" xmlns="http://www.w3.org/2000/svg" xmlns:xlink="http://www.w3.org/1999/xlink" x="0px" y="0px"
	 width="1000px" height="1000px" viewBox="0 0 1000 1000" enable-background="new 0 0 1000 1000" xml:space="preserve">
<path fill="#0E70A0" d="M167,450c0,6,2,10.333,5.667,13.333c4,3.667,8.667,5.667,14,5.667h346.667c5.667,0,11,2,15.334,6.333
	c4.333,4,6.666,9.334,6.666,15.334S553,502,548.667,506.333c-4.334,4.334-9.334,6.667-15.334,6.667s-11.333-2.333-15.666-7
	c-4.334-3.667-8.667-5.333-13.334-5.333c-5.333,0-10,1.666-13.666,5.333c-3.667,3.667-5.334,8-5.334,13c0,5.333,2,10,5.667,13.667
	c12,12,26,17.666,42.667,17.666c16.666,0,30.333-5.666,42-17.333C587.333,521.333,593,507.333,593,490.667
	c0-16.334-5.667-30.667-17.333-42.334c-11.667-11.666-25.667-17.666-42-17.666h-347c-5.333,0-10,2-14,5.666
	C169,440.333,167,444.667,167,450z M167,382.667c0,5.667,2,10,5.667,13c4,3.667,8.667,5.333,14,5.333H647
	c16.333,0,30.667-6,42.333-17.333C701,372,706.667,358,706.667,341.333c0-16.333-5.667-30.333-17.334-42
	C677.667,287.667,663.667,282,647,282c-16.333,0-30.333,5.667-42.333,17c-3.667,4-5.334,9-5.334,14c0,5.333,1.667,10,5.334,13.333
	c3.666,3.333,8,5,13.333,5c5,0,9.667-1.667,13.667-5.333c4-4,9-6,15-6c5.666,0,11,2,15.333,6s6.667,9,6.667,15
	s-2.334,11.333-6.667,15.667s-9.333,6.667-15.333,6.667h-460c-5.333,0-10,2-14,5.667C169,372.667,167,377.333,167,382.667z M609,630
	c0,17.333,2.667,32.667,8,45.667s12.667,23.666,22,31.333s19.333,13.333,30.333,17.333c11,3.667,22.667,5.667,35,5.667
	c17,0,32.667-3,47-8.667c14.334-5.666,25.667-13.333,35-23c9-9.666,17-20.333,23.667-31.666c6.667-11.334,11.667-23.334,15-36
	c3.333-12.667,6-24,7.667-34.334c1.666-10.333,2.333-20,2.333-28.666c0-32.334-9-57.334-26.667-75C790.667,475,767,466,737.667,466
	c-16.334,0-32.334,4-47.667,11.667c-15.333,7.666-29,18.666-41,32.666s-21.667,31.334-28.667,52C612.667,583,609,605.667,609,630z
	 M677.333,632c0-5,0.334-11.333,1.334-19.333c1-7.667,2.666-17,5.333-27.667s6-20.667,10-29.667s9.667-16.666,17.333-23
	c7.334-6.333,15.667-9.666,25-9.666c9,0,16.334,3,21.667,8.666c5.333,5.667,7.667,14.667,7.667,26.334
	c0,32-5.667,59.333-16.667,81.666C738,661.667,724.333,673,708,673C687.667,673,677.333,659.333,677.333,632z"/>
</svg>
