<?xml version="1.0" encoding="utf-8"?>
<!-- Generator: Adobe Illustrator 16.0.3, SVG Export Plug-In . SVG Version: 6.00 Build 0)  -->
<!DOCTYPE svg PUBLIC "-//W3C//DTD SVG 1.1//EN" "http://www.w3.org/Graphics/SVG/1.1/DTD/svg11.dtd">
<svg version="1.1" id="Layer_1" xmlns="http://www.w3.org/2000/svg" xmlns:xlink="http://www.w3.org/1999/xlink" x="0px" y="0px"
	 width="1000px" height="1000px" viewBox="0 0 1000 1000" enable-background="new 0 0 1000 1000" xml:space="preserve">
<path fill="#0E70A0" d="M105,450c0,6,2,10.333,5.667,13.333c4,3.667,8.667,5.667,14,5.667h346.667c6,0,11,2,15.334,6.333
	c4.333,4,6.666,9.334,6.666,15.334S491,502,486.667,506.333c-4.334,4.334-9.334,6.667-15.334,6.667s-11.333-2.333-15.666-7
	c-4-3.667-8.667-5.333-13.334-5.333c-5.333,0-10,1.666-13.666,5.333c-3.667,3.667-5.334,8-5.334,13c0,5.333,2,10,5.667,13.667
	c12,12,26,17.666,42.333,17.666c16.334,0,30.334-5.666,42-17.333c11.667-11.667,17.334-25.667,17.334-42.333
	c0-16.334-5.667-30.667-17.334-42.334c-11.666-11.666-25.666-17.666-42-17.666H125c-5.333,0-10,2-14,5.666
	C107,440.333,105,444.667,105,450z M105,382.667c0,5.667,2,10,5.667,13c4,3.667,8.667,5.333,14,5.333H585
	c16.333,0,30.667-6,42.333-17.333C639,372,644.667,358,644.667,341.333c0-16.333-5.667-30.333-17.334-42
	C615.667,287.667,601.667,282,585,282c-16.333,0-30.333,5.667-42.333,17c-3.667,4-5.334,9-5.334,14c0,5.333,1.667,10,5.334,13.333
	c3.666,3.333,8,5,13.333,5c5,0,9.667-1.667,13.667-5.333c4-4,9-6,15-6c5.666,0,11,2,15.333,6s6.667,9,6.667,15
	s-2.334,11.333-6.667,15.667s-9.333,6.667-15.333,6.667H125c-5.333,0-10,2-14,5.667S105,377.333,105,382.667z M532.333,726.667h82
	L669,462h-81.667L532.333,726.667z M672,629.333c0,17.334,2.667,32.667,8,46c5.333,13.334,12.667,24,22,31.667
	c9,7.667,19.333,13.333,30,17.333S754.667,730,767,730c20.333,0,38.667-4,54.667-12.667c16-8.333,28.666-18.666,37.666-31
	C868.333,674,876,660,882,644.667C888,629,892,615,894.333,602.333c2-12.666,3-24.333,3-35c0-32.333-9-57.333-26.666-75
	c-17.667-17.666-41.334-26.666-71-26.666c-34.334,0-64.334,15.333-90,45.666C684.667,542,672,581.333,672,629.333z M740.333,632.667
	c0-5.334,0.334-11.667,1.334-19.667c1-7.667,2.666-17,5.333-28c2.667-10.667,6-20.667,10-30c4-9,9.667-16.667,17.333-23
	c7.334-6.333,15.667-9.667,25-9.667c9,0,16,3,21.667,9c5.333,6,8,14.667,8,26.334c0,32-5.667,59.333-16.667,81.666
	c-11,22.334-25,33.667-41,33.667C750.667,673,740.333,659.667,740.333,632.667z"/>
</svg>
