<?xml version="1.0" encoding="utf-8"?>
<!-- Generator: Adobe Illustrator 16.0.3, SVG Export Plug-In . SVG Version: 6.00 Build 0)  -->
<!DOCTYPE svg PUBLIC "-//W3C//DTD SVG 1.1//EN" "http://www.w3.org/Graphics/SVG/1.1/DTD/svg11.dtd">
<svg version="1.1" id="Layer_1" xmlns="http://www.w3.org/2000/svg" xmlns:xlink="http://www.w3.org/1999/xlink" x="0px" y="0px"
	 width="1000px" height="1000px" viewBox="0 0 1000 1000" enable-background="new 0 0 1000 1000" xml:space="preserve">
<path fill="#0E70A0" d="M166.333,450c0,6,2,10.333,5.667,13.333C176,467,180.667,469,186,469h346.667c6,0,11,2,15.333,6.333
	c4.333,4,6.667,9.334,6.667,15.334S552.333,502,548,506.333c-4.333,4.334-9.333,6.667-15.333,6.667s-11.334-2.333-15.667-7
	c-4.333-3.667-8.667-5.333-13.333-5.333c-5.334,0-10,1.666-13.667,5.333s-5.333,8-5.333,13c0,5.333,2,10,5.666,13.667
	c12,12,26,17.666,42.667,17.666c16.333,0,30.333-5.666,42-17.333s17.333-25.667,17.333-42.333c0-16.334-5.666-30.667-17.333-42.334
	c-11.667-11.666-25.667-17.666-42-17.666H186c-5.333,0-10,2-14,5.666C168.333,440.333,166.333,444.667,166.333,450z
	 M166.333,382.667c0,5.667,2,10,5.667,13c4,3.667,8.667,5.333,14,5.333h460.333c16.334,0,30.667-6,42.334-17.333
	C700.333,372,706,358,706,341.333c0-16.333-5.667-30.333-17.333-42C677,287.667,663,282,646.333,282C630,282,616,287.667,604,299
	c-3.667,4-5.333,9-5.333,14c0,5.333,1.666,10,5.333,13.333c3.667,3.333,8,5,13.333,5c5,0,9.667-1.667,13.667-5.333c4-4,9-6,15-6
	c5.667,0,11,2,15.333,6c4.334,4,6.667,9,6.667,15s-2.333,11.333-6.667,15.667C657,361,652,363.333,646,363.333H186
	c-5.333,0-10,2-14,5.667C168.333,372.667,166.333,377.333,166.333,382.667z M599.667,655.667c0,24.333,9.666,43,28.666,55.333
	c19,12.667,44.667,19,77,19c19.667,0,37.334-2,52.334-6c15.333-4,27-9,35.666-14.667c8.667-5.666,15.334-12.666,20.667-20.666
	s8.667-15.334,10.333-22C826,660,827,653.333,827,646.333c0-13.666-4-25.666-12-35.333c-8-10-18.333-16.333-31.333-19l0.666-1v0.333
	c15-2,27.334-8.666,37.334-20c9.666-11,14.666-24.333,14.666-39.666c0-12.667-3-23.667-8.666-32.667C822,490,814,483,804,478.667
	c-10-4.667-20.333-8-30.667-10c-10.333-2-21.666-3-33.666-3c-16,0-30,1.666-42.667,4.666s-23,7.334-31,12.334
	s-14.333,11-19.667,17.666c-5.333,6.667-9,13.334-11,20c-2,6.667-3,13.667-3,20.667c0,11.333,3,21.333,9,30s14.334,14.333,25,17.667
	v1c-18.666,2-34.666,9-47.333,20.333C606,622.333,599.667,637.333,599.667,655.667z M670,648c0-11.667,4.667-20.333,14-25.667
	c9.333-5.333,20.667-8,33.667-8c13.666,0,23.333,3,29.666,9.334c6,6,9.334,12.666,9.334,20V648c0,9.333-4.334,16.333-12.667,21.333
	c-8.333,4.667-19.333,7.334-32.333,7.334l1-0.334c-4.667,0-9-0.333-13.334-1c-4.333-0.666-9-2-13.666-3.666
	c-4.667-2-8.334-4.667-11.334-8.667C671.667,658.667,670,653.667,670,648z M695.333,545.667c0-10.667,4-18.334,12.334-23
	c8.333-4.667,18.333-7.334,30-7.334c10,0,18.333,2.334,25.333,6.667s10.333,11.667,10.333,21c0,2.333-0.666,5-1.666,7.667
	c-1,2.666-3,5.666-5.667,9c-2.667,3.333-7,6-13,8s-13.333,3-22,3c-13.333,0-22.667-2.667-28-7.667
	C698,558.333,695.333,552.333,695.333,545.667z"/>
</svg>
