<?xml version="1.0" encoding="utf-8"?>
<!-- Generator: Adobe Illustrator 16.0.3, SVG Export Plug-In . SVG Version: 6.00 Build 0)  -->
<!DOCTYPE svg PUBLIC "-//W3C//DTD SVG 1.1//EN" "http://www.w3.org/Graphics/SVG/1.1/DTD/svg11.dtd">
<svg version="1.1" id="Layer_1" xmlns="http://www.w3.org/2000/svg" xmlns:xlink="http://www.w3.org/1999/xlink" x="0px" y="0px"
	 width="1000px" height="1000px" viewBox="0 0 1000 1000" enable-background="new 0 0 1000 1000" xml:space="preserve">
<path fill="#0E70A0" d="M164.667,450c0,6,2,10.333,5.667,13.333c4,3.667,8.667,5.667,14,5.667H531c5.667,0,11,2,15.333,6.333
	c4.334,4,6.667,9.334,6.667,15.334s-2.333,11.333-6.667,15.666C542,510.667,537,513,531,513s-11.333-2.333-15.667-7
	c-4-3.667-8.666-5.333-13.333-5.333c-5.333,0-10,1.666-13.667,5.333c-3.666,3.667-5.333,8-5.333,13c0,5.333,2,10,5.667,13.667
	c12,12,26,17.666,42.333,17.666s30.333-5.666,42-17.333s17.333-25.667,17.333-42.333c0-16.334-5.666-30.667-17.333-42.334
	c-11.667-11.666-25.667-17.666-42-17.666H184.333c-5.333,0-10,2-14,5.666C166.333,440.333,164.667,444.667,164.667,450z
	 M164.667,382.667c0,5.667,2,10,5.667,13c4,3.667,8.667,5.333,14,5.333h460.333c16.333,0,30.666-6,42.333-17.333
	C698.667,372,704.333,358,704.333,341.333c0-16.333-5.666-30.333-17.333-42C675.333,287.667,661.333,282,644.667,282
	c-16.334,0-30.334,5.667-42.334,17c-3.666,4-5.333,9-5.333,14c0,5.333,1.667,10,5.333,13.333c3.667,3.333,8,5,13.334,5
	c5,0,9.666-1.667,13.666-5.333c4-4,9-6,15.334-6c5.666,0,11,2,15.333,6s6.667,9,6.667,15s-2.334,11.333-6.667,15.667
	c-4.333,4.333-9.333,6.667-15.333,6.667H184.333c-5.333,0-10,2-14,5.667S164.667,377.333,164.667,382.667z M588.667,728.333h220.666
	l13.334-63H700v-1c6.667-3,16.333-7.333,28.667-12.333c12.666-5,23-9.333,31.666-12.667c8.667-3.333,18.334-8.333,29-14.666
	c10.667-6.334,19-12.667,25.667-19c6.333-6.334,12-14.667,16.667-25c4.666-10.334,7-21.334,7-33.334
	c0-18.666-4.667-34-14.334-46.666c-9.666-12.667-21.666-21.667-36-27c-14.333-5.334-30.666-8-48.333-8
	c-32.333,0-58.667,8.666-79.333,26C640,509,628,534.667,624,568.667h69.667c0-12.334,3.666-22.667,10.666-31.334
	c7.334-8.666,17.334-12.666,30.334-12.666c10,0,17.333,2.666,22.333,8c5,5.333,7.667,11.333,7.667,18c0,4-0.334,7.666-1,10.666
	c-0.667,3-2.334,6.334-5,9.334c-2.667,3-5,5.333-7,7.333s-5.667,4.333-11.334,7.667c-5.666,3-10,5.666-13.333,7.333
	s-9,4.333-17.667,8.333C680,615.667,661.667,625,654.667,629c-26.667,16-45,35.667-55.334,59.333
	C594,700.333,590.333,713.667,588.667,728.333z"/>
</svg>
