<?xml version="1.0" encoding="utf-8"?>
<!-- Generator: Adobe Illustrator 16.0.3, SVG Export Plug-In . SVG Version: 6.00 Build 0)  -->
<!DOCTYPE svg PUBLIC "-//W3C//DTD SVG 1.1//EN" "http://www.w3.org/Graphics/SVG/1.1/DTD/svg11.dtd">
<svg version="1.1" id="Layer_1" xmlns="http://www.w3.org/2000/svg" xmlns:xlink="http://www.w3.org/1999/xlink" x="0px" y="0px"
	 width="1000px" height="1000px" viewBox="0 0 1000 1000" enable-background="new 0 0 1000 1000" xml:space="preserve">
<path fill="#0E70A0" d="M155,516.667c0-7.334,2.667-13.667,7.667-18.667c5.333-5,11.667-7.333,19-7.333h402.667
	c7.334,0,13.334,2.333,18,7.333c4.667,5,7.334,11.333,7.334,19c0,7.333-2.334,13.333-7.334,18c-4.666,4.667-10.666,7.333-18,7.333
	H181.667c-7.333,0-14-2.333-19-7.333C157.333,530,155,524,155,516.667z M235.333,420c0-7.333,2.667-13.333,7.667-18.333
	S254.333,394,261.667,394h403c7,0,13,2.667,18,7.667S690,412.667,690,420s-2.333,13.333-7.333,18.667c-5,5-11,7.666-18,7.666H262
	c-7.333,0-13.667-2.666-18.667-7.666S235.333,427.333,235.333,420z M289.333,611.333c0-7,2.667-13,8-18
	C302,588.667,308,586,315.333,586h403.334c7.333,0,13.666,2.333,18.666,7.333c5,4.667,7.334,10.667,7.334,18
	C744.667,618.667,742,625,737,630s-11.333,7.667-18.667,7.667h-403C308,637.667,302,635,296.667,630
	C291.333,625,289.333,618.667,289.333,611.333z M642,516.667c0-7.667,2.333-14,7.333-19s11.334-7.334,19-7.334H819
	c7.667,0,14,2.334,19,7.334s7.333,11.333,7.333,18.666c0,7.334-2.333,13.334-7.333,18c-5,4.667-11.333,7.334-18.667,7.334H668.667
	c-7.667,0-14-2.334-19-7.334C644.333,530,642,524,642,516.667z"/>
</svg>
